<svg width="19" height="22" viewBox="0 0 19 22" fill="none" xmlns="http://www.w3.org/2000/svg">
<path fill-rule="evenodd" clip-rule="evenodd" d="M9.3456 5.9213C11.3091 5.9213 12.903 7.5152 12.903 9.4743C12.903 11.4345 11.3091 13.0284 9.3456 13.0284C7.3865 13.0284 5.7882 11.4345 5.7882 9.4743C5.7882 9.0233 6.1578 8.6537 6.6088 8.6537C7.0642 8.6537 7.4294 9.0233 7.4294 9.4743C7.4294 10.5314 8.2885 11.3916 9.3456 11.3916C10.4027 11.3916 11.2618 10.5314 11.2618 9.4743C11.2618 8.4216 10.4027 7.5625 9.3456 7.5625C8.8946 7.5625 8.525 7.1929 8.525 6.7419C8.525 6.2865 8.8946 5.9213 9.3456 5.9213ZM9.3885 0C14.5409 0.022 18.7209 4.2284 18.7 9.3753V9.4787C18.6307 13.1571 16.4186 16.2085 14.575 18.1247C14.0503 18.6703 13.4926 19.1939 12.9162 19.6845C12.573 19.976 12.0527 19.9375 11.7601 19.5943C11.4642 19.2456 11.5071 18.7308 11.8503 18.4382C12.3838 17.9828 12.903 17.4933 13.3936 16.9862C15.0304 15.2845 16.9983 12.5939 17.0588 9.449C17.0753 5.126 13.6301 1.6544 9.3797 1.6368H9.35C5.1128 1.6368 1.6588 5.0743 1.6412 9.3071C1.7149 11.3993 2.4233 13.3848 3.6872 15.0568C5.1645 17.0247 7.4074 19.1037 9.5392 20.4919C9.9176 20.7416 10.0243 21.2487 9.7801 21.626C9.6206 21.8669 9.3588 22 9.0882 22C8.9375 22 8.7824 21.9571 8.6405 21.8669C6.3591 20.3841 3.9578 18.15 2.376 16.0402C0.9064 14.1064 0.0858 11.7953 0 9.3632C0.022 4.1635 4.2108 0 9.35 0H9.3885Z" fill="black"/>
</svg>
