<svg width="23" height="26" viewBox="0 0 23 26" fill="none" xmlns="http://www.w3.org/2000/svg">
<mask id="mask0_0_251" style="mask-type:luminance" maskUnits="userSpaceOnUse" x="0" y="6" width="22" height="21">
<path fill-rule="evenodd" clip-rule="evenodd" d="M0.000244141 6.26373H21.1719V26.0017H0.000244141V6.26373Z" fill="white"/>
</mask>
<g mask="url(#mask0_0_251)">
<path fill-rule="evenodd" clip-rule="evenodd" d="M17.6814 13.8125C17.6489 10.5252 20.3659 8.93753 20.4878 8.86766C18.9636 6.62678 16.5829 6.32291 15.7331 6.28391C13.7083 6.08078 11.7843 7.47828 10.7557 7.47828C9.73518 7.47828 8.14756 6.31641 6.46568 6.34728C4.25568 6.37978 2.22443 7.62941 1.08856 9.61028C-1.20269 13.5834 0.498683 19.4805 2.73956 22.7062C3.82506 24.2857 5.13318 26.0634 6.83943 26C8.49043 25.9302 9.11281 24.934 11.0986 24.934C13.0924 24.934 13.6514 26 15.3902 25.9627C17.1614 25.9302 18.2843 24.3555 19.3698 22.776C20.6259 20.9414 21.1411 19.1637 21.1719 19.0743C21.1346 19.0564 17.7188 17.7483 17.6814 13.8125" fill="#1D1D1B"/>
</g>
<path fill-rule="evenodd" clip-rule="evenodd" d="M14.4125 4.15218C15.3209 3.05368 15.9302 1.52456 15.758 0.000305176C14.4499 0.0506802 12.8704 0.87618 11.9311 1.96818C11.0861 2.94481 10.35 4.50156 10.5531 5.99331C12.0124 6.10706 13.4992 5.24905 14.4125 4.15218Z" fill="#1D1D1B"/>
</svg>
