<svg width="184" height="128" viewBox="0 0 184 128" fill="none" xmlns="http://www.w3.org/2000/svg">
<path d="M8.296 26V13.112H12.904C13.564 13.112 14.17 13.214 14.722 13.418C15.286 13.622 15.772 13.91 16.18 14.282C16.588 14.642 16.906 15.08 17.134 15.596C17.362 16.112 17.476 16.682 17.476 17.306C17.476 17.93 17.362 18.5 17.134 19.016C16.906 19.532 16.588 19.976 16.18 20.348C15.772 20.708 15.286 20.99 14.722 21.194C14.17 21.398 13.564 21.5 12.904 21.5H11.104V26H8.296ZM12.994 18.836C13.582 18.836 14.02 18.692 14.308 18.404C14.596 18.116 14.74 17.75 14.74 17.306C14.74 16.862 14.596 16.496 14.308 16.208C14.02 15.92 13.582 15.776 12.994 15.776H11.104V18.836H12.994ZM25.3922 26.288C24.4202 26.288 23.5202 26.114 22.6922 25.766C21.8642 25.418 21.1442 24.944 20.5322 24.344C19.9322 23.732 19.4582 23.018 19.1102 22.202C18.7742 21.386 18.6062 20.504 18.6062 19.556C18.6062 18.608 18.7742 17.726 19.1102 16.91C19.4582 16.094 19.9322 15.386 20.5322 14.786C21.1442 14.174 21.8642 13.694 22.6922 13.346C23.5202 12.998 24.4202 12.824 25.3922 12.824C26.3642 12.824 27.2642 12.998 28.0922 13.346C28.9202 13.694 29.6342 14.174 30.2342 14.786C30.8462 15.386 31.3202 16.094 31.6562 16.91C32.0042 17.726 32.1782 18.608 32.1782 19.556C32.1782 20.504 32.0042 21.386 31.6562 22.202C31.3202 23.018 30.8462 23.732 30.2342 24.344C29.6342 24.944 28.9202 25.418 28.0922 25.766C27.2642 26.114 26.3642 26.288 25.3922 26.288ZM25.3922 23.624C25.9442 23.624 26.4602 23.528 26.9402 23.336C27.4322 23.144 27.8582 22.868 28.2182 22.508C28.5782 22.148 28.8602 21.722 29.0642 21.23C29.2682 20.726 29.3702 20.168 29.3702 19.556C29.3702 18.944 29.2682 18.392 29.0642 17.9C28.8602 17.396 28.5782 16.964 28.2182 16.604C27.8582 16.244 27.4322 15.968 26.9402 15.776C26.4602 15.584 25.9442 15.488 25.3922 15.488C24.8282 15.488 24.3062 15.584 23.8262 15.776C23.3462 15.968 22.9262 16.244 22.5662 16.604C22.2062 16.964 21.9242 17.396 21.7202 17.9C21.5162 18.392 21.4142 18.944 21.4142 19.556C21.4142 20.168 21.5162 20.726 21.7202 21.23C21.9242 21.722 22.2062 22.148 22.5662 22.508C22.9262 22.868 23.3462 23.144 23.8262 23.336C24.3062 23.528 24.8282 23.624 25.3922 23.624ZM33.1587 13.112H36.1467L37.9287 19.862L38.2347 21.41H38.4147L38.7927 19.862L40.3587 14.84H42.9867L44.5707 19.862L44.9307 21.374H45.1107L45.3807 19.862L47.0547 13.112H50.0427L46.6407 26H43.9767L42.1407 20.348L41.7627 18.8H41.5827L41.2047 20.348L39.3687 26H36.7047L33.1587 13.112ZM54.6298 15.776V18.224H59.7418V20.888H54.6298V23.336H60.3178V26H51.8218V13.112H60.3178V15.776H54.6298ZM62.7444 13.112H67.6044C68.3004 13.112 68.9244 13.22 69.4764 13.436C70.0284 13.64 70.4904 13.928 70.8624 14.3C71.2464 14.672 71.5344 15.116 71.7264 15.632C71.9304 16.136 72.0324 16.688 72.0324 17.288C72.0324 17.708 71.9604 18.098 71.8164 18.458C71.6844 18.818 71.4984 19.154 71.2584 19.466C71.0304 19.766 70.7604 20.036 70.4484 20.276C70.1364 20.504 69.8004 20.696 69.4404 20.852V21.014L72.8064 25.82V26H69.6024L66.3444 21.356H65.5524V26H62.7444V13.112ZM67.6044 18.764C68.1084 18.764 68.5044 18.62 68.7924 18.332C69.0804 18.032 69.2244 17.666 69.2244 17.234C69.2244 16.802 69.0864 16.442 68.8104 16.154C68.5464 15.854 68.1444 15.704 67.6044 15.704H65.5524V18.764H67.6044ZM83.1212 26.288C82.3412 26.288 81.6332 26.168 80.9972 25.928C80.3612 25.676 79.8212 25.31 79.3772 24.83C78.9332 24.35 78.5912 23.768 78.3512 23.084C78.1112 22.388 77.9912 21.596 77.9912 20.708V13.112H80.7992V20.888C80.7992 21.68 80.9972 22.334 81.3932 22.85C81.7892 23.366 82.3652 23.624 83.1212 23.624C83.8772 23.624 84.4532 23.366 84.8492 22.85C85.2452 22.334 85.4432 21.68 85.4432 20.888V13.112H88.2512V20.708C88.2512 21.524 88.1312 22.274 87.8912 22.958C87.6512 23.642 87.3092 24.23 86.8652 24.722C86.4212 25.214 85.8812 25.598 85.2452 25.874C84.6092 26.15 83.9012 26.288 83.1212 26.288ZM90.7487 26V13.112H95.3567C96.0167 13.112 96.6227 13.214 97.1747 13.418C97.7387 13.622 98.2247 13.91 98.6327 14.282C99.0407 14.642 99.3587 15.08 99.5867 15.596C99.8147 16.112 99.9287 16.682 99.9287 17.306C99.9287 17.93 99.8147 18.5 99.5867 19.016C99.3587 19.532 99.0407 19.976 98.6327 20.348C98.2247 20.708 97.7387 20.99 97.1747 21.194C96.6227 21.398 96.0167 21.5 95.3567 21.5H93.5567V26H90.7487ZM95.4467 18.836C96.0347 18.836 96.4727 18.692 96.7607 18.404C97.0487 18.116 97.1927 17.75 97.1927 17.306C97.1927 16.862 97.0487 16.496 96.7607 16.208C96.4727 15.92 96.0347 15.776 95.4467 15.776H93.5567V18.836H95.4467ZM104.291 13.112H107.279L109.061 19.862L109.367 21.41H109.547L109.925 19.862L111.491 14.84H114.119L115.703 19.862L116.063 21.374H116.243L116.513 19.862L118.187 13.112H121.175L117.773 26H115.109L113.273 20.348L112.895 18.8H112.715L112.337 20.348L110.501 26H107.837L104.291 13.112ZM122.954 13.112H125.762V26H122.954V13.112ZM131.287 26V15.776H127.687V13.112H137.695V15.776H134.095V26H131.287ZM139.614 13.112H142.422V18.08H147.354V13.112H150.162V26H147.354V20.744H142.422V26H139.614V13.112Z" fill="#472D2D"/>
<path d="M16.729 41.513C16.729 42.1417 16.5757 42.6477 16.269 43.031C15.9777 43.4143 15.602 43.7057 15.142 43.905C14.6973 44.1043 14.199 44.2347 13.647 44.296C13.1103 44.3573 12.5967 44.388 12.106 44.388H10.979V50H7.483V33.946H12.106C12.5967 33.946 13.1103 33.9767 13.647 34.038C14.199 34.0993 14.6973 34.2297 15.142 34.429C15.602 34.613 15.9777 34.8967 16.269 35.28C16.5757 35.648 16.729 36.154 16.729 36.798V41.352V41.513ZM12.106 41.858C12.5353 41.858 12.8267 41.7737 12.98 41.605C13.1487 41.421 13.233 41.1067 13.233 40.662V37.419C13.233 36.9743 13.1487 36.6753 12.98 36.522C12.8267 36.3533 12.5353 36.269 12.106 36.269H10.979V41.858H12.106ZM24.3212 50.023V46.849C24.3212 46.0977 24.1525 45.5917 23.8152 45.331C23.4932 45.055 22.8952 44.9247 22.0212 44.94V50.023H18.5252V33.946H23.1482C23.6389 33.946 24.1525 33.9767 24.6892 34.038C25.2259 34.0993 25.7165 34.2373 26.1612 34.452C26.6212 34.6513 26.9969 34.9427 27.2882 35.326C27.5949 35.694 27.7482 36.2 27.7482 36.844V41.697C27.7482 42.0957 27.6639 42.4867 27.4952 42.87C27.3265 43.238 27.0199 43.4603 26.5752 43.537C26.7132 43.5983 26.8512 43.6827 26.9892 43.79C27.1425 43.882 27.2729 44.02 27.3802 44.204C27.4875 44.388 27.5719 44.6257 27.6332 44.917C27.7099 45.2083 27.7482 45.5687 27.7482 45.998V50.023H24.3212ZM24.3212 37.81C24.3212 37.3653 24.2292 37.0587 24.0452 36.89C23.8612 36.706 23.5622 36.614 23.1482 36.614H22.0212V41.835C23.5545 41.835 24.3212 41.3827 24.3212 40.478V37.81ZM29.5 37.051C29.5 36.315 29.7223 35.7017 30.167 35.211C30.627 34.705 31.1943 34.3293 31.869 34.084C32.559 33.8233 33.295 33.6853 34.077 33.67C34.8743 33.6547 35.6103 33.7697 36.285 34.015C36.975 34.2603 37.55 34.6283 38.01 35.119C38.47 35.6097 38.7 36.2307 38.7 36.982V46.78C38.7 47.5313 38.47 48.1523 38.01 48.643C37.55 49.1337 36.975 49.5017 36.285 49.747C35.6103 49.9923 34.8743 50.1073 34.077 50.092C33.295 50.092 32.559 49.9693 31.869 49.724C31.1943 49.4633 30.627 49.0877 30.167 48.597C29.7223 48.091 29.5 47.47 29.5 46.734V37.051ZM32.973 46.297C32.973 46.6803 33.088 46.9717 33.318 47.171C33.5633 47.3703 33.824 47.47 34.1 47.47C34.3913 47.47 34.652 47.378 34.882 47.194C35.1273 46.9947 35.25 46.688 35.25 46.274V37.672C35.25 37.2733 35.1273 36.9743 34.882 36.775C34.652 36.5757 34.3913 36.4837 34.1 36.499C33.824 36.499 33.5633 36.5987 33.318 36.798C33.088 36.9973 32.973 37.2887 32.973 37.672V46.297ZM42.7748 50V36.476H40.4978V33.946H48.4328V36.476H46.2248V50H42.7748ZM57.0442 50.023H50.2592V33.946H57.0442V36.499H53.6632V40.317H55.8942V43.1H53.6632V47.493H57.0442V50.023ZM62.2582 50.023H58.8082V33.946H62.2582V50.023ZM74.406 50.023H71.025L67.414 41.605V50.023H64.033V33.946H67.414L71.025 42.686V33.946H74.406V50.023ZM93.1173 41.513C93.1173 42.1417 92.9639 42.6477 92.6573 43.031C92.3659 43.4143 91.9903 43.7057 91.5303 43.905C91.0856 44.1043 90.5873 44.2347 90.0353 44.296C89.4986 44.3573 88.9849 44.388 88.4943 44.388H87.3673V50H83.8713V33.946H88.4943C88.9849 33.946 89.4986 33.9767 90.0353 34.038C90.5873 34.0993 91.0856 34.2297 91.5303 34.429C91.9903 34.613 92.3659 34.8967 92.6573 35.28C92.9639 35.648 93.1173 36.154 93.1173 36.798V41.352V41.513ZM88.4943 41.858C88.9236 41.858 89.2149 41.7737 89.3683 41.605C89.537 41.421 89.6213 41.1067 89.6213 40.662V37.419C89.6213 36.9743 89.537 36.6753 89.3683 36.522C89.2149 36.3533 88.9236 36.269 88.4943 36.269H87.3673V41.858H88.4943ZM94.9135 37.051C94.9135 36.315 95.1358 35.7017 95.5805 35.211C96.0405 34.705 96.6078 34.3293 97.2825 34.084C97.9725 33.8233 98.7085 33.6853 99.4905 33.67C100.288 33.6547 101.024 33.7697 101.698 34.015C102.388 34.2603 102.963 34.6283 103.423 35.119C103.883 35.6097 104.113 36.2307 104.113 36.982V46.78C104.113 47.5313 103.883 48.1523 103.423 48.643C102.963 49.1337 102.388 49.5017 101.698 49.747C101.024 49.9923 100.288 50.1073 99.4905 50.092C98.7085 50.092 97.9725 49.9693 97.2825 49.724C96.6078 49.4633 96.0405 49.0877 95.5805 48.597C95.1358 48.091 94.9135 47.47 94.9135 46.734V37.051ZM98.3865 46.297C98.3865 46.6803 98.5015 46.9717 98.7315 47.171C98.9768 47.3703 99.2375 47.47 99.5135 47.47C99.8048 47.47 100.065 47.378 100.295 47.194C100.541 46.9947 100.663 46.688 100.663 46.274V37.672C100.663 37.2733 100.541 36.9743 100.295 36.775C100.065 36.5757 99.8048 36.4837 99.5135 36.499C99.2375 36.499 98.9768 36.5987 98.7315 36.798C98.5015 36.9973 98.3865 37.2887 98.3865 37.672V46.297ZM112.972 33.946H113.018H116.077H116.169L118.17 44.181L120.148 33.946H123.253L119.826 50.023H116.399L114.559 41.927L112.696 50.023H109.292L105.888 33.946H108.97L110.994 44.181L112.972 33.946ZM131.779 50.023H124.994V33.946H131.779V36.499H128.398V40.317H130.629V43.1H128.398V47.493H131.779V50.023ZM139.339 50.023V46.849C139.339 46.0977 139.17 45.5917 138.833 45.331C138.511 45.055 137.913 44.9247 137.039 44.94V50.023H133.543V33.946H138.166C138.657 33.946 139.17 33.9767 139.707 34.038C140.244 34.0993 140.734 34.2373 141.179 34.452C141.639 34.6513 142.015 34.9427 142.306 35.326C142.613 35.694 142.766 36.2 142.766 36.844V41.697C142.766 42.0957 142.682 42.4867 142.513 42.87C142.344 43.238 142.038 43.4603 141.593 43.537C141.731 43.5983 141.869 43.6827 142.007 43.79C142.16 43.882 142.291 44.02 142.398 44.204C142.505 44.388 142.59 44.6257 142.651 44.917C142.728 45.2083 142.766 45.5687 142.766 45.998V50.023H139.339ZM139.339 37.81C139.339 37.3653 139.247 37.0587 139.063 36.89C138.879 36.706 138.58 36.614 138.166 36.614H137.039V41.835C138.572 41.835 139.339 41.3827 139.339 40.478V37.81Z" fill="#F16522"/>
<path d="M14.866 77.416C13.7393 77.416 12.7167 77.2427 11.798 76.896C10.8793 76.532 10.0993 76.0033 9.458 75.31C8.81667 74.6167 8.32267 73.776 7.976 72.788C7.62933 71.7827 7.456 70.6387 7.456 69.356V58.384H11.512V69.616C11.512 70.76 11.798 71.7047 12.37 72.45C12.942 73.1953 13.774 73.568 14.866 73.568C15.958 73.568 16.79 73.1953 17.362 72.45C17.934 71.7047 18.22 70.76 18.22 69.616V58.384H22.276V69.356C22.276 70.5347 22.1027 71.618 21.756 72.606C21.4093 73.594 20.9153 74.4433 20.274 75.154C19.6327 75.8647 18.8527 76.4193 17.934 76.818C17.0153 77.2167 15.9927 77.416 14.866 77.416ZM28.7147 65.664H28.9747C29.2693 65.1613 29.72 64.7367 30.3267 64.39C30.9507 64.026 31.7307 63.844 32.6667 63.844C33.4813 63.844 34.2613 64.0087 35.0067 64.338C35.752 64.6673 36.402 65.1353 36.9567 65.742C37.5287 66.3313 37.9793 67.042 38.3087 67.874C38.638 68.706 38.8027 69.6247 38.8027 70.63C38.8027 71.6353 38.638 72.554 38.3087 73.386C37.9793 74.218 37.5287 74.9373 36.9567 75.544C36.402 76.1333 35.752 76.5927 35.0067 76.922C34.2613 77.2513 33.4813 77.416 32.6667 77.416C31.7307 77.416 30.9507 77.2427 30.3267 76.896C29.72 76.532 29.2693 76.0987 28.9747 75.596H28.7147L28.9747 77.416V82.616H25.0747V64.26H28.7147V65.664ZM31.8087 67.484C31.3927 67.484 30.994 67.562 30.6127 67.718C30.2487 67.8567 29.9193 68.0647 29.6247 68.342C29.3473 68.6193 29.122 68.9487 28.9487 69.33C28.7927 69.7113 28.7147 70.1447 28.7147 70.63C28.7147 71.1153 28.7927 71.5573 28.9487 71.956C29.122 72.3373 29.3473 72.6667 29.6247 72.944C29.9193 73.204 30.2487 73.412 30.6127 73.568C30.994 73.7067 31.3927 73.776 31.8087 73.776C32.2247 73.776 32.6147 73.7067 32.9787 73.568C33.36 73.412 33.6893 73.204 33.9667 72.944C34.2613 72.6667 34.4867 72.3373 34.6427 71.956C34.816 71.5573 34.9027 71.1153 34.9027 70.63C34.9027 70.1447 34.816 69.7113 34.6427 69.33C34.4867 68.9487 34.2613 68.6193 33.9667 68.342C33.6893 68.0647 33.36 67.8567 32.9787 67.718C32.6147 67.562 32.2247 67.484 31.8087 67.484ZM41.8932 67.536H39.6572V64.26H41.8932V60.36H45.7932V64.26H48.9392V67.536H45.7932V71.826C45.7932 72.1033 45.8279 72.3633 45.8972 72.606C45.9665 72.8313 46.0879 73.022 46.2612 73.178C46.5212 73.4033 46.8592 73.516 47.2752 73.516C47.5525 73.516 47.7865 73.4813 47.9772 73.412C48.1679 73.3427 48.3325 73.256 48.4712 73.152L49.5632 76.532C49.1125 76.74 48.6272 76.9047 48.1072 77.026C47.5872 77.1473 47.0325 77.208 46.4432 77.208C45.0739 77.208 43.9905 76.8093 43.1932 76.012C42.7772 75.596 42.4565 75.0847 42.2312 74.478C42.0059 73.854 41.8932 73.1693 41.8932 72.424V67.536ZM57.5432 63.844C58.5312 63.844 59.4412 64.0173 60.2732 64.364C61.1225 64.6933 61.8505 65.1613 62.4572 65.768C63.0812 66.3573 63.5578 67.068 63.8872 67.9C64.2338 68.732 64.4072 69.642 64.4072 70.63C64.4072 71.618 64.2338 72.528 63.8872 73.36C63.5578 74.192 63.0812 74.9113 62.4572 75.518C61.8505 76.1073 61.1225 76.5753 60.2732 76.922C59.4412 77.2513 58.5312 77.416 57.5432 77.416C56.5552 77.416 55.6365 77.2513 54.7872 76.922C53.9552 76.5753 53.2272 76.1073 52.6032 75.518C51.9965 74.9113 51.5198 74.192 51.1732 73.36C50.8438 72.528 50.6792 71.618 50.6792 70.63C50.6792 69.642 50.8438 68.732 51.1732 67.9C51.5198 67.068 51.9965 66.3573 52.6032 65.768C53.2272 65.1613 53.9552 64.6933 54.7872 64.364C55.6365 64.0173 56.5552 63.844 57.5432 63.844ZM57.5432 73.776C57.9418 73.776 58.3145 73.7067 58.6612 73.568C59.0252 73.412 59.3458 73.204 59.6232 72.944C59.9005 72.6667 60.1172 72.3373 60.2732 71.956C60.4292 71.5573 60.5072 71.1153 60.5072 70.63C60.5072 70.1447 60.4292 69.7113 60.2732 69.33C60.1172 68.9487 59.9005 68.6193 59.6232 68.342C59.3458 68.0647 59.0252 67.8567 58.6612 67.718C58.3145 67.562 57.9418 67.484 57.5432 67.484C57.1445 67.484 56.7632 67.562 56.3992 67.718C56.0525 67.8567 55.7405 68.0647 55.4632 68.342C55.1858 68.6193 54.9692 68.9487 54.8132 69.33C54.6572 69.7113 54.5792 70.1447 54.5792 70.63C54.5792 71.1153 54.6572 71.5573 54.8132 71.956C54.9692 72.3373 55.1858 72.6667 55.4632 72.944C55.7405 73.204 56.0525 73.412 56.3992 73.568C56.7632 73.7067 57.1445 73.776 57.5432 73.776ZM78.3617 77.416C77.651 77.416 76.949 77.3207 76.2557 77.13C75.5623 76.9393 74.921 76.6447 74.3317 76.246C73.7597 75.8473 73.257 75.3447 72.8237 74.738C72.3903 74.1313 72.0783 73.4207 71.8877 72.606L75.4497 71.228C75.623 72.0427 75.9523 72.684 76.4377 73.152C76.923 73.6027 77.5643 73.828 78.3617 73.828C79.055 73.828 79.6443 73.5853 80.1297 73.1C80.615 72.6147 80.8577 72.008 80.8577 71.28C80.8577 70.552 80.615 69.9453 80.1297 69.46C79.6617 68.9747 79.0637 68.732 78.3357 68.732C77.833 68.732 77.3997 68.8273 77.0357 69.018C76.6717 69.2087 76.3597 69.4513 76.0997 69.746L72.3557 68.03L73.3177 59.216H83.6917V62.544H76.5677L75.8917 66.236L76.1517 66.314C76.481 66.054 76.8883 65.8113 77.3737 65.586C77.8763 65.3607 78.483 65.248 79.1937 65.248C79.9217 65.248 80.615 65.3953 81.2737 65.69C81.9497 65.9673 82.539 66.366 83.0417 66.886C83.5617 67.406 83.9777 68.0387 84.2897 68.784C84.6017 69.5293 84.7577 70.3613 84.7577 71.28C84.7577 72.1987 84.6017 73.0393 84.2897 73.802C83.9777 74.5473 83.5357 75.1887 82.9637 75.726C82.3917 76.2633 81.7157 76.6793 80.9357 76.974C80.1557 77.2687 79.2977 77.416 78.3617 77.416ZM94.7679 77.416C93.5892 77.416 92.5319 77.182 91.5959 76.714C90.6599 76.246 89.8625 75.596 89.2039 74.764C88.5452 73.932 88.0339 72.9527 87.6699 71.826C87.3232 70.682 87.1499 69.4427 87.1499 68.108C87.1499 66.7733 87.3232 65.5427 87.6699 64.416C88.0339 63.272 88.5452 62.284 89.2039 61.452C89.8625 60.62 90.6599 59.97 91.5959 59.502C92.5319 59.034 93.5892 58.8 94.7679 58.8C95.9292 58.8 96.9779 59.034 97.9139 59.502C98.8672 59.97 99.6732 60.62 100.332 61.452C100.991 62.284 101.493 63.272 101.84 64.416C102.204 65.5427 102.386 66.7733 102.386 68.108C102.386 69.4427 102.204 70.682 101.84 71.826C101.493 72.9527 100.991 73.932 100.332 74.764C99.6732 75.596 98.8672 76.246 97.9139 76.714C96.9779 77.182 95.9292 77.416 94.7679 77.416ZM94.7679 73.776C95.3572 73.776 95.8772 73.6373 96.3279 73.36C96.7959 73.0653 97.1859 72.6667 97.4979 72.164C97.8272 71.6613 98.0699 71.0633 98.2259 70.37C98.3992 69.6767 98.4859 68.9227 98.4859 68.108C98.4859 67.2933 98.3992 66.5393 98.2259 65.846C98.0699 65.1527 97.8272 64.5547 97.4979 64.052C97.1859 63.5493 96.7959 63.1593 96.3279 62.882C95.8772 62.5873 95.3572 62.44 94.7679 62.44C94.1785 62.44 93.6499 62.5873 93.1819 62.882C92.7312 63.1593 92.3412 63.5493 92.0119 64.052C91.6999 64.5547 91.4572 65.1527 91.2839 65.846C91.1279 66.5393 91.0499 67.2933 91.0499 68.108C91.0499 68.9227 91.1279 69.6767 91.2839 70.37C91.4572 71.0633 91.6999 71.6613 92.0119 72.164C92.3412 72.6667 92.7312 73.0653 93.1819 73.36C93.6499 73.6373 94.1785 73.776 94.7679 73.776ZM107.685 75.934L119.229 58.696L121.569 60.282L110.025 77.52L107.685 75.934ZM109.011 67.692C108.335 67.692 107.711 67.5793 107.139 67.354C106.567 67.1113 106.073 66.7907 105.657 66.392C105.241 65.9933 104.921 65.5253 104.695 64.988C104.47 64.4507 104.357 63.87 104.357 63.246C104.357 62.622 104.47 62.0413 104.695 61.504C104.921 60.9667 105.241 60.4987 105.657 60.1C106.073 59.7013 106.567 59.3893 107.139 59.164C107.711 58.9213 108.335 58.8 109.011 58.8C109.687 58.8 110.311 58.9213 110.883 59.164C111.455 59.3893 111.949 59.7013 112.365 60.1C112.781 60.4987 113.102 60.9667 113.327 61.504C113.553 62.0413 113.665 62.622 113.665 63.246C113.665 63.87 113.553 64.4507 113.327 64.988C113.102 65.5253 112.781 65.9933 112.365 66.392C111.949 66.7907 111.455 67.1113 110.883 67.354C110.311 67.5793 109.687 67.692 109.011 67.692ZM109.011 64.728C109.41 64.728 109.748 64.598 110.025 64.338C110.303 64.078 110.441 63.714 110.441 63.246C110.441 62.778 110.303 62.414 110.025 62.154C109.748 61.894 109.41 61.764 109.011 61.764C108.613 61.764 108.275 61.894 107.997 62.154C107.72 62.414 107.581 62.778 107.581 63.246C107.581 63.714 107.72 64.078 107.997 64.338C108.275 64.598 108.613 64.728 109.011 64.728ZM120.243 77.416C119.567 77.416 118.943 77.2947 118.371 77.052C117.799 76.8267 117.305 76.5147 116.889 76.116C116.473 75.7173 116.153 75.2493 115.927 74.712C115.702 74.1747 115.589 73.594 115.589 72.97C115.589 72.346 115.702 71.7653 115.927 71.228C116.153 70.6907 116.473 70.2227 116.889 69.824C117.305 69.4253 117.799 69.1133 118.371 68.888C118.943 68.6453 119.567 68.524 120.243 68.524C120.919 68.524 121.543 68.6453 122.115 68.888C122.687 69.1133 123.181 69.4253 123.597 69.824C124.013 70.2227 124.334 70.6907 124.559 71.228C124.785 71.7653 124.897 72.346 124.897 72.97C124.897 73.594 124.785 74.1747 124.559 74.712C124.334 75.2493 124.013 75.7173 123.597 76.116C123.181 76.5147 122.687 76.8267 122.115 77.052C121.543 77.2947 120.919 77.416 120.243 77.416ZM120.243 74.452C120.642 74.452 120.98 74.322 121.257 74.062C121.535 73.802 121.673 73.438 121.673 72.97C121.673 72.502 121.535 72.138 121.257 71.878C120.98 71.618 120.642 71.488 120.243 71.488C119.845 71.488 119.507 71.618 119.229 71.878C118.952 72.138 118.813 72.502 118.813 72.97C118.813 73.438 118.952 73.802 119.229 74.062C119.507 74.322 119.845 74.452 120.243 74.452ZM141.686 77.416C140.282 77.416 138.982 77.1647 137.786 76.662C136.59 76.1593 135.55 75.4747 134.666 74.608C133.799 73.724 133.115 72.6927 132.612 71.514C132.127 70.3353 131.884 69.0613 131.884 67.692C131.884 66.3227 132.127 65.0487 132.612 63.87C133.115 62.6913 133.799 61.6687 134.666 60.802C135.55 59.918 136.59 59.2247 137.786 58.722C138.982 58.2193 140.282 57.968 141.686 57.968C143.09 57.968 144.39 58.2193 145.586 58.722C146.782 59.2247 147.813 59.918 148.68 60.802C149.564 61.6687 150.249 62.6913 150.734 63.87C151.237 65.0487 151.488 66.3227 151.488 67.692C151.488 69.0613 151.237 70.3353 150.734 71.514C150.249 72.6927 149.564 73.724 148.68 74.608C147.813 75.4747 146.782 76.1593 145.586 76.662C144.39 77.1647 143.09 77.416 141.686 77.416ZM141.686 73.568C142.483 73.568 143.229 73.4293 143.922 73.152C144.633 72.8747 145.248 72.476 145.768 71.956C146.288 71.436 146.695 70.8207 146.99 70.11C147.285 69.382 147.432 68.576 147.432 67.692C147.432 66.808 147.285 66.0107 146.99 65.3C146.695 64.572 146.288 63.948 145.768 63.428C145.248 62.908 144.633 62.5093 143.922 62.232C143.229 61.9547 142.483 61.816 141.686 61.816C140.871 61.816 140.117 61.9547 139.424 62.232C138.731 62.5093 138.124 62.908 137.604 63.428C137.084 63.948 136.677 64.572 136.382 65.3C136.087 66.0107 135.94 66.808 135.94 67.692C135.94 68.576 136.087 69.382 136.382 70.11C136.677 70.8207 137.084 71.436 137.604 71.956C138.124 72.476 138.731 72.8747 139.424 73.152C140.117 73.4293 140.871 73.568 141.686 73.568ZM159.213 77H155.313V67.536H153.077V64.26H155.313V63.324C155.313 61.6427 155.781 60.3687 156.717 59.502C157.653 58.618 158.884 58.176 160.409 58.176C160.669 58.176 160.877 58.1847 161.033 58.202C161.206 58.202 161.362 58.2193 161.501 58.254V61.972C161.414 61.9373 161.302 61.9113 161.163 61.894C161.024 61.8767 160.86 61.868 160.669 61.868C160.201 61.868 159.837 62.0153 159.577 62.31C159.334 62.6047 159.213 63.0033 159.213 63.506V64.26H163.581V63.324C163.581 61.6427 164.049 60.3687 164.985 59.502C165.921 58.618 167.152 58.176 168.677 58.176C169.162 58.176 169.63 58.228 170.081 58.332C170.549 58.4187 170.965 58.5313 171.329 58.67L170.211 62.128C170.038 62.0413 169.847 61.9807 169.639 61.946C169.431 61.894 169.197 61.868 168.937 61.868C168.469 61.868 168.105 62.0153 167.845 62.31C167.602 62.6047 167.481 63.0033 167.481 63.506V64.26H170.575V67.536H167.481V77H163.581V67.536H159.213V77ZM176.307 58.384H179.011V61.27L179.271 61.374L181.923 60.438L182.833 62.986L180.129 63.948L180.025 64.208L181.819 66.678L179.661 68.264L177.789 65.69H177.529L175.657 68.264L173.499 66.678L175.293 64.208L175.189 63.948L172.485 62.986L173.395 60.438L176.047 61.374L176.307 61.27V58.384Z" fill="#472D2D"/>
<path d="M6.51705 98.9812V97.5455H14.0604V98.9812H11.1381V107H9.43928V98.9812H6.51705ZM16.5163 107.143C16.067 107.143 15.6623 107.063 15.3022 106.903C14.9452 106.74 14.6621 106.5 14.4528 106.183C14.2466 105.866 14.1435 105.475 14.1435 105.01C14.1435 104.61 14.2173 104.279 14.3651 104.018C14.5128 103.756 14.7144 103.547 14.9698 103.39C15.2253 103.233 15.513 103.114 15.8331 103.034C16.1563 102.951 16.4902 102.891 16.8349 102.854C17.2504 102.811 17.5874 102.773 17.8459 102.739C18.1044 102.702 18.2921 102.647 18.4091 102.573C18.5291 102.496 18.5891 102.377 18.5891 102.217V102.19C18.5891 101.842 18.486 101.573 18.2798 101.382C18.0736 101.191 17.7766 101.096 17.3888 101.096C16.9795 101.096 16.6548 101.185 16.4148 101.363C16.1778 101.542 16.0178 101.753 15.9347 101.996L14.3743 101.774C14.4974 101.343 14.7005 100.983 14.9837 100.694C15.2668 100.402 15.613 100.183 16.0224 100.038C16.4317 99.8906 16.8841 99.8168 17.3796 99.8168C17.7212 99.8168 18.0613 99.8568 18.3999 99.9368C18.7384 100.017 19.0477 100.149 19.3278 100.334C19.6078 100.515 19.8325 100.763 20.0018 101.077C20.1741 101.391 20.2603 101.783 20.2603 102.254V107H18.6538V106.026H18.5984C18.4968 106.223 18.3537 106.408 18.169 106.58C17.9875 106.749 17.7582 106.886 17.4812 106.991C17.2073 107.092 16.8857 107.143 16.5163 107.143ZM16.9503 105.915C17.2857 105.915 17.5766 105.849 17.8228 105.717C18.069 105.581 18.2583 105.403 18.3906 105.181C18.526 104.96 18.5938 104.718 18.5938 104.456V103.621C18.5414 103.664 18.4522 103.704 18.326 103.741C18.2029 103.778 18.0644 103.81 17.9105 103.838C17.7566 103.865 17.6043 103.89 17.4535 103.912C17.3027 103.933 17.1719 103.952 17.0611 103.967C16.8118 104.001 16.5887 104.056 16.3917 104.133C16.1947 104.21 16.0393 104.318 15.9254 104.456C15.8116 104.592 15.7546 104.767 15.7546 104.983C15.7546 105.29 15.867 105.523 16.0916 105.68C16.3163 105.837 16.6025 105.915 16.9503 105.915ZM23.4641 104.775L23.4595 102.757H23.7273L26.2756 99.9091H28.2283L25.0938 103.399H24.7475L23.4641 104.775ZM21.9407 107V97.5455H23.6119V107H21.9407ZM26.391 107L24.0827 103.773L25.2092 102.596L28.3899 107H26.391ZM32.1893 107.138C31.4783 107.138 30.8643 106.991 30.3473 106.695C29.8333 106.397 29.4379 105.975 29.1609 105.43C28.8839 104.883 28.7454 104.238 28.7454 103.496C28.7454 102.767 28.8839 102.127 29.1609 101.576C29.4409 101.022 29.8318 100.591 30.3335 100.283C30.8351 99.9722 31.4245 99.8168 32.1016 99.8168C32.5386 99.8168 32.951 99.8875 33.3388 100.029C33.7296 100.168 34.0743 100.383 34.3729 100.675C34.6745 100.968 34.9115 101.34 35.0838 101.793C35.2562 102.242 35.3423 102.777 35.3423 103.399V103.912H29.5302V102.785H33.7404C33.7373 102.465 33.6681 102.18 33.5327 101.931C33.3973 101.679 33.208 101.48 32.9648 101.336C32.7248 101.191 32.4447 101.119 32.1246 101.119C31.783 101.119 31.483 101.202 31.2244 101.368C30.9659 101.531 30.7643 101.746 30.6197 102.014C30.4781 102.279 30.4058 102.57 30.4027 102.887V103.87C30.4027 104.282 30.4781 104.636 30.6289 104.932C30.7797 105.224 30.9905 105.449 31.2614 105.606C31.5322 105.76 31.8492 105.837 32.2124 105.837C32.4555 105.837 32.6755 105.803 32.8725 105.735C33.0695 105.664 33.2403 105.561 33.3849 105.426C33.5296 105.29 33.6388 105.123 33.7127 104.923L35.2731 105.098C35.1746 105.51 34.9869 105.871 34.7099 106.178C34.436 106.483 34.0851 106.72 33.6573 106.889C33.2295 107.055 32.7402 107.138 32.1893 107.138ZM40.0546 107V97.5455H43.6739C44.3572 97.5455 44.925 97.6532 45.3774 97.8686C45.8329 98.081 46.173 98.3718 46.3976 98.7411C46.6254 99.1104 46.7393 99.529 46.7393 99.9968C46.7393 100.382 46.6654 100.711 46.5177 100.985C46.3699 101.256 46.1714 101.476 45.9221 101.645C45.6729 101.814 45.3943 101.936 45.0866 102.01V102.102C45.422 102.12 45.7436 102.223 46.0514 102.411C46.3622 102.596 46.6162 102.857 46.8131 103.196C47.0101 103.535 47.1086 103.944 47.1086 104.424C47.1086 104.913 46.9901 105.353 46.7531 105.744C46.5161 106.132 46.1591 106.438 45.6821 106.663C45.205 106.888 44.6049 107 43.8817 107H40.0546ZM41.7673 105.569H43.6093C44.231 105.569 44.6788 105.45 44.9527 105.213C45.2297 104.973 45.3682 104.666 45.3682 104.29C45.3682 104.01 45.2989 103.758 45.1604 103.533C45.0219 103.305 44.825 103.127 44.5695 102.998C44.3141 102.865 44.0094 102.799 43.6555 102.799H41.7673V105.569ZM41.7673 101.566H43.4616C43.757 101.566 44.0232 101.513 44.2602 101.405C44.4972 101.294 44.6834 101.139 44.8188 100.939C44.9573 100.735 45.0265 100.495 45.0265 100.218C45.0265 99.8522 44.8973 99.5505 44.6388 99.3136C44.3833 99.0766 44.0032 98.9581 43.4985 98.9581H41.7673V101.566ZM50.5652 107.143C50.1158 107.143 49.7111 107.063 49.351 106.903C48.994 106.74 48.7109 106.5 48.5016 106.183C48.2954 105.866 48.1923 105.475 48.1923 105.01C48.1923 104.61 48.2662 104.279 48.4139 104.018C48.5616 103.756 48.7632 103.547 49.0186 103.39C49.2741 103.233 49.5618 103.114 49.8819 103.034C50.2051 102.951 50.539 102.891 50.8837 102.854C51.2992 102.811 51.6362 102.773 51.8947 102.739C52.1532 102.702 52.341 102.647 52.4579 102.573C52.5779 102.496 52.638 102.377 52.638 102.217V102.19C52.638 101.842 52.5349 101.573 52.3287 101.382C52.1225 101.191 51.8255 101.096 51.4377 101.096C51.0283 101.096 50.7037 101.185 50.4636 101.363C50.2266 101.542 50.0666 101.753 49.9835 101.996L48.4231 101.774C48.5462 101.343 48.7493 100.983 49.0325 100.694C49.3156 100.402 49.6619 100.183 50.0712 100.038C50.4805 99.8906 50.9329 99.8168 51.4284 99.8168C51.7701 99.8168 52.1101 99.8568 52.4487 99.9368C52.7872 100.017 53.0965 100.149 53.3766 100.334C53.6567 100.515 53.8813 100.763 54.0506 101.077C54.223 101.391 54.3091 101.783 54.3091 102.254V107H52.7026V106.026H52.6472C52.5456 106.223 52.4025 106.408 52.2179 106.58C52.0363 106.749 51.807 106.886 51.53 106.991C51.2561 107.092 50.9345 107.143 50.5652 107.143ZM50.9991 105.915C51.3346 105.915 51.6254 105.849 51.8716 105.717C52.1178 105.581 52.3071 105.403 52.4395 105.181C52.5749 104.96 52.6426 104.718 52.6426 104.456V103.621C52.5903 103.664 52.501 103.704 52.3748 103.741C52.2517 103.778 52.1132 103.81 51.9593 103.838C51.8055 103.865 51.6531 103.89 51.5023 103.912C51.3515 103.933 51.2207 103.952 51.1099 103.967C50.8606 104.001 50.6375 104.056 50.4405 104.133C50.2435 104.21 50.0881 104.318 49.9743 104.456C49.8604 104.592 49.8034 104.767 49.8034 104.983C49.8034 105.29 49.9158 105.523 50.1404 105.68C50.3651 105.837 50.6513 105.915 50.9991 105.915ZM56.0634 107V97.5455H57.7346V101.082H57.8038C57.89 100.909 58.0115 100.726 58.1685 100.532C58.3255 100.335 58.5378 100.168 58.8056 100.029C59.0733 99.8875 59.415 99.8168 59.8304 99.8168C60.3783 99.8168 60.8722 99.9568 61.3123 100.237C61.7555 100.514 62.1064 100.925 62.3649 101.469C62.6265 102.011 62.7573 102.676 62.7573 103.464C62.7573 104.242 62.6296 104.904 62.3741 105.449C62.1187 105.994 61.7709 106.409 61.3308 106.695C60.8907 106.982 60.3921 107.125 59.835 107.125C59.4288 107.125 59.0918 107.057 58.824 106.922C58.5563 106.786 58.3408 106.623 58.1777 106.432C58.0177 106.238 57.8931 106.055 57.8038 105.883H57.7069V107H56.0634ZM57.7022 103.455C57.7022 103.913 57.7669 104.315 57.8961 104.659C58.0285 105.004 58.2177 105.273 58.464 105.467C58.7132 105.658 59.0149 105.754 59.3688 105.754C59.7381 105.754 60.0474 105.655 60.2967 105.458C60.546 105.258 60.7337 104.986 60.8599 104.641C60.9892 104.293 61.0538 103.898 61.0538 103.455C61.0538 103.014 60.9907 102.624 60.8645 102.282C60.7383 101.94 60.5506 101.673 60.3013 101.479C60.052 101.285 59.7412 101.188 59.3688 101.188C59.0118 101.188 58.7086 101.282 58.4593 101.469C58.21 101.657 58.0208 101.92 57.8915 102.259C57.7653 102.597 57.7022 102.996 57.7022 103.455ZM64.9755 109.659C64.7478 109.659 64.5369 109.641 64.343 109.604C64.1522 109.57 63.9999 109.53 63.886 109.484L64.2738 108.182C64.5169 108.253 64.7339 108.286 64.9247 108.283C65.1155 108.28 65.2833 108.22 65.4279 108.103C65.5756 107.989 65.7003 107.799 65.8018 107.531L65.945 107.148L63.3736 99.9091H65.1463L66.7805 105.264H66.8544L68.4933 99.9091H70.2706L67.4315 107.859C67.2991 108.234 67.1237 108.556 66.9052 108.824C66.6867 109.094 66.4189 109.301 66.1019 109.442C65.788 109.587 65.4125 109.659 64.9755 109.659ZM80.256 101.783L78.7326 101.95C78.6895 101.796 78.6141 101.651 78.5064 101.516C78.4018 101.38 78.2602 101.271 78.0817 101.188C77.9032 101.105 77.6847 101.063 77.4261 101.063C77.0784 101.063 76.786 101.139 76.549 101.289C76.3151 101.44 76.1997 101.636 76.2028 101.876C76.1997 102.082 76.2751 102.25 76.429 102.379C76.5859 102.508 76.8445 102.614 77.2045 102.697L78.4141 102.956C79.085 103.101 79.5836 103.33 79.9098 103.644C80.2391 103.958 80.4053 104.369 80.4084 104.876C80.4053 105.323 80.2745 105.717 80.016 106.058C79.7605 106.397 79.4051 106.661 78.9496 106.852C78.4941 107.043 77.9709 107.138 77.38 107.138C76.5121 107.138 75.8134 106.957 75.2841 106.594C74.7547 106.228 74.4393 105.718 74.3377 105.066L75.9673 104.909C76.0412 105.229 76.1982 105.47 76.4382 105.634C76.6783 105.797 76.9906 105.878 77.3754 105.878C77.7724 105.878 78.0909 105.797 78.331 105.634C78.5741 105.47 78.6957 105.269 78.6957 105.029C78.6957 104.826 78.6172 104.658 78.4602 104.526C78.3063 104.393 78.0663 104.292 77.7401 104.221L76.5305 103.967C75.8504 103.825 75.3472 103.587 75.021 103.251C74.6947 102.913 74.5331 102.485 74.5362 101.968C74.5331 101.531 74.6516 101.152 74.8917 100.832C75.1348 100.509 75.4718 100.26 75.9027 100.085C76.3366 99.906 76.8368 99.8168 77.4031 99.8168C78.234 99.8168 78.888 99.9937 79.3651 100.348C79.8452 100.702 80.1422 101.18 80.256 101.783ZM85.3272 99.9091V101.202H81.2509V99.9091H85.3272ZM82.2573 98.2102H83.9284V104.867C83.9284 105.092 83.9623 105.264 84.03 105.384C84.1008 105.501 84.1931 105.581 84.307 105.624C84.4209 105.667 84.5471 105.689 84.6855 105.689C84.7902 105.689 84.8856 105.681 84.9718 105.666C85.061 105.65 85.1287 105.637 85.1749 105.624L85.4565 106.931C85.3672 106.962 85.2395 106.995 85.0733 107.032C84.9102 107.069 84.7102 107.091 84.4732 107.097C84.0546 107.109 83.6776 107.046 83.3422 106.908C83.0067 106.766 82.7405 106.548 82.5435 106.252C82.3496 105.957 82.2542 105.587 82.2573 105.144V98.2102ZM89.7879 107.138C89.077 107.138 88.463 106.991 87.9459 106.695C87.432 106.397 87.0365 105.975 86.7595 105.43C86.4825 104.883 86.344 104.238 86.344 103.496C86.344 102.767 86.4825 102.127 86.7595 101.576C87.0396 101.022 87.4304 100.591 87.9321 100.283C88.4337 99.9722 89.0231 99.8168 89.7002 99.8168C90.1372 99.8168 90.5496 99.8875 90.9374 100.029C91.3283 100.168 91.673 100.383 91.9715 100.675C92.2731 100.968 92.5101 101.34 92.6824 101.793C92.8548 102.242 92.941 102.777 92.941 103.399V103.912H87.1288V102.785H91.339C91.336 102.465 91.2667 102.18 91.1313 101.931C90.9959 101.679 90.8066 101.48 90.5635 101.336C90.3234 101.191 90.0434 101.119 89.7233 101.119C89.3817 101.119 89.0816 101.202 88.8231 101.368C88.5645 101.531 88.363 101.746 88.2183 102.014C88.0767 102.279 88.0044 102.57 88.0013 102.887V103.87C88.0013 104.282 88.0767 104.636 88.2275 104.932C88.3783 105.224 88.5892 105.449 88.86 105.606C89.1308 105.76 89.4478 105.837 89.811 105.837C90.0541 105.837 90.2742 105.803 90.4711 105.735C90.6681 105.664 90.8389 105.561 90.9836 105.426C91.1282 105.29 91.2375 105.123 91.3113 104.923L92.8717 105.098C92.7732 105.51 92.5855 105.871 92.3085 106.178C92.0346 106.483 91.6837 106.72 91.2559 106.889C90.8282 107.055 90.3388 107.138 89.7879 107.138ZM94.3548 109.659V99.9091H95.9982V101.082H96.0952C96.1813 100.909 96.3029 100.726 96.4599 100.532C96.6168 100.335 96.8292 100.168 97.0969 100.029C97.3647 99.8875 97.7063 99.8168 98.1218 99.8168C98.6696 99.8168 99.1636 99.9568 99.6037 100.237C100.047 100.514 100.398 100.925 100.656 101.469C100.918 102.011 101.049 102.676 101.049 103.464C101.049 104.242 100.921 104.904 100.665 105.449C100.41 105.994 100.062 106.409 99.6222 106.695C99.1821 106.982 98.6835 107.125 98.1264 107.125C97.7202 107.125 97.3832 107.057 97.1154 106.922C96.8477 106.786 96.6322 106.623 96.4691 106.432C96.3091 106.238 96.1844 106.055 96.0952 105.883H96.0259V109.659H94.3548ZM95.9936 103.455C95.9936 103.913 96.0582 104.315 96.1875 104.659C96.3198 105.004 96.5091 105.273 96.7553 105.467C97.0046 105.658 97.3062 105.754 97.6602 105.754C98.0295 105.754 98.3388 105.655 98.5881 105.458C98.8374 105.258 99.0251 104.986 99.1513 104.641C99.2805 104.293 99.3452 103.898 99.3452 103.455C99.3452 103.014 99.2821 102.624 99.1559 102.282C99.0297 101.94 98.842 101.673 98.5927 101.479C98.3434 101.285 98.0326 101.188 97.6602 101.188C97.3031 101.188 97 101.282 96.7507 101.469C96.5014 101.657 96.3121 101.92 96.1829 102.259C96.0567 102.597 95.9936 102.996 95.9936 103.455ZM108.084 101.783L106.561 101.95C106.518 101.796 106.442 101.651 106.335 101.516C106.23 101.38 106.088 101.271 105.91 101.188C105.731 101.105 105.513 101.063 105.254 101.063C104.906 101.063 104.614 101.139 104.377 101.289C104.143 101.44 104.028 101.636 104.031 101.876C104.028 102.082 104.103 102.25 104.257 102.379C104.414 102.508 104.673 102.614 105.033 102.697L106.242 102.956C106.913 103.101 107.412 103.33 107.738 103.644C108.067 103.958 108.233 104.369 108.237 104.876C108.233 105.323 108.103 105.717 107.844 106.058C107.589 106.397 107.233 106.661 106.778 106.852C106.322 107.043 105.799 107.138 105.208 107.138C104.34 107.138 103.642 106.957 103.112 106.594C102.583 106.228 102.267 105.718 102.166 105.066L103.795 104.909C103.869 105.229 104.026 105.47 104.266 105.634C104.506 105.797 104.819 105.878 105.203 105.878C105.6 105.878 105.919 105.797 106.159 105.634C106.402 105.47 106.524 105.269 106.524 105.029C106.524 104.826 106.445 104.658 106.288 104.526C106.134 104.393 105.894 104.292 105.568 104.221L104.359 103.967C103.679 103.825 103.175 103.587 102.849 103.251C102.523 102.913 102.361 102.485 102.364 101.968C102.361 101.531 102.48 101.152 102.72 100.832C102.963 100.509 103.3 100.26 103.731 100.085C104.165 99.906 104.665 99.8168 105.231 99.8168C106.062 99.8168 106.716 99.9937 107.193 100.348C107.673 100.702 107.97 101.18 108.084 101.783ZM116.38 99.9091V101.202H112.304V99.9091H116.38ZM113.31 98.2102H114.981V104.867C114.981 105.092 115.015 105.264 115.083 105.384C115.154 105.501 115.246 105.581 115.36 105.624C115.474 105.667 115.6 105.689 115.738 105.689C115.843 105.689 115.938 105.681 116.025 105.666C116.114 105.65 116.181 105.637 116.228 105.624L116.509 106.931C116.42 106.962 116.292 106.995 116.126 107.032C115.963 107.069 115.763 107.091 115.526 107.097C115.107 107.109 114.73 107.046 114.395 106.908C114.059 106.766 113.793 106.548 113.596 106.252C113.402 105.957 113.307 105.587 113.31 105.144V98.2102ZM120.794 107.138C120.102 107.138 119.502 106.986 118.994 106.681C118.486 106.377 118.092 105.951 117.812 105.403C117.535 104.855 117.397 104.215 117.397 103.482C117.397 102.75 117.535 102.108 117.812 101.557C118.092 101.006 118.486 100.578 118.994 100.274C119.502 99.9691 120.102 99.8168 120.794 99.8168C121.487 99.8168 122.087 99.9691 122.595 100.274C123.103 100.578 123.495 101.006 123.772 101.557C124.052 102.108 124.192 102.75 124.192 103.482C124.192 104.215 124.052 104.855 123.772 105.403C123.495 105.951 123.103 106.377 122.595 106.681C122.087 106.986 121.487 107.138 120.794 107.138ZM120.804 105.8C121.179 105.8 121.493 105.697 121.745 105.49C121.998 105.281 122.186 105.001 122.309 104.65C122.435 104.299 122.498 103.908 122.498 103.478C122.498 103.044 122.435 102.651 122.309 102.3C122.186 101.946 121.998 101.665 121.745 101.456C121.493 101.246 121.179 101.142 120.804 101.142C120.419 101.142 120.099 101.246 119.843 101.456C119.591 101.665 119.402 101.946 119.276 102.3C119.153 102.651 119.091 103.044 119.091 103.478C119.091 103.908 119.153 104.299 119.276 104.65C119.402 105.001 119.591 105.281 119.843 105.49C120.099 105.697 120.419 105.8 120.804 105.8ZM134.44 101.783L132.916 101.95C132.873 101.796 132.798 101.651 132.69 101.516C132.585 101.38 132.444 101.271 132.265 101.188C132.087 101.105 131.868 101.063 131.61 101.063C131.262 101.063 130.97 101.139 130.733 101.289C130.499 101.44 130.383 101.636 130.386 101.876C130.383 102.082 130.459 102.25 130.613 102.379C130.77 102.508 131.028 102.614 131.388 102.697L132.598 102.956C133.269 103.101 133.767 103.33 134.093 103.644C134.423 103.958 134.589 104.369 134.592 104.876C134.589 105.323 134.458 105.717 134.2 106.058C133.944 106.397 133.589 106.661 133.133 106.852C132.678 107.043 132.154 107.138 131.564 107.138C130.696 107.138 129.997 106.957 129.468 106.594C128.938 106.228 128.623 105.718 128.521 105.066L130.151 104.909C130.225 105.229 130.382 105.47 130.622 105.634C130.862 105.797 131.174 105.878 131.559 105.878C131.956 105.878 132.275 105.797 132.515 105.634C132.758 105.47 132.879 105.269 132.879 105.029C132.879 104.826 132.801 104.658 132.644 104.526C132.49 104.393 132.25 104.292 131.924 104.221L130.714 103.967C130.034 103.825 129.531 103.587 129.205 103.251C128.878 102.913 128.717 102.485 128.72 101.968C128.717 101.531 128.835 101.152 129.075 100.832C129.318 100.509 129.655 100.26 130.086 100.085C130.52 99.906 131.02 99.8168 131.587 99.8168C132.418 99.8168 133.072 99.9937 133.549 100.348C134.029 100.702 134.326 101.18 134.44 101.783ZM139.511 99.9091V101.202H135.434V99.9091H139.511ZM136.441 98.2102H138.112V104.867C138.112 105.092 138.146 105.264 138.214 105.384C138.284 105.501 138.377 105.581 138.491 105.624C138.604 105.667 138.731 105.689 138.869 105.689C138.974 105.689 139.069 105.681 139.155 105.666C139.245 105.65 139.312 105.637 139.358 105.624L139.64 106.931C139.551 106.962 139.423 106.995 139.257 107.032C139.094 107.069 138.894 107.091 138.657 107.097C138.238 107.109 137.861 107.046 137.526 106.908C137.19 106.766 136.924 106.548 136.727 106.252C136.533 105.957 136.438 105.587 136.441 105.144V98.2102ZM142.949 107.143C142.5 107.143 142.095 107.063 141.735 106.903C141.378 106.74 141.095 106.5 140.885 106.183C140.679 105.866 140.576 105.475 140.576 105.01C140.576 104.61 140.65 104.279 140.798 104.018C140.945 103.756 141.147 103.547 141.402 103.39C141.658 103.233 141.946 103.114 142.266 103.034C142.589 102.951 142.923 102.891 143.267 102.854C143.683 102.811 144.02 102.773 144.278 102.739C144.537 102.702 144.725 102.647 144.842 102.573C144.962 102.496 145.022 102.377 145.022 102.217V102.19C145.022 101.842 144.919 101.573 144.712 101.382C144.506 101.191 144.209 101.096 143.821 101.096C143.412 101.096 143.087 101.185 142.847 101.363C142.61 101.542 142.45 101.753 142.367 101.996L140.807 101.774C140.93 101.343 141.133 100.983 141.416 100.694C141.699 100.402 142.046 100.183 142.455 100.038C142.864 99.8906 143.317 99.8168 143.812 99.8168C144.154 99.8168 144.494 99.8568 144.832 99.9368C145.171 100.017 145.48 100.149 145.76 100.334C146.04 100.515 146.265 100.763 146.434 101.077C146.607 101.391 146.693 101.783 146.693 102.254V107H145.086V106.026H145.031C144.929 106.223 144.786 106.408 144.602 106.58C144.42 106.749 144.191 106.886 143.914 106.991C143.64 107.092 143.318 107.143 142.949 107.143ZM143.383 105.915C143.718 105.915 144.009 105.849 144.255 105.717C144.502 105.581 144.691 105.403 144.823 105.181C144.959 104.96 145.026 104.718 145.026 104.456V103.621C144.974 103.664 144.885 103.704 144.759 103.741C144.636 103.778 144.497 103.81 144.343 103.838C144.189 103.865 144.037 103.89 143.886 103.912C143.735 103.933 143.604 103.952 143.494 103.967C143.244 104.001 143.021 104.056 142.824 104.133C142.627 104.21 142.472 104.318 142.358 104.456C142.244 104.592 142.187 104.767 142.187 104.983C142.187 105.29 142.3 105.523 142.524 105.68C142.749 105.837 143.035 105.915 143.383 105.915ZM148.373 107V99.9091H149.994V101.091H150.068C150.197 100.682 150.418 100.366 150.732 100.145C151.049 99.9199 151.411 99.8075 151.817 99.8075C151.91 99.8075 152.013 99.8121 152.127 99.8214C152.243 99.8275 152.34 99.8383 152.417 99.8537V101.391C152.347 101.366 152.234 101.345 152.08 101.326C151.93 101.305 151.783 101.294 151.642 101.294C151.337 101.294 151.063 101.36 150.82 101.493C150.58 101.622 150.391 101.802 150.252 102.033C150.114 102.263 150.044 102.53 150.044 102.831V107H148.373ZM157.449 99.9091V101.202H153.373V99.9091H157.449ZM154.379 98.2102H156.051V104.867C156.051 105.092 156.084 105.264 156.152 105.384C156.223 105.501 156.315 105.581 156.429 105.624C156.543 105.667 156.669 105.689 156.808 105.689C156.912 105.689 157.008 105.681 157.094 105.666C157.183 105.65 157.251 105.637 157.297 105.624L157.579 106.931C157.489 106.962 157.362 106.995 157.195 107.032C157.032 107.069 156.832 107.091 156.595 107.097C156.177 107.109 155.8 107.046 155.464 106.908C155.129 106.766 154.863 106.548 154.666 106.252C154.472 105.957 154.376 105.587 154.379 105.144V98.2102ZM6.93253 123V113.545H13.0817V114.981H8.64524V117.548H12.7631V118.984H8.64524V121.564H13.1186V123H6.93253ZM16.7956 123.143C16.3463 123.143 15.9416 123.063 15.5815 122.903C15.2245 122.74 14.9413 122.5 14.7321 122.183C14.5259 121.866 14.4228 121.475 14.4228 121.01C14.4228 120.61 14.4966 120.279 14.6444 120.018C14.7921 119.756 14.9937 119.547 15.2491 119.39C15.5046 119.233 15.7923 119.114 16.1124 119.034C16.4355 118.951 16.7695 118.891 17.1142 118.854C17.5297 118.811 17.8667 118.773 18.1252 118.739C18.3837 118.702 18.5714 118.647 18.6884 118.573C18.8084 118.496 18.8684 118.377 18.8684 118.217V118.19C18.8684 117.842 18.7653 117.573 18.5591 117.382C18.3529 117.191 18.0559 117.096 17.6681 117.096C17.2588 117.096 16.9341 117.185 16.6941 117.363C16.4571 117.542 16.2971 117.753 16.214 117.996L14.6536 117.774C14.7767 117.343 14.9798 116.983 15.263 116.694C15.5461 116.402 15.8923 116.183 16.3017 116.038C16.711 115.891 17.1634 115.817 17.6589 115.817C18.0005 115.817 18.3406 115.857 18.6792 115.937C19.0177 116.017 19.327 116.149 19.6071 116.334C19.8871 116.515 20.1118 116.763 20.2811 117.077C20.4534 117.391 20.5396 117.783 20.5396 118.254V123H18.9331V122.026H18.8777C18.7761 122.223 18.633 122.408 18.4483 122.58C18.2667 122.749 18.0375 122.886 17.7605 122.991C17.4866 123.092 17.165 123.143 16.7956 123.143ZM17.2296 121.915C17.565 121.915 17.8559 121.849 18.1021 121.717C18.3483 121.581 18.5376 121.403 18.6699 121.181C18.8053 120.96 18.873 120.718 18.873 120.456V119.621C18.8207 119.664 18.7315 119.704 18.6053 119.741C18.4822 119.778 18.3437 119.81 18.1898 119.838C18.0359 119.865 17.8836 119.89 17.7328 119.912C17.582 119.933 17.4512 119.952 17.3404 119.967C17.0911 120.001 16.868 120.056 16.671 120.133C16.474 120.21 16.3186 120.318 16.2047 120.456C16.0909 120.592 16.0339 120.767 16.0339 120.983C16.0339 121.29 16.1462 121.523 16.3709 121.68C16.5956 121.837 16.8818 121.915 17.2296 121.915ZM25.7608 115.909V117.202H21.6845V115.909H25.7608ZM22.6909 114.21H24.362V120.867C24.362 121.092 24.3959 121.264 24.4636 121.384C24.5344 121.501 24.6267 121.581 24.7406 121.624C24.8545 121.667 24.9806 121.689 25.1191 121.689C25.2238 121.689 25.3192 121.681 25.4054 121.666C25.4946 121.65 25.5623 121.637 25.6085 121.624L25.8901 122.931C25.8008 122.962 25.6731 122.995 25.5069 123.032C25.3438 123.069 25.1438 123.091 24.9068 123.097C24.4882 123.109 24.1112 123.046 23.7757 122.908C23.4403 122.766 23.1741 122.548 22.9771 122.252C22.7832 121.957 22.6878 121.587 22.6909 121.144V114.21ZM27.1585 123V115.909H28.8296V123H27.1585ZM27.9987 114.903C27.734 114.903 27.5062 114.815 27.3154 114.64C27.1246 114.461 27.0292 114.247 27.0292 113.998C27.0292 113.746 27.1246 113.532 27.3154 113.356C27.5062 113.178 27.734 113.088 27.9987 113.088C28.2664 113.088 28.4942 113.178 28.6819 113.356C28.8727 113.532 28.9681 113.746 28.9681 113.998C28.9681 114.247 28.8727 114.461 28.6819 114.64C28.4942 114.815 28.2664 114.903 27.9987 114.903ZM32.2193 118.845V123H30.5481V115.909H32.1454V117.114H32.2285C32.3916 116.717 32.6517 116.402 33.0087 116.168C33.3688 115.934 33.8135 115.817 34.3429 115.817C34.8322 115.817 35.2585 115.921 35.6216 116.131C35.9879 116.34 36.271 116.643 36.4711 117.04C36.6742 117.437 36.7742 117.919 36.7711 118.485V123H35.1V118.744C35.1 118.27 34.9769 117.899 34.7306 117.631C34.4875 117.363 34.1505 117.229 33.7196 117.229C33.4273 117.229 33.1672 117.294 32.9395 117.423C32.7148 117.549 32.5378 117.733 32.4086 117.973C32.2824 118.213 32.2193 118.504 32.2193 118.845ZM41.5538 125.807C40.9537 125.807 40.4382 125.725 40.0073 125.562C39.5764 125.402 39.2302 125.187 38.9686 124.916C38.707 124.645 38.5254 124.345 38.4238 124.016L39.9288 123.651C39.9965 123.789 40.095 123.926 40.2243 124.062C40.3535 124.2 40.5274 124.314 40.7459 124.403C40.9675 124.496 41.246 124.542 41.5815 124.542C42.0555 124.542 42.4479 124.426 42.7587 124.196C43.0695 123.968 43.225 123.592 43.225 123.069V121.726H43.1419C43.0557 121.898 42.9295 122.075 42.7633 122.257C42.6002 122.438 42.3832 122.591 42.1124 122.714C41.8446 122.837 41.5076 122.898 41.1014 122.898C40.5566 122.898 40.0627 122.771 39.6195 122.515C39.1794 122.257 38.8285 121.872 38.5669 121.361C38.3084 120.847 38.1792 120.204 38.1792 119.431C38.1792 118.653 38.3084 117.996 38.5669 117.46C38.8285 116.922 39.1809 116.514 39.6241 116.237C40.0673 115.957 40.5613 115.817 41.106 115.817C41.5215 115.817 41.8631 115.888 42.1309 116.029C42.4017 116.168 42.6171 116.335 42.7772 116.532C42.9372 116.726 43.0588 116.909 43.1419 117.082H43.2342V115.909H44.8823V123.115C44.8823 123.722 44.7376 124.223 44.4483 124.62C44.159 125.017 43.7636 125.314 43.2619 125.511C42.7602 125.708 42.1909 125.807 41.5538 125.807ZM41.5676 121.587C41.9216 121.587 42.2232 121.501 42.4725 121.329C42.7218 121.156 42.911 120.909 43.0403 120.586C43.1696 120.262 43.2342 119.875 43.2342 119.422C43.2342 118.976 43.1696 118.585 43.0403 118.25C42.9141 117.914 42.7264 117.654 42.4771 117.469C42.2309 117.282 41.9277 117.188 41.5676 117.188C41.1953 117.188 40.8844 117.285 40.6351 117.479C40.3858 117.673 40.1981 117.939 40.0719 118.277C39.9457 118.613 39.8826 118.994 39.8826 119.422C39.8826 119.856 39.9457 120.236 40.0719 120.562C40.2012 120.886 40.3904 121.138 40.6397 121.32C40.8921 121.498 41.2014 121.587 41.5676 121.587ZM49.8935 123V113.545H53.5128C54.196 113.545 54.7638 113.653 55.2163 113.869C55.6718 114.081 56.0118 114.372 56.2365 114.741C56.4643 115.11 56.5781 115.529 56.5781 115.997C56.5781 116.382 56.5043 116.711 56.3565 116.985C56.2088 117.256 56.0103 117.476 55.761 117.645C55.5117 117.814 55.2332 117.936 54.9254 118.01V118.102C55.2609 118.12 55.5825 118.223 55.8903 118.411C56.2011 118.596 56.455 118.857 56.652 119.196C56.849 119.535 56.9474 119.944 56.9474 120.424C56.9474 120.913 56.829 121.353 56.592 121.744C56.355 122.132 55.998 122.438 55.521 122.663C55.0439 122.888 54.4438 123 53.7205 123H49.8935ZM51.6062 121.569H53.4482C54.0698 121.569 54.5176 121.45 54.7915 121.213C55.0685 120.973 55.207 120.666 55.207 120.29C55.207 120.01 55.1378 119.758 54.9993 119.533C54.8608 119.305 54.6638 119.127 54.4084 118.998C54.1529 118.865 53.8482 118.799 53.4943 118.799H51.6062V121.569ZM51.6062 117.566H53.3004C53.5959 117.566 53.8621 117.513 54.0991 117.405C54.3361 117.294 54.5223 117.139 54.6577 116.939C54.7962 116.735 54.8654 116.495 54.8654 116.218C54.8654 115.852 54.7362 115.551 54.4776 115.314C54.2222 115.077 53.8421 114.958 53.3374 114.958H51.6062V117.566ZM61.5028 123.138C60.7918 123.138 60.1778 122.991 59.6608 122.695C59.1468 122.397 58.7513 121.975 58.4743 121.43C58.1974 120.883 58.0589 120.238 58.0589 119.496C58.0589 118.767 58.1974 118.127 58.4743 117.576C58.7544 117.022 59.1453 116.591 59.6469 116.283C60.1486 115.972 60.738 115.817 61.415 115.817C61.8521 115.817 62.2645 115.888 62.6523 116.029C63.0431 116.168 63.3878 116.383 63.6863 116.675C63.988 116.968 64.2249 117.34 64.3973 117.793C64.5696 118.242 64.6558 118.777 64.6558 119.399V119.912H58.8437V118.785H63.0539C63.0508 118.465 62.9816 118.18 62.8461 117.931C62.7107 117.679 62.5215 117.48 62.2783 117.336C62.0383 117.191 61.7582 117.119 61.4381 117.119C61.0965 117.119 60.7964 117.202 60.5379 117.368C60.2794 117.531 60.0778 117.746 59.9331 118.014C59.7916 118.279 59.7193 118.57 59.7162 118.887V119.87C59.7162 120.282 59.7916 120.636 59.9424 120.932C60.0932 121.224 60.304 121.449 60.5748 121.606C60.8457 121.76 61.1627 121.837 61.5258 121.837C61.769 121.837 61.989 121.803 62.186 121.735C62.383 121.664 62.5538 121.561 62.6984 121.426C62.8431 121.29 62.9523 121.123 63.0262 120.923L64.5866 121.098C64.4881 121.51 64.3003 121.871 64.0233 122.178C63.7494 122.483 63.3986 122.72 62.9708 122.889C62.543 123.055 62.0537 123.138 61.5028 123.138ZM69.6104 115.909V117.202H65.5341V115.909H69.6104ZM66.5405 114.21H68.2116V120.867C68.2116 121.092 68.2455 121.264 68.3132 121.384C68.384 121.501 68.4763 121.581 68.5902 121.624C68.7041 121.667 68.8303 121.689 68.9688 121.689C69.0734 121.689 69.1688 121.681 69.255 121.666C69.3442 121.65 69.4119 121.637 69.4581 121.624L69.7397 122.931C69.6504 122.962 69.5227 122.995 69.3565 123.032C69.1934 123.069 68.9934 123.091 68.7564 123.097C68.3378 123.109 67.9608 123.046 67.6254 122.908C67.2899 122.766 67.0237 122.548 66.8267 122.252C66.6328 121.957 66.5374 121.587 66.5405 121.144V114.21ZM74.5489 115.909V117.202H70.4726V115.909H74.5489ZM71.479 114.21H73.1501V120.867C73.1501 121.092 73.184 121.264 73.2517 121.384C73.3225 121.501 73.4148 121.581 73.5287 121.624C73.6425 121.667 73.7687 121.689 73.9072 121.689C74.0119 121.689 74.1073 121.681 74.1934 121.666C74.2827 121.65 74.3504 121.637 74.3966 121.624L74.6782 122.931C74.5889 122.962 74.4612 122.995 74.295 123.032C74.1319 123.069 73.9318 123.091 73.6949 123.097C73.2763 123.109 72.8993 123.046 72.5638 122.908C72.2284 122.766 71.9622 122.548 71.7652 122.252C71.5713 121.957 71.4759 121.587 71.479 121.144V114.21ZM79.0096 123.138C78.2987 123.138 77.6847 122.991 77.1676 122.695C76.6536 122.397 76.2582 121.975 75.9812 121.43C75.7042 120.883 75.5657 120.238 75.5657 119.496C75.5657 118.767 75.7042 118.127 75.9812 117.576C76.2612 117.022 76.6521 116.591 77.1538 116.283C77.6554 115.972 78.2448 115.817 78.9219 115.817C79.3589 115.817 79.7713 115.888 80.1591 116.029C80.55 116.168 80.8946 116.383 81.1932 116.675C81.4948 116.968 81.7318 117.34 81.9041 117.793C82.0765 118.242 82.1626 118.777 82.1626 119.399V119.912H76.3505V118.785H80.5607C80.5576 118.465 80.4884 118.18 80.353 117.931C80.2176 117.679 80.0283 117.48 79.7852 117.336C79.5451 117.191 79.265 117.119 78.945 117.119C78.6033 117.119 78.3033 117.202 78.0447 117.368C77.7862 117.531 77.5846 117.746 77.44 118.014C77.2984 118.279 77.2261 118.57 77.223 118.887V119.87C77.223 120.282 77.2984 120.636 77.4492 120.932C77.6 121.224 77.8108 121.449 78.0817 121.606C78.3525 121.76 78.6695 121.837 79.0327 121.837C79.2758 121.837 79.4959 121.803 79.6928 121.735C79.8898 121.664 80.0606 121.561 80.2053 121.426C80.3499 121.29 80.4592 121.123 80.533 120.923L82.0934 121.098C81.9949 121.51 81.8072 121.871 81.5302 122.178C81.2563 122.483 80.9054 122.72 80.4776 122.889C80.0498 123.055 79.5605 123.138 79.0096 123.138ZM83.5764 123V115.909H85.1968V117.091H85.2707C85.3999 116.682 85.6215 116.366 85.9355 116.145C86.2525 115.92 86.6141 115.808 87.0203 115.808C87.1127 115.808 87.2158 115.812 87.3296 115.821C87.4466 115.828 87.5435 115.838 87.6205 115.854V117.391C87.5497 117.366 87.4374 117.345 87.2835 117.326C87.1327 117.305 86.9865 117.294 86.8449 117.294C86.5402 117.294 86.2663 117.36 86.0232 117.493C85.7831 117.622 85.5938 117.802 85.4553 118.033C85.3169 118.263 85.2476 118.53 85.2476 118.831V123H83.5764ZM88.9477 123.102C88.6676 123.102 88.4276 123.003 88.2275 122.806C88.0275 122.609 87.929 122.369 87.9321 122.086C87.929 121.809 88.0275 121.572 88.2275 121.375C88.4276 121.178 88.6676 121.08 88.9477 121.08C89.2185 121.08 89.454 121.178 89.654 121.375C89.8572 121.572 89.9603 121.809 89.9633 122.086C89.9603 122.274 89.911 122.444 89.8156 122.598C89.7233 122.752 89.6002 122.875 89.4463 122.968C89.2955 123.057 89.1293 123.102 88.9477 123.102ZM93.6196 113.545L93.4672 120.221H91.9807L91.833 113.545H93.6196ZM92.724 123.102C92.4439 123.102 92.2039 123.003 92.0038 122.806C91.8068 122.609 91.7084 122.369 91.7084 122.086C91.7084 121.809 91.8068 121.572 92.0038 121.375C92.2039 121.178 92.4439 121.08 92.724 121.08C92.9979 121.08 93.2349 121.178 93.4349 121.375C93.6381 121.572 93.7396 121.809 93.7396 122.086C93.7396 122.274 93.6919 122.444 93.5965 122.598C93.5042 122.752 93.3811 122.875 93.2272 122.968C93.0764 123.057 92.9086 123.102 92.724 123.102Z" fill="#483838"/>
</svg>
