<svg width="140" height="140" viewBox="0 0 140 140" fill="none" xmlns="http://www.w3.org/2000/svg">
<mask id="mask0_0_4966" style="mask-type:luminance" maskUnits="userSpaceOnUse" x="0" y="0" width="140" height="140">
<path fill-rule="evenodd" clip-rule="evenodd" d="M0 0H140V140H0V0Z" fill="white"/>
</mask>
<g mask="url(#mask0_0_4966)">
<path fill-rule="evenodd" clip-rule="evenodd" d="M140 70C140 108.66 108.659 140 70 140C31.3387 140 0 108.66 0 70C0 31.3403 31.3387 0 70 0C108.659 0 140 31.3403 140 70Z" fill="#1EAF71"/>
</g>
<path fill-rule="evenodd" clip-rule="evenodd" d="M86.8486 104.73L71.9294 97.8466C71.0786 97.4466 70.1063 97.4466 69.2553 97.8466L54.3362 104.73C53.3477 105.181 52.1994 105.107 51.2747 104.519C50.3502 103.93 49.8003 102.919 49.8003 101.819V33.5222C49.8003 31.7468 51.2361 30.3232 52.9991 30.3232H88.1857C89.9488 30.3232 91.3846 31.7468 91.3846 33.5222V101.819C91.3846 102.919 90.8346 103.93 89.9102 104.519C88.9855 105.107 87.837 105.181 86.8486 104.73Z" fill="#FFCC5C"/>
<path fill-rule="evenodd" clip-rule="evenodd" d="M88.1857 30.3232H84.9867V98.62C84.9867 99.7208 84.437 100.732 83.5126 101.32C82.5876 101.909 81.4393 101.982 80.4509 101.531L65.5317 94.6478C64.6809 94.2479 63.7085 94.2479 62.8577 94.6478L49.8003 100.67V101.819C49.8003 102.907 50.35 103.93 51.2747 104.519C52.1994 105.107 53.3476 105.181 54.3362 104.718L69.2553 97.834C70.1061 97.4466 71.0786 97.4466 71.9294 97.834L86.8486 104.718C87.8369 105.181 88.9855 105.107 89.91 104.519C90.8344 103.93 91.3845 102.907 91.3845 101.819V33.5222C91.3845 31.7468 89.9488 30.3232 88.1857 30.3232Z" fill="#F7B546"/>
<path fill-rule="evenodd" clip-rule="evenodd" d="M59.3229 89.226C58.8978 89.226 58.4842 89.0498 58.1969 88.7363C57.8705 88.4514 57.7106 88.0513 57.7234 87.6267C57.7234 87.4242 57.7846 87.2006 57.8482 87.0118C57.9222 86.8132 58.0468 86.6506 58.1969 86.501C58.8328 85.9022 59.8349 85.9022 60.4709 86.501C60.7598 86.8007 60.9222 87.2006 60.9222 87.6267C60.9321 88.275 60.5323 88.8612 59.9213 89.1011C59.7327 89.1873 59.5215 89.226 59.3229 89.226ZM59.3229 82.8284C58.7855 82.8284 58.2706 82.5662 57.9858 82.1151C57.6845 81.6765 57.6333 81.1039 57.8482 80.6142C57.9222 80.4156 58.0468 80.2533 58.1969 80.1034C58.7953 79.5045 59.86 79.5045 60.4709 80.1034C60.7598 80.4031 60.9222 80.8029 60.9222 81.2291C60.9222 81.6765 60.7598 82.0537 60.4709 82.3775C60.3087 82.5149 60.1226 82.626 59.9213 82.7034C59.7327 82.7896 59.5215 82.8284 59.3229 82.8284ZM59.3229 76.4308C58.6605 76.4433 58.0718 76.0559 57.822 75.4549C57.5735 74.844 57.7234 74.1569 58.1969 73.7058C58.7953 73.0945 59.86 73.0945 60.4709 73.7058C60.5961 73.8293 60.7211 74.0318 60.7846 74.2168C60.8831 74.4054 60.9222 74.6289 60.9222 74.8178C60.9222 75.2662 60.7598 75.6563 60.4709 75.9674C60.295 76.105 60.1097 76.2283 59.9213 76.3187C59.7227 76.3922 59.5215 76.4308 59.3229 76.4308ZM59.3229 70.0332C58.8978 70.0332 58.4979 69.8694 58.1969 69.5822C57.9096 69.2585 57.7334 68.8586 57.7234 68.4339C57.7234 68.0078 57.9096 67.5954 58.1969 67.3082C58.8328 66.697 59.8349 66.697 60.4709 67.3082C60.5961 67.4317 60.7211 67.6341 60.7846 67.819C60.8831 68.0078 60.9222 68.2314 60.9222 68.4201C60.9222 68.6312 60.8831 68.8338 60.8195 69.0312C60.7211 69.2585 60.5961 69.4062 60.4709 69.5699C60.295 69.7074 60.1226 69.8307 59.9213 69.9211C59.7327 69.9946 59.5215 70.0332 59.3229 70.0332ZM59.3229 63.6358C59.1092 63.6358 58.8978 63.5845 58.7094 63.4982C58.5104 63.4208 58.3345 63.3098 58.1969 63.1461C57.8959 62.861 57.7234 62.4487 57.7234 62.0363C57.7234 61.6102 57.9096 61.1979 58.1969 60.9107C58.8328 60.2994 59.8349 60.2994 60.4709 60.9107C60.5961 61.0342 60.7211 61.2367 60.7972 61.4216C60.8831 61.6102 60.9222 61.8338 60.9222 62.0226C60.9222 62.2337 60.8831 62.4361 60.8195 62.6335C60.6472 63.0334 60.3337 63.3346 59.9213 63.4982C59.7327 63.5845 59.5339 63.6358 59.3229 63.6358ZM81.8614 89.226H65.8676C64.9944 89.226 64.2682 88.5127 64.2682 87.6267C64.2682 86.7495 64.9944 86.0272 65.8676 86.0272H81.8614C82.7513 86.0272 83.461 86.7495 83.461 87.6267C83.461 88.5127 82.7513 89.226 81.8614 89.226ZM81.8614 82.8284H65.8676C64.9944 82.8284 64.2682 82.1151 64.2682 81.2291C64.2682 80.3518 64.9944 79.6298 65.8676 79.6298H81.8614C82.7513 79.6298 83.461 80.3518 83.461 81.2291C83.461 82.1151 82.7513 82.8284 81.8614 82.8284ZM81.8614 76.4308H65.8676C64.9944 76.4308 64.2682 75.7175 64.2682 74.8314C64.2682 73.9544 64.9944 73.232 65.8676 73.232H81.8614C82.7513 73.232 83.461 73.9544 83.461 74.8314C83.461 75.7175 82.7513 76.4308 81.8614 76.4308ZM81.8614 70.0332H65.8676C64.9944 70.0332 64.2682 69.3199 64.2682 68.4339C64.2682 67.5568 64.9944 66.8345 65.8676 66.8345H81.8614C82.7513 66.8345 83.461 67.5568 83.461 68.4339C83.461 69.3199 82.7513 70.0332 81.8614 70.0332ZM81.8614 63.6358H65.8676C64.9944 63.6358 64.2682 62.9225 64.2682 62.0363C64.2682 61.1593 64.9944 60.437 65.8676 60.437H81.8614C82.7513 60.437 83.461 61.1593 83.461 62.0363C83.461 62.9225 82.7513 63.6358 81.8614 63.6358Z" fill="#3C3B42"/>
<path fill-rule="evenodd" clip-rule="evenodd" d="M81.8616 86.0272H78.6629C79.5528 86.0272 80.2622 86.7495 80.2622 87.6267C80.2622 88.5127 79.5528 89.226 78.6629 89.226H81.8616C82.7515 89.226 83.4612 88.5127 83.4612 87.6267C83.4612 86.7495 82.7515 86.0272 81.8616 86.0272ZM81.8616 79.6298H78.6629C79.5528 79.6298 80.2622 80.3519 80.2622 81.2291C80.2622 82.1151 79.5528 82.8284 78.6629 82.8284H81.8616C82.7515 82.8284 83.4612 82.1151 83.4612 81.2291C83.4612 80.3519 82.7515 79.6298 81.8616 79.6298ZM81.8616 73.232H78.6629C79.5528 73.232 80.2622 73.9544 80.2622 74.8314C80.2622 75.7175 79.5528 76.431 78.6629 76.431H81.8616C82.7515 76.431 83.4612 75.7175 83.4612 74.8314C83.4612 73.9544 82.7515 73.232 81.8616 73.232ZM81.8616 66.8346H78.6629C79.5528 66.8346 80.2622 67.5569 80.2622 68.4339C80.2622 69.3199 79.5528 70.0332 78.6629 70.0332H81.8616C82.7515 70.0332 83.4612 69.3199 83.4612 68.4339C83.4612 67.5569 82.7515 66.8346 81.8616 66.8346ZM81.8616 60.437H78.6629C79.5528 60.437 80.2622 61.1593 80.2622 62.0363C80.2622 62.9225 79.5528 63.6358 78.6629 63.6358H81.8616C82.7515 63.6358 83.4612 62.9225 83.4612 62.0363C83.4612 61.1593 82.7515 60.437 81.8616 60.437ZM60.4711 86.501C60.02 86.0874 59.3841 85.9375 58.7955 86.1387C59.0355 86.2121 59.2466 86.3247 59.4215 86.501C59.7228 86.8007 59.8828 87.2006 59.87 87.6267C59.8828 88.275 59.4829 88.8612 58.8841 89.0886C58.8468 89.1136 58.808 89.1011 58.7732 89.1136C58.9455 89.1749 59.1344 89.226 59.3103 89.226C59.534 89.226 59.7327 89.1873 59.9215 89.0886C60.5226 88.8612 60.9224 88.275 60.9096 87.6267C60.9224 87.2006 60.7599 86.8007 60.4711 86.501ZM60.4711 80.1034C60.02 79.6773 59.3841 79.5397 58.808 79.7409C59.0479 79.8145 59.2466 79.9397 59.4215 80.1034C59.7228 80.4031 59.8828 80.803 59.87 81.2291C59.87 81.6638 59.7101 82.0537 59.4215 82.3775C59.259 82.5149 59.0831 82.6134 58.8841 82.6909C58.8468 82.7161 58.808 82.7034 58.7732 82.7161C58.9455 82.7897 59.1218 82.8147 59.3103 82.8284C59.534 82.8284 59.7327 82.7897 59.9215 82.6909C60.1098 82.626 60.2952 82.5024 60.4586 82.3775C60.7462 82.0635 60.9096 81.6538 60.9096 81.2291C60.9224 80.803 60.7599 80.4031 60.4711 80.1034ZM60.7848 74.2168C60.7213 74.018 60.6087 73.8555 60.4711 73.7058C60.02 73.2797 59.3841 73.1422 58.808 73.3433C59.0479 73.417 59.2466 73.5421 59.4215 73.7058C59.5604 73.8293 59.6837 74.0318 59.7453 74.2168C59.8476 74.4054 59.87 74.629 59.87 74.8178C59.87 75.2662 59.7101 75.6563 59.4215 75.9674C59.259 76.105 59.0702 76.2285 58.8841 76.3187L58.8329 76.3284C59.1854 76.4558 59.5729 76.4433 59.9215 76.3187C60.1098 76.2285 60.2952 76.105 60.4711 75.9674C60.7599 75.6563 60.9224 75.2439 60.9224 74.8178C60.9224 74.6165 60.871 74.4054 60.7848 74.2168ZM60.7848 67.8192C60.7213 67.6204 60.6087 67.4579 60.4711 67.3084C60.02 66.8948 59.3841 66.7448 58.7955 66.9459C59.0355 67.0195 59.2466 67.1321 59.4215 67.3084C59.5604 67.4317 59.6837 67.6343 59.7453 67.8192C59.8476 68.0078 59.87 68.2314 59.87 68.4202C59.87 68.6312 59.8476 68.8338 59.784 69.0312C59.6837 69.2585 59.5604 69.4062 59.4352 69.5699C59.259 69.7074 59.0831 69.8307 58.8841 69.9211L58.8468 69.9311C59.198 70.0582 59.5729 70.0459 59.9215 69.9211C60.1227 69.8307 60.2952 69.7074 60.4711 69.5699C60.5961 69.4062 60.7213 69.2585 60.8197 69.0312C60.8833 68.8338 60.9224 68.6452 60.9224 68.4202C60.9224 68.2189 60.871 68.0078 60.7848 67.8192ZM60.7848 61.4216C60.6474 61.0093 60.3214 60.6993 59.9215 60.5622C59.5852 60.437 59.2079 60.437 58.8716 60.5622H58.8841C59.284 60.7117 59.5952 61.0217 59.7453 61.4216C59.8476 61.6102 59.87 61.8338 59.87 62.0226C59.87 62.2337 59.8476 62.4362 59.784 62.6335C59.6076 63.0334 59.284 63.3347 58.8841 63.4982C58.8591 63.5108 58.8205 63.4982 58.7955 63.5108C58.9581 63.5845 59.1468 63.6219 59.3231 63.6219C59.5467 63.6219 59.7327 63.5845 59.9215 63.4982C60.3214 63.3347 60.6474 63.0334 60.8197 62.6335C60.8833 62.4362 60.9224 62.2474 60.9224 62.0226C60.9224 61.8215 60.871 61.6102 60.7848 61.4216Z" fill="#2B2A2F"/>
<path fill-rule="evenodd" clip-rule="evenodd" d="M71.6157 37.0947L73.3176 40.505C73.4777 40.8573 73.8035 41.0932 74.1784 41.1422L77.9532 41.692C78.3906 41.7558 78.7529 42.0567 78.8764 42.4789C79.014 42.8916 78.9026 43.3426 78.5893 43.6562L75.8538 46.3175C75.589 46.5801 75.464 46.9675 75.528 47.3287L76.1776 51.1032C76.2412 51.5283 76.065 51.963 75.7167 52.2128C75.3654 52.475 74.8918 52.5141 74.5044 52.3152L71.1297 50.5274C70.7909 50.3511 70.3936 50.3511 70.0672 50.5274L66.6802 52.3152C66.2927 52.5141 65.8327 52.475 65.4679 52.2253C65.1194 51.963 64.9432 51.5283 65.0193 51.1032L65.6691 47.3287C65.7304 46.9675 65.6054 46.5801 65.3305 46.3175L62.5954 43.6562C62.2818 43.3426 62.1705 42.8916 62.308 42.4789C62.4452 42.0567 62.8063 41.7558 63.2312 41.692L67.0185 41.1422C67.3935 41.0807 67.7069 40.8573 67.8796 40.505L69.5689 37.0947C69.7538 36.695 70.1537 36.4463 70.5921 36.4463C71.0307 36.4463 71.4306 36.695 71.6157 37.0947Z" fill="#F04C4D"/>
<path fill-rule="evenodd" clip-rule="evenodd" d="M78.5892 43.6562C78.9026 43.3426 79.0139 42.8916 78.8763 42.4691C78.7529 42.0567 78.3905 41.7558 77.9531 41.692L74.1784 41.1422C73.8036 41.0807 73.4776 40.8573 73.3176 40.505L71.6156 37.0947C71.4305 36.695 71.0308 36.4463 70.5922 36.4463C70.1537 36.4463 69.7537 36.695 69.5689 37.0947L68.8042 38.618L70.1188 41.2695C70.2786 41.6181 70.6045 41.8418 70.9796 41.9067L74.767 42.4566C75.1917 42.518 75.5541 42.8177 75.6914 43.2438C75.8151 43.6562 75.704 44.1036 75.4028 44.417L72.6651 47.0784C72.3903 47.3411 72.2651 47.7283 72.3291 48.0896L72.9177 51.4769L74.5043 52.3152C74.8917 52.5141 75.3653 52.4752 75.7166 52.2253C76.0774 51.963 76.2537 51.5283 76.1776 51.1032L75.5279 47.3411C75.4639 46.9675 75.5889 46.5927 75.8538 46.3175L78.5892 43.6562Z" fill="#E13340"/>
</svg>
