<svg width="140" height="140" viewBox="0 0 140 140" fill="none" xmlns="http://www.w3.org/2000/svg">
<mask id="mask0_0_4907" style="mask-type:luminance" maskUnits="userSpaceOnUse" x="0" y="0" width="140" height="140">
<path fill-rule="evenodd" clip-rule="evenodd" d="M0 0H140V140H0V0Z" fill="white"/>
</mask>
<g mask="url(#mask0_0_4907)">
<path fill-rule="evenodd" clip-rule="evenodd" d="M140 70C140 108.66 108.659 140 70 140C31.3387 140 0 108.66 0 70C0 31.3403 31.3387 0 70 0C108.659 0 140 31.3403 140 70Z" fill="#3BAFDA"/>
</g>
<path fill-rule="evenodd" clip-rule="evenodd" d="M47.6983 59.1988L67.3014 39.598C68.5046 38.3959 68.5046 36.4462 67.3014 35.2446V35.2419C66.0984 34.0398 64.1458 34.0398 62.9481 35.2419L38.9895 59.1988H47.6983Z" fill="#FC6E51"/>
<path fill-rule="evenodd" clip-rule="evenodd" d="M42.3692 57.7993H47.119L66.311 38.6083C66.6272 38.2944 66.8042 37.8672 66.8033 37.4215C66.8033 36.9726 66.6283 36.5519 66.3116 36.2346C65.6742 35.5974 64.568 35.5989 63.9394 36.2308L42.3692 57.7993ZM47.6982 60.5993H38.9894C38.423 60.5998 37.9125 60.2587 37.6959 59.735C37.4794 59.212 37.599 58.6093 37.9997 58.2093L61.9581 34.2523C63.6399 32.5652 66.5957 32.557 68.2911 34.2523C69.1374 35.0997 69.6037 36.2249 69.6037 37.4215C69.6037 38.6176 69.1374 39.7428 68.2911 40.5879L48.6881 60.1894C48.426 60.4519 48.0697 60.5993 47.6982 60.5993Z" fill="#575757"/>
<path fill-rule="evenodd" clip-rule="evenodd" d="M92.299 59.1988L72.696 39.598C71.4956 38.3959 71.4956 36.4462 72.696 35.2446L72.6987 35.2419C73.8991 34.0398 75.8489 34.0398 77.052 35.2419L101.011 59.1988H92.299Z" fill="#FC6E51"/>
<path fill-rule="evenodd" clip-rule="evenodd" d="M92.8789 57.7994H97.6307L76.0622 36.2321C75.4277 35.6002 74.323 35.5975 73.6885 36.2321C73.0327 36.8883 73.0327 37.9549 73.6857 38.6079L92.8789 57.7994ZM101.011 60.5994H92.2989C91.9276 60.5994 91.5712 60.4521 91.3092 60.189L71.7062 40.588C69.9616 38.8425 69.9616 36.0014 71.7062 34.2552C73.4014 32.5599 76.3492 32.5599 78.0418 34.2524L102 58.2099C102.401 58.6101 102.521 59.2122 102.304 59.7352C102.088 60.2589 101.577 60.6 101.011 60.5994Z" fill="#575757"/>
<mask id="mask1_0_4907" style="mask-type:luminance" maskUnits="userSpaceOnUse" x="0" y="0" width="140" height="140">
<path fill-rule="evenodd" clip-rule="evenodd" d="M0 140H140V0H0V140Z" fill="white"/>
</mask>
<g mask="url(#mask1_0_4907)">
<path fill-rule="evenodd" clip-rule="evenodd" d="M30.7998 65.008H109.2V59.1987H30.7998V65.008Z" fill="white"/>
<path fill-rule="evenodd" clip-rule="evenodd" d="M32.2003 63.6088H107.8V60.5993H32.2003V63.6088ZM109.2 66.4086H30.8C30.0262 66.4086 29.4004 65.7821 29.4004 65.0083V59.199C29.4004 58.4253 30.0262 57.7993 30.8 57.7993H109.2C109.974 57.7993 110.6 58.4253 110.6 59.199V65.0083C110.6 65.3798 110.453 65.7361 110.191 65.9987C109.928 66.2613 109.572 66.4086 109.2 66.4086Z" fill="#575757"/>
<path fill-rule="evenodd" clip-rule="evenodd" d="M44.5453 105.661H95.4546C98.3416 105.661 100.792 103.533 101.199 100.674L106.296 65.0083H33.7036L38.7977 100.674C39.2081 103.533 41.6556 105.66 44.5453 105.66V105.661Z" fill="#FFB933"/>
<path fill-rule="evenodd" clip-rule="evenodd" d="M35.3184 66.4083L40.1844 100.476C40.4936 102.634 42.3692 104.26 44.5453 104.26H95.4546C97.6324 104.26 99.5052 102.634 99.8128 100.477L104.682 66.4083H35.3184ZM95.4546 107.06H44.5453C40.9859 107.06 37.919 104.4 37.4116 100.872L32.3175 65.2062C32.2601 64.8045 32.3804 64.3967 32.6457 64.0908C32.9122 63.7843 33.2982 63.6084 33.7036 63.6084H106.296C106.702 63.6084 107.088 63.7843 107.354 64.0908C107.62 64.3978 107.74 64.8045 107.682 65.2062L102.586 100.872C102.083 104.4 99.0174 107.06 95.4546 107.06Z" fill="#575757"/>
<path fill-rule="evenodd" clip-rule="evenodd" d="M49.6725 95.4434H43.8647C43.091 95.4434 42.4646 94.8175 42.4646 94.0437C42.4646 93.2694 43.091 92.6434 43.8647 92.6434H49.6725C50.4468 92.6434 51.0727 93.2694 51.0727 94.0437C51.0727 94.8175 50.4468 95.4434 49.6725 95.4434ZM61.2884 95.4434H55.4829C54.7092 95.4434 54.0832 94.8175 54.0832 94.0437C54.0832 93.2694 54.7096 92.6434 55.4829 92.6434H61.2884C62.0621 92.6434 62.6881 93.2694 62.6881 94.0437C62.6881 94.8175 62.0621 95.4434 61.2884 95.4434ZM72.9038 95.4434H67.0961C66.3224 95.4434 65.6959 94.8175 65.6959 94.0437C65.6959 93.2694 66.3224 92.6434 67.0961 92.6434H72.9038C73.6775 92.6434 74.3041 93.2694 74.3041 94.0437C74.3041 94.8175 73.6775 95.4434 72.9038 95.4434ZM84.517 95.4434H78.7116C77.9378 95.4434 77.3118 94.8175 77.3118 94.0437C77.3118 93.2694 77.9378 92.6434 78.7116 92.6434H84.517C84.8879 92.6434 85.2443 92.7908 85.5068 93.0533C85.7695 93.316 85.9167 93.6724 85.9167 94.0437C85.9167 94.8175 85.2907 95.4434 84.5166 95.4434H84.517ZM96.1324 95.4434H90.3248C89.551 95.4434 88.9245 94.8175 88.9245 94.0437C88.9245 93.2694 89.551 92.6434 90.3248 92.6434H96.1324C96.9062 92.6434 97.5327 93.2694 97.5327 94.0437C97.5327 94.8175 96.9062 95.4434 96.1324 95.4434ZM49.6725 86.7335H43.8647C43.091 86.7335 42.4646 86.1071 42.4646 85.3332C42.4646 84.5595 43.091 83.9331 43.8647 83.9331H49.6725C50.4468 83.9331 51.0727 84.5595 51.0727 85.3332C51.0727 86.1071 50.4468 86.7335 49.6725 86.7335ZM61.2884 86.7335H55.4829C54.7092 86.7335 54.0832 86.1071 54.0832 85.3332C54.0832 84.5595 54.7096 83.9331 55.4829 83.9331H61.2884C62.0621 83.9331 62.6881 84.5595 62.6881 85.3332C62.6881 86.1071 62.0621 86.7335 61.2884 86.7335ZM72.9038 86.7335H67.0961C66.3224 86.7335 65.6959 86.1071 65.6959 85.3332C65.6959 84.5595 66.3224 83.9331 67.0961 83.9331H72.9038C73.6775 83.9331 74.3041 84.5595 74.3041 85.3332C74.3041 86.1071 73.6775 86.7335 72.9038 86.7335ZM84.517 86.7335H78.7116C77.9378 86.7335 77.3118 86.1071 77.3118 85.3332C77.3118 84.5595 77.9378 83.9331 78.7116 83.9331H84.517C84.8879 83.9331 85.2443 84.0803 85.5068 84.343C85.7695 84.6055 85.9167 84.9619 85.9167 85.3332C85.9167 86.1071 85.2907 86.7335 84.5166 86.7335H84.517ZM96.1324 86.7335H90.3248C89.551 86.7335 88.9245 86.1071 88.9245 85.3332C88.9245 84.5595 89.551 83.9331 90.3248 83.9331H96.1324C96.9062 83.9331 97.5327 84.5595 97.5327 85.3332C97.5327 86.1071 96.9062 86.7335 96.1324 86.7335ZM49.6725 78.023H43.8647C43.091 78.023 42.4646 77.3966 42.4646 76.6229C42.4646 75.8491 43.091 75.2231 43.8647 75.2231H49.6725C50.4468 75.2231 51.0727 75.8491 51.0727 76.6229C51.0727 77.3966 50.4468 78.023 49.6725 78.023ZM61.2884 78.023H55.4829C54.7092 78.023 54.0832 77.3966 54.0832 76.6229C54.0832 75.8491 54.7096 75.2231 55.4829 75.2231H61.2884C62.0621 75.2231 62.6881 75.8491 62.6881 76.6229C62.6881 77.3966 62.0621 78.023 61.2884 78.023ZM72.9038 78.023H67.0961C66.3224 78.023 65.6959 77.3966 65.6959 76.6229C65.6959 75.8491 66.3224 75.2231 67.0961 75.2231H72.9038C73.6775 75.2231 74.3041 75.8491 74.3041 76.6229C74.3041 77.3966 73.6775 78.023 72.9038 78.023ZM84.517 78.023H78.7116C77.9378 78.023 77.3118 77.3966 77.3118 76.6229C77.3118 75.8491 77.9378 75.2231 78.7116 75.2231H84.517C84.8879 75.2226 85.2443 75.3699 85.5068 75.6325C85.7695 75.8951 85.9167 76.2514 85.9167 76.6229C85.9167 77.3966 85.2907 78.023 84.5166 78.023H84.517ZM96.1324 78.023H90.3248C89.551 78.023 88.9245 77.3966 88.9245 76.6229C88.9245 75.8491 89.551 75.2231 90.3248 75.2231H96.1324C96.9062 75.2231 97.5327 75.8491 97.5327 76.6229C97.5327 77.3966 96.9062 78.023 96.1324 78.023Z" fill="#575757"/>
</g>
</svg>
