<svg width="25" height="24" viewBox="0 0 25 24" fill="none" xmlns="http://www.w3.org/2000/svg">
<path fill-rule="evenodd" clip-rule="evenodd" d="M8.05646 21.3435C7.84366 21.3451 7.63926 21.2623 7.48766 21.1123C7.33606 20.9623 7.25166 20.7591 7.25006 20.5467V14.0731C7.25006 13.6279 7.61086 13.2671 8.05646 13.2671C8.50166 13.2671 8.86086 13.6279 8.86086 14.0731V20.5467C8.86086 20.7591 8.77526 20.9623 8.62366 21.1123C8.47206 21.2623 8.26726 21.3451 8.05486 21.3435H8.05646ZM16.1125 21.3435C15.9001 21.3451 15.6953 21.2623 15.5437 21.1123C15.3937 20.9623 15.3077 20.7591 15.3065 20.5467V14.0731C15.3065 13.6279 15.6673 13.2671 16.1125 13.2671C16.5577 13.2671 16.9173 13.6279 16.9173 14.0731V20.5467C16.9173 20.7591 16.8313 20.9623 16.6797 21.1123C16.5281 21.2623 16.3233 21.3451 16.1109 21.3435H16.1125ZM12.0845 21.3435C11.8721 21.3451 11.6673 21.2623 11.5157 21.1123C11.3657 20.9623 11.2797 20.7591 11.2781 20.5467V14.0731C11.2781 13.6279 11.6393 13.2671 12.0845 13.2671C12.5297 13.2671 12.8905 13.6279 12.8905 14.0731V20.5467C12.8893 20.7591 12.8033 20.9623 12.6517 21.1123C12.5001 21.2623 12.2953 21.3451 12.0829 21.3435H12.0845ZM21.4845 10.4887H2.68126C2.09526 10.4887 1.62206 10.0139 1.62206 9.42955C1.62206 8.84355 2.09526 8.36835 2.68126 8.36835H21.4845C22.0705 8.36835 22.5437 8.84355 22.5437 9.42955C22.5437 10.0139 22.0705 10.4887 21.4845 10.4887ZM21.3469 19.9855C21.3361 21.2747 20.2845 22.3123 18.9953 22.3043H5.16886C3.87966 22.3123 2.82806 21.2747 2.81726 19.9855V12.0811H21.3453V19.9843L21.3469 19.9855ZM21.4845 6.77635H20.1641L24.0233 1.24835C24.1453 1.07475 24.1937 0.860748 24.1565 0.652748C24.1189 0.443548 23.9985 0.259148 23.8233 0.140348C23.4565 -0.109652 22.9565 -0.0172525 22.7033 0.348348L18.2065 6.77635H5.95966L1.46406 0.348348C1.21086 -0.0172525 0.710857 -0.109652 0.343657 0.140348C0.168857 0.259148 0.0500575 0.443548 0.0124575 0.652748C-0.0247425 0.860748 0.0220575 1.07475 0.143657 1.24835L4.00326 6.77635H2.68286C1.50486 6.76075 0.456457 7.52635 0.114057 8.65595C-0.226343 9.78435 0.218857 11.0027 1.20966 11.6451V19.9855C1.22966 22.1559 2.99846 23.9027 5.16886 23.8967H18.9937C21.1657 23.9059 22.9377 22.1575 22.9577 19.9855V11.6435C23.9469 11.0027 24.3921 9.78435 24.0517 8.65595C23.7093 7.52795 22.6625 6.76235 21.4845 6.77635Z" fill="white"/>
</svg>
