<svg width="380" height="200" viewBox="0 0 380 200" fill="none" xmlns="http://www.w3.org/2000/svg">
<g clip-path="url(#clip0_0_4596)">
<g filter="url(#filter0_d_0_4596)">
<rect width="380" height="200" rx="20" fill="#483838"/>
</g>
<path fill-rule="evenodd" clip-rule="evenodd" d="M0 163C0 163 109.346 180.135 167.5 175.5C225.654 170.865 231.485 146.131 263.5 142C295.515 137.869 313 170 338 153.5C363 137 380 66.5 380 66.5V180C380 191.046 371.046 200 360 200H0" fill="#4F3B3B"/>
<path fill-rule="evenodd" clip-rule="evenodd" d="M0 54C0 54 19.8603 34.6607 35.5 32.5C51.1397 30.3393 55.5542 45.7406 76 43.5C96.4458 41.2594 97.9318 27.0595 108.5 24.5C119.068 21.9405 124 32.5 140 28C156 23.5 168.5 0 168.5 0H0" fill="#4F3B3B"/>
<path d="M220.259 59.592V62.248H224.851V64.296H220.259V66.952H225.363V69H218.099V57.544H225.363V59.592H220.259ZM227.893 69V57.544H229.989V69H227.893ZM233.751 60.024C233.57 60.024 233.394 59.992 233.223 59.928C233.063 59.8533 232.919 59.7573 232.791 59.64C232.674 59.512 232.578 59.368 232.503 59.208C232.439 59.048 232.407 58.872 232.407 58.68C232.407 58.488 232.439 58.312 232.503 58.152C232.578 57.992 232.674 57.8533 232.791 57.736C232.919 57.608 233.063 57.512 233.223 57.448C233.394 57.3733 233.57 57.336 233.751 57.336C234.125 57.336 234.445 57.4693 234.711 57.736C234.978 57.992 235.111 58.3067 235.111 58.68C235.111 59.0533 234.978 59.3733 234.711 59.64C234.445 59.896 234.125 60.024 233.751 60.024ZM232.711 69V61.16H234.807V69H232.711ZM237.14 67.272L241.14 62.952H237.268V61.16H243.716V62.888L239.716 67.208H243.78V69H237.14V67.272ZM250.656 68.168H250.528C250.283 68.4667 249.984 68.7227 249.632 68.936C249.291 69.1493 248.848 69.256 248.304 69.256C247.899 69.256 247.515 69.1867 247.152 69.048C246.8 68.92 246.491 68.7387 246.224 68.504C245.957 68.2693 245.749 67.9867 245.6 67.656C245.451 67.3253 245.376 66.9627 245.376 66.568C245.376 66.1627 245.456 65.8 245.616 65.48C245.776 65.1493 246 64.8667 246.288 64.632C246.576 64.3973 246.912 64.2213 247.296 64.104C247.691 63.976 248.117 63.912 248.576 63.912C249.088 63.912 249.509 63.9547 249.84 64.04C250.171 64.1147 250.443 64.1947 250.656 64.28V64.04C250.656 63.624 250.491 63.2827 250.16 63.016C249.829 62.7387 249.419 62.6 248.928 62.6C248.203 62.6 247.589 62.904 247.088 63.512L245.568 62.472C246.4 61.4267 247.536 60.904 248.976 60.904C250.192 60.904 251.12 61.192 251.76 61.768C252.4 62.3333 252.72 63.176 252.72 64.296V69H250.656V68.168ZM250.656 65.816C250.411 65.6987 250.155 65.608 249.888 65.544C249.632 65.4693 249.349 65.432 249.04 65.432C248.539 65.432 248.149 65.544 247.872 65.768C247.605 65.9813 247.472 66.248 247.472 66.568C247.472 66.888 247.6 67.144 247.856 67.336C248.123 67.528 248.427 67.624 248.768 67.624C249.045 67.624 249.301 67.576 249.536 67.48C249.771 67.3733 249.968 67.24 250.128 67.08C250.299 66.9093 250.427 66.7173 250.512 66.504C250.608 66.28 250.656 66.0507 250.656 65.816ZM255.187 57.544H257.283V60.984L257.155 62.104H257.283C257.475 61.7733 257.773 61.4907 258.179 61.256C258.584 61.0213 259.085 60.904 259.683 60.904C260.184 60.904 260.659 61.0107 261.107 61.224C261.565 61.4267 261.965 61.7147 262.307 62.088C262.659 62.4507 262.936 62.888 263.139 63.4C263.341 63.912 263.443 64.472 263.443 65.08C263.443 65.688 263.341 66.248 263.139 66.76C262.936 67.272 262.659 67.7147 262.307 68.088C261.965 68.4507 261.565 68.7387 261.107 68.952C260.659 69.1547 260.184 69.256 259.683 69.256C259.085 69.256 258.584 69.1387 258.179 68.904C257.773 68.6693 257.475 68.3867 257.283 68.056H257.155V69H255.187V57.544ZM259.251 67.32C259.528 67.32 259.789 67.2667 260.035 67.16C260.291 67.0533 260.515 66.904 260.707 66.712C260.899 66.52 261.053 66.2853 261.171 66.008C261.288 65.7307 261.347 65.4213 261.347 65.08C261.347 64.7387 261.288 64.4293 261.171 64.152C261.053 63.8747 260.899 63.64 260.707 63.448C260.515 63.256 260.291 63.1067 260.035 63C259.789 62.8933 259.528 62.84 259.251 62.84C258.973 62.84 258.707 62.8933 258.451 63C258.205 63.096 257.987 63.24 257.795 63.432C257.603 63.624 257.448 63.8587 257.331 64.136C257.213 64.4133 257.155 64.728 257.155 65.08C257.155 65.432 257.213 65.7467 257.331 66.024C257.448 66.3013 257.603 66.536 257.795 66.728C257.987 66.92 258.205 67.0693 258.451 67.176C258.707 67.272 258.973 67.32 259.251 67.32ZM273.004 67.112C272.642 67.752 272.151 68.2693 271.532 68.664C270.924 69.0587 270.178 69.256 269.292 69.256C268.695 69.256 268.14 69.1547 267.628 68.952C267.127 68.7387 266.69 68.4453 266.316 68.072C265.943 67.6987 265.65 67.2613 265.436 66.76C265.234 66.248 265.132 65.688 265.132 65.08C265.132 64.5147 265.234 63.9813 265.436 63.48C265.639 62.968 265.922 62.5253 266.284 62.152C266.647 61.768 267.074 61.464 267.564 61.24C268.066 61.016 268.615 60.904 269.212 60.904C269.842 60.904 270.402 61.0107 270.892 61.224C271.383 61.4267 271.794 61.7147 272.124 62.088C272.455 62.4507 272.706 62.8827 272.876 63.384C273.047 63.8853 273.132 64.4293 273.132 65.016C273.132 65.0907 273.132 65.1547 273.132 65.208C273.122 65.272 273.116 65.3307 273.116 65.384C273.106 65.4373 273.1 65.496 273.1 65.56H267.196C267.239 65.88 267.324 66.1573 267.452 66.392C267.591 66.616 267.756 66.808 267.948 66.968C268.151 67.1173 268.37 67.2293 268.604 67.304C268.839 67.368 269.079 67.4 269.324 67.4C269.804 67.4 270.199 67.2933 270.508 67.08C270.828 66.856 271.079 66.5787 271.26 66.248L273.004 67.112ZM271.1 64.072C271.09 63.9333 271.042 63.7787 270.956 63.608C270.882 63.4373 270.764 63.2773 270.604 63.128C270.455 62.9787 270.263 62.856 270.028 62.76C269.804 62.664 269.532 62.616 269.212 62.616C268.764 62.616 268.37 62.744 268.028 63C267.687 63.256 267.447 63.6133 267.308 64.072H271.1ZM275.901 62.952H274.525V61.16H275.901V58.76H277.997V61.16H279.917V62.952H277.997V65.992C277.997 66.1733 278.013 66.344 278.045 66.504C278.087 66.6533 278.162 66.7813 278.269 66.888C278.418 67.0587 278.631 67.144 278.909 67.144C279.09 67.144 279.234 67.128 279.341 67.096C279.447 67.0533 279.549 67 279.645 66.936L280.237 68.776C279.991 68.8933 279.725 68.9787 279.437 69.032C279.159 69.096 278.85 69.128 278.509 69.128C278.114 69.128 277.757 69.0693 277.437 68.952C277.127 68.824 276.866 68.6533 276.653 68.44C276.151 67.96 275.901 67.2773 275.901 66.392V62.952ZM282.337 57.544H284.433V60.76L284.305 62.184H284.433C284.657 61.8107 284.977 61.5067 285.393 61.272C285.819 61.0267 286.294 60.904 286.817 60.904C287.83 60.904 288.577 61.2027 289.057 61.8C289.547 62.3973 289.793 63.2133 289.793 64.248V69H287.697V64.504C287.697 63.96 287.569 63.5493 287.313 63.272C287.057 62.984 286.699 62.84 286.241 62.84C285.953 62.84 285.697 62.904 285.473 63.032C285.249 63.1493 285.057 63.3147 284.897 63.528C284.747 63.7413 284.63 63.992 284.545 64.28C284.47 64.5573 284.433 64.856 284.433 65.176V69H282.337V57.544ZM299.755 57.544H302.219L306.523 69H304.139L303.195 66.264H298.779L297.835 69H295.451L299.755 57.544ZM302.491 64.28L301.467 61.416L301.051 60.024H300.923L300.507 61.416L299.483 64.28H302.491ZM309.672 69.096C309.288 69.096 308.958 68.9627 308.68 68.696C308.414 68.4187 308.28 68.088 308.28 67.704C308.28 67.32 308.414 66.9947 308.68 66.728C308.958 66.4613 309.288 66.328 309.672 66.328C310.056 66.328 310.382 66.4613 310.648 66.728C310.915 66.9947 311.048 67.32 311.048 67.704C311.048 68.088 310.915 68.4187 310.648 68.696C310.382 68.9627 310.056 69.096 309.672 69.096ZM318.077 57.544H321.949C322.856 57.544 323.672 57.6827 324.397 57.96C325.122 58.2373 325.741 58.632 326.253 59.144C326.765 59.6453 327.154 60.248 327.421 60.952C327.698 61.656 327.837 62.4293 327.837 63.272C327.837 64.1253 327.698 64.904 327.421 65.608C327.154 66.312 326.765 66.9147 326.253 67.416C325.741 67.9173 325.122 68.3067 324.397 68.584C323.672 68.8613 322.856 69 321.949 69H318.077V57.544ZM321.853 66.952C322.482 66.952 323.037 66.8667 323.517 66.696C323.997 66.5147 324.397 66.264 324.717 65.944C325.037 65.624 325.277 65.24 325.437 64.792C325.597 64.3333 325.677 63.8267 325.677 63.272C325.677 62.7173 325.597 62.216 325.437 61.768C325.277 61.3093 325.037 60.92 324.717 60.6C324.397 60.28 323.997 60.0347 323.517 59.864C323.037 59.6827 322.482 59.592 321.853 59.592H320.237V66.952H321.853ZM331.289 60.024C331.108 60.024 330.932 59.992 330.761 59.928C330.601 59.8533 330.457 59.7573 330.329 59.64C330.212 59.512 330.116 59.368 330.041 59.208C329.977 59.048 329.945 58.872 329.945 58.68C329.945 58.488 329.977 58.312 330.041 58.152C330.116 57.992 330.212 57.8533 330.329 57.736C330.457 57.608 330.601 57.512 330.761 57.448C330.932 57.3733 331.108 57.336 331.289 57.336C331.662 57.336 331.982 57.4693 332.249 57.736C332.516 57.992 332.649 58.3067 332.649 58.68C332.649 59.0533 332.516 59.3733 332.249 59.64C331.982 59.896 331.662 60.024 331.289 60.024ZM330.249 69V61.16H332.345V69H330.249ZM337.014 65.016L334.326 61.16H336.806L338.23 63.336H338.342L339.686 61.16H342.246L339.494 65.016L342.246 69H339.782L338.31 66.76H338.198L336.774 69H334.294L337.014 65.016ZM347.558 60.904C348.166 60.904 348.721 61.0107 349.222 61.224C349.734 61.4267 350.171 61.7147 350.534 62.088C350.907 62.4507 351.195 62.888 351.398 63.4C351.611 63.912 351.718 64.472 351.718 65.08C351.718 65.688 351.611 66.248 351.398 66.76C351.195 67.272 350.907 67.7147 350.534 68.088C350.171 68.4507 349.734 68.7387 349.222 68.952C348.721 69.1547 348.166 69.256 347.558 69.256C346.95 69.256 346.39 69.1547 345.878 68.952C345.377 68.7387 344.939 68.4507 344.566 68.088C344.203 67.7147 343.915 67.272 343.702 66.76C343.499 66.248 343.398 65.688 343.398 65.08C343.398 64.472 343.499 63.912 343.702 63.4C343.915 62.888 344.203 62.4507 344.566 62.088C344.939 61.7147 345.377 61.4267 345.878 61.224C346.39 61.0107 346.95 60.904 347.558 60.904ZM347.558 67.32C347.825 67.32 348.081 67.272 348.326 67.176C348.582 67.0693 348.806 66.92 348.998 66.728C349.19 66.536 349.339 66.3013 349.446 66.024C349.563 65.7467 349.622 65.432 349.622 65.08C349.622 64.728 349.563 64.4133 349.446 64.136C349.339 63.8587 349.19 63.624 348.998 63.432C348.806 63.24 348.582 63.096 348.326 63C348.081 62.8933 347.825 62.84 347.558 62.84C347.281 62.84 347.019 62.8933 346.774 63C346.529 63.096 346.31 63.24 346.118 63.432C345.926 63.624 345.771 63.8587 345.654 64.136C345.547 64.4133 345.494 64.728 345.494 65.08C345.494 65.432 345.547 65.7467 345.654 66.024C345.771 66.3013 345.926 66.536 346.118 66.728C346.31 66.92 346.529 67.0693 346.774 67.176C347.019 67.272 347.281 67.32 347.558 67.32ZM355.677 62.184H355.805C356.05 61.7893 356.381 61.48 356.797 61.256C357.213 61.0213 357.687 60.904 358.221 60.904C358.711 60.904 359.143 60.984 359.517 61.144C359.89 61.304 360.194 61.5333 360.429 61.832C360.674 62.12 360.855 62.472 360.973 62.888C361.101 63.2933 361.165 63.7467 361.165 64.248V69H359.069V64.504C359.069 63.9387 358.941 63.5227 358.685 63.256C358.439 62.9787 358.077 62.84 357.597 62.84C357.309 62.84 357.053 62.904 356.829 63.032C356.615 63.1493 356.429 63.3147 356.269 63.528C356.119 63.7307 356.002 63.976 355.917 64.264C355.842 64.5413 355.805 64.84 355.805 65.16V69H353.709V61.16H355.677V62.184Z" fill="white"/>
<path d="M15.72 14.84H17.07V22H15.72V14.84ZM18.913 14.84H20.483L23.363 19.64H23.443L23.363 18.26V14.84H24.703V22H23.283L20.243 16.93H20.163L20.243 18.31V22H18.913V14.84ZM28.0595 22V16.12H26.0595V14.84H31.4095V16.12H29.4095V22H28.0595ZM34.1196 16.12V17.78H36.9896V19.06H34.1196V20.72H37.3096V22H32.7696V14.84H37.3096V16.12H34.1196ZM38.9509 14.84H41.5609C41.9209 14.84 42.2475 14.8967 42.5409 15.01C42.8342 15.1233 43.0842 15.28 43.2909 15.48C43.5042 15.68 43.6675 15.92 43.7809 16.2C43.8942 16.4733 43.9509 16.7733 43.9509 17.1C43.9509 17.34 43.9109 17.5667 43.8309 17.78C43.7509 17.9867 43.6409 18.1767 43.5009 18.35C43.3609 18.5167 43.1975 18.6667 43.0109 18.8C42.8242 18.9267 42.6275 19.0267 42.4209 19.1L42.4109 19.17L44.3309 21.92V22H42.7809L40.9309 19.31H40.3009V22H38.9509V14.84ZM41.5509 18.07C41.8575 18.07 42.1075 17.9767 42.3009 17.79C42.5009 17.6033 42.6009 17.3667 42.6009 17.08C42.6009 16.9533 42.5775 16.83 42.5309 16.71C42.4909 16.59 42.4275 16.4833 42.3409 16.39C42.2542 16.2967 42.1442 16.2233 42.0109 16.17C41.8842 16.11 41.7375 16.08 41.5709 16.08H40.3009V18.07H41.5509ZM45.552 14.84H47.122L50.002 19.64H50.082L50.002 18.26V14.84H51.342V22H49.922L46.882 16.93H46.802L46.882 18.31V22H45.552V14.84ZM55.2686 14.84H56.8086L59.4986 22H58.0086L57.4186 20.29H54.6586L54.0686 22H52.5786L55.2686 14.84ZM56.9786 19.05L56.3386 17.26L56.0786 16.39H55.9986L55.7386 17.26L55.0986 19.05H56.9786ZM61.6025 22V16.12H59.6025V14.84H64.9525V16.12H62.9525V22H61.6025ZM66.3126 14.84H67.6626V22H66.3126V14.84ZM72.7979 22.16C72.2646 22.16 71.7679 22.0633 71.3079 21.87C70.8546 21.6767 70.4612 21.4133 70.1279 21.08C69.7946 20.74 69.5312 20.3433 69.3379 19.89C69.1512 19.43 69.0579 18.94 69.0579 18.42C69.0579 17.9 69.1512 17.4133 69.3379 16.96C69.5312 16.5 69.7946 16.1033 70.1279 15.77C70.4612 15.43 70.8546 15.1633 71.3079 14.97C71.7679 14.7767 72.2646 14.68 72.7979 14.68C73.3312 14.68 73.8246 14.7767 74.2779 14.97C74.7379 15.1633 75.1346 15.43 75.4679 15.77C75.8012 16.1033 76.0612 16.5 76.2479 16.96C76.4412 17.4133 76.5379 17.9 76.5379 18.42C76.5379 18.94 76.4412 19.43 76.2479 19.89C76.0612 20.3433 75.8012 20.74 75.4679 21.08C75.1346 21.4133 74.7379 21.6767 74.2779 21.87C73.8246 22.0633 73.3312 22.16 72.7979 22.16ZM72.7979 20.88C73.1312 20.88 73.4412 20.82 73.7279 20.7C74.0212 20.58 74.2746 20.4133 74.4879 20.2C74.7079 19.9867 74.8779 19.73 74.9979 19.43C75.1246 19.1233 75.1879 18.7867 75.1879 18.42C75.1879 18.0533 75.1246 17.72 74.9979 17.42C74.8779 17.1133 74.7079 16.8533 74.4879 16.64C74.2746 16.4267 74.0212 16.26 73.7279 16.14C73.4412 16.02 73.1312 15.96 72.7979 15.96C72.4646 15.96 72.1512 16.02 71.8579 16.14C71.5712 16.26 71.3179 16.4267 71.0979 16.64C70.8846 16.8533 70.7146 17.1133 70.5879 17.42C70.4679 17.72 70.4079 18.0533 70.4079 18.42C70.4079 18.7867 70.4679 19.1233 70.5879 19.43C70.7146 19.73 70.8846 19.9867 71.0979 20.2C71.3179 20.4133 71.5712 20.58 71.8579 20.7C72.1512 20.82 72.4646 20.88 72.7979 20.88ZM78.0305 14.84H79.6005L82.4805 19.64H82.5605L82.4805 18.26V14.84H83.8205V22H82.4005L79.3605 16.93H79.2805L79.3605 18.31V22H78.0305V14.84ZM87.7471 14.84H89.2871L91.9771 22H90.4871L89.8971 20.29H87.1371L86.5471 22H85.0571L87.7471 14.84ZM89.4571 19.05L88.8171 17.26L88.5571 16.39H88.4771L88.2171 17.26L87.5771 19.05H89.4571ZM93.2153 14.84H94.5653V20.72H97.5953V22H93.2153V14.84ZM101.554 14.84H103.974C104.541 14.84 105.051 14.9267 105.504 15.1C105.958 15.2733 106.344 15.52 106.664 15.84C106.984 16.1533 107.228 16.53 107.394 16.97C107.568 17.41 107.654 17.8933 107.654 18.42C107.654 18.9533 107.568 19.44 107.394 19.88C107.228 20.32 106.984 20.6967 106.664 21.01C106.344 21.3233 105.958 21.5667 105.504 21.74C105.051 21.9133 104.541 22 103.974 22H101.554V14.84ZM103.914 20.72C104.308 20.72 104.654 20.6667 104.954 20.56C105.254 20.4467 105.504 20.29 105.704 20.09C105.904 19.89 106.054 19.65 106.154 19.37C106.254 19.0833 106.304 18.7667 106.304 18.42C106.304 18.0733 106.254 17.76 106.154 17.48C106.054 17.1933 105.904 16.95 105.704 16.75C105.504 16.55 105.254 16.3967 104.954 16.29C104.654 16.1767 104.308 16.12 103.914 16.12H102.904V20.72H103.914ZM110.492 16.12V17.78H113.362V19.06H110.492V20.72H113.682V22H109.142V14.84H113.682V16.12H110.492ZM115.323 14.84H118.123C118.43 14.84 118.716 14.89 118.983 14.99C119.25 15.0833 119.48 15.2167 119.673 15.39C119.873 15.5567 120.03 15.7533 120.143 15.98C120.256 16.2067 120.313 16.45 120.313 16.71C120.313 17.09 120.22 17.41 120.033 17.67C119.853 17.9233 119.626 18.1167 119.353 18.25V18.33C119.72 18.4633 120.013 18.6733 120.233 18.96C120.46 19.24 120.573 19.59 120.573 20.01C120.573 20.3167 120.51 20.5933 120.383 20.84C120.263 21.08 120.096 21.2867 119.883 21.46C119.67 21.6333 119.42 21.7667 119.133 21.86C118.853 21.9533 118.55 22 118.223 22H115.323V14.84ZM118.023 17.76C118.336 17.76 118.576 17.6767 118.743 17.51C118.916 17.3367 119.003 17.1333 119.003 16.9C119.003 16.6667 118.92 16.4667 118.753 16.3C118.586 16.1333 118.356 16.05 118.063 16.05H116.673V17.76H118.023ZM118.173 20.76C118.513 20.76 118.773 20.6767 118.953 20.51C119.133 20.3367 119.223 20.1167 119.223 19.85C119.223 19.5833 119.13 19.3633 118.943 19.19C118.763 19.01 118.493 18.92 118.133 18.92H116.673V20.76H118.173ZM122.012 14.84H123.362V22H122.012V14.84ZM126.725 22V16.12H124.725V14.84H130.075V16.12H128.075V22H126.725ZM140.097 20.85C139.744 21.2767 139.327 21.6033 138.847 21.83C138.367 22.05 137.831 22.16 137.237 22.16C136.704 22.16 136.207 22.0633 135.747 21.87C135.294 21.6767 134.901 21.4133 134.567 21.08C134.234 20.7467 133.971 20.3533 133.777 19.9C133.584 19.44 133.487 18.9467 133.487 18.42C133.487 17.8933 133.584 17.4033 133.777 16.95C133.971 16.49 134.234 16.0933 134.567 15.76C134.901 15.4267 135.294 15.1633 135.747 14.97C136.207 14.7767 136.704 14.68 137.237 14.68C137.811 14.68 138.314 14.78 138.747 14.98C139.187 15.18 139.577 15.47 139.917 15.85L138.967 16.77C138.754 16.5233 138.507 16.3267 138.227 16.18C137.954 16.0333 137.627 15.96 137.247 15.96C136.914 15.96 136.601 16.02 136.307 16.14C136.014 16.2533 135.757 16.4167 135.537 16.63C135.324 16.8433 135.154 17.1033 135.027 17.41C134.901 17.71 134.837 18.0467 134.837 18.42C134.837 18.7933 134.901 19.1333 135.027 19.44C135.154 19.74 135.324 19.9967 135.537 20.21C135.757 20.4233 136.014 20.59 136.307 20.71C136.601 20.8233 136.914 20.88 137.247 20.88C137.647 20.88 138.001 20.8 138.307 20.64C138.621 20.4733 138.897 20.24 139.137 19.94L140.097 20.85ZM143.671 14.84H145.211L147.901 22H146.411L145.821 20.29H143.061L142.471 22H140.981L143.671 14.84ZM145.381 19.05L144.741 17.26L144.481 16.39H144.401L144.141 17.26L143.501 19.05H145.381ZM149.139 14.84H151.749C152.109 14.84 152.436 14.8967 152.729 15.01C153.022 15.1233 153.272 15.28 153.479 15.48C153.692 15.68 153.856 15.92 153.969 16.2C154.082 16.4733 154.139 16.7733 154.139 17.1C154.139 17.34 154.099 17.5667 154.019 17.78C153.939 17.9867 153.829 18.1767 153.689 18.35C153.549 18.5167 153.386 18.6667 153.199 18.8C153.012 18.9267 152.816 19.0267 152.609 19.1L152.599 19.17L154.519 21.92V22H152.969L151.119 19.31H150.489V22H149.139V14.84ZM151.739 18.07C152.046 18.07 152.296 17.9767 152.489 17.79C152.689 17.6033 152.789 17.3667 152.789 17.08C152.789 16.9533 152.766 16.83 152.719 16.71C152.679 16.59 152.616 16.4833 152.529 16.39C152.442 16.2967 152.332 16.2233 152.199 16.17C152.072 16.11 151.926 16.08 151.759 16.08H150.489V18.07H151.739ZM155.74 14.84H158.16C158.727 14.84 159.237 14.9267 159.69 15.1C160.144 15.2733 160.53 15.52 160.85 15.84C161.17 16.1533 161.414 16.53 161.58 16.97C161.754 17.41 161.84 17.8933 161.84 18.42C161.84 18.9533 161.754 19.44 161.58 19.88C161.414 20.32 161.17 20.6967 160.85 21.01C160.53 21.3233 160.144 21.5667 159.69 21.74C159.237 21.9133 158.727 22 158.16 22H155.74V14.84ZM158.1 20.72C158.494 20.72 158.84 20.6667 159.14 20.56C159.44 20.4467 159.69 20.29 159.89 20.09C160.09 19.89 160.24 19.65 160.34 19.37C160.44 19.0833 160.49 18.7667 160.49 18.42C160.49 18.0733 160.44 17.76 160.34 17.48C160.24 17.1933 160.09 16.95 159.89 16.75C159.69 16.55 159.44 16.3967 159.14 16.29C158.84 16.1767 158.494 16.12 158.1 16.12H157.09V20.72H158.1Z" fill="white"/>
<path d="M17.344 140V131.52L15.408 132.336L14.64 130.56L17.856 129.056H19.44V140H17.344ZM25.6735 140V138.096C26.3028 137.477 26.8842 136.901 27.4175 136.368C27.6415 136.144 27.8708 135.915 28.1055 135.68C28.3402 135.445 28.5588 135.227 28.7615 135.024C28.9642 134.821 29.1455 134.64 29.3055 134.48C29.4655 134.309 29.5882 134.176 29.6735 134.08C29.8442 133.877 29.9935 133.696 30.1215 133.536C30.2602 133.376 30.3668 133.221 30.4415 133.072C30.5268 132.912 30.5908 132.757 30.6335 132.608C30.6762 132.448 30.6975 132.277 30.6975 132.096C30.6975 131.744 30.5588 131.44 30.2815 131.184C30.0042 130.917 29.6255 130.784 29.1455 130.784C28.6655 130.784 28.2922 130.923 28.0255 131.2C27.7588 131.467 27.5775 131.771 27.4815 132.112L25.5775 131.328C25.6628 131.04 25.8015 130.747 25.9935 130.448C26.1855 130.139 26.4308 129.867 26.7295 129.632C27.0282 129.387 27.3802 129.189 27.7855 129.04C28.2015 128.88 28.6655 128.8 29.1775 128.8C29.7322 128.8 30.2335 128.885 30.6815 129.056C31.1295 129.216 31.5082 129.44 31.8175 129.728C32.1268 130.016 32.3668 130.357 32.5375 130.752C32.7082 131.136 32.7935 131.552 32.7935 132C32.7935 132.683 32.6228 133.312 32.2815 133.888C31.9508 134.453 31.5455 134.981 31.0655 135.472L29.6895 136.848C29.3268 137.211 28.9162 137.616 28.4575 138.064L28.5215 138.16H32.9535V140H25.6735ZM42.1523 140.256C41.7043 140.256 41.2723 140.197 40.8563 140.08C40.4509 139.963 40.0776 139.787 39.7363 139.552C39.3949 139.307 39.0909 139.003 38.8243 138.64C38.5683 138.277 38.3709 137.856 38.2323 137.376L40.2003 136.592C40.3389 137.125 40.5736 137.531 40.9043 137.808C41.2349 138.075 41.6509 138.208 42.1523 138.208C42.3763 138.208 42.5896 138.176 42.7923 138.112C42.9949 138.037 43.1709 137.936 43.3203 137.808C43.4696 137.68 43.5869 137.531 43.6723 137.36C43.7683 137.179 43.8163 136.976 43.8163 136.752C43.8163 136.283 43.6403 135.915 43.2883 135.648C42.9469 135.381 42.4723 135.248 41.8643 135.248H40.9203V133.344H41.7843C41.9976 133.344 42.2056 133.317 42.4083 133.264C42.6109 133.211 42.7869 133.131 42.9363 133.024C43.0963 132.907 43.2189 132.763 43.3043 132.592C43.4003 132.411 43.4483 132.203 43.4483 131.968C43.4483 131.605 43.3203 131.312 43.0643 131.088C42.8083 130.853 42.4616 130.736 42.0243 130.736C41.5549 130.736 41.1923 130.864 40.9363 131.12C40.6909 131.365 40.5203 131.643 40.4243 131.952L38.5043 131.168C38.6003 130.901 38.7443 130.629 38.9363 130.352C39.1283 130.064 39.3683 129.808 39.6562 129.584C39.9549 129.349 40.3016 129.163 40.6963 129.024C41.0909 128.875 41.5443 128.8 42.0563 128.8C42.5789 128.8 43.0536 128.875 43.4803 129.024C43.9176 129.173 44.2909 129.381 44.6003 129.648C44.9096 129.904 45.1496 130.213 45.3203 130.576C45.4909 130.928 45.5763 131.312 45.5763 131.728C45.5763 132.048 45.5336 132.336 45.4483 132.592C45.3736 132.848 45.2723 133.077 45.1443 133.28C45.0163 133.483 44.8669 133.659 44.6963 133.808C44.5363 133.947 44.3709 134.059 44.2003 134.144V134.272C44.7123 134.475 45.1336 134.8 45.4643 135.248C45.8056 135.696 45.9763 136.261 45.9763 136.944C45.9763 137.424 45.8856 137.867 45.7043 138.272C45.5229 138.667 45.2616 139.013 44.9203 139.312C44.5896 139.611 44.1896 139.84 43.7203 140C43.2509 140.171 42.7283 140.256 42.1523 140.256ZM56.3054 140V137.984H51.2494V136.288L56.1134 129.056H58.3854V136.032H59.7614V137.984H58.3854V140H56.3054ZM56.3054 132.176H56.1774L53.5694 136.032H56.3054V132.176ZM84.796 140.256C84.092 140.256 83.4573 140.112 82.892 139.824C82.3267 139.525 81.8413 139.12 81.436 138.608C81.0413 138.096 80.7373 137.493 80.524 136.8C80.3107 136.096 80.204 135.339 80.204 134.528C80.204 133.717 80.3107 132.965 80.524 132.272C80.7373 131.568 81.0413 130.96 81.436 130.448C81.8413 129.936 82.3267 129.536 82.892 129.248C83.4573 128.949 84.092 128.8 84.796 128.8C85.5 128.8 86.1347 128.949 86.7 129.248C87.2653 129.536 87.7453 129.936 88.14 130.448C88.5453 130.96 88.8547 131.568 89.068 132.272C89.2813 132.965 89.388 133.717 89.388 134.528C89.388 135.339 89.2813 136.096 89.068 136.8C88.8547 137.493 88.5453 138.096 88.14 138.608C87.7453 139.12 87.2653 139.525 86.7 139.824C86.1347 140.112 85.5 140.256 84.796 140.256ZM84.796 138.272C85.18 138.272 85.5267 138.181 85.836 138C86.1453 137.808 86.4067 137.547 86.62 137.216C86.844 136.875 87.0093 136.475 87.116 136.016C87.2333 135.557 87.292 135.061 87.292 134.528C87.292 133.984 87.2333 133.488 87.116 133.04C87.0093 132.581 86.844 132.187 86.62 131.856C86.4067 131.515 86.1453 131.253 85.836 131.072C85.5267 130.88 85.18 130.784 84.796 130.784C84.4013 130.784 84.0493 130.88 83.74 131.072C83.4307 131.253 83.1693 131.515 82.956 131.856C82.7427 132.187 82.5773 132.581 82.46 133.04C82.3533 133.488 82.3 133.984 82.3 134.528C82.3 135.061 82.3533 135.557 82.46 136.016C82.5773 136.475 82.7427 136.875 82.956 137.216C83.1693 137.547 83.4307 137.808 83.74 138C84.0493 138.181 84.4013 138.272 84.796 138.272ZM98.0298 136.08C97.6138 136.08 97.2084 135.995 96.8138 135.824C96.4191 135.653 96.0671 135.413 95.7578 135.104C95.4484 134.784 95.1978 134.411 95.0058 133.984C94.8244 133.547 94.7338 133.067 94.7338 132.544C94.7338 132 94.8404 131.499 95.0538 131.04C95.2671 130.571 95.5498 130.171 95.9018 129.84C96.2644 129.509 96.6751 129.253 97.1338 129.072C97.6031 128.88 98.0938 128.784 98.6058 128.784C99.1924 128.784 99.7258 128.891 100.206 129.104C100.696 129.307 101.112 129.584 101.454 129.936C101.806 130.277 102.072 130.683 102.254 131.152C102.446 131.611 102.542 132.096 102.542 132.608C102.542 133.344 102.392 134.021 102.094 134.64C101.806 135.248 101.438 135.872 100.99 136.512L98.3338 140.304L96.7178 139.2L98.9578 136.016L98.8778 135.92C98.6324 136.027 98.3498 136.08 98.0298 136.08ZM98.6378 130.72C98.3924 130.72 98.1578 130.763 97.9338 130.848C97.7204 130.933 97.5284 131.056 97.3578 131.216C97.1871 131.376 97.0484 131.568 96.9418 131.792C96.8458 132.005 96.7978 132.245 96.7978 132.512C96.7978 132.789 96.8458 133.04 96.9418 133.264C97.0484 133.477 97.1871 133.664 97.3578 133.824C97.5284 133.984 97.7204 134.107 97.9338 134.192C98.1578 134.277 98.3924 134.32 98.6378 134.32C98.8724 134.32 99.1018 134.277 99.3258 134.192C99.5498 134.107 99.7471 133.984 99.9178 133.824C100.099 133.664 100.238 133.477 100.334 133.264C100.44 133.04 100.494 132.789 100.494 132.512C100.494 132.245 100.44 132.005 100.334 131.792C100.238 131.568 100.099 131.376 99.9178 131.216C99.7471 131.056 99.5498 130.933 99.3258 130.848C99.1018 130.763 98.8724 130.72 98.6378 130.72ZM111.796 140.256C111.209 140.256 110.67 140.171 110.18 140C109.7 139.829 109.284 139.6 108.932 139.312C108.58 139.013 108.308 138.667 108.116 138.272C107.924 137.867 107.828 137.429 107.828 136.96C107.828 136.64 107.87 136.341 107.956 136.064C108.052 135.787 108.174 135.536 108.324 135.312C108.484 135.088 108.665 134.891 108.868 134.72C109.07 134.549 109.284 134.405 109.508 134.288V134.16C109.156 133.925 108.846 133.616 108.58 133.232C108.324 132.848 108.196 132.4 108.196 131.888C108.196 131.451 108.286 131.045 108.468 130.672C108.649 130.288 108.9 129.957 109.22 129.68C109.54 129.403 109.918 129.189 110.356 129.04C110.793 128.88 111.273 128.8 111.796 128.8C112.318 128.8 112.798 128.88 113.236 129.04C113.673 129.189 114.052 129.403 114.372 129.68C114.692 129.957 114.942 130.288 115.124 130.672C115.305 131.045 115.396 131.451 115.396 131.888C115.396 132.4 115.262 132.848 114.996 133.232C114.74 133.616 114.436 133.925 114.084 134.16V134.288C114.308 134.405 114.521 134.549 114.724 134.72C114.926 134.891 115.102 135.088 115.252 135.312C115.412 135.536 115.534 135.787 115.62 136.064C115.716 136.341 115.764 136.64 115.764 136.96C115.764 137.429 115.668 137.867 115.476 138.272C115.284 138.667 115.012 139.013 114.66 139.312C114.308 139.6 113.886 139.829 113.396 140C112.916 140.171 112.382 140.256 111.796 140.256ZM111.796 133.376C112.244 133.376 112.617 133.253 112.916 133.008C113.214 132.752 113.364 132.421 113.364 132.016C113.364 131.6 113.214 131.275 112.916 131.04C112.617 130.795 112.244 130.672 111.796 130.672C111.348 130.672 110.974 130.795 110.676 131.04C110.377 131.275 110.228 131.6 110.228 132.016C110.228 132.421 110.377 132.752 110.676 133.008C110.974 133.253 111.348 133.376 111.796 133.376ZM111.796 138.32C112.34 138.32 112.788 138.181 113.14 137.904C113.492 137.616 113.668 137.232 113.668 136.752C113.668 136.528 113.62 136.325 113.524 136.144C113.428 135.952 113.294 135.787 113.124 135.648C112.964 135.509 112.766 135.403 112.532 135.328C112.308 135.253 112.062 135.216 111.796 135.216C111.529 135.216 111.278 135.253 111.044 135.328C110.82 135.403 110.622 135.509 110.452 135.648C110.292 135.787 110.164 135.952 110.068 136.144C109.972 136.325 109.924 136.528 109.924 136.752C109.924 137.232 110.1 137.616 110.452 137.904C110.804 138.181 111.252 138.32 111.796 138.32ZM121.574 139.28L126.134 131.136L126.086 131.04H121.046L121.078 129.056H128.502V131.136L123.334 140.256L121.574 139.28ZM148.908 140V138.096C149.537 137.477 150.119 136.901 150.652 136.368C150.876 136.144 151.105 135.915 151.34 135.68C151.575 135.445 151.793 135.227 151.996 135.024C152.199 134.821 152.38 134.64 152.54 134.48C152.7 134.309 152.823 134.176 152.908 134.08C153.079 133.877 153.228 133.696 153.356 133.536C153.495 133.376 153.601 133.221 153.676 133.072C153.761 132.912 153.825 132.757 153.868 132.608C153.911 132.448 153.932 132.277 153.932 132.096C153.932 131.744 153.793 131.44 153.516 131.184C153.239 130.917 152.86 130.784 152.38 130.784C151.9 130.784 151.527 130.923 151.26 131.2C150.993 131.467 150.812 131.771 150.716 132.112L148.812 131.328C148.897 131.04 149.036 130.747 149.228 130.448C149.42 130.139 149.665 129.867 149.964 129.632C150.263 129.387 150.615 129.189 151.02 129.04C151.436 128.88 151.9 128.8 152.412 128.8C152.967 128.8 153.468 128.885 153.916 129.056C154.364 129.216 154.743 129.44 155.052 129.728C155.361 130.016 155.601 130.357 155.772 130.752C155.943 131.136 156.028 131.552 156.028 132C156.028 132.683 155.857 133.312 155.516 133.888C155.185 134.453 154.78 134.981 154.3 135.472L152.924 136.848C152.561 137.211 152.151 137.616 151.692 138.064L151.756 138.16H156.188V140H148.908ZM165.387 140.256C164.939 140.256 164.507 140.197 164.091 140.08C163.685 139.963 163.312 139.787 162.971 139.552C162.629 139.307 162.325 139.003 162.059 138.64C161.803 138.277 161.605 137.856 161.467 137.376L163.435 136.592C163.573 137.125 163.808 137.531 164.139 137.808C164.469 138.075 164.885 138.208 165.387 138.208C165.611 138.208 165.824 138.176 166.027 138.112C166.229 138.037 166.405 137.936 166.555 137.808C166.704 137.68 166.821 137.531 166.907 137.36C167.003 137.179 167.051 136.976 167.051 136.752C167.051 136.283 166.875 135.915 166.523 135.648C166.181 135.381 165.707 135.248 165.099 135.248H164.155V133.344H165.019C165.232 133.344 165.44 133.317 165.643 133.264C165.845 133.211 166.021 133.131 166.171 133.024C166.331 132.907 166.453 132.763 166.539 132.592C166.635 132.411 166.683 132.203 166.683 131.968C166.683 131.605 166.555 131.312 166.299 131.088C166.043 130.853 165.696 130.736 165.259 130.736C164.789 130.736 164.427 130.864 164.171 131.12C163.925 131.365 163.755 131.643 163.659 131.952L161.739 131.168C161.835 130.901 161.979 130.629 162.171 130.352C162.363 130.064 162.603 129.808 162.891 129.584C163.189 129.349 163.536 129.163 163.931 129.024C164.325 128.875 164.779 128.8 165.291 128.8C165.813 128.8 166.288 128.875 166.715 129.024C167.152 129.173 167.525 129.381 167.835 129.648C168.144 129.904 168.384 130.213 168.555 130.576C168.725 130.928 168.811 131.312 168.811 131.728C168.811 132.048 168.768 132.336 168.683 132.592C168.608 132.848 168.507 133.077 168.379 133.28C168.251 133.483 168.101 133.659 167.931 133.808C167.771 133.947 167.605 134.059 167.435 134.144V134.272C167.947 134.475 168.368 134.8 168.699 135.248C169.04 135.696 169.211 136.261 169.211 136.944C169.211 137.424 169.12 137.867 168.939 138.272C168.757 138.667 168.496 139.013 168.155 139.312C167.824 139.611 167.424 139.84 166.955 140C166.485 140.171 165.963 140.256 165.387 140.256ZM178.372 140.256C177.956 140.256 177.54 140.197 177.124 140.08C176.718 139.963 176.34 139.781 175.988 139.536C175.636 139.291 175.326 138.987 175.06 138.624C174.804 138.251 174.612 137.808 174.484 137.296L176.388 136.56C176.505 137.093 176.729 137.52 177.06 137.84C177.401 138.16 177.833 138.32 178.356 138.32C178.612 138.32 178.846 138.277 179.06 138.192C179.284 138.096 179.476 137.968 179.636 137.808C179.806 137.648 179.934 137.461 180.02 137.248C180.116 137.024 180.164 136.779 180.164 136.512C180.164 136.256 180.116 136.021 180.02 135.808C179.934 135.584 179.812 135.392 179.652 135.232C179.492 135.061 179.3 134.933 179.076 134.848C178.862 134.752 178.622 134.704 178.356 134.704C178.025 134.704 177.732 134.779 177.476 134.928C177.22 135.067 177.001 135.243 176.82 135.456L174.788 134.528L175.428 129.056H181.588V130.896H177.172L176.756 133.456L176.884 133.488C177.097 133.307 177.358 133.152 177.668 133.024C177.977 132.896 178.35 132.832 178.788 132.832C179.246 132.832 179.684 132.923 180.1 133.104C180.516 133.275 180.884 133.52 181.204 133.84C181.524 134.16 181.78 134.549 181.972 135.008C182.164 135.456 182.26 135.957 182.26 136.512C182.26 137.056 182.164 137.557 181.972 138.016C181.78 138.475 181.508 138.869 181.156 139.2C180.814 139.531 180.404 139.792 179.924 139.984C179.454 140.165 178.937 140.256 178.372 140.256ZM192.183 132.96C192.599 132.96 193.005 133.051 193.399 133.232C193.794 133.403 194.146 133.643 194.455 133.952C194.765 134.261 195.01 134.635 195.191 135.072C195.383 135.509 195.479 135.989 195.479 136.512C195.479 137.056 195.373 137.557 195.159 138.016C194.946 138.475 194.658 138.869 194.295 139.2C193.943 139.531 193.533 139.792 193.063 139.984C192.605 140.165 192.119 140.256 191.607 140.256C191.01 140.256 190.471 140.155 189.991 139.952C189.511 139.739 189.095 139.461 188.743 139.12C188.402 138.768 188.135 138.363 187.943 137.904C187.762 137.435 187.671 136.944 187.671 136.432C187.671 135.696 187.815 135.024 188.103 134.416C188.402 133.797 188.775 133.168 189.223 132.528L191.879 128.736L193.495 129.856L191.255 133.024L191.335 133.12C191.581 133.013 191.863 132.96 192.183 132.96ZM191.575 138.32C191.81 138.32 192.039 138.277 192.263 138.192C192.487 138.107 192.685 137.984 192.855 137.824C193.026 137.664 193.159 137.477 193.255 137.264C193.362 137.04 193.415 136.795 193.415 136.528C193.415 136.261 193.362 136.016 193.255 135.792C193.159 135.568 193.026 135.376 192.855 135.216C192.685 135.056 192.487 134.933 192.263 134.848C192.039 134.763 191.81 134.72 191.575 134.72C191.33 134.72 191.095 134.763 190.871 134.848C190.658 134.933 190.461 135.056 190.279 135.216C190.109 135.376 189.97 135.568 189.863 135.792C189.767 136.016 189.719 136.261 189.719 136.528C189.719 136.795 189.767 137.04 189.863 137.264C189.97 137.477 190.109 137.664 190.279 137.824C190.461 137.984 190.658 138.107 190.871 138.192C191.095 138.277 191.33 138.32 191.575 138.32ZM219.764 140.256C219.178 140.256 218.639 140.171 218.148 140C217.668 139.829 217.252 139.6 216.9 139.312C216.548 139.013 216.276 138.667 216.084 138.272C215.892 137.867 215.796 137.429 215.796 136.96C215.796 136.64 215.839 136.341 215.924 136.064C216.02 135.787 216.143 135.536 216.292 135.312C216.452 135.088 216.634 134.891 216.836 134.72C217.039 134.549 217.252 134.405 217.476 134.288V134.16C217.124 133.925 216.815 133.616 216.548 133.232C216.292 132.848 216.164 132.4 216.164 131.888C216.164 131.451 216.255 131.045 216.436 130.672C216.618 130.288 216.868 129.957 217.188 129.68C217.508 129.403 217.887 129.189 218.324 129.04C218.762 128.88 219.242 128.8 219.764 128.8C220.287 128.8 220.767 128.88 221.204 129.04C221.642 129.189 222.02 129.403 222.34 129.68C222.66 129.957 222.911 130.288 223.092 130.672C223.274 131.045 223.364 131.451 223.364 131.888C223.364 132.4 223.231 132.848 222.964 133.232C222.708 133.616 222.404 133.925 222.052 134.16V134.288C222.276 134.405 222.49 134.549 222.692 134.72C222.895 134.891 223.071 135.088 223.22 135.312C223.38 135.536 223.503 135.787 223.588 136.064C223.684 136.341 223.732 136.64 223.732 136.96C223.732 137.429 223.636 137.867 223.444 138.272C223.252 138.667 222.98 139.013 222.628 139.312C222.276 139.6 221.855 139.829 221.364 140C220.884 140.171 220.351 140.256 219.764 140.256ZM219.764 133.376C220.212 133.376 220.586 133.253 220.884 133.008C221.183 132.752 221.332 132.421 221.332 132.016C221.332 131.6 221.183 131.275 220.884 131.04C220.586 130.795 220.212 130.672 219.764 130.672C219.316 130.672 218.943 130.795 218.644 131.04C218.346 131.275 218.196 131.6 218.196 132.016C218.196 132.421 218.346 132.752 218.644 133.008C218.943 133.253 219.316 133.376 219.764 133.376ZM219.764 138.32C220.308 138.32 220.756 138.181 221.108 137.904C221.46 137.616 221.636 137.232 221.636 136.752C221.636 136.528 221.588 136.325 221.492 136.144C221.396 135.952 221.263 135.787 221.092 135.648C220.932 135.509 220.735 135.403 220.5 135.328C220.276 135.253 220.031 135.216 219.764 135.216C219.498 135.216 219.247 135.253 219.012 135.328C218.788 135.403 218.591 135.509 218.42 135.648C218.26 135.787 218.132 135.952 218.036 136.144C217.94 136.325 217.892 136.528 217.892 136.752C217.892 137.232 218.068 137.616 218.42 137.904C218.772 138.181 219.22 138.32 219.764 138.32ZM229.543 139.28L234.103 131.136L234.055 131.04H229.015L229.047 129.056H236.471V131.136L231.303 140.256L229.543 139.28ZM245.308 132.96C245.724 132.96 246.13 133.051 246.524 133.232C246.919 133.403 247.271 133.643 247.58 133.952C247.89 134.261 248.135 134.635 248.316 135.072C248.508 135.509 248.604 135.989 248.604 136.512C248.604 137.056 248.498 137.557 248.284 138.016C248.071 138.475 247.783 138.869 247.42 139.2C247.068 139.531 246.658 139.792 246.188 139.984C245.73 140.165 245.244 140.256 244.732 140.256C244.135 140.256 243.596 140.155 243.116 139.952C242.636 139.739 242.22 139.461 241.868 139.12C241.527 138.768 241.26 138.363 241.068 137.904C240.887 137.435 240.796 136.944 240.796 136.432C240.796 135.696 240.94 135.024 241.228 134.416C241.527 133.797 241.9 133.168 242.348 132.528L245.004 128.736L246.62 129.856L244.38 133.024L244.46 133.12C244.706 133.013 244.988 132.96 245.308 132.96ZM244.7 138.32C244.935 138.32 245.164 138.277 245.388 138.192C245.612 138.107 245.81 137.984 245.98 137.824C246.151 137.664 246.284 137.477 246.38 137.264C246.487 137.04 246.54 136.795 246.54 136.528C246.54 136.261 246.487 136.016 246.38 135.792C246.284 135.568 246.151 135.376 245.98 135.216C245.81 135.056 245.612 134.933 245.388 134.848C245.164 134.763 244.935 134.72 244.7 134.72C244.455 134.72 244.22 134.763 243.996 134.848C243.783 134.933 243.586 135.056 243.404 135.216C243.234 135.376 243.095 135.568 242.988 135.792C242.892 136.016 242.844 136.261 242.844 136.528C242.844 136.795 242.892 137.04 242.988 137.264C243.095 137.477 243.234 137.664 243.404 137.824C243.586 137.984 243.783 138.107 243.996 138.192C244.22 138.277 244.455 138.32 244.7 138.32ZM257.778 140.256C257.362 140.256 256.946 140.197 256.53 140.08C256.125 139.963 255.746 139.781 255.394 139.536C255.042 139.291 254.733 138.987 254.466 138.624C254.21 138.251 254.018 137.808 253.89 137.296L255.794 136.56C255.911 137.093 256.135 137.52 256.466 137.84C256.807 138.16 257.239 138.32 257.762 138.32C258.018 138.32 258.253 138.277 258.466 138.192C258.69 138.096 258.882 137.968 259.042 137.808C259.213 137.648 259.341 137.461 259.426 137.248C259.522 137.024 259.57 136.779 259.57 136.512C259.57 136.256 259.522 136.021 259.426 135.808C259.341 135.584 259.218 135.392 259.058 135.232C258.898 135.061 258.706 134.933 258.482 134.848C258.269 134.752 258.029 134.704 257.762 134.704C257.431 134.704 257.138 134.779 256.882 134.928C256.626 135.067 256.407 135.243 256.226 135.456L254.194 134.528L254.834 129.056H260.994V130.896H256.578L256.162 133.456L256.29 133.488C256.503 133.307 256.765 133.152 257.074 133.024C257.383 132.896 257.757 132.832 258.194 132.832C258.653 132.832 259.09 132.923 259.506 133.104C259.922 133.275 260.29 133.52 260.61 133.84C260.93 134.16 261.186 134.549 261.378 135.008C261.57 135.456 261.666 135.957 261.666 136.512C261.666 137.056 261.57 137.557 261.378 138.016C261.186 138.475 260.914 138.869 260.562 139.2C260.221 139.531 259.81 139.792 259.33 139.984C258.861 140.165 258.343 140.256 257.778 140.256Z" fill="white"/>
<path d="M14.12 158.84H15.58L17.06 163.15L17.32 164.07H17.4L17.68 163.15L19.22 158.84H20.68L18.07 166H16.65L14.12 158.84ZM24.8788 165.48H24.7988C24.6455 165.667 24.4588 165.827 24.2388 165.96C24.0255 166.093 23.7488 166.16 23.4088 166.16C23.1555 166.16 22.9155 166.117 22.6888 166.03C22.4688 165.95 22.2755 165.837 22.1088 165.69C21.9422 165.543 21.8122 165.367 21.7188 165.16C21.6255 164.953 21.5788 164.727 21.5788 164.48C21.5788 164.227 21.6288 164 21.7288 163.8C21.8288 163.593 21.9688 163.417 22.1488 163.27C22.3288 163.123 22.5388 163.013 22.7788 162.94C23.0255 162.86 23.2922 162.82 23.5788 162.82C23.8988 162.82 24.1622 162.847 24.3688 162.9C24.5755 162.947 24.7455 162.997 24.8788 163.05V162.9C24.8788 162.64 24.7755 162.427 24.5688 162.26C24.3622 162.087 24.1055 162 23.7988 162C23.3455 162 22.9622 162.19 22.6488 162.57L21.6988 161.92C22.2188 161.267 22.9288 160.94 23.8288 160.94C24.5888 160.94 25.1688 161.12 25.5688 161.48C25.9688 161.833 26.1688 162.36 26.1688 163.06V166H24.8788V165.48ZM24.8788 164.01C24.7255 163.937 24.5655 163.88 24.3988 163.84C24.2388 163.793 24.0622 163.77 23.8688 163.77C23.5555 163.77 23.3122 163.84 23.1388 163.98C22.9722 164.113 22.8888 164.28 22.8888 164.48C22.8888 164.68 22.9688 164.84 23.1288 164.96C23.2955 165.08 23.4855 165.14 23.6988 165.14C23.8722 165.14 24.0322 165.11 24.1788 165.05C24.3255 164.983 24.4488 164.9 24.5488 164.8C24.6555 164.693 24.7355 164.573 24.7888 164.44C24.8488 164.3 24.8788 164.157 24.8788 164.01ZM28.2104 166V158.84H29.5204V166H28.2104ZM32.372 160.39C32.2587 160.39 32.1487 160.37 32.042 160.33C31.942 160.283 31.852 160.223 31.772 160.15C31.6987 160.07 31.6387 159.98 31.592 159.88C31.552 159.78 31.532 159.67 31.532 159.55C31.532 159.43 31.552 159.32 31.592 159.22C31.6387 159.12 31.6987 159.033 31.772 158.96C31.852 158.88 31.942 158.82 32.042 158.78C32.1487 158.733 32.2587 158.71 32.372 158.71C32.6054 158.71 32.8054 158.793 32.972 158.96C33.1387 159.12 33.222 159.317 33.222 159.55C33.222 159.783 33.1387 159.983 32.972 160.15C32.8054 160.31 32.6054 160.39 32.372 160.39ZM31.722 166V161.1H33.032V166H31.722ZM38.8311 165.41H38.7511C38.6311 165.617 38.4444 165.793 38.1911 165.94C37.9378 166.087 37.6244 166.16 37.2511 166.16C36.9378 166.16 36.6378 166.097 36.3511 165.97C36.0711 165.837 35.8211 165.657 35.6011 165.43C35.3878 165.197 35.2178 164.92 35.0911 164.6C34.9644 164.28 34.9011 163.93 34.9011 163.55C34.9011 163.17 34.9644 162.82 35.0911 162.5C35.2178 162.18 35.3878 161.907 35.6011 161.68C35.8211 161.447 36.0711 161.267 36.3511 161.14C36.6378 161.007 36.9378 160.94 37.2511 160.94C37.6244 160.94 37.9378 161.013 38.1911 161.16C38.4444 161.307 38.6311 161.483 38.7511 161.69H38.8311L38.7511 160.99V158.84H40.0611V166H38.8311V165.41ZM37.5211 164.95C37.6944 164.95 37.8578 164.92 38.0111 164.86C38.1711 164.793 38.3111 164.7 38.4311 164.58C38.5511 164.46 38.6478 164.313 38.7211 164.14C38.7944 163.967 38.8311 163.77 38.8311 163.55C38.8311 163.33 38.7944 163.133 38.7211 162.96C38.6478 162.787 38.5511 162.64 38.4311 162.52C38.3111 162.4 38.1711 162.31 38.0111 162.25C37.8578 162.183 37.6944 162.15 37.5211 162.15C37.3478 162.15 37.1811 162.183 37.0211 162.25C36.8678 162.317 36.7311 162.41 36.6111 162.53C36.4911 162.65 36.3944 162.797 36.3211 162.97C36.2478 163.143 36.2111 163.337 36.2111 163.55C36.2111 163.763 36.2478 163.957 36.3211 164.13C36.3944 164.303 36.4911 164.45 36.6111 164.57C36.7311 164.69 36.8678 164.783 37.0211 164.85C37.1811 164.917 37.3478 164.95 37.5211 164.95Z" fill="white"/>
<path d="M17.24 176V170.12H15.24V168.84H20.59V170.12H18.59V176H17.24ZM22.3901 168.84H23.7001V170.85L23.6201 171.74H23.7001C23.8401 171.507 24.0401 171.317 24.3001 171.17C24.5667 171.017 24.8634 170.94 25.1901 170.94C25.8234 170.94 26.2901 171.127 26.5901 171.5C26.8967 171.873 27.0501 172.383 27.0501 173.03V176H25.7401V173.19C25.7401 172.85 25.6601 172.593 25.5001 172.42C25.3401 172.24 25.1167 172.15 24.8301 172.15C24.6501 172.15 24.4901 172.19 24.3501 172.27C24.2101 172.343 24.0901 172.447 23.9901 172.58C23.8967 172.713 23.8234 172.87 23.7701 173.05C23.7234 173.223 23.7001 173.41 23.7001 173.61V176H22.3901V168.84ZM29.1323 171.1H30.3623V171.78H30.4423C30.5023 171.66 30.5823 171.55 30.6823 171.45C30.7823 171.35 30.8923 171.263 31.0123 171.19C31.1389 171.117 31.2723 171.06 31.4123 171.02C31.5589 170.98 31.7023 170.96 31.8423 170.96C32.0156 170.96 32.1623 170.977 32.2823 171.01C32.4089 171.043 32.5156 171.087 32.6023 171.14L32.2523 172.33C32.1723 172.29 32.0823 172.26 31.9823 172.24C31.8889 172.213 31.7723 172.2 31.6323 172.2C31.4523 172.2 31.2889 172.237 31.1423 172.31C30.9956 172.377 30.8689 172.473 30.7623 172.6C30.6623 172.727 30.5823 172.877 30.5223 173.05C30.4689 173.217 30.4423 173.4 30.4423 173.6V176H29.1323V171.1ZM37.5945 175.36H37.5145C37.3612 175.607 37.1545 175.803 36.8945 175.95C36.6345 176.09 36.3379 176.16 36.0045 176.16C35.3845 176.16 34.9212 175.97 34.6145 175.59C34.3145 175.21 34.1645 174.703 34.1645 174.07V171.1H35.4745V173.91C35.4745 174.263 35.5512 174.527 35.7045 174.7C35.8645 174.867 36.0945 174.95 36.3945 174.95C36.5745 174.95 36.7312 174.913 36.8645 174.84C37.0045 174.76 37.1212 174.657 37.2145 174.53C37.3145 174.397 37.3879 174.243 37.4345 174.07C37.4879 173.89 37.5145 173.7 37.5145 173.5V171.1H38.8245V176H37.5945V175.36Z" fill="white"/>
<path d="M59.296 174.256C58.592 174.256 57.9573 174.112 57.392 173.824C56.8267 173.525 56.3413 173.12 55.936 172.608C55.5413 172.096 55.2373 171.493 55.024 170.8C54.8107 170.096 54.704 169.339 54.704 168.528C54.704 167.717 54.8107 166.965 55.024 166.272C55.2373 165.568 55.5413 164.96 55.936 164.448C56.3413 163.936 56.8267 163.536 57.392 163.248C57.9573 162.949 58.592 162.8 59.296 162.8C60 162.8 60.6347 162.949 61.2 163.248C61.7653 163.536 62.2453 163.936 62.64 164.448C63.0453 164.96 63.3547 165.568 63.568 166.272C63.7813 166.965 63.888 167.717 63.888 168.528C63.888 169.339 63.7813 170.096 63.568 170.8C63.3547 171.493 63.0453 172.096 62.64 172.608C62.2453 173.12 61.7653 173.525 61.2 173.824C60.6347 174.112 60 174.256 59.296 174.256ZM59.296 172.272C59.68 172.272 60.0267 172.181 60.336 172C60.6453 171.808 60.9067 171.547 61.12 171.216C61.344 170.875 61.5093 170.475 61.616 170.016C61.7333 169.557 61.792 169.061 61.792 168.528C61.792 167.984 61.7333 167.488 61.616 167.04C61.5093 166.581 61.344 166.187 61.12 165.856C60.9067 165.515 60.6453 165.253 60.336 165.072C60.0267 164.88 59.68 164.784 59.296 164.784C58.9013 164.784 58.5493 164.88 58.24 165.072C57.9307 165.253 57.6693 165.515 57.456 165.856C57.2427 166.187 57.0773 166.581 56.96 167.04C56.8533 167.488 56.8 167.984 56.8 168.528C56.8 169.061 56.8533 169.557 56.96 170.016C57.0773 170.475 57.2427 170.875 57.456 171.216C57.6693 171.547 57.9307 171.808 58.24 172C58.5493 172.181 58.9013 172.272 59.296 172.272ZM71.0898 174.256C70.6418 174.256 70.2098 174.197 69.7938 174.08C69.3884 173.963 69.0151 173.787 68.6738 173.552C68.3324 173.307 68.0284 173.003 67.7618 172.64C67.5058 172.277 67.3084 171.856 67.1698 171.376L69.1378 170.592C69.2764 171.125 69.5111 171.531 69.8418 171.808C70.1724 172.075 70.5884 172.208 71.0898 172.208C71.3138 172.208 71.5271 172.176 71.7298 172.112C71.9324 172.037 72.1084 171.936 72.2578 171.808C72.4071 171.68 72.5244 171.531 72.6098 171.36C72.7058 171.179 72.7538 170.976 72.7538 170.752C72.7538 170.283 72.5778 169.915 72.2258 169.648C71.8844 169.381 71.4098 169.248 70.8018 169.248H69.8578V167.344H70.7218C70.9351 167.344 71.1431 167.317 71.3458 167.264C71.5484 167.211 71.7244 167.131 71.8738 167.024C72.0338 166.907 72.1564 166.763 72.2418 166.592C72.3378 166.411 72.3858 166.203 72.3858 165.968C72.3858 165.605 72.2578 165.312 72.0018 165.088C71.7458 164.853 71.3991 164.736 70.9618 164.736C70.4924 164.736 70.1298 164.864 69.8738 165.12C69.6284 165.365 69.4578 165.643 69.3618 165.952L67.4418 165.168C67.5378 164.901 67.6818 164.629 67.8738 164.352C68.0658 164.064 68.3058 163.808 68.5938 163.584C68.8924 163.349 69.2391 163.163 69.6338 163.024C70.0284 162.875 70.4818 162.8 70.9938 162.8C71.5164 162.8 71.9911 162.875 72.4178 163.024C72.8551 163.173 73.2284 163.381 73.5378 163.648C73.8471 163.904 74.0871 164.213 74.2578 164.576C74.4284 164.928 74.5138 165.312 74.5138 165.728C74.5138 166.048 74.4711 166.336 74.3858 166.592C74.3111 166.848 74.2098 167.077 74.0818 167.28C73.9538 167.483 73.8044 167.659 73.6338 167.808C73.4738 167.947 73.3084 168.059 73.1378 168.144V168.272C73.6498 168.475 74.0711 168.8 74.4018 169.248C74.7431 169.696 74.9138 170.261 74.9138 170.944C74.9138 171.424 74.8231 171.867 74.6418 172.272C74.4604 172.667 74.1991 173.013 73.8578 173.312C73.5271 173.611 73.1271 173.84 72.6578 174C72.1884 174.171 71.6658 174.256 71.0898 174.256ZM77.9789 174L82.7309 162.544H84.7949L80.0429 174H77.9789ZM87.9704 174V172.096C88.5997 171.477 89.181 170.901 89.7144 170.368C89.9384 170.144 90.1677 169.915 90.4024 169.68C90.637 169.445 90.8557 169.227 91.0584 169.024C91.261 168.821 91.4424 168.64 91.6024 168.48C91.7624 168.309 91.885 168.176 91.9704 168.08C92.141 167.877 92.2904 167.696 92.4184 167.536C92.557 167.376 92.6637 167.221 92.7384 167.072C92.8237 166.912 92.8877 166.757 92.9304 166.608C92.973 166.448 92.9944 166.277 92.9944 166.096C92.9944 165.744 92.8557 165.44 92.5784 165.184C92.301 164.917 91.9224 164.784 91.4424 164.784C90.9624 164.784 90.589 164.923 90.3224 165.2C90.0557 165.467 89.8744 165.771 89.7784 166.112L87.8744 165.328C87.9597 165.04 88.0984 164.747 88.2904 164.448C88.4824 164.139 88.7277 163.867 89.0264 163.632C89.325 163.387 89.677 163.189 90.0824 163.04C90.4984 162.88 90.9624 162.8 91.4744 162.8C92.029 162.8 92.5304 162.885 92.9784 163.056C93.4264 163.216 93.805 163.44 94.1144 163.728C94.4237 164.016 94.6637 164.357 94.8344 164.752C95.005 165.136 95.0904 165.552 95.0904 166C95.0904 166.683 94.9197 167.312 94.5784 167.888C94.2477 168.453 93.8424 168.981 93.3624 169.472L91.9864 170.848C91.6237 171.211 91.213 171.616 90.7544 172.064L90.8184 172.16H95.2504V174H87.9704ZM102.561 174.256C101.974 174.256 101.436 174.171 100.945 174C100.465 173.829 100.049 173.6 99.6971 173.312C99.3451 173.013 99.0731 172.667 98.8811 172.272C98.6891 171.867 98.5931 171.429 98.5931 170.96C98.5931 170.64 98.6358 170.341 98.7211 170.064C98.8171 169.787 98.9398 169.536 99.0891 169.312C99.2491 169.088 99.4305 168.891 99.6331 168.72C99.8358 168.549 100.049 168.405 100.273 168.288V168.16C99.9211 167.925 99.6118 167.616 99.3451 167.232C99.0891 166.848 98.9611 166.4 98.9611 165.888C98.9611 165.451 99.0518 165.045 99.2331 164.672C99.4145 164.288 99.6651 163.957 99.9851 163.68C100.305 163.403 100.684 163.189 101.121 163.04C101.558 162.88 102.038 162.8 102.561 162.8C103.084 162.8 103.564 162.88 104.001 163.04C104.438 163.189 104.817 163.403 105.137 163.68C105.457 163.957 105.708 164.288 105.889 164.672C106.07 165.045 106.161 165.451 106.161 165.888C106.161 166.4 106.028 166.848 105.761 167.232C105.505 167.616 105.201 167.925 104.849 168.16V168.288C105.073 168.405 105.286 168.549 105.489 168.72C105.692 168.891 105.868 169.088 106.017 169.312C106.177 169.536 106.3 169.787 106.385 170.064C106.481 170.341 106.529 170.64 106.529 170.96C106.529 171.429 106.433 171.867 106.241 172.272C106.049 172.667 105.777 173.013 105.425 173.312C105.073 173.6 104.652 173.829 104.161 174C103.681 174.171 103.148 174.256 102.561 174.256ZM102.561 167.376C103.009 167.376 103.382 167.253 103.681 167.008C103.98 166.752 104.129 166.421 104.129 166.016C104.129 165.6 103.98 165.275 103.681 165.04C103.382 164.795 103.009 164.672 102.561 164.672C102.113 164.672 101.74 164.795 101.441 165.04C101.142 165.275 100.993 165.6 100.993 166.016C100.993 166.421 101.142 166.752 101.441 167.008C101.74 167.253 102.113 167.376 102.561 167.376ZM102.561 172.32C103.105 172.32 103.553 172.181 103.905 171.904C104.257 171.616 104.433 171.232 104.433 170.752C104.433 170.528 104.385 170.325 104.289 170.144C104.193 169.952 104.06 169.787 103.889 169.648C103.729 169.509 103.532 169.403 103.297 169.328C103.073 169.253 102.828 169.216 102.561 169.216C102.294 169.216 102.044 169.253 101.809 169.328C101.585 169.403 101.388 169.509 101.217 169.648C101.057 169.787 100.929 169.952 100.833 170.144C100.737 170.325 100.689 170.528 100.689 170.752C100.689 171.232 100.865 171.616 101.217 171.904C101.569 172.181 102.017 172.32 102.561 172.32Z" fill="white"/>
<path fill-rule="evenodd" clip-rule="evenodd" d="M36 94V97.1318C36 98.166 35.0404 99 33.8494 99H30V94H36Z" fill="white"/>
<path fill-rule="evenodd" clip-rule="evenodd" d="M23 99H28V94H23V99Z" fill="white"/>
<path fill-rule="evenodd" clip-rule="evenodd" d="M21 94V99H17.1379C16.5684 99 16.0258 98.8027 15.6222 98.4551C15.2242 98.1035 15 97.6279 15 97.1318V94H21Z" fill="white"/>
<path fill-rule="evenodd" clip-rule="evenodd" d="M15 92H36V88H15V92Z" fill="white"/>
<path fill-rule="evenodd" clip-rule="evenodd" d="M33.8494 81C34.4202 81 34.9685 81.1956 35.373 81.5446C35.7719 81.8985 36 82.3744 36 82.8738V86H30V81H33.8494Z" fill="white"/>
<path fill-rule="evenodd" clip-rule="evenodd" d="M23 86H28V81H23V86Z" fill="white"/>
<path fill-rule="evenodd" clip-rule="evenodd" d="M21 81V86H15V82.8738C15 82.3744 15.2242 81.8985 15.6222 81.5446C16.0258 81.1956 16.5684 81 17.1379 81H21Z" fill="white"/>
</g>
<defs>
<filter id="filter0_d_0_4596" x="-30" y="-26" width="440" height="260" filterUnits="userSpaceOnUse" color-interpolation-filters="sRGB">
<feFlood flood-opacity="0" result="BackgroundImageFix"/>
<feColorMatrix in="SourceAlpha" type="matrix" values="0 0 0 0 0 0 0 0 0 0 0 0 0 0 0 0 0 0 127 0" result="hardAlpha"/>
<feOffset dy="4"/>
<feGaussianBlur stdDeviation="15"/>
<feColorMatrix type="matrix" values="0 0 0 0 0.251275 0 0 0 0 0.25294 0 0 0 0 0.890257 0 0 0 0.162964 0"/>
<feBlend mode="normal" in2="BackgroundImageFix" result="effect1_dropShadow_0_4596"/>
<feBlend mode="normal" in="SourceGraphic" in2="effect1_dropShadow_0_4596" result="shape"/>
</filter>
<clipPath id="clip0_0_4596">
<rect width="380" height="200" fill="white"/>
</clipPath>
</defs>
</svg>
