<svg width="366" height="100" viewBox="0 0 366 100" fill="none" xmlns="http://www.w3.org/2000/svg">
<g clip-path="url(#clip0_0_2953)">
<rect width="366" height="100" rx="18" fill="#E8F1FF"/>
<path d="M27.2546 23.0909V34H24.9482V23.0909H27.2546ZM31.3788 29.2699V34H29.1096V25.8182H31.2723V27.2617H31.3682C31.5493 26.7859 31.8529 26.4094 32.279 26.1325C32.7052 25.8519 33.2219 25.7116 33.8291 25.7116C34.3973 25.7116 34.8927 25.8359 35.3153 26.0845C35.7378 26.3331 36.0663 26.6882 36.3007 27.1499C36.5351 27.608 36.6523 28.1548 36.6523 28.7905V34H34.3831V29.1953C34.3866 28.6946 34.2588 28.304 33.9996 28.0234C33.7403 27.7393 33.3834 27.5973 32.9289 27.5973C32.6235 27.5973 32.3536 27.663 32.1192 27.7944C31.8884 27.9258 31.7073 28.1175 31.5759 28.3697C31.4481 28.6183 31.3824 28.9183 31.3788 29.2699ZM42.7926 25.8182V27.5227H37.8654V25.8182H42.7926ZM38.984 23.858H41.2532V31.4858C41.2532 31.6953 41.2852 31.8587 41.3491 31.9759C41.413 32.0895 41.5018 32.1694 41.6154 32.2156C41.7326 32.2617 41.8675 32.2848 42.0202 32.2848C42.1268 32.2848 42.2333 32.2759 42.3398 32.2582C42.4464 32.2369 42.5281 32.2209 42.5849 32.2102L42.9418 33.8988C42.8281 33.9343 42.6683 33.9751 42.4624 34.0213C42.2564 34.071 42.006 34.1012 41.7113 34.1119C41.1644 34.1332 40.685 34.0604 40.2731 33.8935C39.8647 33.7266 39.5469 33.4673 39.3196 33.1158C39.0923 32.7642 38.9805 32.3203 38.984 31.7841V23.858ZM44.2708 34V25.8182H46.4707V27.2457H46.5559C46.7051 26.7379 46.9554 26.3544 47.307 26.0952C47.6586 25.8324 48.0634 25.701 48.5215 25.701C48.6351 25.701 48.7576 25.7081 48.889 25.7223C49.0204 25.7365 49.1358 25.756 49.2353 25.7809V27.7944C49.1287 27.7624 48.9814 27.734 48.7931 27.7092C48.6049 27.6843 48.4327 27.6719 48.2765 27.6719C47.9426 27.6719 47.6444 27.7447 47.3816 27.8903C47.1223 28.0323 46.9164 28.2312 46.7637 28.4869C46.6145 28.7425 46.54 29.0373 46.54 29.3711V34H44.2708ZM53.7243 34.1598C52.8969 34.1598 52.1814 33.984 51.5777 33.6325C50.9775 33.2773 50.5141 32.7837 50.1874 32.1516C49.8607 31.516 49.6974 30.7791 49.6974 29.9411C49.6974 29.0959 49.8607 28.3572 50.1874 27.7251C50.5141 27.0895 50.9775 26.5959 51.5777 26.2443C52.1814 25.8892 52.8969 25.7116 53.7243 25.7116C54.5518 25.7116 55.2655 25.8892 55.8657 26.2443C56.4694 26.5959 56.9346 27.0895 57.2613 27.7251C57.588 28.3572 57.7513 29.0959 57.7513 29.9411C57.7513 30.7791 57.588 31.516 57.2613 32.1516C56.9346 32.7837 56.4694 33.2773 55.8657 33.6325C55.2655 33.984 54.5518 34.1598 53.7243 34.1598ZM53.735 32.402C54.1114 32.402 54.4257 32.2955 54.6778 32.0824C54.93 31.8658 55.1199 31.571 55.2478 31.1982C55.3792 30.8253 55.4449 30.4009 55.4449 29.9251C55.4449 29.4492 55.3792 29.0249 55.2478 28.652C55.1199 28.2791 54.93 27.9844 54.6778 27.7678C54.4257 27.5511 54.1114 27.4428 53.735 27.4428C53.355 27.4428 53.0354 27.5511 52.7762 27.7678C52.5205 27.9844 52.327 28.2791 52.1956 28.652C52.0677 29.0249 52.0038 29.4492 52.0038 29.9251C52.0038 30.4009 52.0677 30.8253 52.1956 31.1982C52.327 31.571 52.5205 31.8658 52.7762 32.0824C53.0354 32.2955 53.355 32.402 53.735 32.402ZM62.2417 34.1332C61.6203 34.1332 61.0574 33.9734 60.5532 33.6538C60.0525 33.3306 59.6547 32.8565 59.36 32.2315C59.0688 31.603 58.9232 30.8324 58.9232 29.9197C58.9232 28.9822 59.0741 28.2028 59.376 27.5813C59.6778 26.9563 60.0791 26.4893 60.5798 26.1804C61.0841 25.8679 61.6363 25.7116 62.2364 25.7116C62.6945 25.7116 63.0763 25.7898 63.3817 25.946C63.6906 26.0987 63.9392 26.2905 64.1274 26.5213C64.3192 26.7486 64.4648 26.9723 64.5642 27.1925H64.6334V23.0909H66.8973V34H64.6601V32.6896H64.5642C64.4577 32.9169 64.3067 33.1424 64.1114 33.3661C63.9197 33.5863 63.6693 33.7692 63.3604 33.9148C63.055 34.0604 62.6821 34.1332 62.2417 34.1332ZM62.9608 32.3274C63.3266 32.3274 63.6356 32.228 63.8877 32.0291C64.1434 31.8267 64.3387 31.5444 64.4736 31.1822C64.6121 30.82 64.6814 30.3956 64.6814 29.9091C64.6814 29.4226 64.6139 29 64.479 28.6413C64.344 28.2827 64.1487 28.0057 63.893 27.8104C63.6373 27.6151 63.3266 27.5174 62.9608 27.5174C62.588 27.5174 62.2737 27.6186 62.018 27.821C61.7623 28.0234 61.5688 28.304 61.4374 28.6626C61.306 29.0213 61.2403 29.4368 61.2403 29.9091C61.2403 30.3849 61.306 30.8058 61.4374 31.1715C61.5724 31.5337 61.7659 31.8178 62.018 32.0238C62.2737 32.2262 62.588 32.3274 62.9608 32.3274ZM74.0098 30.5163V25.8182H76.2789V34H74.1003V32.5138H74.0151C73.8304 32.9933 73.5233 33.3786 73.0936 33.6697C72.6674 33.9609 72.1472 34.1065 71.5328 34.1065C70.986 34.1065 70.5048 33.9822 70.0893 33.7337C69.6738 33.4851 69.3489 33.1317 69.1145 32.6737C68.8837 32.2156 68.7665 31.6669 68.763 31.0277V25.8182H71.0321V30.6229C71.0357 31.1058 71.1653 31.4876 71.421 31.7681C71.6767 32.0487 72.0194 32.1889 72.449 32.1889C72.7225 32.1889 72.9782 32.1268 73.2161 32.0025C73.454 31.8746 73.6458 31.6864 73.7914 31.4379C73.9405 31.1893 74.0133 30.8821 74.0098 30.5163ZM81.7907 34.1598C80.9527 34.1598 80.2318 33.9822 79.6281 33.6271C79.028 33.2685 78.5663 32.7713 78.2432 32.1357C77.9236 31.5 77.7638 30.7685 77.7638 29.9411C77.7638 29.103 77.9253 28.3679 78.2485 27.7358C78.5752 27.1001 79.0386 26.6048 79.6388 26.2496C80.2389 25.891 80.9527 25.7116 81.7801 25.7116C82.4939 25.7116 83.1189 25.8413 83.6551 26.1005C84.1913 26.3597 84.6157 26.7237 84.9282 27.1925C85.2407 27.6612 85.4129 28.2116 85.4449 28.8438H83.3035C83.2432 28.4354 83.0834 28.1069 82.8241 27.8583C82.5684 27.6062 82.2329 27.4801 81.8174 27.4801C81.4658 27.4801 81.1586 27.576 80.8959 27.7678C80.6366 27.956 80.4342 28.2312 80.2886 28.5934C80.143 28.9556 80.0702 29.3942 80.0702 29.9091C80.0702 30.4311 80.1412 30.875 80.2833 31.2408C80.4289 31.6065 80.6331 31.8853 80.8959 32.0771C81.1586 32.2688 81.4658 32.3647 81.8174 32.3647C82.0766 32.3647 82.3092 32.3114 82.5152 32.2049C82.7247 32.0984 82.8969 31.9439 83.0319 31.7415C83.1704 31.5355 83.2609 31.2887 83.3035 31.0011H85.4449C85.4094 31.6261 85.2389 32.1765 84.9335 32.6523C84.6317 33.1246 84.2144 33.494 83.6817 33.7603C83.1491 34.0266 82.5187 34.1598 81.7907 34.1598ZM86.8977 34V25.8182H89.1669V34H86.8977ZM88.0376 24.7635C87.7003 24.7635 87.4109 24.6516 87.1694 24.4279C86.9315 24.2006 86.8125 23.929 86.8125 23.6129C86.8125 23.3004 86.9315 23.0323 87.1694 22.8086C87.4109 22.5813 87.7003 22.4677 88.0376 22.4677C88.375 22.4677 88.6626 22.5813 88.9006 22.8086C89.142 23.0323 89.2628 23.3004 89.2628 23.6129C89.2628 23.929 89.142 24.2006 88.9006 24.4279C88.6626 24.6516 88.375 24.7635 88.0376 24.7635ZM93.2538 29.2699V34H90.9846V25.8182H93.1473V27.2617H93.2432C93.4243 26.7859 93.7279 26.4094 94.154 26.1325C94.5802 25.8519 95.0969 25.7116 95.7041 25.7116C96.2723 25.7116 96.7677 25.8359 97.1903 26.0845C97.6128 26.3331 97.9413 26.6882 98.1757 27.1499C98.4101 27.608 98.5273 28.1548 98.5273 28.7905V34H96.2581V29.1953C96.2616 28.6946 96.1338 28.304 95.8746 28.0234C95.6153 27.7393 95.2584 27.5973 94.8039 27.5973C94.4985 27.5973 94.2286 27.663 93.9942 27.7944C93.7634 27.9258 93.5823 28.1175 93.4509 28.3697C93.3231 28.6183 93.2574 28.9183 93.2538 29.2699ZM104.002 37.2386C103.267 37.2386 102.636 37.1374 102.111 36.935C101.589 36.7362 101.173 36.4645 100.864 36.12C100.555 35.7756 100.355 35.3885 100.262 34.9588L102.361 34.6765C102.425 34.8398 102.526 34.9925 102.665 35.1346C102.803 35.2766 102.986 35.3903 103.213 35.4755C103.444 35.5643 103.725 35.6087 104.055 35.6087C104.549 35.6087 104.955 35.4879 105.275 35.2464C105.598 35.0085 105.76 34.609 105.76 34.0479V32.5511H105.664C105.564 32.7784 105.415 32.9933 105.216 33.1957C105.017 33.3981 104.762 33.5632 104.449 33.6911C104.137 33.8189 103.764 33.8828 103.331 33.8828C102.716 33.8828 102.157 33.7408 101.653 33.4567C101.152 33.169 100.752 32.7305 100.454 32.141C100.159 31.5479 100.012 30.7987 100.012 29.8931C100.012 28.9663 100.163 28.1921 100.465 27.5707C100.767 26.9492 101.168 26.484 101.669 26.1751C102.173 25.8661 102.725 25.7116 103.325 25.7116C103.783 25.7116 104.167 25.7898 104.476 25.946C104.785 26.0987 105.033 26.2905 105.222 26.5213C105.413 26.7486 105.561 26.9723 105.664 27.1925H105.749V25.8182H108.002V34.0799C108.002 34.7759 107.832 35.3583 107.491 35.8271C107.15 36.2958 106.678 36.6474 106.074 36.8817C105.474 37.1197 104.783 37.2386 104.002 37.2386ZM104.05 32.1783C104.415 32.1783 104.724 32.0877 104.977 31.9066C105.232 31.7219 105.428 31.4592 105.562 31.1183C105.701 30.7738 105.77 30.3619 105.77 29.8825C105.77 29.4031 105.703 28.9876 105.568 28.636C105.433 28.2809 105.238 28.0057 104.982 27.8104C104.726 27.6151 104.415 27.5174 104.05 27.5174C103.677 27.5174 103.363 27.6186 103.107 27.821C102.851 28.0199 102.658 28.2969 102.526 28.652C102.395 29.0071 102.329 29.4173 102.329 29.8825C102.329 30.3548 102.395 30.7631 102.526 31.1076C102.661 31.4485 102.855 31.7131 103.107 31.9013C103.363 32.0859 103.677 32.1783 104.05 32.1783ZM122.948 26.9102H120.614C120.572 26.6083 120.485 26.3402 120.353 26.1058C120.222 25.8679 120.053 25.6655 119.847 25.4986C119.641 25.3317 119.403 25.2038 119.134 25.1151C118.867 25.0263 118.578 24.9819 118.265 24.9819C117.701 24.9819 117.209 25.1222 116.79 25.4027C116.371 25.6797 116.046 26.0845 115.815 26.6172C115.584 27.1463 115.469 27.7891 115.469 28.5455C115.469 29.3232 115.584 29.9766 115.815 30.5057C116.049 31.0348 116.376 31.4343 116.795 31.7042C117.214 31.9741 117.699 32.109 118.249 32.109C118.558 32.109 118.844 32.0682 119.107 31.9865C119.373 31.9048 119.609 31.7859 119.815 31.6296C120.021 31.4698 120.192 31.2763 120.327 31.049C120.465 30.8217 120.561 30.5625 120.614 30.2713L122.948 30.282C122.887 30.7827 122.736 31.2656 122.495 31.7308C122.257 32.1925 121.935 32.6062 121.531 32.9719C121.129 33.3342 120.65 33.6218 120.092 33.8349C119.538 34.0444 118.912 34.1491 118.212 34.1491C117.239 34.1491 116.369 33.929 115.602 33.4886C114.839 33.0483 114.235 32.4109 113.791 31.5763C113.351 30.7418 113.13 29.7315 113.13 28.5455C113.13 27.3558 113.354 26.3438 113.802 25.5092C114.249 24.6747 114.856 24.0391 115.623 23.6023C116.39 23.1619 117.253 22.9418 118.212 22.9418C118.844 22.9418 119.43 23.0305 119.97 23.2081C120.513 23.3857 120.994 23.6449 121.413 23.9858C121.832 24.3232 122.173 24.7369 122.436 25.2269C122.703 25.717 122.873 26.2781 122.948 26.9102ZM128.256 34.1598C127.428 34.1598 126.713 33.984 126.109 33.6325C125.509 33.2773 125.045 32.7837 124.719 32.1516C124.392 31.516 124.229 30.7791 124.229 29.9411C124.229 29.0959 124.392 28.3572 124.719 27.7251C125.045 27.0895 125.509 26.5959 126.109 26.2443C126.713 25.8892 127.428 25.7116 128.256 25.7116C129.083 25.7116 129.797 25.8892 130.397 26.2443C131.001 26.5959 131.466 27.0895 131.793 27.7251C132.119 28.3572 132.283 29.0959 132.283 29.9411C132.283 30.7791 132.119 31.516 131.793 32.1516C131.466 32.7837 131.001 33.2773 130.397 33.6325C129.797 33.984 129.083 34.1598 128.256 34.1598ZM128.266 32.402C128.643 32.402 128.957 32.2955 129.209 32.0824C129.461 31.8658 129.651 31.571 129.779 31.1982C129.91 30.8253 129.976 30.4009 129.976 29.9251C129.976 29.4492 129.91 29.0249 129.779 28.652C129.651 28.2791 129.461 27.9844 129.209 27.7678C128.957 27.5511 128.643 27.4428 128.266 27.4428C127.886 27.4428 127.567 27.5511 127.307 27.7678C127.052 27.9844 126.858 28.2791 126.727 28.652C126.599 29.0249 126.535 29.4492 126.535 29.9251C126.535 30.4009 126.599 30.8253 126.727 31.1982C126.858 31.571 127.052 31.8658 127.307 32.0824C127.567 32.2955 127.886 32.402 128.266 32.402ZM139.005 30.5163V25.8182H141.274V34H139.095V32.5138H139.01C138.826 32.9933 138.518 33.3786 138.089 33.6697C137.663 33.9609 137.142 34.1065 136.528 34.1065C135.981 34.1065 135.5 33.9822 135.084 33.7337C134.669 33.4851 134.344 33.1317 134.11 32.6737C133.879 32.2156 133.762 31.6669 133.758 31.0277V25.8182H136.027V30.6229C136.031 31.1058 136.16 31.4876 136.416 31.7681C136.672 32.0487 137.014 32.1889 137.444 32.1889C137.718 32.1889 137.973 32.1268 138.211 32.0025C138.449 31.8746 138.641 31.6864 138.786 31.4379C138.936 31.1893 139.008 30.8821 139.005 30.5163ZM143.089 37.0682V25.8182H145.326V27.1925H145.428C145.527 26.9723 145.671 26.7486 145.859 26.5213C146.051 26.2905 146.299 26.0987 146.605 25.946C146.914 25.7898 147.297 25.7116 147.755 25.7116C148.352 25.7116 148.902 25.8679 149.407 26.1804C149.911 26.4893 150.314 26.9563 150.616 27.5813C150.918 28.2028 151.069 28.9822 151.069 29.9197C151.069 30.8324 150.921 31.603 150.626 32.2315C150.335 32.8565 149.938 33.3306 149.433 33.6538C148.933 33.9734 148.371 34.1332 147.75 34.1332C147.31 34.1332 146.935 34.0604 146.626 33.9148C146.321 33.7692 146.07 33.5863 145.875 33.3661C145.68 33.1424 145.531 32.9169 145.428 32.6896H145.358V37.0682H143.089ZM145.31 29.9091C145.31 30.3956 145.378 30.82 145.513 31.1822C145.648 31.5444 145.843 31.8267 146.099 32.0291C146.354 32.228 146.665 32.3274 147.031 32.3274C147.4 32.3274 147.713 32.2262 147.968 32.0238C148.224 31.8178 148.418 31.5337 148.549 31.1715C148.684 30.8058 148.751 30.3849 148.751 29.9091C148.751 29.4368 148.686 29.0213 148.554 28.6626C148.423 28.304 148.229 28.0234 147.974 27.821C147.718 27.6186 147.404 27.5174 147.031 27.5174C146.662 27.5174 146.349 27.6151 146.093 27.8104C145.841 28.0057 145.648 28.2827 145.513 28.6413C145.378 29 145.31 29.4226 145.31 29.9091ZM156.278 34.1598C155.451 34.1598 154.735 33.984 154.131 33.6325C153.531 33.2773 153.068 32.7837 152.741 32.1516C152.414 31.516 152.251 30.7791 152.251 29.9411C152.251 29.0959 152.414 28.3572 152.741 27.7251C153.068 27.0895 153.531 26.5959 154.131 26.2443C154.735 25.8892 155.451 25.7116 156.278 25.7116C157.105 25.7116 157.819 25.8892 158.419 26.2443C159.023 26.5959 159.488 27.0895 159.815 27.7251C160.142 28.3572 160.305 29.0959 160.305 29.9411C160.305 30.7791 160.142 31.516 159.815 32.1516C159.488 32.7837 159.023 33.2773 158.419 33.6325C157.819 33.984 157.105 34.1598 156.278 34.1598ZM156.289 32.402C156.665 32.402 156.979 32.2955 157.232 32.0824C157.484 31.8658 157.674 31.571 157.801 31.1982C157.933 30.8253 157.999 30.4009 157.999 29.9251C157.999 29.4492 157.933 29.0249 157.801 28.652C157.674 28.2791 157.484 27.9844 157.232 27.7678C156.979 27.5511 156.665 27.4428 156.289 27.4428C155.909 27.4428 155.589 27.5511 155.33 27.7678C155.074 27.9844 154.881 28.2791 154.749 28.652C154.621 29.0249 154.558 29.4492 154.558 29.9251C154.558 30.4009 154.621 30.8253 154.749 31.1982C154.881 31.571 155.074 31.8658 155.33 32.0824C155.589 32.2955 155.909 32.402 156.289 32.402ZM164.05 29.2699V34H161.781V25.8182H163.943V27.2617H164.039C164.22 26.7859 164.524 26.4094 164.95 26.1325C165.376 25.8519 165.893 25.7116 166.5 25.7116C167.068 25.7116 167.564 25.8359 167.986 26.0845C168.409 26.3331 168.737 26.6882 168.972 27.1499C169.206 27.608 169.323 28.1548 169.323 28.7905V34H167.054V29.1953C167.058 28.6946 166.93 28.304 166.67 28.0234C166.411 27.7393 166.054 27.5973 165.6 27.5973C165.294 27.5973 165.025 27.663 164.79 27.7944C164.559 27.9258 164.378 28.1175 164.247 28.3697C164.119 28.6183 164.053 28.9183 164.05 29.2699ZM177.919 28.1513L175.842 28.2791C175.806 28.1016 175.73 27.9418 175.613 27.7997C175.495 27.6541 175.341 27.5387 175.149 27.4535C174.961 27.3647 174.736 27.3203 174.473 27.3203C174.121 27.3203 173.825 27.3949 173.583 27.544C173.342 27.6896 173.221 27.8849 173.221 28.13C173.221 28.3253 173.299 28.4904 173.455 28.6254C173.612 28.7603 173.88 28.8686 174.26 28.9503L175.741 29.2486C176.536 29.4119 177.129 29.6747 177.52 30.0369C177.91 30.3991 178.106 30.875 178.106 31.4645C178.106 32.0007 177.948 32.4712 177.631 32.8761C177.319 33.2809 176.889 33.5969 176.342 33.8242C175.799 34.0479 175.172 34.1598 174.462 34.1598C173.379 34.1598 172.516 33.9343 171.873 33.4833C171.234 33.0288 170.859 32.4109 170.749 31.6296L172.981 31.5124C173.049 31.8427 173.212 32.0948 173.471 32.2688C173.731 32.4393 174.063 32.5245 174.467 32.5245C174.865 32.5245 175.185 32.4482 175.426 32.2955C175.671 32.1392 175.796 31.9386 175.799 31.6935C175.796 31.4876 175.709 31.3189 175.538 31.1875C175.368 31.0526 175.105 30.9496 174.75 30.8786L173.333 30.5962C172.534 30.4364 171.939 30.1594 171.548 29.7653C171.161 29.3711 170.968 28.8686 170.968 28.2578C170.968 27.7322 171.11 27.2795 171.394 26.8995C171.682 26.5195 172.085 26.2266 172.603 26.0206C173.125 25.8146 173.736 25.7116 174.435 25.7116C175.469 25.7116 176.282 25.93 176.875 26.3668C177.472 26.8036 177.82 27.3984 177.919 28.1513Z" fill="#2B0752"/>
<path d="M29.4929 50.7827C29.4588 50.4389 29.3125 50.1719 29.054 49.9815C28.7955 49.7912 28.4446 49.696 28.0014 49.696C27.7003 49.696 27.446 49.7386 27.2386 49.8239C27.0313 49.9062 26.8722 50.0213 26.7614 50.169C26.6534 50.3168 26.5994 50.4844 26.5994 50.6719C26.5938 50.8281 26.6264 50.9645 26.6974 51.081C26.7713 51.1974 26.8722 51.2983 27 51.3835C27.1278 51.4659 27.2756 51.5384 27.4432 51.6009C27.6108 51.6605 27.7898 51.7116 27.9801 51.7543L28.7642 51.9418C29.1449 52.027 29.4943 52.1406 29.8125 52.2827C30.1307 52.4247 30.4063 52.5994 30.6392 52.8068C30.8722 53.0142 31.0526 53.2585 31.1804 53.5398C31.3111 53.821 31.3778 54.1435 31.3807 54.5071C31.3778 55.0412 31.2415 55.5043 30.9716 55.8963C30.7045 56.2855 30.3182 56.5881 29.8125 56.804C29.3097 57.017 28.7031 57.1236 27.9929 57.1236C27.2884 57.1236 26.6747 57.0156 26.152 56.7997C25.6321 56.5838 25.2259 56.2642 24.9332 55.8409C24.6435 55.4148 24.4915 54.8878 24.4773 54.2599H26.2628C26.2827 54.5526 26.3665 54.7969 26.5142 54.9929C26.6648 55.1861 26.8651 55.3324 27.1151 55.4318C27.3679 55.5284 27.6534 55.5767 27.9716 55.5767C28.2841 55.5767 28.5554 55.5312 28.7855 55.4403C29.0185 55.3494 29.1989 55.223 29.3267 55.0611C29.4545 54.8991 29.5185 54.7131 29.5185 54.5028C29.5185 54.3068 29.4602 54.142 29.3438 54.0085C29.2301 53.875 29.0625 53.7614 28.8409 53.6676C28.6222 53.5739 28.3537 53.4886 28.0355 53.4119L27.0852 53.1733C26.3494 52.9943 25.7685 52.7145 25.3423 52.3338C24.9162 51.9531 24.7045 51.4403 24.7074 50.7955C24.7045 50.267 24.8452 49.8054 25.1293 49.4105C25.4162 49.0156 25.8097 48.7074 26.3097 48.4858C26.8097 48.2642 27.3778 48.1534 28.0142 48.1534C28.6619 48.1534 29.2273 48.2642 29.7102 48.4858C30.196 48.7074 30.5739 49.0156 30.8438 49.4105C31.1136 49.8054 31.2528 50.2628 31.2614 50.7827H29.4929ZM34.4542 57.1236C34.0366 57.1236 33.6644 57.0511 33.3377 56.9062C33.011 56.7585 32.7525 56.5412 32.5621 56.2543C32.3746 55.9645 32.2809 55.6037 32.2809 55.1719C32.2809 54.8082 32.3477 54.5028 32.4812 54.2557C32.6147 54.0085 32.7965 53.8097 33.0266 53.6591C33.2567 53.5085 33.5181 53.3949 33.8107 53.3182C34.1062 53.2415 34.4158 53.1875 34.7397 53.1562C35.1204 53.1165 35.4272 53.0795 35.6602 53.0455C35.8931 53.0085 36.0621 52.9545 36.1673 52.8835C36.2724 52.8125 36.3249 52.7074 36.3249 52.5682V52.5426C36.3249 52.2727 36.2397 52.0639 36.0692 51.9162C35.9016 51.7685 35.663 51.6946 35.3533 51.6946C35.0266 51.6946 34.7667 51.767 34.5735 51.9119C34.3803 52.054 34.2525 52.233 34.19 52.4489L32.511 52.3125C32.5962 51.9148 32.7638 51.571 33.0138 51.2812C33.2638 50.9886 33.5863 50.7642 33.9812 50.608C34.3789 50.4489 34.8391 50.3693 35.3619 50.3693C35.7255 50.3693 36.0735 50.4119 36.4059 50.4972C36.7411 50.5824 37.038 50.7145 37.2965 50.8935C37.5579 51.0724 37.7638 51.3026 37.9144 51.5838C38.065 51.8622 38.1403 52.196 38.1403 52.5852V57H36.4187V56.0923H36.3675C36.2624 56.2969 36.1218 56.4773 35.9457 56.6335C35.7695 56.7869 35.5579 56.9077 35.3107 56.9957C35.0636 57.081 34.7781 57.1236 34.4542 57.1236ZM34.9741 55.8707C35.2411 55.8707 35.4769 55.8182 35.6815 55.7131C35.886 55.6051 36.0465 55.4602 36.163 55.2784C36.2795 55.0966 36.3377 54.8906 36.3377 54.6605V53.9659C36.2809 54.0028 36.2028 54.0369 36.1033 54.0682C36.0067 54.0966 35.8974 54.1236 35.7752 54.1491C35.6531 54.1719 35.5309 54.1932 35.4087 54.2131C35.2866 54.2301 35.1758 54.2457 35.0763 54.2599C34.8633 54.2912 34.6772 54.3409 34.5181 54.4091C34.359 54.4773 34.2354 54.5696 34.1474 54.6861C34.0593 54.7997 34.0153 54.9418 34.0153 55.1122C34.0153 55.3594 34.1048 55.5483 34.2837 55.679C34.4656 55.8068 34.6957 55.8707 34.9741 55.8707ZM45.4165 50.4545L43.1282 57H41.0827L38.7944 50.4545H40.712L42.0714 55.1378H42.1396L43.4947 50.4545H45.4165ZM49.1175 57.1278C48.4442 57.1278 47.8647 56.9915 47.3789 56.7188C46.896 56.4432 46.5238 56.054 46.2624 55.5511C46.0011 55.0455 45.8704 54.4474 45.8704 53.7571C45.8704 53.0838 46.0011 52.4929 46.2624 51.9844C46.5238 51.4759 46.8917 51.0795 47.3661 50.7955C47.8434 50.5114 48.4031 50.3693 49.0451 50.3693C49.4769 50.3693 49.8789 50.4389 50.2511 50.5781C50.6261 50.7145 50.9528 50.9205 51.2312 51.196C51.5124 51.4716 51.7312 51.8182 51.8874 52.2358C52.0437 52.6506 52.1218 53.1364 52.1218 53.6932V54.1918H46.5948V53.0668H50.413C50.413 52.8054 50.3562 52.5739 50.2425 52.3722C50.1289 52.1705 49.9712 52.0128 49.7695 51.8991C49.5707 51.7827 49.3391 51.7244 49.0749 51.7244C48.7994 51.7244 48.555 51.7884 48.342 51.9162C48.1317 52.0412 47.967 52.2102 47.8477 52.4233C47.7283 52.6335 47.6673 52.8679 47.6644 53.1264V54.196C47.6644 54.5199 47.7241 54.7997 47.8434 55.0355C47.9656 55.2713 48.1374 55.4531 48.359 55.581C48.5806 55.7088 48.8434 55.7727 49.1474 55.7727C49.3491 55.7727 49.5337 55.7443 49.7013 55.6875C49.869 55.6307 50.0124 55.5455 50.1317 55.4318C50.2511 55.3182 50.342 55.179 50.4045 55.0142L52.0835 55.125C51.9982 55.5284 51.8235 55.8807 51.5593 56.1818C51.2979 56.4801 50.9599 56.7131 50.5451 56.8807C50.1332 57.0455 49.6573 57.1278 49.1175 57.1278ZM56.1179 48.2727H58.3935L60.7969 54.1364H60.8991L63.3026 48.2727H65.5781V57H63.7884V51.3196H63.7159L61.4574 56.9574H60.2386L57.9801 51.2983H57.9077V57H56.1179V48.2727ZM70.0217 57.1278C69.3597 57.1278 68.7873 56.9872 68.3043 56.706C67.8242 56.4219 67.4535 56.027 67.1921 55.5213C66.9308 55.0128 66.8001 54.4233 66.8001 53.7528C66.8001 53.0767 66.9308 52.4858 67.1921 51.9801C67.4535 51.4716 67.8242 51.0767 68.3043 50.7955C68.7873 50.5114 69.3597 50.3693 70.0217 50.3693C70.6836 50.3693 71.2546 50.5114 71.7347 50.7955C72.2177 51.0767 72.5898 51.4716 72.8512 51.9801C73.1126 52.4858 73.2433 53.0767 73.2433 53.7528C73.2433 54.4233 73.1126 55.0128 72.8512 55.5213C72.5898 56.027 72.2177 56.4219 71.7347 56.706C71.2546 56.9872 70.6836 57.1278 70.0217 57.1278ZM70.0302 55.7216C70.3313 55.7216 70.5827 55.6364 70.7844 55.4659C70.9862 55.2926 71.1381 55.0568 71.2404 54.7585C71.3455 54.4602 71.3981 54.1207 71.3981 53.7401C71.3981 53.3594 71.3455 53.0199 71.2404 52.7216C71.1381 52.4233 70.9862 52.1875 70.7844 52.0142C70.5827 51.8409 70.3313 51.7543 70.0302 51.7543C69.7262 51.7543 69.4705 51.8409 69.2631 52.0142C69.0586 52.1875 68.9038 52.4233 68.7987 52.7216C68.6964 53.0199 68.6452 53.3594 68.6452 53.7401C68.6452 54.1207 68.6964 54.4602 68.7987 54.7585C68.9038 55.0568 69.0586 55.2926 69.2631 55.4659C69.4705 55.6364 69.7262 55.7216 70.0302 55.7216ZM74.4237 57V50.4545H76.1836V51.5966H76.2518C76.3711 51.1903 76.5714 50.8835 76.8526 50.6761C77.1339 50.4659 77.4577 50.3608 77.8242 50.3608C77.9151 50.3608 78.0131 50.3665 78.1183 50.3778C78.2234 50.3892 78.3157 50.4048 78.3952 50.4247V52.0355C78.31 52.0099 78.1921 51.9872 78.0415 51.9673C77.891 51.9474 77.7532 51.9375 77.6282 51.9375C77.3612 51.9375 77.1225 51.9957 76.9123 52.1122C76.7049 52.2259 76.5401 52.3849 76.418 52.5895C76.2987 52.794 76.239 53.0298 76.239 53.2969V57H74.4237ZM82.0121 57.1278C81.3388 57.1278 80.7592 56.9915 80.2734 56.7188C79.7905 56.4432 79.4183 56.054 79.157 55.5511C78.8956 55.0455 78.7649 54.4474 78.7649 53.7571C78.7649 53.0838 78.8956 52.4929 79.157 51.9844C79.4183 51.4759 79.7862 51.0795 80.2607 50.7955C80.7379 50.5114 81.2976 50.3693 81.9396 50.3693C82.3714 50.3693 82.7734 50.4389 83.1456 50.5781C83.5206 50.7145 83.8473 50.9205 84.1257 51.196C84.407 51.4716 84.6257 51.8182 84.782 52.2358C84.9382 52.6506 85.0163 53.1364 85.0163 53.6932V54.1918H79.4893V53.0668H83.3075C83.3075 52.8054 83.2507 52.5739 83.1371 52.3722C83.0234 52.1705 82.8658 52.0128 82.6641 51.8991C82.4652 51.7827 82.2337 51.7244 81.9695 51.7244C81.6939 51.7244 81.4496 51.7884 81.2365 51.9162C81.0263 52.0412 80.8615 52.2102 80.7422 52.4233C80.6229 52.6335 80.5618 52.8679 80.5589 53.1264V54.196C80.5589 54.5199 80.6186 54.7997 80.7379 55.0355C80.8601 55.2713 81.032 55.4531 81.2536 55.581C81.4751 55.7088 81.7379 55.7727 82.0419 55.7727C82.2436 55.7727 82.4283 55.7443 82.5959 55.6875C82.7635 55.6307 82.907 55.5455 83.0263 55.4318C83.1456 55.3182 83.2365 55.179 83.299 55.0142L84.978 55.125C84.8928 55.5284 84.718 55.8807 84.4538 56.1818C84.1925 56.4801 83.8544 56.7131 83.4396 56.8807C83.0277 57.0455 82.5518 57.1278 82.0121 57.1278ZM91.9357 57.1278C91.2738 57.1278 90.7013 56.9872 90.2184 56.706C89.7383 56.4219 89.3675 56.027 89.1062 55.5213C88.8448 55.0128 88.7141 54.4233 88.7141 53.7528C88.7141 53.0767 88.8448 52.4858 89.1062 51.9801C89.3675 51.4716 89.7383 51.0767 90.2184 50.7955C90.7013 50.5114 91.2738 50.3693 91.9357 50.3693C92.5977 50.3693 93.1687 50.5114 93.6488 50.7955C94.1317 51.0767 94.5039 51.4716 94.7653 51.9801C95.0266 52.4858 95.1573 53.0767 95.1573 53.7528C95.1573 54.4233 95.0266 55.0128 94.7653 55.5213C94.5039 56.027 94.1317 56.4219 93.6488 56.706C93.1687 56.9872 92.5977 57.1278 91.9357 57.1278ZM91.9442 55.7216C92.2454 55.7216 92.4968 55.6364 92.6985 55.4659C92.9002 55.2926 93.0522 55.0568 93.1545 54.7585C93.2596 54.4602 93.3121 54.1207 93.3121 53.7401C93.3121 53.3594 93.2596 53.0199 93.1545 52.7216C93.0522 52.4233 92.9002 52.1875 92.6985 52.0142C92.4968 51.8409 92.2454 51.7543 91.9442 51.7543C91.6403 51.7543 91.3846 51.8409 91.1772 52.0142C90.9727 52.1875 90.8178 52.4233 90.7127 52.7216C90.6104 53.0199 90.5593 53.3594 90.5593 53.7401C90.5593 54.1207 90.6104 54.4602 90.7127 54.7585C90.8178 55.0568 90.9727 55.2926 91.1772 55.4659C91.3846 55.6364 91.6403 55.7216 91.9442 55.7216ZM98.1531 53.2159V57H96.3377V50.4545H98.0678V51.6094H98.1445C98.2894 51.2287 98.5323 50.9276 98.8732 50.706C99.2141 50.4815 99.6275 50.3693 100.113 50.3693C100.568 50.3693 100.964 50.4688 101.302 50.6676C101.64 50.8665 101.903 51.1506 102.091 51.5199C102.278 51.8864 102.372 52.3239 102.372 52.8324V57H100.556V53.1562C100.559 52.7557 100.457 52.4432 100.25 52.2188C100.042 51.9915 99.7567 51.8778 99.3931 51.8778C99.1488 51.8778 98.9329 51.9304 98.7454 52.0355C98.5607 52.1406 98.4158 52.294 98.3107 52.4957C98.2085 52.6946 98.1559 52.9347 98.1531 53.2159ZM106.614 57V48.2727H112.495V49.794H108.459V51.8736H112.192V53.3949H108.459V55.4787H112.512V57H106.614ZM120.03 50.4545L117.741 57H115.696L113.408 50.4545H115.325L116.685 55.1378H116.753L118.108 50.4545H120.03ZM123.731 57.1278C123.058 57.1278 122.478 56.9915 121.992 56.7188C121.509 56.4432 121.137 56.054 120.876 55.5511C120.614 55.0455 120.484 54.4474 120.484 53.7571C120.484 53.0838 120.614 52.4929 120.876 51.9844C121.137 51.4759 121.505 51.0795 121.979 50.7955C122.457 50.5114 123.016 50.3693 123.658 50.3693C124.09 50.3693 124.492 50.4389 124.864 50.5781C125.239 50.7145 125.566 50.9205 125.844 51.196C126.126 51.4716 126.344 51.8182 126.501 52.2358C126.657 52.6506 126.735 53.1364 126.735 53.6932V54.1918H121.208V53.0668H125.026C125.026 52.8054 124.969 52.5739 124.856 52.3722C124.742 52.1705 124.585 52.0128 124.383 51.8991C124.184 51.7827 123.952 51.7244 123.688 51.7244C123.413 51.7244 123.168 51.7884 122.955 51.9162C122.745 52.0412 122.58 52.2102 122.461 52.4233C122.342 52.6335 122.281 52.8679 122.278 53.1264V54.196C122.278 54.5199 122.337 54.7997 122.457 55.0355C122.579 55.2713 122.751 55.4531 122.972 55.581C123.194 55.7088 123.457 55.7727 123.761 55.7727C123.962 55.7727 124.147 55.7443 124.315 55.6875C124.482 55.6307 124.626 55.5455 124.745 55.4318C124.864 55.3182 124.955 55.179 125.018 55.0142L126.697 55.125C126.612 55.5284 126.437 55.8807 126.173 56.1818C125.911 56.4801 125.573 56.7131 125.158 56.8807C124.746 57.0455 124.271 57.1278 123.731 57.1278ZM127.92 57V50.4545H129.68V51.5966H129.748C129.867 51.1903 130.067 50.8835 130.349 50.6761C130.63 50.4659 130.954 50.3608 131.32 50.3608C131.411 50.3608 131.509 50.3665 131.614 50.3778C131.719 50.3892 131.812 50.4048 131.891 50.4247V52.0355C131.806 52.0099 131.688 51.9872 131.538 51.9673C131.387 51.9474 131.249 51.9375 131.124 51.9375C130.857 51.9375 130.619 51.9957 130.408 52.1122C130.201 52.2259 130.036 52.3849 129.914 52.5895C129.795 52.794 129.735 53.0298 129.735 53.2969V57H127.92ZM134.15 59.4545C133.92 59.4545 133.704 59.4361 133.502 59.3991C133.303 59.3651 133.138 59.321 133.008 59.267L133.417 57.9119C133.63 57.9773 133.822 58.0128 133.992 58.0185C134.165 58.0241 134.315 57.9844 134.44 57.8991C134.567 57.8139 134.671 57.669 134.751 57.4645L134.857 57.1875L132.509 50.4545H134.418L135.773 55.2614H135.842L137.21 50.4545H139.131L136.587 57.7074C136.465 58.0597 136.299 58.3665 136.089 58.6278C135.881 58.892 135.619 59.0952 135.3 59.2372C134.982 59.3821 134.599 59.4545 134.15 59.4545ZM145.795 57.1278C145.133 57.1278 144.561 56.9872 144.078 56.706C143.598 56.4219 143.227 56.027 142.966 55.5213C142.704 55.0128 142.574 54.4233 142.574 53.7528C142.574 53.0767 142.704 52.4858 142.966 51.9801C143.227 51.4716 143.598 51.0767 144.078 50.7955C144.561 50.5114 145.133 50.3693 145.795 50.3693C146.457 50.3693 147.028 50.5114 147.508 50.7955C147.991 51.0767 148.363 51.4716 148.625 51.9801C148.886 52.4858 149.017 53.0767 149.017 53.7528C149.017 54.4233 148.886 55.0128 148.625 55.5213C148.363 56.027 147.991 56.4219 147.508 56.706C147.028 56.9872 146.457 57.1278 145.795 57.1278ZM145.804 55.7216C146.105 55.7216 146.356 55.6364 146.558 55.4659C146.76 55.2926 146.912 55.0568 147.014 54.7585C147.119 54.4602 147.172 54.1207 147.172 53.7401C147.172 53.3594 147.119 53.0199 147.014 52.7216C146.912 52.4233 146.76 52.1875 146.558 52.0142C146.356 51.8409 146.105 51.7543 145.804 51.7543C145.5 51.7543 145.244 51.8409 145.037 52.0142C144.832 52.1875 144.677 52.4233 144.572 52.7216C144.47 53.0199 144.419 53.3594 144.419 53.7401C144.419 54.1207 144.47 54.4602 144.572 54.7585C144.677 55.0568 144.832 55.2926 145.037 55.4659C145.244 55.6364 145.5 55.7216 145.804 55.7216ZM150.197 57V50.4545H151.957V51.5966H152.025C152.145 51.1903 152.345 50.8835 152.626 50.6761C152.907 50.4659 153.231 50.3608 153.598 50.3608C153.689 50.3608 153.787 50.3665 153.892 50.3778C153.997 50.3892 154.089 50.4048 154.169 50.4247V52.0355C154.083 52.0099 153.966 51.9872 153.815 51.9673C153.664 51.9474 153.527 51.9375 153.402 51.9375C153.135 51.9375 152.896 51.9957 152.686 52.1122C152.478 52.2259 152.314 52.3849 152.191 52.5895C152.072 52.794 152.012 53.0298 152.012 53.2969V57H150.197ZM157.214 57.1065C156.717 57.1065 156.267 56.9787 155.864 56.723C155.463 56.4645 155.145 56.0852 154.909 55.5852C154.676 55.0824 154.56 54.4659 154.56 53.7358C154.56 52.9858 154.68 52.3622 154.922 51.8651C155.163 51.3651 155.484 50.9915 155.885 50.7443C156.288 50.4943 156.73 50.3693 157.21 50.3693C157.577 50.3693 157.882 50.4318 158.126 50.5568C158.374 50.679 158.572 50.8324 158.723 51.017C158.876 51.1989 158.993 51.3778 159.072 51.554H159.128V48.2727H160.939V57H159.149V55.9517H159.072C158.987 56.1335 158.866 56.3139 158.71 56.4929C158.557 56.669 158.357 56.8153 158.109 56.9318C157.865 57.0483 157.567 57.1065 157.214 57.1065ZM157.79 55.6619C158.082 55.6619 158.33 55.5824 158.531 55.4233C158.736 55.2614 158.892 55.0355 159 54.7457C159.111 54.456 159.166 54.1165 159.166 53.7273C159.166 53.3381 159.112 53 159.004 52.7131C158.896 52.4261 158.74 52.2045 158.536 52.0483C158.331 51.892 158.082 51.8139 157.79 51.8139C157.491 51.8139 157.24 51.8949 157.036 52.0568C156.831 52.2187 156.676 52.4432 156.571 52.7301C156.466 53.017 156.413 53.3494 156.413 53.7273C156.413 54.108 156.466 54.4446 156.571 54.7372C156.679 55.027 156.834 55.2543 157.036 55.419C157.24 55.581 157.491 55.6619 157.79 55.6619ZM165.414 57.1278C164.741 57.1278 164.162 56.9915 163.676 56.7188C163.193 56.4432 162.821 56.054 162.559 55.5511C162.298 55.0455 162.167 54.4474 162.167 53.7571C162.167 53.0838 162.298 52.4929 162.559 51.9844C162.821 51.4759 163.189 51.0795 163.663 50.7955C164.14 50.5114 164.7 50.3693 165.342 50.3693C165.774 50.3693 166.176 50.4389 166.548 50.5781C166.923 50.7145 167.25 50.9205 167.528 51.196C167.809 51.4716 168.028 51.8182 168.184 52.2358C168.341 52.6506 168.419 53.1364 168.419 53.6932V54.1918H162.892V53.0668H166.71C166.71 52.8054 166.653 52.5739 166.539 52.3722C166.426 52.1705 166.268 52.0128 166.066 51.8991C165.868 51.7827 165.636 51.7244 165.372 51.7244C165.096 51.7244 164.852 51.7884 164.639 51.9162C164.429 52.0412 164.264 52.2102 164.145 52.4233C164.025 52.6335 163.964 52.8679 163.961 53.1264V54.196C163.961 54.5199 164.021 54.7997 164.14 55.0355C164.262 55.2713 164.434 55.4531 164.656 55.581C164.877 55.7088 165.14 55.7727 165.444 55.7727C165.646 55.7727 165.831 55.7443 165.998 55.6875C166.166 55.6307 166.309 55.5455 166.429 55.4318C166.548 55.3182 166.639 55.179 166.701 55.0142L168.38 55.125C168.295 55.5284 168.12 55.8807 167.856 56.1818C167.595 56.4801 167.257 56.7131 166.842 56.8807C166.43 57.0455 165.954 57.1278 165.414 57.1278ZM169.603 57V50.4545H171.363V51.5966H171.431C171.551 51.1903 171.751 50.8835 172.032 50.6761C172.314 50.4659 172.637 50.3608 173.004 50.3608C173.095 50.3608 173.193 50.3665 173.298 50.3778C173.403 50.3892 173.495 50.4048 173.575 50.4247V52.0355C173.49 52.0099 173.372 51.9872 173.221 51.9673C173.071 51.9474 172.933 51.9375 172.808 51.9375C172.541 51.9375 172.302 51.9957 172.092 52.1122C171.885 52.2259 171.72 52.3849 171.598 52.5895C171.478 52.794 171.419 53.0298 171.419 53.2969V57H169.603ZM178.582 57L176.801 50.4545H178.637L179.652 54.8523H179.711L180.768 50.4545H182.571L183.645 54.8267H183.7L184.697 50.4545H186.529L184.752 57H182.831L181.706 52.8835H181.625L180.5 57H178.582ZM187.498 57V50.4545H189.313V57H187.498ZM188.41 49.6108C188.14 49.6108 187.908 49.5213 187.715 49.3423C187.525 49.1605 187.43 48.9432 187.43 48.6903C187.43 48.4403 187.525 48.2259 187.715 48.0469C187.908 47.8651 188.14 47.7741 188.41 47.7741C188.68 47.7741 188.91 47.8651 189.1 48.0469C189.293 48.2259 189.39 48.4403 189.39 48.6903C189.39 48.9432 189.293 49.1605 189.1 49.3423C188.91 49.5213 188.68 49.6108 188.41 49.6108ZM194.249 50.4545V51.8182H190.307V50.4545H194.249ZM191.202 48.8864H193.017V54.9886C193.017 55.1562 193.043 55.2869 193.094 55.3807C193.145 55.4716 193.216 55.5355 193.307 55.5724C193.401 55.6094 193.509 55.6278 193.631 55.6278C193.716 55.6278 193.801 55.6207 193.887 55.6065C193.972 55.5895 194.037 55.5767 194.083 55.5682L194.368 56.919C194.277 56.9474 194.15 56.9801 193.985 57.017C193.82 57.0568 193.62 57.081 193.384 57.0895C192.946 57.1065 192.563 57.0483 192.233 56.9148C191.907 56.7812 191.652 56.5739 191.471 56.2926C191.289 56.0114 191.199 55.6562 191.202 55.2273V48.8864ZM197.387 53.2159V57H195.572V48.2727H197.336V51.6094H197.413C197.561 51.223 197.799 50.9205 198.129 50.7017C198.458 50.4801 198.872 50.3693 199.369 50.3693C199.824 50.3693 200.22 50.4688 200.558 50.6676C200.899 50.8636 201.163 51.1463 201.35 51.5156C201.541 51.8821 201.635 52.321 201.632 52.8324V57H199.816V53.1562C199.819 52.7528 199.717 52.4389 199.51 52.2145C199.305 51.9901 199.018 51.8778 198.649 51.8778C198.402 51.8778 198.183 51.9304 197.993 52.0355C197.805 52.1406 197.657 52.294 197.549 52.4957C197.444 52.6946 197.39 52.9347 197.387 53.2159ZM213.572 51.3281H211.706C211.672 51.0866 211.602 50.8722 211.497 50.6847C211.392 50.4943 211.257 50.3324 211.092 50.1989C210.927 50.0653 210.737 49.9631 210.521 49.892C210.308 49.821 210.076 49.7855 209.826 49.7855C209.375 49.7855 208.981 49.8977 208.646 50.1222C208.311 50.3437 208.051 50.6676 207.866 51.0938C207.681 51.517 207.589 52.0312 207.589 52.6364C207.589 53.2585 207.681 53.7812 207.866 54.2045C208.054 54.6278 208.315 54.9474 208.65 55.1634C208.985 55.3793 209.373 55.4872 209.814 55.4872C210.061 55.4872 210.289 55.4545 210.5 55.3892C210.713 55.3239 210.902 55.2287 211.066 55.1037C211.231 54.9759 211.368 54.821 211.475 54.6392C211.586 54.4574 211.663 54.25 211.706 54.017L213.572 54.0256C213.524 54.4261 213.403 54.8125 213.21 55.1847C213.02 55.554 212.762 55.8849 212.439 56.1776C212.118 56.4673 211.734 56.6974 211.288 56.8679C210.845 57.0355 210.343 57.1193 209.784 57.1193C209.005 57.1193 208.309 56.9432 207.696 56.5909C207.085 56.2386 206.602 55.7287 206.247 55.0611C205.895 54.3935 205.718 53.5852 205.718 52.6364C205.718 51.6847 205.897 50.875 206.255 50.2074C206.613 49.5398 207.099 49.0312 207.713 48.6818C208.326 48.3295 209.017 48.1534 209.784 48.1534C210.289 48.1534 210.758 48.2244 211.19 48.3665C211.625 48.5085 212.01 48.7159 212.345 48.9886C212.68 49.2585 212.953 49.5895 213.163 49.9815C213.376 50.3736 213.512 50.8224 213.572 51.3281ZM217.819 57.1278C217.157 57.1278 216.584 56.9872 216.101 56.706C215.621 56.4219 215.25 56.027 214.989 55.5213C214.728 55.0128 214.597 54.4233 214.597 53.7528C214.597 53.0767 214.728 52.4858 214.989 51.9801C215.25 51.4716 215.621 51.0767 216.101 50.7955C216.584 50.5114 217.157 50.3693 217.819 50.3693C218.48 50.3693 219.051 50.5114 219.532 50.7955C220.015 51.0767 220.387 51.4716 220.648 51.9801C220.909 52.4858 221.04 53.0767 221.04 53.7528C221.04 54.4233 220.909 55.0128 220.648 55.5213C220.387 56.027 220.015 56.4219 219.532 56.706C219.051 56.9872 218.48 57.1278 217.819 57.1278ZM217.827 55.7216C218.128 55.7216 218.38 55.6364 218.581 55.4659C218.783 55.2926 218.935 55.0568 219.037 54.7585C219.142 54.4602 219.195 54.1207 219.195 53.7401C219.195 53.3594 219.142 53.0199 219.037 52.7216C218.935 52.4233 218.783 52.1875 218.581 52.0142C218.38 51.8409 218.128 51.7543 217.827 51.7543C217.523 51.7543 217.267 51.8409 217.06 52.0142C216.855 52.1875 216.701 52.4233 216.596 52.7216C216.493 53.0199 216.442 53.3594 216.442 53.7401C216.442 54.1207 216.493 54.4602 216.596 54.7585C216.701 55.0568 216.855 55.2926 217.06 55.4659C217.267 55.6364 217.523 55.7216 217.827 55.7216ZM226.418 54.2131V50.4545H228.233V57H226.49V55.8111H226.422C226.275 56.1946 226.029 56.5028 225.685 56.7358C225.344 56.9687 224.928 57.0852 224.436 57.0852C223.999 57.0852 223.614 56.9858 223.282 56.7869C222.949 56.5881 222.689 56.3054 222.502 55.9389C222.317 55.5724 222.223 55.1335 222.221 54.6222V50.4545H224.036V54.2983C224.039 54.6847 224.142 54.9901 224.347 55.2145C224.551 55.4389 224.826 55.5511 225.169 55.5511C225.388 55.5511 225.593 55.5014 225.783 55.402C225.973 55.2997 226.127 55.1491 226.243 54.9503C226.363 54.7514 226.421 54.5057 226.418 54.2131ZM229.685 59.4545V50.4545H231.475V51.554H231.556C231.636 51.3778 231.751 51.1989 231.901 51.017C232.055 50.8324 232.254 50.679 232.498 50.5568C232.745 50.4318 233.052 50.3693 233.418 50.3693C233.896 50.3693 234.336 50.4943 234.739 50.7443C235.143 50.9915 235.465 51.3651 235.707 51.8651C235.948 52.3622 236.069 52.9858 236.069 53.7358C236.069 54.4659 235.951 55.0824 235.715 55.5852C235.482 56.0852 235.164 56.4645 234.761 56.723C234.36 56.9787 233.911 57.1065 233.414 57.1065C233.062 57.1065 232.762 57.0483 232.515 56.9318C232.271 56.8153 232.07 56.669 231.914 56.4929C231.758 56.3139 231.638 56.1335 231.556 55.9517H231.501V59.4545H229.685ZM231.462 53.7273C231.462 54.1165 231.516 54.456 231.624 54.7457C231.732 55.0355 231.888 55.2614 232.093 55.4233C232.298 55.5824 232.546 55.6619 232.839 55.6619C233.134 55.6619 233.384 55.581 233.589 55.419C233.793 55.2543 233.948 55.027 234.053 54.7372C234.161 54.4446 234.215 54.108 234.215 53.7273C234.215 53.3494 234.163 53.017 234.058 52.7301C233.952 52.4432 233.798 52.2187 233.593 52.0568C233.388 51.8949 233.137 51.8139 232.839 51.8139C232.543 51.8139 232.293 51.892 232.089 52.0483C231.887 52.2045 231.732 52.4261 231.624 52.7131C231.516 53 231.462 53.3381 231.462 53.7273ZM240.237 57.1278C239.575 57.1278 239.002 56.9872 238.519 56.706C238.039 56.4219 237.668 56.027 237.407 55.5213C237.146 55.0128 237.015 54.4233 237.015 53.7528C237.015 53.0767 237.146 52.4858 237.407 51.9801C237.668 51.4716 238.039 51.0767 238.519 50.7955C239.002 50.5114 239.575 50.3693 240.237 50.3693C240.898 50.3693 241.469 50.5114 241.95 50.7955C242.433 51.0767 242.805 51.4716 243.066 51.9801C243.327 52.4858 243.458 53.0767 243.458 53.7528C243.458 54.4233 243.327 55.0128 243.066 55.5213C242.805 56.027 242.433 56.4219 241.95 56.706C241.469 56.9872 240.898 57.1278 240.237 57.1278ZM240.245 55.7216C240.546 55.7216 240.798 55.6364 240.999 55.4659C241.201 55.2926 241.353 55.0568 241.455 54.7585C241.56 54.4602 241.613 54.1207 241.613 53.7401C241.613 53.3594 241.56 53.0199 241.455 52.7216C241.353 52.4233 241.201 52.1875 240.999 52.0142C240.798 51.8409 240.546 51.7543 240.245 51.7543C239.941 51.7543 239.685 51.8409 239.478 52.0142C239.273 52.1875 239.119 52.4233 239.013 52.7216C238.911 53.0199 238.86 53.3594 238.86 53.7401C238.86 54.1207 238.911 54.4602 239.013 54.7585C239.119 55.0568 239.273 55.2926 239.478 55.4659C239.685 55.6364 239.941 55.7216 240.245 55.7216ZM246.454 53.2159V57H244.638V50.4545H246.369V51.6094H246.445C246.59 51.2287 246.833 50.9276 247.174 50.706C247.515 50.4815 247.928 50.3693 248.414 50.3693C248.869 50.3693 249.265 50.4688 249.603 50.6676C249.941 50.8665 250.204 51.1506 250.391 51.5199C250.579 51.8864 250.673 52.3239 250.673 52.8324V57H248.857V53.1562C248.86 52.7557 248.758 52.4432 248.55 52.2188C248.343 51.9915 248.058 51.8778 247.694 51.8778C247.45 51.8778 247.234 51.9304 247.046 52.0355C246.862 52.1406 246.717 52.294 246.612 52.4957C246.509 52.6946 246.457 52.9347 246.454 53.2159ZM257.549 52.321L255.887 52.4233C255.859 52.2812 255.798 52.1534 255.704 52.0398C255.61 51.9233 255.487 51.831 255.333 51.7628C255.183 51.6918 255.002 51.6562 254.792 51.6562C254.511 51.6562 254.274 51.7159 254.081 51.8352C253.887 51.9517 253.791 52.108 253.791 52.304C253.791 52.4602 253.853 52.5923 253.978 52.7003C254.103 52.8082 254.318 52.8949 254.622 52.9602L255.806 53.1989C256.443 53.3295 256.917 53.5398 257.23 53.8295C257.542 54.1193 257.699 54.5 257.699 54.9716C257.699 55.4006 257.572 55.777 257.319 56.1009C257.069 56.4247 256.725 56.6776 256.288 56.8594C255.853 57.0384 255.352 57.1278 254.784 57.1278C253.917 57.1278 253.227 56.9474 252.713 56.5866C252.201 56.223 251.902 55.7287 251.814 55.1037L253.599 55.0099C253.653 55.2741 253.784 55.4759 253.991 55.6151C254.199 55.7514 254.464 55.8196 254.788 55.8196C255.106 55.8196 255.362 55.7585 255.555 55.6364C255.751 55.5114 255.85 55.3509 255.853 55.1548C255.85 54.9901 255.781 54.8551 255.645 54.75C255.508 54.642 255.298 54.5597 255.014 54.5028L253.88 54.277C253.241 54.1491 252.765 53.9276 252.453 53.6122C252.143 53.2969 251.988 52.8949 251.988 52.4062C251.988 51.9858 252.102 51.6236 252.329 51.3196C252.559 51.0156 252.882 50.7812 253.297 50.6165C253.714 50.4517 254.203 50.3693 254.762 50.3693C255.589 50.3693 256.24 50.544 256.714 50.8935C257.191 51.2429 257.47 51.7187 257.549 52.321Z" fill="#505050"/>
<path d="M26.6399 86H24.3331L27.848 75.8182H30.6222L34.1321 86H31.8253L29.2749 78.1449H29.1953L26.6399 86ZM26.4957 81.9979H31.9446V83.6783H26.4957V81.9979ZM38.967 86H35.3576V75.8182H38.9968C40.021 75.8182 40.9026 76.022 41.6417 76.4297C42.3808 76.834 42.9492 77.4157 43.3469 78.1747C43.748 78.9337 43.9485 79.8419 43.9485 80.8991C43.9485 81.9598 43.748 82.8712 43.3469 83.6335C42.9492 84.3958 42.3775 84.9808 41.6317 85.3885C40.8893 85.7962 40.0011 86 38.967 86ZM37.5103 84.1555H38.8775C39.5138 84.1555 40.0491 84.0429 40.4833 83.8175C40.9208 83.5888 41.2489 83.2358 41.4677 82.7585C41.6897 82.2779 41.8008 81.6581 41.8008 80.8991C41.8008 80.1468 41.6897 79.532 41.4677 79.0547C41.2489 78.5774 40.9225 78.2261 40.4883 78.0007C40.0541 77.7753 39.5188 77.6626 38.8825 77.6626H37.5103V84.1555ZM49.1525 86H45.5431V75.8182H49.1824C50.2065 75.8182 51.0881 76.022 51.8272 76.4297C52.5663 76.834 53.1348 77.4157 53.5325 78.1747C53.9335 78.9337 54.1341 79.8419 54.1341 80.8991C54.1341 81.9598 53.9335 82.8712 53.5325 83.6335C53.1348 84.3958 52.563 84.9808 51.8173 85.3885C51.0749 85.7962 50.1866 86 49.1525 86ZM47.6958 84.1555H49.063C49.6994 84.1555 50.2347 84.0429 50.6689 83.8175C51.1064 83.5888 51.4345 83.2358 51.6532 82.7585C51.8753 82.2779 51.9863 81.6581 51.9863 80.8991C51.9863 80.1468 51.8753 79.532 51.6532 79.0547C51.4345 78.5774 51.108 78.2261 50.6738 78.0007C50.2396 77.7753 49.7044 77.6626 49.068 77.6626H47.6958V84.1555ZM58.3723 75.8182H60.7836L63.1053 80.2031H63.2047L65.5265 75.8182H67.9377L64.2239 82.4006V86H62.0861V82.4006L58.3723 75.8182ZM77.8548 80.9091C77.8548 82.0194 77.6443 82.964 77.2234 83.7429C76.8058 84.5218 76.2357 85.1167 75.5131 85.5277C74.7939 85.9354 73.9852 86.1392 73.087 86.1392C72.1822 86.1392 71.3701 85.9337 70.6509 85.5227C69.9317 85.1117 69.3633 84.5168 68.9457 83.7379C68.5281 82.959 68.3192 82.0161 68.3192 80.9091C68.3192 79.7988 68.5281 78.8542 68.9457 78.0753C69.3633 77.2964 69.9317 76.7031 70.6509 76.2955C71.3701 75.8845 72.1822 75.679 73.087 75.679C73.9852 75.679 74.7939 75.8845 75.5131 76.2955C76.2357 76.7031 76.8058 77.2964 77.2234 78.0753C77.6443 78.8542 77.8548 79.7988 77.8548 80.9091ZM75.6722 80.9091C75.6722 80.1899 75.5645 79.5833 75.3491 79.0895C75.137 78.5956 74.837 78.2211 74.4492 77.9659C74.0614 77.7107 73.6074 77.5831 73.087 77.5831C72.5666 77.5831 72.1126 77.7107 71.7248 77.9659C71.337 78.2211 71.0354 78.5956 70.82 79.0895C70.6078 79.5833 70.5018 80.1899 70.5018 80.9091C70.5018 81.6283 70.6078 82.2348 70.82 82.7287C71.0354 83.2225 71.337 83.5971 71.7248 83.8523C72.1126 84.1075 72.5666 84.2351 73.087 84.2351C73.6074 84.2351 74.0614 84.1075 74.4492 83.8523C74.837 83.5971 75.137 83.2225 75.3491 82.7287C75.5645 82.2348 75.6722 81.6283 75.6722 80.9091ZM85.7385 75.8182H87.8912V82.4304C87.8912 83.1728 87.7138 83.8224 87.3592 84.3793C87.0079 84.9361 86.5157 85.3703 85.8826 85.6818C85.2496 85.9901 84.5121 86.1442 83.6703 86.1442C82.8251 86.1442 82.086 85.9901 81.4529 85.6818C80.8199 85.3703 80.3277 84.9361 79.9764 84.3793C79.6251 83.8224 79.4494 83.1728 79.4494 82.4304V75.8182H81.6021V82.2464C81.6021 82.6342 81.6866 82.9789 81.8556 83.2805C82.028 83.5821 82.2699 83.8191 82.5815 83.9915C82.8931 84.1638 83.256 84.25 83.6703 84.25C84.0879 84.25 84.4508 84.1638 84.7591 83.9915C85.0706 83.8191 85.3109 83.5821 85.4799 83.2805C85.6523 82.9789 85.7385 82.6342 85.7385 82.2464V75.8182ZM89.6623 86V75.8182H93.6793C94.4483 75.8182 95.1045 75.9557 95.6481 76.2308C96.195 76.5026 96.6109 76.8887 96.896 77.3892C97.1843 77.8864 97.3285 78.4714 97.3285 79.1442C97.3285 79.8203 97.1826 80.402 96.891 80.8892C96.5993 81.3731 96.1767 81.7443 95.6232 82.0028C95.073 82.2614 94.4068 82.3906 93.6246 82.3906H90.935V80.6605H93.2766C93.6876 80.6605 94.029 80.6042 94.3008 80.4915C94.5726 80.3788 94.7747 80.2098 94.9073 79.9844C95.0432 79.759 95.1112 79.4789 95.1112 79.1442C95.1112 78.8061 95.0432 78.5211 94.9073 78.2891C94.7747 78.0571 94.5709 77.8814 94.2958 77.7621C94.024 77.6394 93.681 77.5781 93.2667 77.5781H91.815V86H89.6623ZM95.1609 81.3665L97.6914 86H95.315L92.8391 81.3665H95.1609ZM102.09 86V75.8182H108.831V77.593H104.243V80.0192H108.384V81.794H104.243V86H102.09ZM112.432 75.8182V86H110.279V75.8182H112.432ZM114.203 86V75.8182H118.22C118.989 75.8182 119.646 75.9557 120.189 76.2308C120.736 76.5026 121.152 76.8887 121.437 77.3892C121.725 77.8864 121.869 78.4714 121.869 79.1442C121.869 79.8203 121.724 80.402 121.432 80.8892C121.14 81.3731 120.718 81.7443 120.164 82.0028C119.614 82.2614 118.948 82.3906 118.166 82.3906H115.476V80.6605H117.818C118.229 80.6605 118.57 80.6042 118.842 80.4915C119.114 80.3788 119.316 80.2098 119.448 79.9844C119.584 79.759 119.652 79.4789 119.652 79.1442C119.652 78.8061 119.584 78.5211 119.448 78.2891C119.316 78.0571 119.112 77.8814 118.837 77.7621C118.565 77.6394 118.222 77.5781 117.808 77.5781H116.356V86H114.203ZM119.702 81.3665L122.232 86H119.856L117.38 81.3665H119.702ZM128.914 78.7464C128.874 78.3454 128.704 78.0339 128.402 77.8118C128.101 77.5897 127.691 77.4787 127.174 77.4787C126.823 77.4787 126.526 77.5284 126.284 77.6278C126.042 77.724 125.857 77.8582 125.727 78.0305C125.602 78.2029 125.539 78.3984 125.539 78.6172C125.532 78.7995 125.57 78.9586 125.653 79.0945C125.739 79.2304 125.857 79.348 126.006 79.4474C126.155 79.5436 126.327 79.6281 126.523 79.701C126.718 79.7706 126.927 79.8303 127.149 79.88L128.064 80.0987C128.508 80.1982 128.916 80.3307 129.287 80.4964C129.658 80.6622 129.98 80.866 130.252 81.108C130.523 81.3499 130.734 81.6349 130.883 81.9631C131.035 82.2912 131.113 82.6674 131.117 83.0916C131.113 83.7147 130.954 84.255 130.639 84.7124C130.328 85.1664 129.877 85.5194 129.287 85.7713C128.7 86.0199 127.993 86.1442 127.164 86.1442C126.342 86.1442 125.626 86.0182 125.017 85.7663C124.41 85.5144 123.936 85.1416 123.595 84.6477C123.257 84.1506 123.079 83.5357 123.063 82.8033H125.146C125.169 83.1446 125.267 83.4297 125.439 83.6584C125.615 83.8838 125.848 84.0545 126.14 84.1705C126.435 84.2831 126.768 84.3395 127.139 84.3395C127.504 84.3395 127.82 84.2865 128.089 84.1804C128.361 84.0743 128.571 83.9268 128.72 83.7379C128.869 83.549 128.944 83.3319 128.944 83.0866C128.944 82.858 128.876 82.6657 128.74 82.5099C128.608 82.3542 128.412 82.2216 128.154 82.1122C127.898 82.0028 127.585 81.9034 127.214 81.8139L126.105 81.5355C125.247 81.3267 124.569 81.0002 124.072 80.5561C123.575 80.112 123.328 79.5137 123.331 78.7614C123.328 78.1449 123.492 77.6063 123.823 77.1456C124.158 76.6849 124.617 76.3253 125.2 76.0668C125.784 75.8082 126.447 75.679 127.189 75.679C127.945 75.679 128.604 75.8082 129.168 76.0668C129.735 76.3253 130.175 76.6849 130.49 77.1456C130.805 77.6063 130.968 78.1399 130.977 78.7464H128.914ZM132.177 77.593V75.8182H140.539V77.593H137.422V86H135.294V77.593H132.177ZM154.14 79.3828H151.963C151.923 79.1011 151.842 78.8509 151.719 78.6321C151.596 78.41 151.439 78.2211 151.247 78.0653C151.054 77.9096 150.832 77.7902 150.58 77.7074C150.332 77.6245 150.062 77.5831 149.77 77.5831C149.243 77.5831 148.784 77.714 148.393 77.9759C148.002 78.2344 147.699 78.6122 147.483 79.1094C147.268 79.6032 147.16 80.2031 147.16 80.9091C147.16 81.6349 147.268 82.2448 147.483 82.7386C147.702 83.2325 148.007 83.6054 148.398 83.8572C148.789 84.1091 149.241 84.2351 149.755 84.2351C150.044 84.2351 150.31 84.197 150.556 84.1207C150.804 84.0445 151.025 83.9335 151.217 83.7876C151.409 83.6385 151.568 83.4579 151.694 83.2457C151.823 83.0336 151.913 82.7917 151.963 82.5199L154.14 82.5298C154.084 82.9972 153.943 83.4479 153.718 83.8821C153.495 84.313 153.195 84.6991 152.818 85.0405C152.443 85.3786 151.996 85.647 151.475 85.8459C150.958 86.0414 150.373 86.1392 149.72 86.1392C148.812 86.1392 148 85.9337 147.284 85.5227C146.572 85.1117 146.008 84.5168 145.594 83.7379C145.183 82.959 144.977 82.0161 144.977 80.9091C144.977 79.7988 145.186 78.8542 145.604 78.0753C146.021 77.2964 146.588 76.7031 147.304 76.2955C148.02 75.8845 148.825 75.679 149.72 75.679C150.31 75.679 150.857 75.7618 151.361 75.9276C151.868 76.0933 152.317 76.3352 152.708 76.6534C153.099 76.9683 153.418 77.3544 153.663 77.8118C153.911 78.2692 154.07 78.7929 154.14 79.3828ZM165.04 80.9091C165.04 82.0194 164.83 82.964 164.409 83.7429C163.991 84.5218 163.421 85.1167 162.699 85.5277C161.979 85.9354 161.171 86.1392 160.273 86.1392C159.368 86.1392 158.556 85.9337 157.836 85.5227C157.117 85.1117 156.549 84.5168 156.131 83.7379C155.714 82.959 155.505 82.0161 155.505 80.9091C155.505 79.7988 155.714 78.8542 156.131 78.0753C156.549 77.2964 157.117 76.7031 157.836 76.2955C158.556 75.8845 159.368 75.679 160.273 75.679C161.171 75.679 161.979 75.8845 162.699 76.2955C163.421 76.7031 163.991 77.2964 164.409 78.0753C164.83 78.8542 165.04 79.7988 165.04 80.9091ZM162.858 80.9091C162.858 80.1899 162.75 79.5833 162.535 79.0895C162.323 78.5956 162.023 78.2211 161.635 77.9659C161.247 77.7107 160.793 77.5831 160.273 77.5831C159.752 77.5831 159.298 77.7107 158.91 77.9659C158.523 78.2211 158.221 78.5956 158.006 79.0895C157.793 79.5833 157.687 80.1899 157.687 80.9091C157.687 81.6283 157.793 82.2348 158.006 82.7287C158.221 83.2225 158.523 83.5971 158.91 83.8523C159.298 84.1075 159.752 84.2351 160.273 84.2351C160.793 84.2351 161.247 84.1075 161.635 83.8523C162.023 83.5971 162.323 83.2225 162.535 82.7287C162.75 82.2348 162.858 81.6283 162.858 80.9091ZM172.924 75.8182H175.077V82.4304C175.077 83.1728 174.899 83.8224 174.545 84.3793C174.193 84.9361 173.701 85.3703 173.068 85.6818C172.435 85.9901 171.698 86.1442 170.856 86.1442C170.011 86.1442 169.272 85.9901 168.638 85.6818C168.005 85.3703 167.513 84.9361 167.162 84.3793C166.811 83.8224 166.635 83.1728 166.635 82.4304V75.8182H168.788V82.2464C168.788 82.6342 168.872 82.9789 169.041 83.2805C169.214 83.5821 169.455 83.8191 169.767 83.9915C170.079 84.1638 170.442 84.25 170.856 84.25C171.273 84.25 171.636 84.1638 171.945 83.9915C172.256 83.8191 172.496 83.5821 172.665 83.2805C172.838 82.9789 172.924 82.6342 172.924 82.2464V75.8182ZM176.848 86V75.8182H180.865C181.637 75.8182 182.295 75.9657 182.839 76.2607C183.382 76.5523 183.796 76.9583 184.081 77.4787C184.37 77.9957 184.514 78.5923 184.514 79.2685C184.514 79.9446 184.368 80.5412 184.077 81.0582C183.785 81.5753 183.362 81.978 182.809 82.2663C182.259 82.5547 181.592 82.6989 180.81 82.6989H178.25V80.9737H180.462C180.876 80.9737 181.218 80.9025 181.486 80.7599C181.758 80.6141 181.96 80.4136 182.093 80.1584C182.229 79.8999 182.297 79.6032 182.297 79.2685C182.297 78.9304 182.229 78.6354 182.093 78.3835C181.96 78.1283 181.758 77.9311 181.486 77.7919C181.215 77.6494 180.87 77.5781 180.452 77.5781H179.001V86H176.848ZM195.269 80.9091C195.269 82.0194 195.058 82.964 194.637 83.7429C194.22 84.5218 193.65 85.1167 192.927 85.5277C192.208 85.9354 191.399 86.1392 190.501 86.1392C189.596 86.1392 188.784 85.9337 188.065 85.5227C187.346 85.1117 186.777 84.5168 186.36 83.7379C185.942 82.959 185.733 82.0161 185.733 80.9091C185.733 79.7988 185.942 78.8542 186.36 78.0753C186.777 77.2964 187.346 76.7031 188.065 76.2955C188.784 75.8845 189.596 75.679 190.501 75.679C191.399 75.679 192.208 75.8845 192.927 76.2955C193.65 76.7031 194.22 77.2964 194.637 78.0753C195.058 78.8542 195.269 79.7988 195.269 80.9091ZM193.086 80.9091C193.086 80.1899 192.979 79.5833 192.763 79.0895C192.551 78.5956 192.251 78.2211 191.863 77.9659C191.475 77.7107 191.021 77.5831 190.501 77.5831C189.981 77.5831 189.527 77.7107 189.139 77.9659C188.751 78.2211 188.449 78.5956 188.234 79.0895C188.022 79.5833 187.916 80.1899 187.916 80.9091C187.916 81.6283 188.022 82.2348 188.234 82.7287C188.449 83.2225 188.751 83.5971 189.139 83.8523C189.527 84.1075 189.981 84.2351 190.501 84.2351C191.021 84.2351 191.475 84.1075 191.863 83.8523C192.251 83.5971 192.551 83.2225 192.763 82.7287C192.979 82.2348 193.086 81.6283 193.086 80.9091ZM205.38 75.8182V86H203.52L199.091 79.5916H199.016V86H196.863V75.8182H198.753L203.148 82.2216H203.237V75.8182H205.38Z" fill="#45BC1B"/>
<path fill-rule="evenodd" clip-rule="evenodd" d="M335.368 36.4444C336.947 39.1797 340.438 40.1152 343.174 38.536L348.888 48.4335C349.677 49.8006 349.209 51.547 347.842 52.3364L314.438 71.622C313.255 69.5732 310.632 68.8705 308.584 70.0533C306.535 71.2361 305.832 73.859 307.015 75.9078L295.881 82.3364C294.513 83.1257 292.767 82.6578 291.978 81.2906L286.263 71.3931C288.999 69.8138 289.934 66.3226 288.355 63.5873C286.776 60.852 283.284 59.9163 280.549 61.4956L274.835 51.598C274.045 50.2311 274.513 48.4847 275.881 47.6953L287.015 41.2668C288.198 43.3154 290.821 44.0181 292.87 42.8353C294.918 41.6525 295.621 39.0296 294.438 36.981L327.842 17.6953C329.209 16.906 330.956 17.374 331.745 18.7409L337.459 28.6384C334.724 30.2177 333.789 33.7091 335.368 36.4444Z" fill="#7FB437"/>
<path fill-rule="evenodd" clip-rule="evenodd" d="M335.368 36.4445C336.947 39.1798 340.438 40.1152 343.173 38.536L348.888 48.4335L312.057 69.6978C310.9 69.3217 309.643 69.4547 308.589 70.0632C307.535 70.6718 306.792 71.6935 306.539 72.8835L303.112 74.8621C296.332 78.7764 288.549 71.8381 291.653 67.784C293.099 65.9122 293.243 63.3365 292.011 61.3146C290.775 59.2966 288.427 58.2428 286.097 58.6719C284.942 58.9267 283.75 58.4233 283.139 57.4105L278.546 49.4552C277.757 48.0882 278.225 46.3419 279.592 45.5525L287.015 41.2669C288.198 43.3155 290.821 44.0181 292.869 42.8354C294.918 41.6526 295.621 39.0297 294.438 36.9811L327.842 17.6954C329.209 16.9061 330.955 17.374 331.745 18.741L337.459 28.6385C334.724 30.2177 333.788 33.7092 335.368 36.4445Z" fill="#8CC63F"/>
<path fill-rule="evenodd" clip-rule="evenodd" d="M303.061 63.3445L304.49 65.8188C304.883 66.5007 305.759 66.7355 306.441 66.3418C307.123 65.9481 307.358 65.0721 306.964 64.3903L305.535 61.9159C305.142 61.2339 304.266 60.9992 303.584 61.393C302.902 61.7867 302.667 62.6624 303.061 63.3445ZM298.775 55.9215L300.204 58.3958C300.598 59.0777 301.473 59.3125 302.155 58.9189C302.837 58.5251 303.072 57.6491 302.678 56.9673L301.25 54.4929C300.856 53.8109 299.98 53.5762 299.298 53.97C298.616 54.3637 298.382 55.2394 298.775 55.9215ZM294.49 48.4983L295.918 50.9726C296.312 51.6547 297.188 51.8893 297.87 51.4957C298.552 51.1019 298.786 50.2261 298.392 49.5441L296.964 47.0697C296.57 46.3877 295.695 46.1532 295.012 46.547C294.331 46.9407 294.096 47.8163 294.49 48.4983Z" fill="#7FB437"/>
<path fill-rule="evenodd" clip-rule="evenodd" d="M324.332 32.4414C316.361 62.2639 317.084 60.1975 316.339 60.6275C315.839 60.9223 315.209 60.88 314.747 60.5285C314.287 60.1755 314.083 59.5772 314.237 59.0186L321.558 31.6981C321.767 30.9322 322.549 30.4807 323.317 30.6824C324.083 30.8915 324.534 31.6737 324.332 32.4414Z" fill="#DAD7E5"/>
<path fill-rule="evenodd" clip-rule="evenodd" d="M324.332 32.4414C317.508 57.9101 318.129 56.2946 317.384 56.7246C316.885 57.0194 316.255 56.9772 315.793 56.6253C315.332 56.2726 315.128 55.6743 315.283 55.1156L321.557 31.6981C321.767 30.9322 322.549 30.4807 323.316 30.6824C324.082 30.8915 324.534 31.6737 324.332 32.4414Z" fill="#EDEBF2"/>
<path fill-rule="evenodd" clip-rule="evenodd" d="M332.753 46.2016C333.788 47.9939 333.398 50.2633 331.828 51.6073C330.251 52.9497 327.948 52.9785 326.343 51.6738C324.737 50.3733 324.289 48.1043 325.285 46.2923C326.027 44.9304 327.442 44.0802 328.993 44.0626C330.541 44.0442 331.98 44.863 332.753 46.2016Z" fill="#DAD7E5"/>
<path fill-rule="evenodd" clip-rule="evenodd" d="M333.321 48.4454C332.371 50.1717 330.365 51.0279 328.46 50.5162C326.554 50.0067 325.245 48.262 325.285 46.2921C326.235 44.5659 328.242 43.7095 330.147 44.2213C332.052 44.7307 333.362 46.4753 333.321 48.4454Z" fill="#EDEBF2"/>
<path fill-rule="evenodd" clip-rule="evenodd" d="M313.239 40.9726C314.274 42.7651 313.883 45.0343 312.313 46.3783C310.736 47.7207 308.433 47.7496 306.829 46.4448C305.222 45.1443 304.775 42.8753 305.771 41.0633C306.512 39.7014 307.928 38.8511 309.478 38.8335C311.027 38.8153 312.466 39.6341 313.239 40.9726Z" fill="#DAD7E5"/>
<path fill-rule="evenodd" clip-rule="evenodd" d="M313.807 43.2164C312.857 44.9426 310.85 45.7988 308.945 45.2874C307.04 44.7778 305.73 43.0329 305.77 41.0631C306.721 39.3369 308.727 38.4807 310.632 38.9925C312.538 39.5016 313.847 41.2465 313.807 43.2164Z" fill="#EDEBF2"/>
<path fill-rule="evenodd" clip-rule="evenodd" d="M216 79.8227C216 79.5329 216.232 79.2977 216.517 79.2977H228.939L223.629 73.8944C223.426 73.6893 223.426 73.3589 223.629 73.1538C223.832 72.9487 224.156 72.9487 224.359 73.1538L230.547 79.4538C230.694 79.6043 230.738 79.8283 230.659 80.025C230.582 80.2189 230.393 80.3477 230.183 80.3477H216.517C216.23 80.3477 216 80.1125 216 79.8227ZM223.993 87.6477C223.856 87.6477 223.724 87.5931 223.629 87.4944C223.426 87.2893 223.426 86.9589 223.629 86.7538L227.755 82.5538C227.957 82.3487 228.283 82.3487 228.485 82.5538C228.688 82.7589 228.688 83.0893 228.485 83.2944L224.359 87.4944C224.264 87.5931 224.132 87.6477 223.995 87.6477H223.993Z" fill="#45BC1B"/>
<path d="M228.939 79.2977V79.5977C229.06 79.5977 229.169 79.5252 229.215 79.4137C229.262 79.3023 229.237 79.1736 229.153 79.0874L228.939 79.2977ZM223.629 73.8944L223.843 73.6841L223.842 73.6838L223.629 73.8944ZM223.629 73.1538L223.415 72.9428L223.415 72.9432L223.629 73.1538ZM224.359 73.1538L224.573 72.9436L224.572 72.9432L224.359 73.1538ZM230.547 79.4538L230.761 79.2437L230.761 79.2436L230.547 79.4538ZM230.659 80.025L230.381 79.9122L230.38 79.9152L230.659 80.025ZM223.629 87.4944L223.844 87.2854L223.842 87.2838L223.629 87.4944ZM223.629 86.7538L223.842 86.9645L223.843 86.9641L223.629 86.7538ZM227.755 82.5538L227.542 82.3432L227.541 82.3436L227.755 82.5538ZM228.485 83.2944L228.272 83.0838L228.271 83.0842L228.485 83.2944ZM224.359 87.4944L224.145 87.2842L224.143 87.2862L224.359 87.4944ZM216.3 79.8227C216.3 79.6944 216.402 79.5977 216.517 79.5977V78.9977C216.063 78.9977 215.7 79.3715 215.7 79.8227H216.3ZM216.517 79.5977H228.939V78.9977H216.517V79.5977ZM229.153 79.0874L223.843 73.6841L223.415 74.1047L228.725 79.508L229.153 79.0874ZM223.842 73.6838C223.755 73.5955 223.755 73.4528 223.842 73.3645L223.415 72.9432C223.097 73.2651 223.097 73.7832 223.415 74.1051L223.842 73.6838ZM223.842 73.3649C223.928 73.2782 224.06 73.2787 224.145 73.3645L224.572 72.9432C224.252 72.6187 223.736 72.6193 223.415 72.9428L223.842 73.3649ZM224.145 73.364L230.333 79.664L230.761 79.2436L224.573 72.9436L224.145 73.364ZM230.333 79.664C230.396 79.7287 230.416 79.8256 230.381 79.9122L230.937 80.1378C231.061 79.831 230.993 79.48 230.761 79.2437L230.333 79.664ZM230.38 79.9152C230.349 79.9939 230.271 80.0477 230.183 80.0477V80.6477C230.516 80.6477 230.816 80.444 230.938 80.1349L230.38 79.9152ZM230.183 80.0477H216.517V80.6477H230.183V80.0477ZM216.517 80.0477C216.401 80.0477 216.3 79.9521 216.3 79.8227H215.7C215.7 80.2729 216.059 80.6477 216.517 80.6477V80.0477ZM223.993 87.3477C223.936 87.3477 223.882 87.3251 223.844 87.2854L223.413 87.7035C223.567 87.8612 223.776 87.9477 223.993 87.9477V87.3477ZM223.842 87.2838C223.755 87.1955 223.755 87.0528 223.842 86.9645L223.415 86.5432C223.097 86.8651 223.097 87.3832 223.415 87.7051L223.842 87.2838ZM223.843 86.9641L227.969 82.7641L227.541 82.3436L223.415 86.5436L223.843 86.9641ZM227.969 82.7645C228.054 82.6785 228.187 82.6785 228.272 82.7645L228.699 82.3432C228.379 82.0189 227.861 82.0189 227.542 82.3432L227.969 82.7645ZM228.272 82.7645C228.359 82.8528 228.359 82.9955 228.272 83.0838L228.699 83.5051C229.016 83.1832 229.016 82.6651 228.699 82.3432L228.272 82.7645ZM228.271 83.0842L224.145 87.2842L224.573 87.7047L228.699 83.5047L228.271 83.0842ZM224.143 87.2862C224.105 87.325 224.052 87.3477 223.995 87.3477V87.9477C224.212 87.9477 224.422 87.8613 224.575 87.7027L224.143 87.2862ZM223.995 87.3477H223.993V87.9477H223.995V87.3477Z" fill="#45BC1B"/>
<g clip-path="url(#clip1_0_2953)">
<circle cx="338" cy="27" r="12" fill="#2B0752"/>
<path d="M336.802 22.8182L338.304 25.6786L339.843 22.8182H342.171L339.801 26.9091L342.235 31H339.918L338.304 28.1715L336.717 31H334.373L336.802 26.9091L334.458 22.8182H336.802Z" fill="white"/>
</g>
</g>
<defs>
<clipPath id="clip0_0_2953">
<rect width="366" height="100" fill="white"/>
</clipPath>
<clipPath id="clip1_0_2953">
<rect width="24" height="24" fill="white" transform="translate(326 15)"/>
</clipPath>
</defs>
</svg>
