<svg width="396" height="87" viewBox="0 0 396 87" fill="none" xmlns="http://www.w3.org/2000/svg">
<g filter="url(#filter0_i_44_707)">
<path fill-rule="evenodd" clip-rule="evenodd" d="M15.2714 26.049C10.9446 16.4672 17.2397 3 27.7532 3H368C378.55 3 384.845 16.5769 380.526 26.2028C377.899 32.059 376 38.5295 376 45C376 51.4705 377.899 57.941 380.526 63.7972C384.845 73.4231 378.55 87 368 87H28.7726C18.1099 87 11.7412 73.0198 15.9621 63.228C18.3333 57.7275 20 51.6776 20 45.5385C20 38.8188 18.0032 32.0986 15.2714 26.049Z" fill="#F7FAFF"/>
</g>
<path d="M27.7532 4H368C372.799 4 376.716 7.08402 378.949 11.4472C381.184 15.8161 381.631 21.2971 379.614 25.7934C376.952 31.7267 375 38.341 375 45C375 51.659 376.952 58.2733 379.614 64.2066C381.631 68.7029 381.184 74.1839 378.949 78.5528C376.716 82.916 372.799 86 368 86H28.7726C23.9266 86 19.9601 82.826 17.6775 78.333C15.3929 73.8359 14.9054 68.2055 16.8804 63.6239C19.2867 58.0419 21 51.8543 21 45.5385C21 38.6284 18.949 31.7634 16.1828 25.6375C14.1628 21.1642 14.6075 15.7234 16.8365 11.3886C19.0625 7.05972 22.9695 4 27.7532 4Z" stroke="#E8F1FF" stroke-width="2"/>
<path fill-rule="evenodd" clip-rule="evenodd" d="M65.1748 50.4298C63.0248 55.6198 57.9648 58.9998 52.3548 58.9998C44.6948 58.9908 38.4848 52.7808 38.4748 45.1198C38.4748 39.5098 41.8548 34.4508 47.0448 32.3098C52.2348 30.1598 58.1948 31.3398 62.1638 35.3098C66.1348 39.2808 67.3238 45.2498 65.1748 50.4298M69.7038 45.1198C69.7648 44.3498 69.9138 43.5998 70.1748 42.8798C70.5448 41.6698 70.9248 40.4198 70.5338 39.2098C70.1238 37.9398 69.0548 37.1398 68.0248 36.3598C67.4138 35.9508 66.8638 35.4698 66.3948 34.8998C66.0048 34.2698 65.7038 33.5898 65.5048 32.8798C65.0848 31.6798 64.6538 30.4298 63.5948 29.6498C62.5338 28.8798 61.2348 28.8598 59.9538 28.8398C59.2038 28.8598 58.4538 28.7808 57.7248 28.5998C57.0648 28.3298 56.4348 27.9698 55.8738 27.5198C54.8548 26.8098 53.7038 25.9998 52.3548 25.9998C51.0048 25.9998 49.8548 26.8098 48.8348 27.5198C48.2748 27.9598 47.6538 28.3198 46.9848 28.5998C46.2548 28.7808 45.5048 28.8598 44.7548 28.8398C43.4848 28.8598 42.1648 28.8898 41.1138 29.6498C40.0648 30.4098 39.6248 31.6798 39.2048 32.8898C39.0048 33.5998 38.6948 34.2808 38.3048 34.9098C37.8348 35.4698 37.2848 35.9598 36.6748 36.3698C35.6448 37.1498 34.5738 37.9508 34.1748 39.2198C33.7848 40.4198 34.1538 41.6798 34.5248 42.8898C34.7848 43.6098 34.9348 44.3598 34.9848 45.1198C34.9348 45.8898 34.7848 46.6398 34.5148 47.3598C34.1538 48.5698 33.7748 49.8298 34.1648 51.0398C34.5848 52.2998 35.6348 53.0998 36.6648 53.8798C37.2748 54.2898 37.8238 54.7808 38.2948 55.3398C38.6848 55.9698 38.9848 56.6508 39.1948 57.3608C39.6138 58.5798 40.0448 59.8298 41.1048 60.5998C42.1048 61.3298 43.3448 61.3798 44.5738 61.4098H44.5848C44.6848 61.4008 45.0948 61.3608 45.6748 61.4198C45.8848 61.4408 46.1138 61.4698 46.3548 61.5198C46.5148 61.5498 46.6748 61.5998 46.8448 61.6508C46.9348 61.6698 47.0348 61.7008 47.1248 61.7408C47.3948 61.8298 47.6748 61.9598 47.9448 62.1108C48.0248 62.1598 48.0948 62.2008 48.1648 62.2308H48.1448C48.1748 62.2408 48.2048 62.2598 48.2248 62.2808L48.2748 62.3098C48.4748 62.4408 48.6538 62.5798 48.8348 62.7308C49.8548 63.4408 51.0048 64.2498 52.3548 64.2498C53.7038 64.2498 54.8548 63.4408 55.8738 62.7308C55.9538 62.6598 56.0448 62.5898 56.1348 62.5198C56.1538 62.4998 56.1848 62.4808 56.2148 62.4598C56.3148 62.3798 56.4248 62.2998 56.5548 62.2308H56.5648C56.7548 62.1108 56.9648 62.0098 57.1448 61.9198C57.2038 61.8898 57.2648 61.8608 57.3238 61.8398C57.5548 61.7408 57.7148 61.6698 57.7148 61.6698C57.8638 61.6198 58.0248 61.5898 58.1848 61.5598C58.2038 61.5498 58.2248 61.5498 58.2438 61.5498C58.9448 61.4298 59.6948 61.4198 59.8238 61.4198H59.8448C61.1538 61.3898 62.5148 61.3798 63.5848 60.5998C64.6448 59.8298 65.0848 58.5708 65.5048 57.3608C65.7038 56.6508 66.0048 55.9698 66.3948 55.3398C66.8738 54.7808 67.4138 54.2898 68.0248 53.8798C69.0548 53.0998 70.1238 52.2998 70.5338 51.0308C70.9248 49.8298 70.5448 48.5698 70.1748 47.3598C69.9248 46.6398 69.7648 45.8898 69.7038 45.1198" fill="#45BC1B"/>
<path fill-rule="evenodd" clip-rule="evenodd" d="M48.9145 42.0601C47.9745 43.0001 46.3545 42.3401 46.3545 41.0001C46.3545 40.1701 47.0245 39.5001 47.8545 39.5001C49.1945 39.5001 49.8545 41.1201 48.9145 42.0601M49.9745 38.8801C48.0845 36.9901 44.8545 38.3301 44.8545 41.0001C44.8545 42.6601 46.1945 44.0001 47.8545 44.0001C50.5245 44.0001 51.8645 40.7701 49.9745 38.8801M56.8545 51.5001C55.5145 51.5001 54.8545 49.8801 55.7945 48.9401C56.7345 48.0001 58.3545 48.6601 58.3545 50.0001C58.3545 50.8301 57.6845 51.5001 56.8545 51.5001M56.8545 47.0001C54.1845 47.0001 52.8445 50.2301 54.7345 52.1201C56.6235 54.0101 59.8545 52.6701 59.8545 50.0001C59.8545 48.3401 58.5145 47.0001 56.8545 47.0001M57.3735 41.5301L48.4445 50.5901C47.6545 51.3801 46.4745 50.2001 47.2645 49.4101L56.3245 40.4701C56.6145 40.1501 57.1045 40.1501 57.4145 40.4401C57.7045 40.7501 57.6945 41.2501 57.3735 41.5301M58.4445 39.4101C57.5545 38.5601 56.1645 38.5601 55.2645 39.4101L46.2045 48.3501C45.7645 48.7801 45.5145 49.3801 45.5145 50.0001C45.5145 52.0901 48.0345 53.1201 49.5045 51.6501L58.4445 42.5901C59.3145 41.7101 59.3145 40.2901 58.4445 39.4101" fill="#45BC1B"/>
<path d="M81.0458 35V21.1818H90.4783V23.8942H84.3857V26.728H89.8778V29.4471H84.3857V35H81.0458ZM93.1601 35V21.1818H96.4999V32.2876H102.248V35H93.1601ZM108.152 35H104.562L109.225 21.1818H113.671L118.333 35H114.744L111.499 24.6634H111.391L108.152 35ZM107.673 29.5618H115.176V32.0987H107.673V29.5618ZM118.644 23.8942V21.1818H130.323V23.8942H126.133V35H122.84V23.8942H118.644ZM142.84 36.7273V19.4545H143.947V36.7273H142.84ZM145.505 25.3246C145.46 24.8298 145.26 24.4452 144.905 24.1708C144.554 23.8919 144.052 23.7525 143.4 23.7525C142.968 23.7525 142.608 23.8087 142.32 23.9212C142.033 24.0336 141.817 24.1888 141.673 24.3867C141.529 24.5801 141.455 24.8028 141.45 25.0547C141.441 25.2616 141.482 25.4438 141.572 25.6012C141.666 25.7586 141.801 25.8981 141.976 26.0195C142.156 26.1365 142.372 26.2399 142.624 26.3299C142.876 26.4199 143.159 26.4986 143.474 26.5661L144.662 26.8359C145.345 26.9844 145.948 27.1823 146.47 27.4297C146.996 27.6771 147.437 27.9717 147.792 28.3136C148.152 28.6554 148.424 29.049 148.609 29.4943C148.793 29.9396 148.888 30.4389 148.892 30.9922C148.888 31.8648 148.667 32.6138 148.231 33.239C147.795 33.8642 147.167 34.3433 146.349 34.6761C145.534 35.009 144.552 35.1754 143.4 35.1754C142.244 35.1754 141.236 35.0022 140.377 34.6559C139.518 34.3095 138.85 33.7833 138.373 33.0771C137.897 32.3709 137.651 31.478 137.638 30.3984H140.836C140.863 30.8438 140.982 31.2148 141.194 31.5117C141.405 31.8086 141.695 32.0335 142.064 32.1864C142.437 32.3394 142.869 32.4158 143.36 32.4158C143.809 32.4158 144.192 32.3551 144.507 32.2337C144.826 32.1122 145.071 31.9435 145.242 31.7276C145.413 31.5117 145.501 31.2643 145.505 30.9854C145.501 30.7245 145.42 30.5019 145.262 30.3175C145.105 30.1286 144.862 29.9666 144.534 29.8317C144.21 29.6922 143.796 29.564 143.292 29.4471L141.848 29.1097C140.652 28.8353 139.709 28.3923 139.021 27.7805C138.333 27.1643 137.991 26.3321 137.996 25.2841C137.991 24.4295 138.22 23.6805 138.684 23.0373C139.147 22.3941 139.788 21.8925 140.607 21.5327C141.425 21.1728 142.359 20.9929 143.407 20.9929C144.477 20.9929 145.406 21.1751 146.193 21.5394C146.985 21.8993 147.599 22.4053 148.035 23.0575C148.472 23.7098 148.694 24.4654 148.703 25.3246H145.505ZM157.942 21.1818V35H154.608V24.299H154.528L151.437 26.1882V23.3004L154.845 21.1818H157.942ZM161.996 35V32.598L167.036 28.1854C167.414 27.8435 167.736 27.5309 168.001 27.2475C168.267 26.9596 168.469 26.6718 168.609 26.3839C168.748 26.0915 168.818 25.7744 168.818 25.4325C168.818 25.0502 168.735 24.7241 168.568 24.4542C168.402 24.1798 168.172 23.9684 167.88 23.82C167.588 23.6715 167.252 23.5973 166.875 23.5973C166.492 23.5973 166.157 23.676 165.869 23.8335C165.581 23.9864 165.356 24.209 165.195 24.5014C165.037 24.7938 164.958 25.1491 164.958 25.5675H161.794C161.794 24.6274 162.005 23.8155 162.428 23.1317C162.851 22.448 163.445 21.9218 164.209 21.5529C164.979 21.1796 165.871 20.9929 166.888 20.9929C167.936 20.9929 168.847 21.1683 169.621 21.5192C170.394 21.87 170.993 22.3603 171.415 22.9901C171.843 23.6153 172.056 24.3417 172.056 25.1694C172.056 25.6957 171.951 26.2174 171.739 26.7347C171.528 27.252 171.148 27.8233 170.599 28.4485C170.055 29.0737 169.281 29.8227 168.278 30.6953L166.625 32.2202V32.3079H172.225V35H161.996ZM193.264 28.0909C193.264 29.6113 192.971 30.9 192.387 31.957C191.802 33.0141 191.01 33.817 190.012 34.3658C189.018 34.9145 187.902 35.1889 186.665 35.1889C185.424 35.1889 184.306 34.9123 183.312 34.359C182.318 33.8058 181.528 33.0028 180.944 31.9503C180.363 30.8932 180.073 29.6068 180.073 28.0909C180.073 26.5705 180.363 25.2818 180.944 24.2248C181.528 23.1677 182.318 22.3648 183.312 21.8161C184.306 21.2673 185.424 20.9929 186.665 20.9929C187.902 20.9929 189.018 21.2673 190.012 21.8161C191.01 22.3648 191.802 23.1677 192.387 24.2248C192.971 25.2818 193.264 26.5705 193.264 28.0909ZM189.85 28.0909C189.85 27.1913 189.722 26.4311 189.465 25.8104C189.213 25.1896 188.849 24.7196 188.372 24.4002C187.9 24.0808 187.331 23.9212 186.665 23.9212C186.004 23.9212 185.435 24.0808 184.958 24.4002C184.481 24.7196 184.115 25.1896 183.858 25.8104C183.606 26.4311 183.48 27.1913 183.48 28.0909C183.48 28.9905 183.606 29.7507 183.858 30.3714C184.115 30.9922 184.481 31.4622 184.958 31.7816C185.435 32.101 186.004 32.2607 186.665 32.2607C187.331 32.2607 187.9 32.101 188.372 31.7816C188.849 31.4622 189.213 30.9922 189.465 30.3714C189.722 29.7507 189.85 28.9905 189.85 28.0909ZM196.214 35V21.1818H205.646V23.8942H199.554V26.728H205.046V29.4471H199.554V35H196.214ZM208.328 35V21.1818H217.761V23.8942H211.668V26.728H217.16V29.4471H211.668V35H208.328ZM223.971 28.9545L224.167 26.4581L222.089 27.8817L221.097 26.141L223.35 25.0682L221.097 23.9954L222.089 22.2546L224.167 23.6783L223.971 21.1818H225.961L225.766 23.6783L227.844 22.2546L228.836 23.9954L226.582 25.0682L228.836 26.141L227.844 27.8817L225.766 26.4581L225.961 28.9545H223.971Z" fill="#472D2D"/>
<path d="M88.7784 45.6364C88.7784 46.5881 88.598 47.3977 88.2372 48.0653C87.8793 48.733 87.3906 49.2429 86.7713 49.5952C86.1548 49.9446 85.4616 50.1193 84.6918 50.1193C83.9162 50.1193 83.2202 49.9432 82.6037 49.5909C81.9872 49.2386 81.5 48.7287 81.142 48.0611C80.7841 47.3935 80.6051 46.5852 80.6051 45.6364C80.6051 44.6847 80.7841 43.875 81.142 43.2074C81.5 42.5398 81.9872 42.0312 82.6037 41.6818C83.2202 41.3295 83.9162 41.1534 84.6918 41.1534C85.4616 41.1534 86.1548 41.3295 86.7713 41.6818C87.3906 42.0312 87.8793 42.5398 88.2372 43.2074C88.598 43.875 88.7784 44.6847 88.7784 45.6364ZM86.9077 45.6364C86.9077 45.0199 86.8153 44.5 86.6307 44.0767C86.4489 43.6534 86.1918 43.3324 85.8594 43.1136C85.527 42.8949 85.1378 42.7855 84.6918 42.7855C84.2457 42.7855 83.8565 42.8949 83.5241 43.1136C83.1918 43.3324 82.9332 43.6534 82.7486 44.0767C82.5668 44.5 82.4759 45.0199 82.4759 45.6364C82.4759 46.2528 82.5668 46.7727 82.7486 47.196C82.9332 47.6193 83.1918 47.9403 83.5241 48.1591C83.8565 48.3778 84.2457 48.4872 84.6918 48.4872C85.1378 48.4872 85.527 48.3778 85.8594 48.1591C86.1918 47.9403 86.4489 47.6193 86.6307 47.196C86.8153 46.7727 86.9077 46.2528 86.9077 45.6364ZM97.445 41.2727V50H95.8512L92.0543 44.5071H91.9904V50H90.1452V41.2727H91.7646L95.5316 46.7614H95.6083V41.2727H97.445ZM101.747 41.2727H104.022L106.426 47.1364H106.528L108.931 41.2727H111.207V50H109.417V44.3196H109.345L107.086 49.9574H105.868L103.609 44.2983H103.537V50H101.747V41.2727ZM114.572 41.2727V50H112.727V41.2727H114.572ZM123.39 41.2727V50H121.797L118 44.5071H117.936V50H116.091V41.2727H117.71L121.477 46.7614H121.554V41.2727H123.39ZM126.76 41.2727V50H124.915V41.2727H126.76ZM128.278 41.2727H130.554L132.957 47.1364H133.059L135.463 41.2727H137.738V50H135.949V44.3196H135.876L133.618 49.9574H132.399L130.14 44.2983H130.068V50H128.278V41.2727ZM144.649 41.2727H146.494V46.9403C146.494 47.5767 146.342 48.1335 146.038 48.6108C145.737 49.0881 145.315 49.4602 144.773 49.7273C144.23 49.9915 143.598 50.1236 142.876 50.1236C142.152 50.1236 141.518 49.9915 140.976 49.7273C140.433 49.4602 140.011 49.0881 139.71 48.6108C139.409 48.1335 139.259 47.5767 139.259 46.9403V41.2727H141.104V46.7827C141.104 47.1151 141.176 47.4105 141.321 47.669C141.469 47.9276 141.676 48.1307 141.943 48.2784C142.21 48.4261 142.521 48.5 142.876 48.5C143.234 48.5 143.545 48.4261 143.81 48.2784C144.077 48.1307 144.283 47.9276 144.428 47.669C144.575 47.4105 144.649 47.1151 144.649 46.7827V41.2727ZM148.012 41.2727H150.288L152.691 47.1364H152.794L155.197 41.2727H157.473V50H155.683V44.3196H155.61L153.352 49.9574H152.133L149.875 44.2983H149.802V50H148.012V41.2727ZM169.79 45.6364C169.79 46.5881 169.61 47.3977 169.249 48.0653C168.891 48.733 168.402 49.2429 167.783 49.5952C167.167 49.9446 166.473 50.1193 165.703 50.1193C164.928 50.1193 164.232 49.9432 163.615 49.5909C162.999 49.2386 162.512 48.7287 162.154 48.0611C161.796 47.3935 161.617 46.5852 161.617 45.6364C161.617 44.6847 161.796 43.875 162.154 43.2074C162.512 42.5398 162.999 42.0312 163.615 41.6818C164.232 41.3295 164.928 41.1534 165.703 41.1534C166.473 41.1534 167.167 41.3295 167.783 41.6818C168.402 42.0312 168.891 42.5398 169.249 43.2074C169.61 43.875 169.79 44.6847 169.79 45.6364ZM167.919 45.6364C167.919 45.0199 167.827 44.5 167.642 44.0767C167.461 43.6534 167.203 43.3324 166.871 43.1136C166.539 42.8949 166.15 42.7855 165.703 42.7855C165.257 42.7855 164.868 42.8949 164.536 43.1136C164.203 43.3324 163.945 43.6534 163.76 44.0767C163.578 44.5 163.488 45.0199 163.488 45.6364C163.488 46.2528 163.578 46.7727 163.76 47.196C163.945 47.6193 164.203 47.9403 164.536 48.1591C164.868 48.3778 165.257 48.4872 165.703 48.4872C166.15 48.4872 166.539 48.3778 166.871 48.1591C167.203 47.9403 167.461 47.6193 167.642 47.196C167.827 46.7727 167.919 46.2528 167.919 45.6364ZM171.157 50V41.2727H174.6C175.259 41.2727 175.822 41.3906 176.288 41.6264C176.756 41.8594 177.113 42.1903 177.357 42.6193C177.604 43.0455 177.728 43.5469 177.728 44.1236C177.728 44.7031 177.603 45.2017 177.353 45.6193C177.103 46.0341 176.741 46.3523 176.266 46.5739C175.795 46.7955 175.224 46.9062 174.553 46.9062H172.248V45.4233H174.255C174.607 45.4233 174.9 45.375 175.133 45.2784C175.366 45.1818 175.539 45.0369 175.653 44.8438C175.769 44.6506 175.827 44.4105 175.827 44.1236C175.827 43.8338 175.769 43.5895 175.653 43.3906C175.539 43.1918 175.364 43.0412 175.129 42.9389C174.896 42.8338 174.602 42.7812 174.246 42.7812H173.002V50H171.157ZM175.87 46.0284L178.039 50H176.002L173.88 46.0284H175.87ZM182.126 50H179.032V41.2727H182.151C183.029 41.2727 183.785 41.4474 184.418 41.7969C185.052 42.1435 185.539 42.642 185.88 43.2926C186.224 43.9432 186.396 44.7216 186.396 45.6278C186.396 46.5369 186.224 47.3182 185.88 47.9716C185.539 48.625 185.049 49.1264 184.41 49.4759C183.773 49.8253 183.012 50 182.126 50ZM180.877 48.419H182.049C182.594 48.419 183.053 48.3224 183.425 48.1293C183.8 47.9332 184.082 47.6307 184.269 47.2216C184.46 46.8097 184.555 46.2784 184.555 45.6278C184.555 44.983 184.46 44.456 184.269 44.0469C184.082 43.6378 183.802 43.3366 183.43 43.1435C183.058 42.9503 182.599 42.8537 182.053 42.8537H180.877V48.419ZM187.762 50V41.2727H193.643V42.794H189.608V44.8736H193.341V46.3949H189.608V48.4787H193.66V50H187.762ZM195.11 50V41.2727H198.553C199.212 41.2727 199.775 41.3906 200.241 41.6264C200.71 41.8594 201.066 42.1903 201.31 42.6193C201.558 43.0455 201.681 43.5469 201.681 44.1236C201.681 44.7031 201.556 45.2017 201.306 45.6193C201.056 46.0341 200.694 46.3523 200.219 46.5739C199.748 46.7955 199.177 46.9062 198.506 46.9062H196.201V45.4233H198.208C198.56 45.4233 198.853 45.375 199.086 45.2784C199.319 45.1818 199.492 45.0369 199.606 44.8438C199.722 44.6506 199.781 44.4105 199.781 44.1236C199.781 43.8338 199.722 43.5895 199.606 43.3906C199.492 43.1918 199.317 43.0412 199.082 42.9389C198.849 42.8338 198.555 42.7812 198.2 42.7812H196.955V50H195.11ZM199.823 46.0284L201.992 50H199.955L197.833 46.0284H199.823ZM213.782 45.6364C213.782 46.5881 213.602 47.3977 213.241 48.0653C212.883 48.733 212.395 49.2429 211.775 49.5952C211.159 49.9446 210.466 50.1193 209.696 50.1193C208.92 50.1193 208.224 49.9432 207.608 49.5909C206.991 49.2386 206.504 48.7287 206.146 48.0611C205.788 47.3935 205.609 46.5852 205.609 45.6364C205.609 44.6847 205.788 43.875 206.146 43.2074C206.504 42.5398 206.991 42.0312 207.608 41.6818C208.224 41.3295 208.92 41.1534 209.696 41.1534C210.466 41.1534 211.159 41.3295 211.775 41.6818C212.395 42.0312 212.883 42.5398 213.241 43.2074C213.602 43.875 213.782 44.6847 213.782 45.6364ZM211.912 45.6364C211.912 45.0199 211.819 44.5 211.635 44.0767C211.453 43.6534 211.196 43.3324 210.863 43.1136C210.531 42.8949 210.142 42.7855 209.696 42.7855C209.25 42.7855 208.86 42.8949 208.528 43.1136C208.196 43.3324 207.937 43.6534 207.752 44.0767C207.571 44.5 207.48 45.0199 207.48 45.6364C207.48 46.2528 207.571 46.7727 207.752 47.196C207.937 47.6193 208.196 47.9403 208.528 48.1591C208.86 48.3778 209.25 48.4872 209.696 48.4872C210.142 48.4872 210.531 48.3778 210.863 48.1591C211.196 47.9403 211.453 47.6193 211.635 47.196C211.819 46.7727 211.912 46.2528 211.912 45.6364ZM215.149 50V41.2727H220.928V42.794H216.994V44.8736H220.544V46.3949H216.994V50H215.149ZM227.827 51.0909V40.1818H228.526V51.0909H227.827ZM229.68 43.7827C229.646 43.4389 229.5 43.1719 229.241 42.9815C228.983 42.7912 228.632 42.696 228.189 42.696C227.888 42.696 227.634 42.7386 227.426 42.8239C227.219 42.9062 227.06 43.0213 226.949 43.169C226.841 43.3168 226.787 43.4844 226.787 43.6719C226.781 43.8281 226.814 43.9645 226.885 44.081C226.959 44.1974 227.06 44.2983 227.188 44.3835C227.315 44.4659 227.463 44.5384 227.631 44.6009C227.798 44.6605 227.977 44.7116 228.168 44.7543L228.952 44.9418C229.332 45.027 229.682 45.1406 230 45.2827C230.318 45.4247 230.594 45.5994 230.827 45.8068C231.06 46.0142 231.24 46.2585 231.368 46.5398C231.499 46.821 231.565 47.1435 231.568 47.5071C231.565 48.0412 231.429 48.5043 231.159 48.8963C230.892 49.2855 230.506 49.5881 230 49.804C229.497 50.017 228.891 50.1236 228.18 50.1236C227.476 50.1236 226.862 50.0156 226.339 49.7997C225.82 49.5838 225.413 49.2642 225.121 48.8409C224.831 48.4148 224.679 47.8878 224.665 47.2599H226.45C226.47 47.5526 226.554 47.7969 226.702 47.9929C226.852 48.1861 227.053 48.3324 227.303 48.4318C227.555 48.5284 227.841 48.5767 228.159 48.5767C228.472 48.5767 228.743 48.5312 228.973 48.4403C229.206 48.3494 229.386 48.223 229.514 48.0611C229.642 47.8991 229.706 47.7131 229.706 47.5028C229.706 47.3068 229.648 47.142 229.531 47.0085C229.418 46.875 229.25 46.7614 229.028 46.6676C228.81 46.5739 228.541 46.4886 228.223 46.4119L227.273 46.1733C226.537 45.9943 225.956 45.7145 225.53 45.3338C225.104 44.9531 224.892 44.4403 224.895 43.7955C224.892 43.267 225.033 42.8054 225.317 42.4105C225.604 42.0156 225.997 41.7074 226.497 41.4858C226.997 41.2642 227.565 41.1534 228.202 41.1534C228.849 41.1534 229.415 41.2642 229.898 41.4858C230.384 41.7074 230.761 42.0156 231.031 42.4105C231.301 42.8054 231.44 43.2628 231.449 43.7827H229.68ZM236.555 41.2727V50H234.71V43.0241H234.659L232.66 44.277V42.6406L234.821 41.2727H236.555ZM241.817 50.1193C241.214 50.1193 240.678 50.0085 240.206 49.7869C239.737 49.5653 239.365 49.2599 239.089 48.8707C238.814 48.4815 238.67 48.0355 238.659 47.5327H240.449C240.469 47.8707 240.611 48.1449 240.875 48.3551C241.139 48.5653 241.453 48.6705 241.817 48.6705C242.107 48.6705 242.362 48.6065 242.584 48.4787C242.808 48.348 242.983 48.1676 243.108 47.9375C243.236 47.7045 243.3 47.4375 243.3 47.1364C243.3 46.8295 243.234 46.5597 243.104 46.3267C242.976 46.0937 242.798 45.9119 242.571 45.7812C242.344 45.6506 242.084 45.5838 241.791 45.581C241.536 45.581 241.287 45.6335 241.045 45.7386C240.807 45.8437 240.621 45.9872 240.487 46.169L238.847 45.875L239.26 41.2727H244.595V42.7812H240.781L240.555 44.9673H240.607C240.76 44.7514 240.991 44.5724 241.301 44.4304C241.611 44.2884 241.957 44.2173 242.341 44.2173C242.866 44.2173 243.335 44.3409 243.747 44.5881C244.159 44.8352 244.484 45.1747 244.723 45.6065C244.962 46.0355 245.08 46.5298 245.077 47.0895C245.08 47.6776 244.943 48.2003 244.668 48.6577C244.395 49.1122 244.013 49.4702 243.521 49.7315C243.033 49.9901 242.464 50.1193 241.817 50.1193ZM249.786 50.1918C249.053 50.1889 248.422 50.0085 247.893 49.6506C247.368 49.2926 246.963 48.7741 246.679 48.0952C246.398 47.4162 246.259 46.5994 246.261 45.6449C246.261 44.6932 246.402 43.8821 246.683 43.2116C246.967 42.5412 247.372 42.0312 247.898 41.6818C248.426 41.3295 249.055 41.1534 249.786 41.1534C250.516 41.1534 251.143 41.3295 251.669 41.6818C252.197 42.0341 252.604 42.5455 252.888 43.2159C253.172 43.8835 253.313 44.6932 253.31 45.6449C253.31 46.6023 253.168 47.4205 252.884 48.0994C252.602 48.7784 252.199 49.2969 251.673 49.6548C251.148 50.0128 250.518 50.1918 249.786 50.1918ZM249.786 48.6619C250.286 48.6619 250.685 48.4105 250.983 47.9077C251.281 47.4048 251.429 46.6506 251.426 45.6449C251.426 44.983 251.358 44.4318 251.222 43.9915C251.088 43.5511 250.898 43.2202 250.651 42.9986C250.406 42.777 250.118 42.6662 249.786 42.6662C249.288 42.6662 248.891 42.9148 248.592 43.4119C248.294 43.9091 248.143 44.6534 248.141 45.6449C248.141 46.3153 248.207 46.875 248.341 47.3239C248.477 47.7699 248.669 48.1051 248.916 48.3295C249.163 48.5511 249.453 48.6619 249.786 48.6619Z" fill="black"/>
<path d="M85.6367 62H87.3281V67.1953C87.3281 67.7786 87.1888 68.2891 86.9102 68.7266C86.6341 69.1641 86.2474 69.5052 85.75 69.75C85.2526 69.9922 84.6732 70.1133 84.0117 70.1133C83.3477 70.1133 82.7669 69.9922 82.2695 69.75C81.7721 69.5052 81.3854 69.1641 81.1094 68.7266C80.8333 68.2891 80.6953 67.7786 80.6953 67.1953V62H82.3867V67.0508C82.3867 67.3555 82.4531 67.6263 82.5859 67.8633C82.7214 68.1003 82.9115 68.2865 83.1562 68.4219C83.401 68.5573 83.6862 68.625 84.0117 68.625C84.3398 68.625 84.625 68.5573 84.8672 68.4219C85.112 68.2865 85.3008 68.1003 85.4336 67.8633C85.569 67.6263 85.6367 67.3555 85.6367 67.0508V62ZM93.0596 64.3008C93.0283 63.9857 92.8942 63.7409 92.6572 63.5664C92.4202 63.3919 92.0986 63.3047 91.6924 63.3047C91.4163 63.3047 91.1833 63.3437 90.9932 63.4219C90.8031 63.4974 90.6572 63.6029 90.5557 63.7383C90.4567 63.8737 90.4072 64.0273 90.4072 64.1992C90.402 64.3424 90.432 64.4674 90.4971 64.5742C90.5648 64.681 90.6572 64.7734 90.7744 64.8516C90.8916 64.9271 91.027 64.9935 91.1807 65.0508C91.3343 65.1055 91.4984 65.1523 91.6729 65.1914L92.3916 65.3633C92.7406 65.4414 93.0609 65.5456 93.3525 65.6758C93.6442 65.806 93.8968 65.9661 94.1104 66.1562C94.3239 66.3464 94.4893 66.5703 94.6064 66.8281C94.7262 67.0859 94.7874 67.3815 94.79 67.7148C94.7874 68.2044 94.6624 68.6289 94.415 68.9883C94.1702 69.3451 93.8161 69.6224 93.3525 69.8203C92.8916 70.0156 92.3356 70.1133 91.6846 70.1133C91.0387 70.1133 90.4762 70.0143 89.9971 69.8164C89.5205 69.6185 89.1481 69.3255 88.8799 68.9375C88.6143 68.5469 88.4749 68.0638 88.4619 67.4883H90.0986C90.1169 67.7565 90.1937 67.9805 90.3291 68.1602C90.4671 68.3372 90.6507 68.4714 90.8799 68.5625C91.1117 68.651 91.3734 68.6953 91.665 68.6953C91.9515 68.6953 92.2002 68.6536 92.4111 68.5703C92.6247 68.487 92.79 68.3711 92.9072 68.2227C93.0244 68.0742 93.083 67.9036 93.083 67.7109C93.083 67.5312 93.0296 67.3802 92.9229 67.2578C92.8187 67.1354 92.665 67.0312 92.4619 66.9453C92.2614 66.8594 92.0153 66.7812 91.7236 66.7109L90.8525 66.4922C90.1781 66.3281 89.6455 66.0716 89.2549 65.7227C88.8643 65.3737 88.6702 64.9036 88.6729 64.3125C88.6702 63.8281 88.7992 63.4049 89.0596 63.043C89.3226 62.681 89.6833 62.3984 90.1416 62.1953C90.5999 61.9922 91.1208 61.8906 91.7041 61.8906C92.2979 61.8906 92.8161 61.9922 93.2588 62.1953C93.7041 62.3984 94.0505 62.681 94.2979 63.043C94.5452 63.4049 94.6729 63.8242 94.6807 64.3008H93.0596ZM95.9277 70V62H101.318V63.3945H97.6191V65.3008H101.041V66.6953H97.6191V68.6055H101.334V70H95.9277ZM112.268 64.8008H110.557C110.525 64.5794 110.462 64.3828 110.365 64.2109C110.269 64.0365 110.145 63.888 109.994 63.7656C109.843 63.6432 109.669 63.5495 109.471 63.4844C109.275 63.4193 109.063 63.3867 108.834 63.3867C108.42 63.3867 108.059 63.4896 107.752 63.6953C107.445 63.8984 107.206 64.1953 107.037 64.5859C106.868 64.974 106.783 65.4453 106.783 66C106.783 66.5703 106.868 67.0495 107.037 67.4375C107.209 67.8255 107.449 68.1185 107.756 68.3164C108.063 68.5143 108.419 68.6133 108.822 68.6133C109.049 68.6133 109.258 68.5833 109.451 68.5234C109.646 68.4635 109.82 68.3763 109.971 68.2617C110.122 68.1445 110.247 68.0026 110.346 67.8359C110.447 67.6693 110.518 67.4792 110.557 67.2656L112.268 67.2734C112.223 67.6406 112.113 67.9948 111.936 68.3359C111.761 68.6745 111.525 68.9779 111.229 69.2461C110.934 69.5117 110.583 69.7227 110.174 69.8789C109.768 70.0326 109.308 70.1094 108.795 70.1094C108.081 70.1094 107.443 69.9479 106.881 69.625C106.321 69.3021 105.878 68.8346 105.553 68.2227C105.23 67.6107 105.068 66.8698 105.068 66C105.068 65.1276 105.232 64.3854 105.561 63.7734C105.889 63.1615 106.334 62.6953 106.896 62.375C107.459 62.0521 108.092 61.8906 108.795 61.8906C109.258 61.8906 109.688 61.9557 110.084 62.0859C110.482 62.2161 110.835 62.4062 111.143 62.6562C111.45 62.9036 111.7 63.207 111.893 63.5664C112.088 63.9258 112.213 64.3372 112.268 64.8008ZM120.832 66C120.832 66.8724 120.667 67.6146 120.336 68.2266C120.008 68.8385 119.56 69.306 118.992 69.6289C118.427 69.9492 117.792 70.1094 117.086 70.1094C116.375 70.1094 115.737 69.9479 115.172 69.625C114.607 69.3021 114.16 68.8346 113.832 68.2227C113.504 67.6107 113.34 66.8698 113.34 66C113.34 65.1276 113.504 64.3854 113.832 63.7734C114.16 63.1615 114.607 62.6953 115.172 62.375C115.737 62.0521 116.375 61.8906 117.086 61.8906C117.792 61.8906 118.427 62.0521 118.992 62.375C119.56 62.6953 120.008 63.1615 120.336 63.7734C120.667 64.3854 120.832 65.1276 120.832 66ZM119.117 66C119.117 65.4349 119.033 64.9583 118.863 64.5703C118.697 64.1823 118.461 63.888 118.156 63.6875C117.852 63.487 117.495 63.3867 117.086 63.3867C116.677 63.3867 116.32 63.487 116.016 63.6875C115.711 63.888 115.474 64.1823 115.305 64.5703C115.138 64.9583 115.055 65.4349 115.055 66C115.055 66.5651 115.138 67.0417 115.305 67.4297C115.474 67.8177 115.711 68.112 116.016 68.3125C116.32 68.513 116.677 68.6133 117.086 68.6133C117.495 68.6133 117.852 68.513 118.156 68.3125C118.461 68.112 118.697 67.8177 118.863 67.4297C119.033 67.0417 119.117 66.5651 119.117 66ZM124.921 70H122.085V62H124.944C125.749 62 126.442 62.1602 127.022 62.4805C127.603 62.7982 128.05 63.2552 128.362 63.8516C128.677 64.4479 128.835 65.1615 128.835 65.9922C128.835 66.8255 128.677 67.5417 128.362 68.1406C128.05 68.7396 127.601 69.1992 127.015 69.5195C126.431 69.8398 125.733 70 124.921 70ZM123.776 68.5508H124.851C125.351 68.5508 125.771 68.4622 126.112 68.2852C126.456 68.1055 126.714 67.8281 126.886 67.4531C127.06 67.0755 127.147 66.5885 127.147 65.9922C127.147 65.401 127.06 64.918 126.886 64.543C126.714 64.168 126.457 63.8919 126.116 63.7148C125.775 63.5378 125.354 63.4492 124.854 63.4492H123.776V68.5508ZM130.088 70V62H135.479V63.3945H131.779V65.3008H135.201V66.6953H131.779V68.6055H135.494V70H130.088ZM137.765 69.0703C137.507 69.0703 137.285 68.9792 137.101 68.7969C136.918 68.6146 136.827 68.3932 136.827 68.1328C136.827 67.8776 136.918 67.6589 137.101 67.4766C137.285 67.2943 137.507 67.2031 137.765 67.2031C138.015 67.2031 138.233 67.2943 138.421 67.4766C138.608 67.6589 138.702 67.8776 138.702 68.1328C138.702 68.3047 138.658 68.4622 138.569 68.6055C138.483 68.7461 138.37 68.8594 138.229 68.9453C138.089 69.0286 137.934 69.0703 137.765 69.0703ZM137.765 65.1445C137.507 65.1445 137.285 65.0534 137.101 64.8711C136.918 64.6888 136.827 64.4674 136.827 64.207C136.827 63.9518 136.918 63.7344 137.101 63.5547C137.285 63.3724 137.507 63.2812 137.765 63.2812C138.015 63.2812 138.233 63.3724 138.421 63.5547C138.608 63.7344 138.702 63.9518 138.702 64.207C138.702 64.3815 138.658 64.5404 138.569 64.6836C138.483 64.8242 138.37 64.9362 138.229 65.0195C138.089 65.1029 137.934 65.1445 137.765 65.1445ZM142.646 70V62H145.802C146.409 62 146.925 62.1159 147.353 62.3477C147.78 62.5768 148.105 62.8958 148.329 63.3047C148.556 63.7109 148.669 64.1797 148.669 64.7109C148.669 65.2422 148.554 65.7109 148.325 66.1172C148.096 66.5234 147.764 66.8398 147.329 67.0664C146.897 67.293 146.373 67.4062 145.759 67.4062H143.747V66.0508H145.485C145.811 66.0508 146.079 65.9948 146.29 65.8828C146.504 65.7682 146.662 65.6107 146.767 65.4102C146.873 65.207 146.927 64.974 146.927 64.7109C146.927 64.4453 146.873 64.2135 146.767 64.0156C146.662 63.8151 146.504 63.6602 146.29 63.5508C146.076 63.4388 145.806 63.3828 145.478 63.3828H144.337V70H142.646ZM149.768 70V62H151.459V68.6055H154.889V70H149.768ZM160.95 62H162.642V67.1953C162.642 67.7786 162.502 68.2891 162.224 68.7266C161.948 69.1641 161.561 69.5052 161.063 69.75C160.566 69.9922 159.987 70.1133 159.325 70.1133C158.661 70.1133 158.08 69.9922 157.583 69.75C157.086 69.5052 156.699 69.1641 156.423 68.7266C156.147 68.2891 156.009 67.7786 156.009 67.1953V62H157.7V67.0508C157.7 67.3555 157.767 67.6263 157.899 67.8633C158.035 68.1003 158.225 68.2865 158.47 68.4219C158.715 68.5573 159 68.625 159.325 68.625C159.653 68.625 159.938 68.5573 160.181 68.4219C160.425 68.2865 160.614 68.1003 160.747 67.8633C160.882 67.6263 160.95 67.3555 160.95 67.0508V62ZM168.373 64.3008C168.342 63.9857 168.208 63.7409 167.971 63.5664C167.734 63.3919 167.412 63.3047 167.006 63.3047C166.73 63.3047 166.497 63.3437 166.307 63.4219C166.117 63.4974 165.971 63.6029 165.869 63.7383C165.77 63.8737 165.721 64.0273 165.721 64.1992C165.715 64.3424 165.745 64.4674 165.811 64.5742C165.878 64.681 165.971 64.7734 166.088 64.8516C166.205 64.9271 166.34 64.9935 166.494 65.0508C166.648 65.1055 166.812 65.1523 166.986 65.1914L167.705 65.3633C168.054 65.4414 168.374 65.5456 168.666 65.6758C168.958 65.806 169.21 65.9661 169.424 66.1562C169.637 66.3464 169.803 66.5703 169.92 66.8281C170.04 67.0859 170.101 67.3815 170.104 67.7148C170.101 68.2044 169.976 68.6289 169.729 68.9883C169.484 69.3451 169.13 69.6224 168.666 69.8203C168.205 70.0156 167.649 70.1133 166.998 70.1133C166.352 70.1133 165.79 70.0143 165.311 69.8164C164.834 69.6185 164.462 69.3255 164.193 68.9375C163.928 68.5469 163.788 68.0638 163.775 67.4883H165.412C165.43 67.7565 165.507 67.9805 165.643 68.1602C165.781 68.3372 165.964 68.4714 166.193 68.5625C166.425 68.651 166.687 68.6953 166.979 68.6953C167.265 68.6953 167.514 68.6536 167.725 68.5703C167.938 68.487 168.104 68.3711 168.221 68.2227C168.338 68.0742 168.396 67.9036 168.396 67.7109C168.396 67.5312 168.343 67.3802 168.236 67.2578C168.132 67.1354 167.979 67.0312 167.775 66.9453C167.575 66.8594 167.329 66.7812 167.037 66.7109L166.166 66.4922C165.492 66.3281 164.959 66.0716 164.568 65.7227C164.178 65.3737 163.984 64.9036 163.986 64.3125C163.984 63.8281 164.113 63.4049 164.373 63.043C164.636 62.681 164.997 62.3984 165.455 62.1953C165.913 61.9922 166.434 61.8906 167.018 61.8906C167.611 61.8906 168.13 61.9922 168.572 62.1953C169.018 62.3984 169.364 62.681 169.611 63.043C169.859 63.4049 169.986 63.8242 169.994 64.3008H168.373ZM178.3 64.8008H176.589C176.558 64.5794 176.494 64.3828 176.397 64.2109C176.301 64.0365 176.177 63.888 176.026 63.7656C175.875 63.6432 175.701 63.5495 175.503 63.4844C175.308 63.4193 175.095 63.3867 174.866 63.3867C174.452 63.3867 174.091 63.4896 173.784 63.6953C173.477 63.8984 173.239 64.1953 173.069 64.5859C172.9 64.974 172.815 65.4453 172.815 66C172.815 66.5703 172.9 67.0495 173.069 67.4375C173.241 67.8255 173.481 68.1185 173.788 68.3164C174.095 68.5143 174.451 68.6133 174.854 68.6133C175.081 68.6133 175.291 68.5833 175.483 68.5234C175.679 68.4635 175.852 68.3763 176.003 68.2617C176.154 68.1445 176.279 68.0026 176.378 67.8359C176.479 67.6693 176.55 67.4792 176.589 67.2656L178.3 67.2734C178.256 67.6406 178.145 67.9948 177.968 68.3359C177.793 68.6745 177.558 68.9779 177.261 69.2461C176.966 69.5117 176.615 69.7227 176.206 69.8789C175.8 70.0326 175.34 70.1094 174.827 70.1094C174.114 70.1094 173.476 69.9479 172.913 69.625C172.353 69.3021 171.91 68.8346 171.585 68.2227C171.262 67.6107 171.101 66.8698 171.101 66C171.101 65.1276 171.265 64.3854 171.593 63.7734C171.921 63.1615 172.366 62.6953 172.929 62.375C173.491 62.0521 174.124 61.8906 174.827 61.8906C175.291 61.8906 175.72 61.9557 176.116 62.0859C176.515 62.2161 176.868 62.4062 177.175 62.6562C177.482 62.9036 177.732 63.207 177.925 63.5664C178.12 63.9258 178.245 64.3372 178.3 64.8008ZM180.741 70H178.929L181.69 62H183.87L186.628 70H184.815L182.812 63.8281H182.749L180.741 70ZM180.628 66.8555H184.909V68.1758H180.628V66.8555ZM187.591 70V62H190.747C191.351 62 191.867 62.1081 192.294 62.3242C192.724 62.5378 193.05 62.8411 193.274 63.2344C193.501 63.625 193.614 64.0846 193.614 64.6133C193.614 65.1445 193.5 65.6016 193.271 65.9844C193.041 66.3646 192.709 66.6562 192.274 66.8594C191.842 67.0625 191.319 67.1641 190.704 67.1641H188.591V65.8047H190.431C190.754 65.8047 191.022 65.7604 191.235 65.6719C191.449 65.5833 191.608 65.4505 191.712 65.2734C191.819 65.0964 191.872 64.8763 191.872 64.6133C191.872 64.3477 191.819 64.1237 191.712 63.9414C191.608 63.7591 191.448 63.6211 191.231 63.5273C191.018 63.431 190.748 63.3828 190.423 63.3828H189.282V70H187.591ZM191.911 66.3594L193.899 70H192.032L190.087 66.3594H191.911ZM194.81 70V62H200.2V63.3945H196.501V65.3008H199.923V66.6953H196.501V68.6055H200.216V70H194.81ZM205.885 64.3008C205.854 63.9857 205.719 63.7409 205.482 63.5664C205.245 63.3919 204.924 63.3047 204.518 63.3047C204.242 63.3047 204.008 63.3437 203.818 63.4219C203.628 63.4974 203.482 63.6029 203.381 63.7383C203.282 63.8737 203.232 64.0273 203.232 64.1992C203.227 64.3424 203.257 64.4674 203.322 64.5742C203.39 64.681 203.482 64.7734 203.6 64.8516C203.717 64.9271 203.852 64.9935 204.006 65.0508C204.16 65.1055 204.324 65.1523 204.498 65.1914L205.217 65.3633C205.566 65.4414 205.886 65.5456 206.178 65.6758C206.469 65.806 206.722 65.9661 206.936 66.1562C207.149 66.3464 207.314 66.5703 207.432 66.8281C207.551 67.0859 207.613 67.3815 207.615 67.7148C207.613 68.2044 207.488 68.6289 207.24 68.9883C206.995 69.3451 206.641 69.6224 206.178 69.8203C205.717 70.0156 205.161 70.1133 204.51 70.1133C203.864 70.1133 203.301 70.0143 202.822 69.8164C202.346 69.6185 201.973 69.3255 201.705 68.9375C201.439 68.5469 201.3 68.0638 201.287 67.4883H202.924C202.942 67.7565 203.019 67.9805 203.154 68.1602C203.292 68.3372 203.476 68.4714 203.705 68.5625C203.937 68.651 204.199 68.6953 204.49 68.6953C204.777 68.6953 205.025 68.6536 205.236 68.5703C205.45 68.487 205.615 68.3711 205.732 68.2227C205.85 68.0742 205.908 67.9036 205.908 67.7109C205.908 67.5312 205.855 67.3802 205.748 67.2578C205.644 67.1354 205.49 67.0312 205.287 66.9453C205.087 66.8594 204.84 66.7812 204.549 66.7109L203.678 66.4922C203.003 66.3281 202.471 66.0716 202.08 65.7227C201.689 65.3737 201.495 64.9036 201.498 64.3125C201.495 63.8281 201.624 63.4049 201.885 63.043C202.148 62.681 202.508 62.3984 202.967 62.1953C203.425 61.9922 203.946 61.8906 204.529 61.8906C205.123 61.8906 205.641 61.9922 206.084 62.1953C206.529 62.3984 206.876 62.681 207.123 63.043C207.37 63.4049 207.498 63.8242 207.506 64.3008H205.885Z" fill="#2B0752"/>
<path d="M265.5 20V70" stroke="#483838" stroke-width="2" stroke-linecap="square"/>
<path fill-rule="evenodd" clip-rule="evenodd" d="M292.474 38.8863H286.055C285.926 36.7052 285.664 34.5798 285.25 32.3913C285.207 32.1649 285.011 32.0011 284.78 32H283.3C283.171 32 283.048 32.059 282.966 32.1586C282.883 32.2593 282.849 32.3913 282.874 32.5197C283.294 34.6377 283.561 36.7225 283.692 38.8885H277.522C277.234 38.8885 277 39.1211 277 39.4084V40.7428C277 41.0289 277.236 41.2638 277.522 41.2646H283.786C283.79 41.5939 283.794 41.8886 283.794 42.1663C283.794 44.09 283.711 45.6743 283.517 47.4619C283.502 47.5991 283.547 47.7374 283.64 47.8392C283.731 47.941 283.861 48 283.998 48H285.37C285.637 48 285.86 47.7975 285.887 47.5316C286.074 45.7311 286.154 44.1276 286.154 42.1663C286.154 41.8908 286.151 41.5947 286.147 41.2646H292.478C292.765 41.2646 292.999 41.03 292.999 40.7428V39.4084C292.998 39.1222 292.763 38.8874 292.478 38.8863" fill="#45BC1B"/>
<path d="M292.474 38.8863H286.055C285.926 36.7052 285.664 34.5798 285.25 32.3913C285.207 32.1649 285.011 32.0011 284.78 32H283.3C283.171 32 283.048 32.059 282.966 32.1586C282.883 32.2593 282.849 32.3913 282.874 32.5197C283.294 34.6377 283.561 36.7225 283.692 38.8885H277.522C277.234 38.8885 277 39.1211 277 39.4084V40.7428C277 41.0289 277.236 41.2638 277.522 41.2646H283.786C283.79 41.5939 283.794 41.8886 283.794 42.1663C283.794 44.09 283.711 45.6743 283.517 47.4619C283.502 47.5991 283.547 47.7374 283.64 47.8392C283.731 47.941 283.861 48 283.998 48H285.37C285.637 48 285.86 47.7975 285.887 47.5316C286.074 45.7311 286.154 44.1276 286.154 42.1663C286.154 41.8908 286.151 41.5947 286.147 41.2646H292.478C292.765 41.2646 292.999 41.03 292.999 40.7428V39.4084C292.998 39.1222 292.763 38.8874 292.478 38.8863" stroke="#45BC1B"/>
<path d="M299.936 47V34.6364H305.043C305.969 34.6364 306.768 34.8175 307.44 35.1797C308.116 35.5379 308.637 36.0389 309.003 36.6829C309.369 37.3228 309.553 38.0674 309.553 38.9165C309.553 39.7698 309.365 40.5163 308.991 41.1562C308.621 41.7921 308.092 42.2852 307.403 42.6353C306.715 42.9854 305.898 43.1605 304.952 43.1605H301.801V40.8061H304.397C304.848 40.8061 305.224 40.7276 305.526 40.5707C305.832 40.4137 306.063 40.1944 306.22 39.9126C306.377 39.6269 306.456 39.2949 306.456 38.9165C306.456 38.5342 306.377 38.2042 306.22 37.9265C306.063 37.6448 305.832 37.4274 305.526 37.2745C305.22 37.1216 304.844 37.0451 304.397 37.0451H302.924V47H299.936ZM311.026 47V34.6364H314.014V44.5732H319.157V47H311.026ZM328.184 34.6364H331.166V42.6112C331.166 43.5328 330.947 44.3357 330.508 45.0199C330.07 45.7 329.458 46.2273 328.673 46.6016C327.888 46.9718 326.977 47.157 325.938 47.157C324.888 47.157 323.97 46.9718 323.185 46.6016C322.401 46.2273 321.791 45.7 321.356 45.0199C320.922 44.3357 320.704 43.5328 320.704 42.6112V34.6364H323.693V42.3516C323.693 42.7782 323.785 43.1585 323.97 43.4925C324.159 43.8266 324.423 44.0882 324.761 44.2773C325.099 44.4665 325.492 44.5611 325.938 44.5611C326.385 44.5611 326.775 44.4665 327.109 44.2773C327.448 44.0882 327.711 43.8266 327.9 43.4925C328.089 43.1585 328.184 42.7782 328.184 42.3516V34.6364ZM339.722 38.343C339.682 37.9003 339.503 37.5562 339.185 37.3107C338.871 37.0612 338.422 36.9364 337.839 36.9364C337.452 36.9364 337.13 36.9867 336.873 37.0874C336.615 37.188 336.422 37.3268 336.293 37.5039C336.164 37.677 336.098 37.8762 336.094 38.1016C336.086 38.2867 336.122 38.4497 336.203 38.5906C336.287 38.7314 336.408 38.8562 336.565 38.9648C336.726 39.0695 336.919 39.162 337.144 39.2425C337.37 39.323 337.623 39.3935 337.905 39.4538L338.968 39.6953C339.579 39.8281 340.119 40.0052 340.585 40.2266C341.056 40.4479 341.451 40.7115 341.769 41.0174C342.091 41.3233 342.334 41.6754 342.499 42.0739C342.664 42.4723 342.749 42.919 342.753 43.4141C342.749 44.1948 342.551 44.8649 342.161 45.4244C341.771 45.9838 341.209 46.4124 340.477 46.7102C339.748 47.008 338.869 47.157 337.839 47.157C336.804 47.157 335.903 47.002 335.134 46.6921C334.365 46.3822 333.768 45.9113 333.341 45.2795C332.914 44.6476 332.695 43.8487 332.683 42.8828H335.545C335.569 43.2812 335.675 43.6133 335.865 43.8789C336.054 44.1445 336.313 44.3458 336.643 44.4826C336.977 44.6194 337.364 44.6879 337.802 44.6879C338.205 44.6879 338.547 44.6335 338.829 44.5249C339.114 44.4162 339.334 44.2653 339.487 44.0721C339.64 43.8789 339.718 43.6576 339.722 43.408C339.718 43.1746 339.646 42.9754 339.505 42.8104C339.364 42.6413 339.147 42.4964 338.853 42.3757C338.563 42.2509 338.193 42.1362 337.742 42.0316L336.45 41.7298C335.38 41.4843 334.536 41.0878 333.921 40.5405C333.305 39.9891 332.999 39.2446 333.003 38.3068C332.999 37.5421 333.204 36.872 333.619 36.2965C334.033 35.721 334.607 35.2723 335.339 34.9503C336.072 34.6283 336.907 34.4673 337.845 34.4673C338.802 34.4673 339.634 34.6303 340.338 34.9563C341.046 35.2783 341.596 35.7311 341.986 36.3146C342.376 36.8982 342.576 37.5743 342.584 38.343H339.722Z" fill="#45BC1B"/>
<path d="M274.165 53.1818H275.543L276.869 55.6875H276.926L278.253 53.1818H279.631L277.509 56.9432V59H276.287V56.9432L274.165 53.1818ZM281.337 59.0852C280.896 59.0852 280.514 58.9915 280.192 58.804C279.872 58.6146 279.625 58.3513 279.451 58.0142C279.277 57.6752 279.19 57.2822 279.19 56.8352C279.19 56.3845 279.277 55.9905 279.451 55.6534C279.625 55.3144 279.872 55.0511 280.192 54.8636C280.514 54.6742 280.896 54.5795 281.337 54.5795C281.779 54.5795 282.159 54.6742 282.479 54.8636C282.801 55.0511 283.049 55.3144 283.224 55.6534C283.398 55.9905 283.485 56.3845 283.485 56.8352C283.485 57.2822 283.398 57.6752 283.224 58.0142C283.049 58.3513 282.801 58.6146 282.479 58.804C282.159 58.9915 281.779 59.0852 281.337 59.0852ZM281.343 58.1477C281.544 58.1477 281.711 58.0909 281.846 57.9773C281.98 57.8617 282.082 57.7045 282.15 57.5057C282.22 57.3068 282.255 57.0805 282.255 56.8267C282.255 56.5729 282.22 56.3466 282.15 56.1477C282.082 55.9489 281.98 55.7917 281.846 55.6761C281.711 55.5606 281.544 55.5028 281.343 55.5028C281.14 55.5028 280.97 55.5606 280.832 55.6761C280.695 55.7917 280.592 55.9489 280.522 56.1477C280.454 56.3466 280.42 56.5729 280.42 56.8267C280.42 57.0805 280.454 57.3068 280.522 57.5057C280.592 57.7045 280.695 57.8617 280.832 57.9773C280.97 58.0909 281.14 58.1477 281.343 58.1477ZM287.07 57.142V54.6364H288.281V59H287.119V58.2074H287.073C286.975 58.4631 286.811 58.6686 286.582 58.8239C286.354 58.9792 286.077 59.0568 285.749 59.0568C285.458 59.0568 285.201 58.9905 284.979 58.858C284.758 58.7254 284.585 58.5369 284.46 58.2926C284.336 58.0483 284.274 57.7557 284.272 57.4148V54.6364H285.482V57.1989C285.484 57.4564 285.553 57.66 285.69 57.8097C285.826 57.9593 286.009 58.0341 286.238 58.0341C286.384 58.0341 286.52 58.0009 286.647 57.9347C286.774 57.8665 286.876 57.7661 286.954 57.6335C287.033 57.5009 287.072 57.3371 287.07 57.142ZM289.249 59V54.6364H290.422V55.3977H290.467C290.547 55.1269 290.68 54.9223 290.868 54.7841C291.055 54.6439 291.271 54.5739 291.516 54.5739C291.576 54.5739 291.642 54.5777 291.712 54.5852C291.782 54.5928 291.843 54.6032 291.896 54.6165V55.6903C291.839 55.6733 291.761 55.6581 291.661 55.6449C291.56 55.6316 291.468 55.625 291.385 55.625C291.207 55.625 291.048 55.6638 290.908 55.7415C290.769 55.8172 290.66 55.9233 290.578 56.0597C290.499 56.196 290.459 56.3532 290.459 56.5312V59H289.249ZM294.396 59V53.1818H296.692C297.131 53.1818 297.506 53.2604 297.817 53.4176C298.129 53.5729 298.367 53.7936 298.53 54.0795C298.695 54.3636 298.777 54.6979 298.777 55.0824C298.777 55.4687 298.694 55.8011 298.527 56.0795C298.36 56.3561 298.119 56.5682 297.803 56.7159C297.488 56.8636 297.107 56.9375 296.661 56.9375H295.124V55.9489H296.462C296.696 55.9489 296.892 55.9167 297.047 55.8523C297.202 55.7879 297.318 55.6913 297.393 55.5625C297.471 55.4337 297.51 55.2737 297.51 55.0824C297.51 54.8892 297.471 54.7263 297.393 54.5938C297.318 54.4612 297.201 54.3608 297.044 54.2926C296.889 54.2225 296.693 54.1875 296.456 54.1875H295.626V59H294.396ZM297.538 56.3523L298.984 59H297.626L296.212 56.3523H297.538ZM301.542 59.0852C301.093 59.0852 300.707 58.9943 300.383 58.8125C300.061 58.6288 299.813 58.3693 299.638 58.0341C299.464 57.697 299.377 57.2983 299.377 56.8381C299.377 56.3892 299.464 55.9953 299.638 55.6562C299.813 55.3172 300.058 55.053 300.374 54.8636C300.692 54.6742 301.066 54.5795 301.494 54.5795C301.781 54.5795 302.049 54.6259 302.298 54.7188C302.548 54.8097 302.765 54.947 302.951 55.1307C303.138 55.3144 303.284 55.5455 303.388 55.8239C303.493 56.1004 303.545 56.4242 303.545 56.7955V57.1278H299.86V56.3778H302.406C302.406 56.2036 302.368 56.0492 302.292 55.9148C302.216 55.7803 302.111 55.6752 301.977 55.5994C301.844 55.5218 301.69 55.483 301.513 55.483C301.33 55.483 301.167 55.5256 301.025 55.6108C300.885 55.6941 300.775 55.8068 300.695 55.9489C300.616 56.089 300.575 56.2453 300.573 56.4176V57.1307C300.573 57.3466 300.613 57.5331 300.692 57.6903C300.774 57.8475 300.888 57.9688 301.036 58.054C301.184 58.1392 301.359 58.1818 301.562 58.1818C301.696 58.1818 301.819 58.1629 301.931 58.125C302.043 58.0871 302.138 58.0303 302.218 57.9545C302.298 57.8788 302.358 57.786 302.4 57.6761L303.519 57.75C303.462 58.0189 303.346 58.2538 303.17 58.4545C302.996 58.6534 302.77 58.8087 302.494 58.9205C302.219 59.0303 301.902 59.0852 301.542 59.0852ZM304.335 59V54.6364H305.508V55.3977H305.553C305.633 55.1269 305.766 54.9223 305.954 54.7841C306.141 54.6439 306.357 54.5739 306.602 54.5739C306.662 54.5739 306.728 54.5777 306.798 54.5852C306.868 54.5928 306.929 54.6032 306.982 54.6165V55.6903C306.925 55.6733 306.847 55.6581 306.746 55.6449C306.646 55.6316 306.554 55.625 306.471 55.625C306.293 55.625 306.134 55.6638 305.994 55.7415C305.855 55.8172 305.746 55.9233 305.664 56.0597C305.585 56.196 305.545 56.3532 305.545 56.5312V59H304.335ZM307.608 59V54.6364H308.818V59H307.608ZM308.216 54.0739C308.036 54.0739 307.882 54.0142 307.753 53.8949C307.626 53.7737 307.562 53.6288 307.562 53.4602C307.562 53.2936 307.626 53.1506 307.753 53.0312C307.882 52.91 308.036 52.8494 308.216 52.8494C308.396 52.8494 308.549 52.91 308.676 53.0312C308.805 53.1506 308.869 53.2936 308.869 53.4602C308.869 53.6288 308.805 53.7737 308.676 53.8949C308.549 54.0142 308.396 54.0739 308.216 54.0739ZM311.759 59.0852C311.318 59.0852 310.936 58.9915 310.614 58.804C310.294 58.6146 310.047 58.3513 309.873 58.0142C309.699 57.6752 309.612 57.2822 309.612 56.8352C309.612 56.3845 309.699 55.9905 309.873 55.6534C310.047 55.3144 310.294 55.0511 310.614 54.8636C310.936 54.6742 311.318 54.5795 311.759 54.5795C312.201 54.5795 312.581 54.6742 312.901 54.8636C313.223 55.0511 313.471 55.3144 313.646 55.6534C313.82 55.9905 313.907 56.3845 313.907 56.8352C313.907 57.2822 313.82 57.6752 313.646 58.0142C313.471 58.3513 313.223 58.6146 312.901 58.804C312.581 58.9915 312.201 59.0852 311.759 59.0852ZM311.765 58.1477C311.966 58.1477 312.133 58.0909 312.268 57.9773C312.402 57.8617 312.504 57.7045 312.572 57.5057C312.642 57.3068 312.677 57.0805 312.677 56.8267C312.677 56.5729 312.642 56.3466 312.572 56.1477C312.504 55.9489 312.402 55.7917 312.268 55.6761C312.133 55.5606 311.966 55.5028 311.765 55.5028C311.562 55.5028 311.392 55.5606 311.254 55.6761C311.117 55.7917 311.014 55.9489 310.944 56.1477C310.876 56.3466 310.842 56.5729 310.842 56.8267C310.842 57.0805 310.876 57.3068 310.944 57.5057C311.014 57.7045 311.117 57.8617 311.254 57.9773C311.392 58.0909 311.562 58.1477 311.765 58.1477ZM316.302 59.071C315.97 59.071 315.67 58.9858 315.401 58.8153C315.134 58.643 314.922 58.3902 314.765 58.0568C314.61 57.7216 314.532 57.3106 314.532 56.8239C314.532 56.3239 314.612 55.9081 314.773 55.5767C314.934 55.2434 315.148 54.9943 315.415 54.8295C315.684 54.6629 315.979 54.5795 316.299 54.5795C316.543 54.5795 316.747 54.6212 316.91 54.7045C317.075 54.786 317.207 54.8883 317.308 55.0114C317.41 55.1326 317.487 55.2519 317.54 55.3693H317.577V53.1818H318.785V59H317.592V58.3011H317.54C317.484 58.4223 317.403 58.5426 317.299 58.6619C317.197 58.7794 317.063 58.8769 316.898 58.9545C316.736 59.0322 316.537 59.071 316.302 59.071ZM316.685 58.108C316.88 58.108 317.045 58.0549 317.18 57.9489C317.316 57.8409 317.42 57.6903 317.492 57.4972C317.566 57.304 317.603 57.0777 317.603 56.8182C317.603 56.5587 317.567 56.3333 317.495 56.142C317.423 55.9508 317.319 55.803 317.183 55.6989C317.046 55.5947 316.88 55.5426 316.685 55.5426C316.487 55.5426 316.319 55.5966 316.183 55.7045C316.046 55.8125 315.943 55.9621 315.873 56.1534C315.803 56.3447 315.768 56.5663 315.768 56.8182C315.768 57.072 315.803 57.2964 315.873 57.4915C315.945 57.6847 316.048 57.8362 316.183 57.946C316.319 58.054 316.487 58.108 316.685 58.108ZM323.603 59.0852C323.162 59.0852 322.78 58.9915 322.458 58.804C322.138 58.6146 321.891 58.3513 321.717 58.0142C321.542 57.6752 321.455 57.2822 321.455 56.8352C321.455 56.3845 321.542 55.9905 321.717 55.6534C321.891 55.3144 322.138 55.0511 322.458 54.8636C322.78 54.6742 323.162 54.5795 323.603 54.5795C324.044 54.5795 324.425 54.6742 324.745 54.8636C325.067 55.0511 325.315 55.3144 325.489 55.6534C325.664 55.9905 325.751 56.3845 325.751 56.8352C325.751 57.2822 325.664 57.6752 325.489 58.0142C325.315 58.3513 325.067 58.6146 324.745 58.804C324.425 58.9915 324.044 59.0852 323.603 59.0852ZM323.609 58.1477C323.809 58.1477 323.977 58.0909 324.112 57.9773C324.246 57.8617 324.347 57.7045 324.415 57.5057C324.486 57.3068 324.521 57.0805 324.521 56.8267C324.521 56.5729 324.486 56.3466 324.415 56.1477C324.347 55.9489 324.246 55.7917 324.112 55.6761C323.977 55.5606 323.809 55.5028 323.609 55.5028C323.406 55.5028 323.236 55.5606 323.097 55.6761C322.961 55.7917 322.858 55.9489 322.788 56.1477C322.719 56.3466 322.685 56.5729 322.685 56.8267C322.685 57.0805 322.719 57.3068 322.788 57.5057C322.858 57.7045 322.961 57.8617 323.097 57.9773C323.236 58.0909 323.406 58.1477 323.609 58.1477ZM328.884 54.6364V55.5455H326.191V54.6364H328.884ZM326.808 59V54.321C326.808 54.0047 326.869 53.7424 326.992 53.5341C327.117 53.3258 327.288 53.1695 327.504 53.0653C327.719 52.9612 327.965 52.9091 328.239 52.9091C328.425 52.9091 328.594 52.9233 328.748 52.9517C328.903 52.9801 329.019 53.0057 329.094 53.0284L328.879 53.9375C328.831 53.9223 328.772 53.9081 328.702 53.8949C328.634 53.8816 328.564 53.875 328.492 53.875C328.314 53.875 328.19 53.9167 328.12 54C328.05 54.0814 328.015 54.196 328.015 54.3438V59H326.808ZM336.631 55.2188H335.387C335.364 55.0578 335.318 54.9148 335.248 54.7898C335.178 54.6629 335.088 54.5549 334.978 54.4659C334.868 54.3769 334.741 54.3087 334.597 54.2614C334.455 54.214 334.301 54.1903 334.134 54.1903C333.833 54.1903 333.571 54.2652 333.347 54.4148C333.124 54.5625 332.951 54.7784 332.827 55.0625C332.704 55.3447 332.643 55.6875 332.643 56.0909C332.643 56.5057 332.704 56.8542 332.827 57.1364C332.952 57.4186 333.127 57.6316 333.35 57.7756C333.574 57.9195 333.832 57.9915 334.126 57.9915C334.29 57.9915 334.443 57.9697 334.583 57.9261C334.725 57.8826 334.851 57.8191 334.961 57.7358C335.071 57.6506 335.162 57.5473 335.234 57.4261C335.308 57.3049 335.359 57.1667 335.387 57.0114L336.631 57.017C336.599 57.2841 336.519 57.5417 336.39 57.7898C336.263 58.036 336.092 58.2566 335.876 58.4517C335.662 58.6449 335.406 58.7983 335.109 58.9119C334.813 59.0237 334.479 59.0795 334.106 59.0795C333.587 59.0795 333.123 58.9621 332.714 58.7273C332.307 58.4924 331.985 58.1525 331.748 57.7074C331.513 57.2623 331.396 56.7235 331.396 56.0909C331.396 55.4564 331.515 54.9167 331.754 54.4716C331.992 54.0265 332.316 53.6875 332.725 53.4545C333.134 53.2197 333.594 53.1023 334.106 53.1023C334.443 53.1023 334.755 53.1496 335.043 53.2443C335.333 53.339 335.59 53.4773 335.813 53.6591C336.037 53.839 336.219 54.0597 336.359 54.321C336.501 54.5824 336.592 54.8816 336.631 55.2188ZM339.462 59.0852C339.021 59.0852 338.639 58.9915 338.317 58.804C337.997 58.6146 337.75 58.3513 337.576 58.0142C337.402 57.6752 337.315 57.2822 337.315 56.8352C337.315 56.3845 337.402 55.9905 337.576 55.6534C337.75 55.3144 337.997 55.0511 338.317 54.8636C338.639 54.6742 339.021 54.5795 339.462 54.5795C339.904 54.5795 340.284 54.6742 340.604 54.8636C340.926 55.0511 341.174 55.3144 341.349 55.6534C341.523 55.9905 341.61 56.3845 341.61 56.8352C341.61 57.2822 341.523 57.6752 341.349 58.0142C341.174 58.3513 340.926 58.6146 340.604 58.804C340.284 58.9915 339.904 59.0852 339.462 59.0852ZM339.468 58.1477C339.669 58.1477 339.836 58.0909 339.971 57.9773C340.105 57.8617 340.207 57.7045 340.275 57.5057C340.345 57.3068 340.38 57.0805 340.38 56.8267C340.38 56.5729 340.345 56.3466 340.275 56.1477C340.207 55.9489 340.105 55.7917 339.971 55.6761C339.836 55.5606 339.669 55.5028 339.468 55.5028C339.265 55.5028 339.095 55.5606 338.957 55.6761C338.82 55.7917 338.717 55.9489 338.647 56.1477C338.579 56.3466 338.545 56.5729 338.545 56.8267C338.545 57.0805 338.579 57.3068 338.647 57.5057C338.717 57.7045 338.82 57.8617 338.957 57.9773C339.095 58.0909 339.265 58.1477 339.468 58.1477ZM342.397 59V54.6364H343.55V55.4062H343.602C343.692 55.1506 343.844 54.9489 344.056 54.8011C344.268 54.6534 344.522 54.5795 344.817 54.5795C345.117 54.5795 345.371 54.6544 345.582 54.804C345.792 54.9517 345.932 55.1525 346.002 55.4062H346.048C346.137 55.1562 346.298 54.9564 346.531 54.8068C346.765 54.6553 347.043 54.5795 347.363 54.5795C347.77 54.5795 348.101 54.7093 348.354 54.9688C348.61 55.2263 348.738 55.5919 348.738 56.0653V59H347.531V56.304C347.531 56.0616 347.466 55.8797 347.337 55.7585C347.209 55.6373 347.048 55.5767 346.854 55.5767C346.635 55.5767 346.463 55.6468 346.34 55.7869C346.217 55.9252 346.156 56.108 346.156 56.3352V59H344.982V56.2784C344.982 56.0644 344.921 55.8939 344.798 55.767C344.676 55.6402 344.516 55.5767 344.317 55.5767C344.183 55.5767 344.062 55.6108 343.954 55.679C343.848 55.7453 343.763 55.839 343.701 55.9602C343.638 56.0795 343.607 56.2197 343.607 56.3807V59H342.397ZM352.04 54.6364V55.5455H349.347V54.6364H352.04ZM349.964 59V54.321C349.964 54.0047 350.025 53.7424 350.148 53.5341C350.273 53.3258 350.444 53.1695 350.66 53.0653C350.876 52.9612 351.121 52.9091 351.396 52.9091C351.581 52.9091 351.751 52.9233 351.904 52.9517C352.059 52.9801 352.175 53.0057 352.251 53.0284L352.035 53.9375C351.987 53.9223 351.929 53.9081 351.859 53.8949C351.79 53.8816 351.72 53.875 351.648 53.875C351.47 53.875 351.346 53.9167 351.276 54C351.206 54.0814 351.171 54.196 351.171 54.3438V59H349.964ZM354.595 59.0852C354.154 59.0852 353.772 58.9915 353.45 58.804C353.13 58.6146 352.883 58.3513 352.709 58.0142C352.535 57.6752 352.447 57.2822 352.447 56.8352C352.447 56.3845 352.535 55.9905 352.709 55.6534C352.883 55.3144 353.13 55.0511 353.45 54.8636C353.772 54.6742 354.154 54.5795 354.595 54.5795C355.036 54.5795 355.417 54.6742 355.737 54.8636C356.059 55.0511 356.307 55.3144 356.482 55.6534C356.656 55.9905 356.743 56.3845 356.743 56.8352C356.743 57.2822 356.656 57.6752 356.482 58.0142C356.307 58.3513 356.059 58.6146 355.737 58.804C355.417 58.9915 355.036 59.0852 354.595 59.0852ZM354.601 58.1477C354.802 58.1477 354.969 58.0909 355.104 57.9773C355.238 57.8617 355.339 57.7045 355.408 57.5057C355.478 57.3068 355.513 57.0805 355.513 56.8267C355.513 56.5729 355.478 56.3466 355.408 56.1477C355.339 55.9489 355.238 55.7917 355.104 55.6761C354.969 55.5606 354.802 55.5028 354.601 55.5028C354.398 55.5028 354.228 55.5606 354.089 55.6761C353.953 55.7917 353.85 55.9489 353.78 56.1477C353.712 56.3466 353.678 56.5729 353.678 56.8267C353.678 57.0805 353.712 57.3068 353.78 57.5057C353.85 57.7045 353.953 57.8617 354.089 57.9773C354.228 58.0909 354.398 58.1477 354.601 58.1477ZM357.53 59V54.6364H358.703V55.3977H358.749C358.828 55.1269 358.962 54.9223 359.149 54.7841C359.337 54.6439 359.553 54.5739 359.797 54.5739C359.857 54.5739 359.923 54.5777 359.993 54.5852C360.063 54.5928 360.125 54.6032 360.178 54.6165V55.6903C360.121 55.6733 360.042 55.6581 359.942 55.6449C359.841 55.6316 359.75 55.625 359.666 55.625C359.488 55.625 359.329 55.6638 359.189 55.7415C359.051 55.8172 358.941 55.9233 358.859 56.0597C358.78 56.196 358.74 56.3532 358.74 56.5312V59H357.53ZM363.343 54.6364V55.5455H360.715V54.6364H363.343ZM361.312 53.5909H362.522V57.6591C362.522 57.7708 362.539 57.858 362.573 57.9205C362.607 57.9811 362.655 58.0237 362.715 58.0483C362.778 58.0729 362.85 58.0852 362.931 58.0852C362.988 58.0852 363.045 58.0805 363.102 58.071C363.158 58.0597 363.202 58.0511 363.232 58.0455L363.423 58.946C363.362 58.965 363.277 58.9867 363.167 59.0114C363.057 59.0379 362.924 59.054 362.766 59.0597C362.475 59.071 362.219 59.0322 361.999 58.9432C361.781 58.8542 361.612 58.7159 361.491 58.5284C361.37 58.3409 361.31 58.1042 361.312 57.8182V53.5909Z" fill="black"/>
<defs>
<filter id="filter0_i_44_707" x="13.8897" y="3" width="370.014" height="87" filterUnits="userSpaceOnUse" color-interpolation-filters="sRGB">
<feFlood flood-opacity="0" result="BackgroundImageFix"/>
<feBlend mode="normal" in="SourceGraphic" in2="BackgroundImageFix" result="shape"/>
<feColorMatrix in="SourceAlpha" type="matrix" values="0 0 0 0 0 0 0 0 0 0 0 0 0 0 0 0 0 0 127 0" result="hardAlpha"/>
<feOffset dx="2" dy="3"/>
<feGaussianBlur stdDeviation="5"/>
<feComposite in2="hardAlpha" operator="arithmetic" k2="-1" k3="1"/>
<feColorMatrix type="matrix" values="0 0 0 0 0.791009 0 0 0 0 0.854592 0 0 0 0 0.953501 0 0 0 0.2 0"/>
<feBlend mode="normal" in2="shape" result="effect1_innerShadow_44_707"/>
</filter>
</defs>
</svg>
