<svg width="28" height="28" viewBox="0 0 28 28" fill="none" xmlns="http://www.w3.org/2000/svg">
<path fill-rule="evenodd" clip-rule="evenodd" d="M14 0C21.7322 0 28 6.26779 28 14C28 21.7322 21.7322 28 14 28C6.26779 28 0 21.7322 0 14C0 6.26779 6.26779 0 14 0Z" fill="#1778F2"/>
<path fill-rule="evenodd" clip-rule="evenodd" d="M15.1165 21.9022V14.408H17.6322L18.0089 11.4878H15.1165V9.62264C15.1165 8.77771 15.351 8.20132 16.564 8.20132H18.1105V5.58992C17.3619 5.51056 16.6098 5.47211 15.8567 5.47487C13.6273 5.47487 12.1004 6.83555 12.1004 9.33539V11.4878H9.57861V14.408H12.1004V21.9022H15.1165Z" fill="#FDFDFD"/>
</svg>
