<svg width="20" height="19" viewBox="0 0 20 19" fill="none" xmlns="http://www.w3.org/2000/svg">
<path fill-rule="evenodd" clip-rule="evenodd" d="M10 16.5C5.857 16.5 2.5 13.143 2.5 9C2.5 4.857 5.857 1.5 10 1.5C14.143 1.5 17.5 4.857 17.5 9C17.5 13.143 14.143 16.5 10 16.5ZM10 0C5.032 0 1 4.032 1 9C1 13.9695 5.032 18 10 18C14.9695 18 19 13.9695 19 9C19 4.032 14.9695 0 10 0Z" fill="black"/>
<path d="M10 16.4C5.91223 16.4 2.6 13.0878 2.6 9H2.4C2.4 13.1982 5.80177 16.6 10 16.6V16.4ZM2.6 9C2.6 4.91223 5.91223 1.6 10 1.6V1.4C5.80177 1.4 2.4 4.80177 2.4 9H2.6ZM10 1.6C14.0878 1.6 17.4 4.91223 17.4 9H17.6C17.6 4.80177 14.1982 1.4 10 1.4V1.6ZM17.4 9C17.4 13.0878 14.0878 16.4 10 16.4V16.6C14.1982 16.6 17.6 13.1982 17.6 9H17.4ZM10 -0.1C4.97677 -0.1 0.9 3.97677 0.9 9H1.1C1.1 4.08723 5.08723 0.1 10 0.1V-0.1ZM0.9 9C0.9 14.0247 4.97678 18.1 10 18.1V17.9C5.08722 17.9 1.1 13.9143 1.1 9H0.9ZM10 18.1C15.0247 18.1 19.1 14.0247 19.1 9H18.9C18.9 13.9143 14.9143 17.9 10 17.9V18.1ZM19.1 9C19.1 3.97678 15.0247 -0.1 10 -0.1V0.1C14.9143 0.1 18.9 4.08722 18.9 9H19.1Z" fill="black"/>
<path fill-rule="evenodd" clip-rule="evenodd" d="M9.71364 12.5858C9.30864 12.6098 8.98614 12.9308 8.96364 13.3358V13.4993C8.96814 13.6868 9.05064 13.8683 9.18564 13.9973C9.32664 14.1263 9.50814 14.1968 9.70164 14.1908C10.1171 14.1683 10.4456 13.8278 10.4516 13.4123V13.2893C10.4516 13.0958 10.3691 12.9143 10.2341 12.7793C10.0931 12.6503 9.90714 12.5738 9.71364 12.5858ZM10.6451 3.82732C9.15714 3.49732 7.65714 4.34632 7.16364 5.78782C7.09914 5.97532 7.11114 6.18682 7.20564 6.36382C7.29264 6.54382 7.45164 6.67282 7.64514 6.73132C7.83864 6.79582 8.04264 6.77932 8.21814 6.68482C8.40114 6.59182 8.53014 6.43282 8.58864 6.24082C8.84514 5.54182 9.57264 5.13232 10.2986 5.27932C11.0081 5.49532 11.4536 6.19282 11.3471 6.93082C11.1896 7.62232 10.5626 8.10232 9.84714 8.08582C9.63714 8.05582 9.41964 8.12632 9.26214 8.26882C9.09714 8.41282 9.01014 8.61832 9.01014 8.83582V11.1743C9.01014 11.5898 9.34314 11.9243 9.76014 11.9243C9.95964 11.9303 10.1471 11.8538 10.2866 11.7128C10.4276 11.5778 10.5101 11.3843 10.5101 11.1908V9.53932C11.6876 9.29332 12.6011 8.36632 12.8366 7.18282C13.0706 5.67082 12.1271 4.21732 10.6451 3.82732Z" fill="black"/>
</svg>
