<svg width="395" height="218" viewBox="0 0 395 218" fill="none" xmlns="http://www.w3.org/2000/svg">
<rect x="7" y="12" width="376" height="190" rx="18" fill="#E8F1FF"/>
<path fill-rule="evenodd" clip-rule="evenodd" d="M383 115C383 115 287.5 162 174 166.5C60.5 171 8 166.5 8 166.5V184C8 193.941 16.0589 202 26 202H365C374.941 202 383 193.941 383 184V115Z" fill="#E6E6E6"/>
<rect x="33" y="42" width="130" height="130" rx="14" fill="#D8D8D8"/>
<path d="M222.979 76.24C221.979 76.24 221.114 75.975 220.384 75.445C219.664 74.905 219.154 74.135 218.854 73.135L221.059 72.265C221.189 72.775 221.404 73.195 221.704 73.525C222.004 73.855 222.429 74.02 222.979 74.02C223.159 74.02 223.329 74 223.489 73.96C223.659 73.92 223.804 73.86 223.924 73.78C224.054 73.69 224.159 73.58 224.239 73.45C224.319 73.32 224.359 73.17 224.359 73C224.359 72.83 224.324 72.675 224.254 72.535C224.194 72.385 224.089 72.25 223.939 72.13C223.789 72 223.589 71.875 223.339 71.755C223.089 71.625 222.774 71.49 222.394 71.35L221.734 71.11C221.454 71.01 221.164 70.875 220.864 70.705C220.574 70.525 220.309 70.31 220.069 70.06C219.829 69.81 219.634 69.525 219.484 69.205C219.334 68.875 219.259 68.51 219.259 68.11C219.259 67.68 219.344 67.275 219.514 66.895C219.684 66.515 219.924 66.19 220.234 65.92C220.544 65.64 220.919 65.42 221.359 65.26C221.799 65.1 222.284 65.02 222.814 65.02C223.374 65.02 223.854 65.095 224.254 65.245C224.654 65.385 224.994 65.57 225.274 65.8C225.554 66.02 225.774 66.27 225.934 66.55C226.104 66.83 226.234 67.1 226.324 67.36L224.299 68.215C224.189 67.895 224.014 67.64 223.774 67.45C223.534 67.25 223.224 67.15 222.844 67.15C222.444 67.15 222.124 67.235 221.884 67.405C221.654 67.565 221.539 67.775 221.539 68.035C221.539 68.305 221.659 68.545 221.899 68.755C222.139 68.965 222.564 69.175 223.174 69.385L223.834 69.61C224.744 69.92 225.449 70.335 225.949 70.855C226.449 71.375 226.699 72.075 226.699 72.955C226.699 73.515 226.584 74 226.354 74.41C226.134 74.82 225.844 75.16 225.484 75.43C225.134 75.7 224.734 75.9 224.284 76.03C223.844 76.17 223.409 76.24 222.979 76.24ZM228.719 70.54H227.429V68.65H228.719V66.4H230.969V68.65H232.784V70.54H230.969V73.015C230.969 73.175 230.989 73.325 231.029 73.465C231.069 73.595 231.139 73.705 231.239 73.795C231.389 73.925 231.584 73.99 231.824 73.99C231.984 73.99 232.119 73.97 232.229 73.93C232.339 73.89 232.434 73.84 232.514 73.78L233.144 75.73C232.884 75.85 232.604 75.945 232.304 76.015C232.004 76.085 231.684 76.12 231.344 76.12C230.554 76.12 229.929 75.89 229.469 75.43C229.229 75.19 229.044 74.895 228.914 74.545C228.784 74.185 228.719 73.79 228.719 73.36V70.54ZM238.711 75.34H238.561C238.321 75.6 238.046 75.815 237.736 75.985C237.436 76.155 237.046 76.24 236.566 76.24C236.196 76.24 235.846 76.18 235.516 76.06C235.196 75.94 234.911 75.77 234.661 75.55C234.421 75.33 234.231 75.065 234.091 74.755C233.951 74.445 233.881 74.1 233.881 73.72C233.881 73.35 233.956 73.015 234.106 72.715C234.256 72.405 234.461 72.14 234.721 71.92C234.981 71.7 235.286 71.53 235.636 71.41C235.996 71.29 236.386 71.23 236.806 71.23C237.256 71.23 237.626 71.26 237.916 71.32C238.216 71.38 238.481 71.45 238.711 71.53V71.335C238.711 71.015 238.576 70.745 238.306 70.525C238.046 70.295 237.691 70.18 237.241 70.18C236.591 70.18 236.031 70.445 235.561 70.975L234.031 69.895C234.451 69.395 234.936 69.025 235.486 68.785C236.046 68.535 236.661 68.41 237.331 68.41C238.531 68.41 239.436 68.68 240.046 69.22C240.656 69.75 240.961 70.56 240.961 71.65V76H238.711V75.34ZM238.711 73.105C238.481 73.015 238.251 72.945 238.021 72.895C237.801 72.845 237.571 72.82 237.331 72.82C236.931 72.82 236.631 72.905 236.431 73.075C236.231 73.235 236.131 73.445 236.131 73.705C236.131 73.965 236.226 74.175 236.416 74.335C236.606 74.485 236.856 74.56 237.166 74.56C237.416 74.56 237.636 74.52 237.826 74.44C238.026 74.35 238.191 74.235 238.321 74.095C238.451 73.955 238.546 73.8 238.606 73.63C238.676 73.45 238.711 73.275 238.711 73.105ZM242.686 68.65H244.786V69.58H244.936C245.136 69.26 245.421 68.99 245.791 68.77C246.161 68.55 246.571 68.44 247.021 68.44C247.211 68.44 247.361 68.445 247.471 68.455C247.591 68.465 247.701 68.495 247.801 68.545V70.72C247.681 70.66 247.541 70.61 247.381 70.57C247.231 70.53 247.046 70.51 246.826 70.51C246.226 70.51 245.761 70.7 245.431 71.08C245.101 71.45 244.936 71.965 244.936 72.625V76H242.686V68.65ZM249.916 70.54H248.626V68.65H249.916V66.4H252.166V68.65H253.981V70.54H252.166V73.015C252.166 73.175 252.186 73.325 252.226 73.465C252.266 73.595 252.336 73.705 252.436 73.795C252.586 73.925 252.781 73.99 253.021 73.99C253.181 73.99 253.316 73.97 253.426 73.93C253.536 73.89 253.631 73.84 253.711 73.78L254.341 75.73C254.081 75.85 253.801 75.945 253.501 76.015C253.201 76.085 252.881 76.12 252.541 76.12C251.751 76.12 251.126 75.89 250.666 75.43C250.426 75.19 250.241 74.895 250.111 74.545C249.981 74.185 249.916 73.79 249.916 73.36V70.54ZM261.457 71.005L257.842 65.26H260.662L262.552 68.41H262.702L264.502 65.26H267.352L263.797 71.005V76H261.457V71.005ZM270.588 68.41C271.158 68.41 271.683 68.51 272.163 68.71C272.653 68.9 273.073 69.17 273.423 69.52C273.783 69.86 274.058 70.27 274.248 70.75C274.448 71.23 274.548 71.755 274.548 72.325C274.548 72.895 274.448 73.42 274.248 73.9C274.058 74.38 273.783 74.795 273.423 75.145C273.073 75.485 272.653 75.755 272.163 75.955C271.683 76.145 271.158 76.24 270.588 76.24C270.018 76.24 269.488 76.145 268.998 75.955C268.518 75.755 268.098 75.485 267.738 75.145C267.388 74.795 267.113 74.38 266.913 73.9C266.723 73.42 266.628 72.895 266.628 72.325C266.628 71.755 266.723 71.23 266.913 70.75C267.113 70.27 267.388 69.86 267.738 69.52C268.098 69.17 268.518 68.9 268.998 68.71C269.488 68.51 270.018 68.41 270.588 68.41ZM270.588 74.14C270.818 74.14 271.033 74.1 271.233 74.02C271.443 73.93 271.628 73.81 271.788 73.66C271.948 73.5 272.073 73.31 272.163 73.09C272.253 72.86 272.298 72.605 272.298 72.325C272.298 72.045 272.253 71.795 272.163 71.575C272.073 71.355 271.948 71.165 271.788 71.005C271.628 70.845 271.443 70.725 271.233 70.645C271.033 70.555 270.818 70.51 270.588 70.51C270.358 70.51 270.138 70.555 269.928 70.645C269.728 70.725 269.548 70.845 269.388 71.005C269.228 71.165 269.103 71.355 269.013 71.575C268.923 71.795 268.878 72.045 268.878 72.325C268.878 72.605 268.923 72.86 269.013 73.09C269.103 73.31 269.228 73.5 269.388 73.66C269.548 73.81 269.728 73.93 269.928 74.02C270.138 74.1 270.358 74.14 270.588 74.14ZM280.971 75.07H280.821C280.321 75.85 279.571 76.24 278.571 76.24C277.651 76.24 276.966 75.945 276.516 75.355C276.066 74.765 275.841 73.99 275.841 73.03V68.65H278.091V72.775C278.091 73.175 278.186 73.505 278.376 73.765C278.566 74.015 278.861 74.14 279.261 74.14C279.771 74.14 280.156 73.945 280.416 73.555C280.686 73.165 280.821 72.655 280.821 72.025V68.65H283.071V76H280.971V75.07ZM284.915 68.65H287.015V69.58H287.165C287.365 69.26 287.65 68.99 288.02 68.77C288.39 68.55 288.8 68.44 289.25 68.44C289.52 68.44 289.755 68.475 289.955 68.545C290.155 68.605 290.32 68.675 290.45 68.755L289.865 70.735C289.735 70.665 289.595 70.61 289.445 70.57C289.305 70.53 289.12 70.51 288.89 70.51C288.33 70.51 287.9 70.705 287.6 71.095C287.31 71.485 287.165 71.995 287.165 72.625V76H284.915V68.65Z" fill="#8CC63F"/>
<path d="M185.914 88.421V88.442C184.36 88.442 182.806 88.463 181.252 88.442V88.421H175.897V88.904C176.674 88.904 177.304 89.534 177.304 90.332V99.089C177.304 99.887 176.674 100.517 175.897 100.517V101H182.659V100.622C181.882 100.622 181.273 100.013 181.273 99.257C181.252 97.724 181.252 96.212 181.252 94.7C181.42 94.7 181.63 94.7 181.882 94.7C183.226 94.721 184.318 95.813 184.318 97.178H184.822V91.823H184.318C184.318 93.188 183.205 94.301 181.84 94.301C181.609 94.301 181.42 94.301 181.252 94.301C181.252 93.902 181.252 93.524 181.252 93.125C181.252 92.936 181.273 92.726 181.273 92.537C181.252 92.264 181.273 92.012 181.252 91.76C181.252 91.634 181.252 91.529 181.252 91.424C181.252 90.563 181.273 89.702 181.273 88.841C181.315 88.841 181.357 88.841 181.399 88.841H183.646C185.032 88.841 186.145 89.954 186.145 91.34H186.628V88.421H185.914ZM190.444 89.576C191.326 89.576 192.061 88.862 192.061 87.98C192.061 87.098 191.326 86.384 190.444 86.384C189.562 86.384 188.827 87.098 188.827 87.98C188.827 88.862 189.562 89.576 190.444 89.576ZM192.418 100.202C192.25 100.034 192.187 99.572 192.187 98.858C192.187 98.858 192.187 98.795 192.187 98.669L192.145 96.905V92.936C192.145 91.76 192.145 90.962 192.145 90.962H187.693V91.382C188.071 91.403 188.365 91.445 188.512 91.55C188.68 91.655 188.806 91.823 188.89 92.033C188.932 92.18 188.953 92.558 188.953 93.167L188.974 96.905V98.858C188.974 99.446 188.932 99.824 188.869 99.992C188.785 100.181 188.638 100.328 188.449 100.433C188.239 100.538 187.903 100.58 187.42 100.601V101H193.783V100.601C193.111 100.622 192.649 100.496 192.418 100.202ZM200.497 98.585C200.035 99.341 199.573 99.698 199.069 99.698C198.943 99.698 198.817 99.656 198.67 99.551C198.523 99.446 198.418 99.299 198.376 99.11C198.313 98.984 198.292 98.711 198.292 98.312C198.292 96.065 198.292 93.818 198.292 91.592C198.628 91.592 198.964 91.571 199.3 91.571C199.342 91.571 199.384 91.571 199.426 91.571C199.468 91.571 199.531 91.571 199.573 91.571C199.867 91.571 199.867 91.151 199.531 91.172H198.292C198.292 90.857 198.292 90.542 198.292 90.227V90.164C198.292 89.933 198.292 89.723 198.292 89.513C198.292 89.492 198.292 89.492 198.292 89.492V86.384C196.885 88.232 195.394 89.87 193.819 91.277C193.714 91.382 193.777 91.592 193.987 91.592H195.079C195.079 92.831 195.058 97.115 195.058 97.115C195.058 98.249 195.1 98.942 195.184 99.194C195.31 99.656 195.604 100.076 196.087 100.454C196.549 100.811 197.137 101 197.809 101C199.195 101 200.203 100.286 200.833 98.837L200.497 98.585ZM213.204 100.202C213.036 100.034 212.973 99.572 212.973 98.858C212.973 98.858 212.973 98.795 212.952 98.669C212.952 98.669 212.973 95.141 212.952 94.406C212.952 94.049 212.931 93.713 212.889 93.377C212.784 92.663 212.553 91.739 211.755 91.319C210.999 90.92 210.033 91.088 209.256 91.361C208.101 91.76 207.093 92.432 206.295 93.251C206.295 92.831 206.295 92.39 206.295 91.949C206.295 91.97 206.295 92.012 206.295 92.033C206.295 91.361 206.295 90.962 206.295 90.962H201.843V91.382C202.221 91.403 202.515 91.445 202.662 91.55C202.83 91.655 202.956 91.823 203.04 92.033C203.061 92.138 203.103 92.369 203.103 92.705C203.124 94.742 203.103 96.779 203.103 98.816C203.103 99.068 203.103 99.32 203.103 99.551C203.082 99.761 203.061 99.908 203.019 100.013C202.935 100.181 202.788 100.328 202.599 100.433C202.389 100.538 202.053 100.58 201.57 100.601V101H202.683H206.631H207.933V100.601C207.261 100.622 206.799 100.496 206.568 100.202C206.4 100.034 206.337 99.572 206.337 98.858C206.337 98.858 206.337 98.795 206.337 98.669L206.295 97.22C206.295 96.107 206.295 94.994 206.295 93.881C206.883 93.209 207.597 92.621 208.416 92.18C208.92 91.949 209.739 91.781 209.739 93.188C209.76 94.616 209.76 98.858 209.76 98.858C209.76 99.446 209.718 99.824 209.655 99.992C209.571 100.181 209.424 100.328 209.235 100.433C209.025 100.538 208.689 100.58 208.185 100.601V101H214.548V100.601C213.897 100.622 213.435 100.496 213.204 100.202ZM203.103 99.551C203.103 99.467 203.124 99.362 203.124 99.236C203.124 99.362 203.103 99.467 203.103 99.551ZM223.618 96.317C223.891 93.797 222.4 90.962 219.88 90.962C218.326 90.878 215.176 91.76 215.176 95.876C215.176 100.475 218.095 101.168 219.649 101.063C219.67 101.063 219.67 101.063 219.691 101.063C219.964 101.063 220.237 101.021 220.489 100.958C220.552 100.958 220.615 100.937 220.657 100.916C220.804 100.874 220.951 100.811 221.098 100.748C221.119 100.748 221.119 100.727 221.119 100.727C221.581 100.538 222.001 100.244 222.379 99.929C222.715 99.656 223.051 99.341 223.345 99.026C223.429 98.942 223.492 98.858 223.576 98.795V98.102C223.345 98.459 223.03 98.774 222.694 99.089C222.61 99.173 222.421 99.32 222.19 99.467C222.19 99.467 222.19 99.467 222.169 99.467C221.959 99.614 221.686 99.74 221.434 99.782C220.699 99.971 219.208 99.887 218.536 98.207C218.368 97.787 218.263 97.283 218.2 96.674C218.2 96.548 218.179 96.422 218.179 96.317H223.156H223.618ZM221.686 96.023H218.158C218.116 95.078 218.263 94.301 218.431 93.713C218.536 93.272 218.704 92.873 218.893 92.558C218.914 92.537 218.914 92.516 218.914 92.516C219.187 92.096 219.544 91.802 219.943 91.823C221.749 91.886 221.686 96.002 221.686 96.023ZM232.764 97.472C232.575 96.485 231.819 95.729 231.063 95.015C230.664 94.616 230.265 94.196 229.824 93.839C229.593 93.629 229.362 93.419 229.131 93.209C228.711 92.789 228.165 92.18 228.417 91.634C228.501 91.466 228.669 91.361 228.879 91.34C229.173 91.298 229.467 91.298 229.74 91.34C229.803 91.34 229.866 91.34 229.929 91.361C231.147 91.592 231.294 92.516 231.294 92.516C231.294 92.852 231.63 93.104 232.008 93.083C232.239 93.083 232.428 92.978 232.554 92.831C232.554 92.81 232.575 92.81 232.575 92.789C232.596 92.768 232.596 92.747 232.596 92.747C232.617 92.726 232.617 92.705 232.617 92.705C232.659 92.642 232.659 92.558 232.659 92.495C232.659 92.285 232.533 92.138 232.449 92.054C231.294 91.046 229.551 90.668 227.976 91.13C227.157 91.361 226.422 91.802 225.918 92.411C225.414 92.999 225.246 93.713 225.351 94.448C225.456 95.162 225.834 95.771 226.359 96.338C226.548 96.611 227.808 97.787 228.186 98.144C228.648 98.564 229.131 98.963 229.488 99.446C229.635 99.656 229.782 99.887 229.803 100.118C229.824 100.307 229.719 100.475 229.593 100.559C229.194 100.811 228.543 100.79 228.081 100.706C227.85 100.664 227.619 100.601 227.409 100.517C227.409 100.517 227.325 100.496 227.199 100.433C227.199 100.412 227.199 100.412 227.199 100.412H227.178C227.157 100.412 227.136 100.391 227.115 100.37C225.813 99.677 225.729 98.396 225.729 98.396H225.33V101H225.729C225.729 100.559 226.233 100.307 226.611 100.538C227.136 100.874 227.892 101.168 228.984 101.126C229.005 101.147 229.026 101.147 229.068 101.147C230.139 101.063 231.168 100.643 231.924 99.992C232.281 99.656 232.575 99.257 232.701 98.816C232.848 98.396 232.848 97.913 232.764 97.472ZM241.89 97.472C241.701 96.485 240.945 95.729 240.189 95.015C239.79 94.616 239.391 94.196 238.95 93.839C238.719 93.629 238.488 93.419 238.257 93.209C237.837 92.789 237.291 92.18 237.543 91.634C237.627 91.466 237.795 91.361 238.005 91.34C238.299 91.298 238.593 91.298 238.866 91.34C238.929 91.34 238.992 91.34 239.055 91.361C240.273 91.592 240.42 92.516 240.42 92.516C240.42 92.852 240.756 93.104 241.134 93.083C241.365 93.083 241.554 92.978 241.68 92.831C241.68 92.81 241.701 92.81 241.701 92.789C241.722 92.768 241.722 92.747 241.722 92.747C241.743 92.726 241.743 92.705 241.743 92.705C241.785 92.642 241.785 92.558 241.785 92.495C241.785 92.285 241.659 92.138 241.575 92.054C240.42 91.046 238.677 90.668 237.102 91.13C236.283 91.361 235.548 91.802 235.044 92.411C234.54 92.999 234.372 93.713 234.477 94.448C234.582 95.162 234.96 95.771 235.485 96.338C235.674 96.611 236.934 97.787 237.312 98.144C237.774 98.564 238.257 98.963 238.614 99.446C238.761 99.656 238.908 99.887 238.929 100.118C238.95 100.307 238.845 100.475 238.719 100.559C238.32 100.811 237.669 100.79 237.207 100.706C236.976 100.664 236.745 100.601 236.535 100.517C236.535 100.517 236.451 100.496 236.325 100.433C236.325 100.412 236.325 100.412 236.325 100.412H236.304C236.283 100.412 236.262 100.391 236.241 100.37C234.939 99.677 234.855 98.396 234.855 98.396H234.456V101H234.855C234.855 100.559 235.359 100.307 235.737 100.538C236.262 100.874 237.018 101.168 238.11 101.126C238.131 101.147 238.152 101.147 238.194 101.147C239.265 101.063 240.294 100.643 241.05 99.992C241.407 99.656 241.701 99.257 241.827 98.816C241.974 98.396 241.974 97.913 241.89 97.472ZM251.448 88.4V88.904C252.225 88.904 252.834 89.534 252.834 90.311C252.834 92.306 252.834 95.939 252.834 97.745C252.834 97.871 252.834 97.997 252.834 98.102V98.123C252.834 98.291 252.834 98.459 252.834 98.627C252.834 99.026 252.792 99.551 252.582 99.971C252.456 100.223 252.246 100.412 252.015 100.538C251.784 100.664 251.469 100.727 251.175 100.475C251.007 100.328 250.902 100.097 250.902 99.866C250.902 99.803 250.902 99.761 250.902 99.698C250.923 99.509 250.986 99.32 251.07 99.131C251.133 99.026 251.217 98.858 251.217 98.732C251.217 98.459 251.07 98.207 250.86 98.06C250.272 97.745 249.852 98.081 249.747 98.207C249.726 98.228 249.705 98.249 249.684 98.291C249.348 98.753 249.516 99.425 249.663 99.782C250.062 100.832 251.679 101.105 252.372 101.126C253.044 101.126 253.716 101.063 254.346 100.874C255.501 100.517 256.425 99.677 256.614 98.585C256.761 97.703 256.782 96.821 256.803 95.939C256.824 95.141 256.824 92.222 256.824 90.395C256.824 89.576 257.475 88.904 258.315 88.904V88.4H251.448ZM263.623 90.899C260.998 90.899 258.877 93.167 258.877 95.96C258.877 98.753 260.998 101 263.623 101C266.269 101 268.39 98.753 268.39 95.96C268.39 93.167 266.269 90.899 263.623 90.899ZM264.253 100.58C262.741 100.58 262.09 98.06 262.09 95.96C262.09 93.839 262.783 91.466 264.358 91.466C265.807 91.466 266.647 93.713 266.647 95.834C266.647 97.955 265.87 100.58 264.253 100.58ZM280.565 100.202C280.418 100.013 280.334 99.572 280.334 98.837C280.334 98.837 280.334 98.774 280.334 98.648L280.292 90.962H275.84V91.382C276.239 91.403 276.512 91.466 276.68 91.55C276.848 91.655 276.953 91.823 277.037 92.033C277.1 92.18 277.121 92.558 277.121 93.188L277.142 98.186V97.472C277.142 97.703 277.121 97.934 277.121 98.186C276.575 98.816 275.924 99.383 275.147 99.803C275.147 99.803 275.147 99.803 275.147 99.824C275.042 99.866 274.937 99.929 274.853 99.971C273.971 100.37 273.74 99.614 273.677 99.026C273.677 98.102 273.656 90.962 273.656 90.962H269.225V91.382C269.603 91.403 269.876 91.466 270.044 91.55C270.212 91.655 270.338 91.823 270.401 92.033C270.443 92.138 270.464 92.39 270.485 92.747C270.485 93.65 270.485 94.553 270.464 95.456C270.464 96.191 270.464 96.926 270.464 97.661C270.464 97.997 270.506 98.354 270.548 98.69C270.632 99.383 270.863 100.328 271.661 100.748C272.417 101.126 273.404 100.958 274.16 100.685C275.294 100.307 276.281 99.656 277.079 98.858L277.121 98.816C277.121 98.921 277.142 99.047 277.142 99.173C277.121 99.572 277.079 99.845 277.016 99.992C276.953 100.181 276.806 100.328 276.596 100.433C276.386 100.538 276.05 100.58 275.567 100.601V101H281.93V100.601C281.258 100.622 280.817 100.475 280.565 100.202ZM294.21 100.202C294.042 100.034 293.979 99.572 293.979 98.858C293.979 98.858 293.979 98.795 293.958 98.669C293.958 98.669 293.979 95.141 293.958 94.406C293.958 94.049 293.937 93.713 293.895 93.377C293.79 92.663 293.559 91.739 292.761 91.319C292.005 90.92 291.039 91.088 290.262 91.361C289.107 91.76 288.099 92.432 287.301 93.251C287.301 92.831 287.301 92.39 287.301 91.949C287.301 91.97 287.301 92.012 287.301 92.033C287.301 91.361 287.301 90.962 287.301 90.962H282.849V91.382C283.227 91.403 283.521 91.445 283.668 91.55C283.836 91.655 283.962 91.823 284.046 92.033C284.067 92.138 284.109 92.369 284.109 92.705C284.13 94.742 284.109 96.779 284.109 98.816C284.109 99.068 284.109 99.32 284.109 99.551C284.088 99.761 284.067 99.908 284.025 100.013C283.941 100.181 283.794 100.328 283.605 100.433C283.395 100.538 283.059 100.58 282.576 100.601V101H283.689H287.637H288.939V100.601C288.267 100.622 287.805 100.496 287.574 100.202C287.406 100.034 287.343 99.572 287.343 98.858C287.343 98.858 287.343 98.795 287.343 98.669L287.301 97.22C287.301 96.107 287.301 94.994 287.301 93.881C287.889 93.209 288.603 92.621 289.422 92.18C289.926 91.949 290.745 91.781 290.745 93.188C290.766 94.616 290.766 98.858 290.766 98.858C290.766 99.446 290.724 99.824 290.661 99.992C290.577 100.181 290.43 100.328 290.241 100.433C290.031 100.538 289.695 100.58 289.191 100.601V101H295.554V100.601C294.903 100.622 294.441 100.496 294.21 100.202ZM284.109 99.551C284.109 99.467 284.13 99.362 284.13 99.236C284.13 99.362 284.109 99.467 284.109 99.551ZM307.848 100.202C307.68 100.034 307.617 99.572 307.617 98.858C307.617 98.858 307.617 98.795 307.596 98.669C307.596 98.669 307.617 95.141 307.596 94.406C307.596 94.049 307.575 93.713 307.533 93.377C307.428 92.663 307.197 91.739 306.399 91.319C305.643 90.92 304.677 91.088 303.9 91.361C302.745 91.76 301.737 92.432 300.939 93.251C300.939 92.831 300.939 92.39 300.939 91.949C300.939 91.97 300.939 92.012 300.939 92.033C300.939 91.361 300.939 90.962 300.939 90.962H296.487V91.382C296.865 91.403 297.159 91.445 297.306 91.55C297.474 91.655 297.6 91.823 297.684 92.033C297.705 92.138 297.747 92.369 297.747 92.705C297.768 94.742 297.747 96.779 297.747 98.816C297.747 99.068 297.747 99.32 297.747 99.551C297.726 99.761 297.705 99.908 297.663 100.013C297.579 100.181 297.432 100.328 297.243 100.433C297.033 100.538 296.697 100.58 296.214 100.601V101H297.327H301.275H302.577V100.601C301.905 100.622 301.443 100.496 301.212 100.202C301.044 100.034 300.981 99.572 300.981 98.858C300.981 98.858 300.981 98.795 300.981 98.669L300.939 97.22C300.939 96.107 300.939 94.994 300.939 93.881C301.527 93.209 302.241 92.621 303.06 92.18C303.564 91.949 304.383 91.781 304.383 93.188C304.404 94.616 304.404 98.858 304.404 98.858C304.404 99.446 304.362 99.824 304.299 99.992C304.215 100.181 304.068 100.328 303.879 100.433C303.669 100.538 303.333 100.58 302.829 100.601V101H309.192V100.601C308.541 100.622 308.079 100.496 307.848 100.202ZM297.747 99.551C297.747 99.467 297.768 99.362 297.768 99.236C297.768 99.362 297.747 99.467 297.747 99.551ZM318.261 96.317C318.534 93.797 317.043 90.962 314.523 90.962C312.969 90.878 309.819 91.76 309.819 95.876C309.819 100.475 312.738 101.168 314.292 101.063C314.313 101.063 314.313 101.063 314.334 101.063C314.607 101.063 314.88 101.021 315.132 100.958C315.195 100.958 315.258 100.937 315.3 100.916C315.447 100.874 315.594 100.811 315.741 100.748C315.762 100.748 315.762 100.727 315.762 100.727C316.224 100.538 316.644 100.244 317.022 99.929C317.358 99.656 317.694 99.341 317.988 99.026C318.072 98.942 318.135 98.858 318.219 98.795V98.102C317.988 98.459 317.673 98.774 317.337 99.089C317.253 99.173 317.064 99.32 316.833 99.467C316.833 99.467 316.833 99.467 316.812 99.467C316.602 99.614 316.329 99.74 316.077 99.782C315.342 99.971 313.851 99.887 313.179 98.207C313.011 97.787 312.906 97.283 312.843 96.674C312.843 96.548 312.822 96.422 312.822 96.317H317.799H318.261ZM316.329 96.023H312.801C312.759 95.078 312.906 94.301 313.074 93.713C313.179 93.272 313.347 92.873 313.536 92.558C313.557 92.537 313.557 92.516 313.557 92.516C313.83 92.096 314.187 91.802 314.586 91.823C316.392 91.886 316.329 96.002 316.329 96.023ZM331.228 90.962H328.435V91.319H328.897C329.653 91.319 330.136 92.117 329.779 92.789L329.443 93.419C329.443 93.419 328.687 94.784 328.309 95.477C327.847 96.317 327.385 97.157 326.902 97.997C326.125 96.716 325.306 95.456 324.508 94.175L323.269 92.117C323.269 92.117 323.059 91.802 323.416 91.508C323.773 91.214 324.277 91.319 324.277 91.319V90.962H318.46V91.319C318.46 91.319 318.481 91.298 318.586 91.34C318.586 91.34 318.586 91.34 318.607 91.34C318.649 91.361 318.691 91.403 318.775 91.445C318.796 91.487 318.838 91.508 318.901 91.55C319.195 91.802 319.657 92.306 320.329 93.335L320.35 93.356C320.371 93.398 320.392 93.44 320.434 93.482C320.476 93.545 320.518 93.629 320.56 93.692C320.581 93.692 320.581 93.713 320.581 93.713C320.665 93.86 320.77 94.007 320.875 94.175C321.841 95.708 322.828 97.22 323.836 98.753C324.298 99.446 324.781 100.16 325.264 100.874C324.214 102.596 323.038 104.255 322.345 104.528C321.967 104.654 321.694 104.591 321.505 104.423C321.253 104.213 320.875 104.213 320.644 104.465C320.371 104.78 320.455 105.263 320.833 105.431C321.19 105.599 321.652 105.557 322.135 105.431C323.059 105.116 324.445 102.974 325.726 100.874C325.915 100.622 326.083 100.328 326.23 100.055C326.335 99.887 326.419 99.74 326.503 99.593C327.322 98.186 327.91 97.094 327.91 97.094C328.561 95.939 329.191 94.784 329.821 93.629L330.388 92.537C330.787 91.781 331.564 91.319 332.425 91.319V90.962H331.228Z" fill="#3247B5"/>
<path d="M227.431 131V122.48H224.431V120.26H232.771V122.48H229.771V131H227.431ZM239.047 131.24C238.237 131.24 237.487 131.095 236.797 130.805C236.107 130.515 235.507 130.12 234.997 129.62C234.497 129.11 234.102 128.515 233.812 127.835C233.532 127.155 233.392 126.42 233.392 125.63C233.392 124.84 233.532 124.105 233.812 123.425C234.102 122.745 234.497 122.155 234.997 121.655C235.507 121.145 236.107 120.745 236.797 120.455C237.487 120.165 238.237 120.02 239.047 120.02C239.857 120.02 240.607 120.165 241.297 120.455C241.987 120.745 242.582 121.145 243.082 121.655C243.592 122.155 243.987 122.745 244.267 123.425C244.557 124.105 244.702 124.84 244.702 125.63C244.702 126.42 244.557 127.155 244.267 127.835C243.987 128.515 243.592 129.11 243.082 129.62C242.582 130.12 241.987 130.515 241.297 130.805C240.607 131.095 239.857 131.24 239.047 131.24ZM239.047 129.02C239.507 129.02 239.937 128.94 240.337 128.78C240.747 128.62 241.102 128.39 241.402 128.09C241.702 127.79 241.937 127.435 242.107 127.025C242.277 126.605 242.362 126.14 242.362 125.63C242.362 125.12 242.277 124.66 242.107 124.25C241.937 123.83 241.702 123.47 241.402 123.17C241.102 122.87 240.747 122.64 240.337 122.48C239.937 122.32 239.507 122.24 239.047 122.24C238.577 122.24 238.142 122.32 237.742 122.48C237.342 122.64 236.992 122.87 236.692 123.17C236.392 123.47 236.157 123.83 235.987 124.25C235.817 124.66 235.732 125.12 235.732 125.63C235.732 126.14 235.817 126.605 235.987 127.025C236.157 127.435 236.392 127.79 236.692 128.09C236.992 128.39 237.342 128.62 237.742 128.78C238.142 128.94 238.577 129.02 239.047 129.02ZM246.505 120.26H250.3C251.16 120.26 251.935 120.39 252.625 120.65C253.315 120.91 253.9 121.275 254.38 121.745C254.86 122.215 255.225 122.78 255.475 123.44C255.735 124.1 255.865 124.83 255.865 125.63C255.865 126.43 255.735 127.16 255.475 127.82C255.225 128.48 254.86 129.045 254.38 129.515C253.9 129.985 253.315 130.35 252.625 130.61C251.935 130.87 251.16 131 250.3 131H246.505V120.26ZM250.18 128.78C250.76 128.78 251.26 128.705 251.68 128.555C252.1 128.395 252.445 128.175 252.715 127.895C252.995 127.615 253.2 127.285 253.33 126.905C253.46 126.515 253.525 126.09 253.525 125.63C253.525 125.17 253.46 124.75 253.33 124.37C253.2 123.98 252.995 123.645 252.715 123.365C252.445 123.085 252.1 122.87 251.68 122.72C251.26 122.56 250.76 122.48 250.18 122.48H248.845V128.78H250.18ZM260.339 120.26H263.039L267.059 131H264.479L263.654 128.6H259.724L258.899 131H256.319L260.339 120.26ZM262.904 126.47L262.124 124.22L261.764 122.9H261.614L261.254 124.22L260.474 126.47H262.904ZM270.076 126.005L266.461 120.26H269.281L271.171 123.41H271.321L273.121 120.26H275.971L272.416 126.005V131H270.076V126.005ZM277.279 131.09C276.879 131.09 276.539 130.95 276.259 130.67C275.979 130.39 275.839 130.05 275.839 129.65C275.839 129.25 275.979 128.91 276.259 128.63C276.539 128.35 276.879 128.21 277.279 128.21C277.679 128.21 278.019 128.35 278.299 128.63C278.579 128.91 278.719 129.25 278.719 129.65C278.719 130.05 278.579 130.39 278.299 130.67C278.019 130.95 277.679 131.09 277.279 131.09ZM281.767 131.09C281.367 131.09 281.027 130.95 280.747 130.67C280.467 130.39 280.327 130.05 280.327 129.65C280.327 129.25 280.467 128.91 280.747 128.63C281.027 128.35 281.367 128.21 281.767 128.21C282.167 128.21 282.507 128.35 282.787 128.63C283.067 128.91 283.207 129.25 283.207 129.65C283.207 130.05 283.067 130.39 282.787 130.67C282.507 130.95 282.167 131.09 281.767 131.09ZM280.597 123.2V120.26H282.937V123.2L282.727 127.13H280.807L280.597 123.2Z" fill="#483838"/>
<g clip-path="url(#clip0_61_711)">
<rect x="195" y="146" width="120" height="28" rx="8" fill="#45BC1B"/>
<path d="M212.384 165.192C211.864 165.192 211.392 165.112 210.968 164.952C210.544 164.784 210.184 164.54 209.888 164.22C209.592 163.9 209.364 163.512 209.204 163.056C209.044 162.592 208.964 162.064 208.964 161.472V156.408H210.836V161.592C210.836 162.12 210.968 162.556 211.232 162.9C211.496 163.244 211.88 163.416 212.384 163.416C212.888 163.416 213.272 163.244 213.536 162.9C213.8 162.556 213.932 162.12 213.932 161.592V156.408H215.804V161.472C215.804 162.016 215.724 162.516 215.564 162.972C215.404 163.428 215.176 163.82 214.88 164.148C214.584 164.476 214.224 164.732 213.8 164.916C213.376 165.1 212.904 165.192 212.384 165.192ZM217.469 165V156.408H220.541C220.981 156.408 221.385 156.476 221.753 156.612C222.129 156.748 222.453 156.94 222.725 157.188C222.997 157.428 223.209 157.72 223.361 158.064C223.513 158.408 223.589 158.788 223.589 159.204C223.589 159.62 223.513 160 223.361 160.344C223.209 160.688 222.997 160.984 222.725 161.232C222.453 161.472 222.129 161.66 221.753 161.796C221.385 161.932 220.981 162 220.541 162H219.341V165H217.469ZM220.601 160.224C220.993 160.224 221.285 160.128 221.477 159.936C221.669 159.744 221.765 159.5 221.765 159.204C221.765 158.908 221.669 158.664 221.477 158.472C221.285 158.28 220.993 158.184 220.601 158.184H219.341V160.224H220.601ZM226.703 165V158.184H224.303V156.408H230.975V158.184H228.575V165H226.703ZM235.996 165.192C235.348 165.192 234.748 165.076 234.196 164.844C233.644 164.612 233.164 164.296 232.756 163.896C232.356 163.488 232.04 163.012 231.808 162.468C231.584 161.924 231.472 161.336 231.472 160.704C231.472 160.072 231.584 159.484 231.808 158.94C232.04 158.396 232.356 157.924 232.756 157.524C233.164 157.116 233.644 156.796 234.196 156.564C234.748 156.332 235.348 156.216 235.996 156.216C236.644 156.216 237.244 156.332 237.796 156.564C238.348 156.796 238.824 157.116 239.224 157.524C239.632 157.924 239.948 158.396 240.172 158.94C240.404 159.484 240.52 160.072 240.52 160.704C240.52 161.336 240.404 161.924 240.172 162.468C239.948 163.012 239.632 163.488 239.224 163.896C238.824 164.296 238.348 164.612 237.796 164.844C237.244 165.076 236.644 165.192 235.996 165.192ZM235.996 163.416C236.364 163.416 236.708 163.352 237.028 163.224C237.356 163.096 237.64 162.912 237.88 162.672C238.12 162.432 238.308 162.148 238.444 161.82C238.58 161.484 238.648 161.112 238.648 160.704C238.648 160.296 238.58 159.928 238.444 159.6C238.308 159.264 238.12 158.976 237.88 158.736C237.64 158.496 237.356 158.312 237.028 158.184C236.708 158.056 236.364 157.992 235.996 157.992C235.62 157.992 235.272 158.056 234.952 158.184C234.632 158.312 234.352 158.496 234.112 158.736C233.872 158.976 233.684 159.264 233.548 159.6C233.412 159.928 233.344 160.296 233.344 160.704C233.344 161.112 233.412 161.484 233.548 161.82C233.684 162.148 233.872 162.432 234.112 162.672C234.352 162.912 234.632 163.096 234.952 163.224C235.272 163.352 235.62 163.416 235.996 163.416ZM246.941 163.464H250.025V165H244.457V163.416C244.937 162.944 245.381 162.508 245.789 162.108C245.965 161.94 246.141 161.768 246.317 161.592C246.485 161.416 246.641 161.256 246.785 161.112C246.937 160.96 247.069 160.828 247.181 160.716C247.301 160.596 247.389 160.504 247.445 160.44C247.677 160.184 247.841 159.96 247.937 159.768C248.033 159.568 248.081 159.352 248.081 159.12C248.081 158.888 247.993 158.692 247.817 158.532C247.649 158.364 247.413 158.28 247.109 158.28C246.805 158.28 246.561 158.368 246.377 158.544C246.201 158.712 246.069 158.936 245.981 159.216L244.349 158.544C244.421 158.296 244.533 158.056 244.685 157.824C244.837 157.592 245.029 157.388 245.261 157.212C245.493 157.028 245.765 156.88 246.077 156.768C246.397 156.656 246.749 156.6 247.133 156.6C247.565 156.6 247.953 156.664 248.297 156.792C248.641 156.912 248.929 157.08 249.161 157.296C249.401 157.512 249.585 157.768 249.713 158.064C249.841 158.36 249.905 158.68 249.905 159.024C249.905 159.52 249.789 159.98 249.557 160.404C249.333 160.82 249.017 161.232 248.609 161.64L246.881 163.344L246.941 163.464ZM254.726 165.192C254.182 165.192 253.694 165.084 253.262 164.868C252.83 164.652 252.462 164.352 252.158 163.968C251.854 163.584 251.618 163.132 251.45 162.612C251.29 162.084 251.21 161.512 251.21 160.896C251.21 160.28 251.29 159.712 251.45 159.192C251.618 158.664 251.854 158.208 252.158 157.824C252.462 157.44 252.83 157.14 253.262 156.924C253.694 156.708 254.182 156.6 254.726 156.6C255.262 156.6 255.746 156.708 256.178 156.924C256.618 157.14 256.99 157.44 257.294 157.824C257.598 158.208 257.83 158.664 257.99 159.192C258.158 159.712 258.242 160.28 258.242 160.896C258.242 161.512 258.158 162.084 257.99 162.612C257.83 163.132 257.598 163.584 257.294 163.968C256.99 164.352 256.618 164.652 256.178 164.868C255.746 165.084 255.262 165.192 254.726 165.192ZM254.726 163.512C254.998 163.512 255.238 163.448 255.446 163.32C255.662 163.184 255.842 163 255.986 162.768C256.138 162.536 256.25 162.26 256.322 161.94C256.402 161.62 256.442 161.272 256.442 160.896C256.442 160.52 256.402 160.172 256.322 159.852C256.25 159.532 256.138 159.256 255.986 159.024C255.842 158.792 255.662 158.612 255.446 158.484C255.238 158.348 254.998 158.28 254.726 158.28C254.454 158.28 254.21 158.348 253.994 158.484C253.786 158.612 253.606 158.792 253.454 159.024C253.31 159.256 253.198 159.532 253.118 159.852C253.046 160.172 253.01 160.52 253.01 160.896C253.01 161.272 253.046 161.62 253.118 161.94C253.198 162.26 253.31 162.536 253.454 162.768C253.606 163 253.786 163.184 253.994 163.32C254.21 163.448 254.454 163.512 254.726 163.512ZM260.821 164.508L266.149 156.552L267.229 157.284L261.901 165.24L260.821 164.508ZM261.433 160.704C261.121 160.704 260.833 160.652 260.569 160.548C260.305 160.436 260.077 160.288 259.885 160.104C259.693 159.92 259.545 159.704 259.441 159.456C259.337 159.208 259.285 158.94 259.285 158.652C259.285 158.364 259.337 158.096 259.441 157.848C259.545 157.6 259.693 157.384 259.885 157.2C260.077 157.016 260.305 156.872 260.569 156.768C260.833 156.656 261.121 156.6 261.433 156.6C261.745 156.6 262.033 156.656 262.297 156.768C262.561 156.872 262.789 157.016 262.981 157.2C263.173 157.384 263.321 157.6 263.425 157.848C263.529 158.096 263.581 158.364 263.581 158.652C263.581 158.94 263.529 159.208 263.425 159.456C263.321 159.704 263.173 159.92 262.981 160.104C262.789 160.288 262.561 160.436 262.297 160.548C262.033 160.652 261.745 160.704 261.433 160.704ZM261.433 159.336C261.617 159.336 261.773 159.276 261.901 159.156C262.029 159.036 262.093 158.868 262.093 158.652C262.093 158.436 262.029 158.268 261.901 158.148C261.773 158.028 261.617 157.968 261.433 157.968C261.249 157.968 261.093 158.028 260.965 158.148C260.837 158.268 260.773 158.436 260.773 158.652C260.773 158.868 260.837 159.036 260.965 159.156C261.093 159.276 261.249 159.336 261.433 159.336ZM266.617 165.192C266.305 165.192 266.017 165.136 265.753 165.024C265.489 164.92 265.261 164.776 265.069 164.592C264.877 164.408 264.729 164.192 264.625 163.944C264.521 163.696 264.469 163.428 264.469 163.14C264.469 162.852 264.521 162.584 264.625 162.336C264.729 162.088 264.877 161.872 265.069 161.688C265.261 161.504 265.489 161.36 265.753 161.256C266.017 161.144 266.305 161.088 266.617 161.088C266.929 161.088 267.217 161.144 267.481 161.256C267.745 161.36 267.973 161.504 268.165 161.688C268.357 161.872 268.505 162.088 268.609 162.336C268.713 162.584 268.765 162.852 268.765 163.14C268.765 163.428 268.713 163.696 268.609 163.944C268.505 164.192 268.357 164.408 268.165 164.592C267.973 164.776 267.745 164.92 267.481 165.024C267.217 165.136 266.929 165.192 266.617 165.192ZM266.617 163.824C266.801 163.824 266.957 163.764 267.085 163.644C267.213 163.524 267.277 163.356 267.277 163.14C267.277 162.924 267.213 162.756 267.085 162.636C266.957 162.516 266.801 162.456 266.617 162.456C266.433 162.456 266.277 162.516 266.149 162.636C266.021 162.756 265.957 162.924 265.957 163.14C265.957 163.356 266.021 163.524 266.149 163.644C266.277 163.764 266.433 163.824 266.617 163.824ZM276.78 165.192C276.132 165.192 275.532 165.076 274.98 164.844C274.428 164.612 273.948 164.296 273.54 163.896C273.14 163.488 272.824 163.012 272.592 162.468C272.368 161.924 272.256 161.336 272.256 160.704C272.256 160.072 272.368 159.484 272.592 158.94C272.824 158.396 273.14 157.924 273.54 157.524C273.948 157.116 274.428 156.796 274.98 156.564C275.532 156.332 276.132 156.216 276.78 156.216C277.428 156.216 278.028 156.332 278.58 156.564C279.132 156.796 279.608 157.116 280.008 157.524C280.416 157.924 280.732 158.396 280.956 158.94C281.188 159.484 281.304 160.072 281.304 160.704C281.304 161.336 281.188 161.924 280.956 162.468C280.732 163.012 280.416 163.488 280.008 163.896C279.608 164.296 279.132 164.612 278.58 164.844C278.028 165.076 277.428 165.192 276.78 165.192ZM276.78 163.416C277.148 163.416 277.492 163.352 277.812 163.224C278.14 163.096 278.424 162.912 278.664 162.672C278.904 162.432 279.092 162.148 279.228 161.82C279.364 161.484 279.432 161.112 279.432 160.704C279.432 160.296 279.364 159.928 279.228 159.6C279.092 159.264 278.904 158.976 278.664 158.736C278.424 158.496 278.14 158.312 277.812 158.184C277.492 158.056 277.148 157.992 276.78 157.992C276.404 157.992 276.056 158.056 275.736 158.184C275.416 158.312 275.136 158.496 274.896 158.736C274.656 158.976 274.468 159.264 274.332 159.6C274.196 159.928 274.128 160.296 274.128 160.704C274.128 161.112 274.196 161.484 274.332 161.82C274.468 162.148 274.656 162.432 274.896 162.672C275.136 162.912 275.416 163.096 275.736 163.224C276.056 163.352 276.404 163.416 276.78 163.416ZM282.747 156.408H288.411V158.184H284.619V159.912H288.027V161.688H284.619V165H282.747V156.408ZM289.794 156.408H295.458V158.184H291.666V159.912H295.074V161.688H291.666V165H289.794V156.408ZM298.222 156.408H299.47V157.74L299.59 157.788L300.814 157.356L301.234 158.532L299.986 158.976L299.938 159.096L300.766 160.236L299.77 160.968L298.906 159.78H298.786L297.922 160.968L296.926 160.236L297.754 159.096L297.706 158.976L296.458 158.532L296.878 157.356L298.102 157.788L298.222 157.74V156.408Z" fill="white"/>
</g>
<defs>
<clipPath id="clip0_61_711">
<rect width="120" height="28" fill="white" transform="translate(195 146)"/>
</clipPath>
</defs>
</svg>
