<svg width="376" height="80" viewBox="0 0 376 80" fill="none" xmlns="http://www.w3.org/2000/svg">
<g clip-path="url(#clip0_0_4268)">
<rect width="376" height="80" rx="14" fill="#E8F1FF"/>
<path fill-rule="evenodd" clip-rule="evenodd" d="M333.361 28L318 36.1471L320.741 38.8726L334.079 31.7986L333.361 28Z" fill="#3F6DB4"/>
<path fill-rule="evenodd" clip-rule="evenodd" d="M333.361 28L331.206 29.1427L331.925 32.9405L320.741 38.8726L334.079 31.7986L333.361 28Z" fill="#1F53A4"/>
<path fill-rule="evenodd" clip-rule="evenodd" d="M343.318 49.2169L334.08 31.7983L320.741 38.8727L329.979 56.2909L343.318 49.2169Z" fill="#1F53A4"/>
<path fill-rule="evenodd" clip-rule="evenodd" d="M340.836 50.1733L331.925 32.9403L334.08 31.7983L343.318 49.217L340.836 50.1733Z" fill="#174A99"/>
<path fill-rule="evenodd" clip-rule="evenodd" d="M328.773 45.8957C328.773 43.9674 330.336 42.4048 332.264 42.4048C334.192 42.4048 335.755 43.9674 335.755 45.8957C335.755 47.8236 334.192 49.3867 332.264 49.3867C330.336 49.3867 328.773 47.8236 328.773 45.8957Z" fill="white"/>
<path fill-rule="evenodd" clip-rule="evenodd" d="M333.466 45.8957C333.466 47.3823 332.524 48.7057 331.12 49.1935C332.565 49.6952 334.168 49.1975 335.075 47.9662C335.982 46.7349 335.982 45.0561 335.075 43.8247C334.168 42.5934 332.565 42.0962 331.12 42.5974C332.524 43.0852 333.466 44.4086 333.466 45.8957Z" fill="#E0E0E2"/>
<path fill-rule="evenodd" clip-rule="evenodd" d="M324.691 51.3551C323.361 51.3532 322.285 50.2741 322.287 48.9443L322.329 48.4967C322.735 47.5266 322.856 47.3754 322.991 47.239C323.441 46.7866 324.053 46.5321 324.691 46.5331H338.899C339.621 46.5326 340.333 46.6891 340.988 46.9918L340.995 46.9954C340.955 46.9426 340.916 46.8889 340.878 46.834C340.619 46.4588 340.415 46.0484 340.273 45.6148C339.703 43.8844 340.158 41.9807 341.448 40.6943L346.835 46.0806C347.468 46.7132 348.326 47.0687 349.221 47.0687H375.529V62.605H354.144C352.781 62.6055 351.484 63.1907 350.581 64.2119C349.678 65.2331 348.381 65.8183 347.018 65.8192H325.711C324.379 65.8192 323.3 64.7399 323.3 63.4085C323.3 62.0776 324.379 60.9981 325.711 60.9981H325.992C324.668 60.9923 323.597 59.9206 323.592 58.5971C323.586 57.2738 324.648 56.1932 325.971 56.1761C324.998 56.1726 324.122 55.5846 323.75 54.6851C323.379 53.785 323.584 52.7504 324.272 52.061C324.283 52.0498 324.295 52.0373 324.308 52.027C324.754 51.5953 325.351 51.3541 325.971 51.3551H324.691Z" fill="#FFDAA7"/>
<path fill-rule="evenodd" clip-rule="evenodd" d="M324.292 56.8822C323.696 57.4777 323.456 58.342 323.659 59.1597C323.916 58.0884 324.87 57.3302 325.971 57.3208C325.407 57.3212 324.86 57.1218 324.429 56.7574C324.382 56.7977 324.336 56.8383 324.292 56.8822ZM324.31 61.4529C323.51 62.0248 323.142 63.0272 323.379 63.9808C323.64 62.9037 324.602 62.1446 325.711 62.1428H325.992C325.362 62.1432 324.758 61.8951 324.31 61.4529ZM324.691 52.4997C324.455 52.4997 324.22 52.4648 323.995 52.396C323.602 52.962 323.472 53.6693 323.639 54.3378C323.742 53.9094 323.961 53.5181 324.272 53.2057C324.283 53.1945 324.295 53.182 324.309 53.1717C324.754 52.7399 325.351 52.4988 325.971 52.4997H324.691Z" fill="#FFDAA7"/>
<path fill-rule="evenodd" clip-rule="evenodd" d="M358.981 59.3006C360.337 57.9445 362.542 57.9508 363.905 59.3144C365.269 60.6781 365.275 62.8828 363.919 64.2389C362.563 65.5949 360.359 65.5887 358.995 64.2249C357.631 62.8613 357.625 60.6567 358.981 59.3006Z" fill="#E5303E"/>
<path fill-rule="evenodd" clip-rule="evenodd" d="M367.194 52.2317C368.55 50.8756 370.755 50.8819 372.119 52.2456C373.483 53.6092 373.489 55.8139 372.133 57.1701C370.777 58.526 368.572 58.5198 367.208 57.1561C365.845 55.7924 365.838 53.5878 367.194 52.2317Z" fill="#FDC475"/>
<path fill-rule="evenodd" clip-rule="evenodd" d="M363.714 61.7792C363.721 63.4612 362.516 64.904 360.86 65.1977C361.059 65.2326 361.259 65.2509 361.46 65.2518C362.382 65.2554 363.268 64.8906 363.919 64.2387C364.571 63.5868 364.936 62.7016 364.933 61.7792C364.931 60.7455 364.472 59.7654 363.679 59.1024C362.886 58.4389 361.84 58.1604 360.822 58.3419C362.49 58.6388 363.707 60.0856 363.714 61.7792Z" fill="#B72732"/>
<path fill-rule="evenodd" clip-rule="evenodd" d="M364.13 59.7086C364.126 58.0436 365.3 56.6084 366.933 56.2834C368.567 55.9578 370.201 56.8333 370.836 58.3726C371.471 59.912 370.927 61.6853 369.54 62.6054H365.664C364.703 61.9548 364.128 60.8693 364.13 59.7086Z" fill="#FDC475"/>
<path fill-rule="evenodd" clip-rule="evenodd" d="M362.985 59.7072C362.985 57.7789 364.539 56.2158 366.457 56.2158C368.374 56.2158 369.929 57.7789 369.929 59.7072C369.929 61.6361 368.374 63.1991 366.457 63.1991C364.539 63.1991 362.985 61.6361 362.985 59.7072Z" fill="#EF542A"/>
<path fill-rule="evenodd" clip-rule="evenodd" d="M368.711 59.7074C368.714 61.3952 367.508 62.843 365.848 63.1447C367.222 63.3907 368.61 62.7947 369.378 61.6286C370.147 60.4631 370.147 58.9518 369.378 57.7862C368.61 56.6206 367.222 56.0246 365.848 56.2706C367.508 56.5718 368.714 58.0201 368.711 59.7074Z" fill="#ED2D24"/>
<path fill-rule="evenodd" clip-rule="evenodd" d="M352.94 59.6797C352.94 57.7621 354.504 56.2075 356.432 56.2075C358.36 56.2075 359.924 57.7621 359.924 59.6797C359.924 61.5973 358.36 63.1519 356.432 63.1519C354.504 63.1519 352.94 61.5973 352.94 59.6797Z" fill="#EF542A"/>
<path fill-rule="evenodd" clip-rule="evenodd" d="M351.873 52.1927C353.229 50.8366 355.434 50.8429 356.797 52.2065C358.161 53.5698 358.167 55.7749 356.811 57.1305C355.455 58.4866 353.25 58.4808 351.886 57.117C350.523 55.7534 350.517 53.5488 351.873 52.1927Z" fill="#E5303E"/>
<path fill-rule="evenodd" clip-rule="evenodd" d="M352.913 49.6548C352.913 47.7372 354.476 46.1826 356.404 46.1826C358.333 46.1826 359.896 47.7372 359.896 49.6548C359.896 51.5729 358.333 53.1275 356.404 53.1275C354.476 53.1275 352.913 51.5729 352.913 49.6548Z" fill="#EF542A"/>
<path fill-rule="evenodd" clip-rule="evenodd" d="M358.942 45.1238C360.298 43.7679 362.502 43.774 363.866 45.1373C365.23 46.501 365.235 48.706 363.879 50.0617C362.523 51.4178 360.319 51.4119 358.955 50.0483C357.592 48.6846 357.586 46.4799 358.942 45.1238Z" fill="#E5303E"/>
<path fill-rule="evenodd" clip-rule="evenodd" d="M363.675 47.6027C363.681 49.2842 362.476 50.7271 360.82 51.0208C361.018 51.0562 361.219 51.074 361.421 51.0749C362.342 51.0785 363.228 50.7141 363.879 50.0617C364.532 49.4099 364.896 48.5247 364.893 47.6027C364.891 46.5689 364.432 45.5885 363.639 44.9254C362.846 44.262 361.8 43.9839 360.782 44.165C362.45 44.4619 363.668 45.9086 363.675 47.6027Z" fill="#B72732"/>
<path fill-rule="evenodd" clip-rule="evenodd" d="M364.081 49.6831C364.08 48.6789 364.517 47.7243 365.277 47.0688H369.869C371.084 48.1285 371.415 49.8825 370.671 51.3123C369.927 52.7422 368.3 53.4768 366.735 53.09C365.17 52.7028 364.074 51.2949 364.081 49.6831Z" fill="#FDC475"/>
<path fill-rule="evenodd" clip-rule="evenodd" d="M366.05 52.2317C367.406 50.8756 369.611 50.8819 370.974 52.2456C372.338 53.6092 372.344 55.8139 370.988 57.1701C369.632 58.526 367.427 58.5198 366.064 57.1561C364.7 55.7924 364.694 53.5878 366.05 52.2317Z" fill="#E5303E"/>
<path fill-rule="evenodd" clip-rule="evenodd" d="M370.783 54.7108C370.79 56.3928 369.585 57.8357 367.929 58.1294C368.127 58.1643 368.328 58.1826 368.529 58.1835C369.451 58.187 370.336 57.8223 370.988 57.1704C371.64 56.5185 372.005 55.6333 372.001 54.7108C371.999 53.6772 371.541 52.6971 370.748 52.0336C369.954 51.3705 368.909 51.092 367.891 51.2736C369.559 51.5705 370.776 53.0172 370.783 54.7108Z" fill="#B72732"/>
<path fill-rule="evenodd" clip-rule="evenodd" d="M362.937 49.683C362.937 47.7654 364.501 46.2109 366.429 46.2109C368.357 46.2109 369.921 47.7654 369.921 49.683C369.921 51.6006 368.357 53.1552 366.429 53.1552C364.501 53.1552 362.937 51.6006 362.937 49.683Z" fill="#EF542A"/>
<path fill-rule="evenodd" clip-rule="evenodd" d="M355.115 56.4637C355.844 58.5172 357.726 59.939 359.9 60.0795C360.044 58.854 359.528 57.6441 358.543 56.9005C357.559 56.1565 356.254 55.9907 355.115 56.4637ZM369.059 50.5441C369.06 51.2524 368.842 51.9436 368.436 52.5234C369.578 51.7227 370.133 50.3175 369.846 48.9524C369.558 47.587 368.484 46.5251 367.115 46.2529C365.747 45.9811 364.348 46.5519 363.56 47.7038C364.625 46.9584 366.014 46.8654 367.168 47.4619C368.323 48.0578 369.051 49.2453 369.059 50.5441Z" fill="#ED2D24"/>
<path fill-rule="evenodd" clip-rule="evenodd" d="M357.824 54.6715C357.818 53.3186 357.036 52.0891 355.812 51.5132C354.461 53.4005 354.467 55.939 355.825 57.8205C357.049 57.2508 357.829 56.0213 357.824 54.6715Z" fill="#B72732"/>
<path fill-rule="evenodd" clip-rule="evenodd" d="M359.875 49.2812C357.703 49.4028 355.818 50.823 355.103 52.8773C356.237 53.3316 357.526 53.1599 358.502 52.4244C359.478 51.6893 359.999 50.4974 359.875 49.2812Z" fill="#ED2D24"/>
<path fill-rule="evenodd" clip-rule="evenodd" d="M358.528 49.5312C359.177 50.4933 360.26 51.0714 361.421 51.075C362.165 51.0786 362.891 50.8407 363.49 50.3976C362.079 49.3107 360.224 48.987 358.528 49.5312Z" fill="#B72732"/>
<path fill-rule="evenodd" clip-rule="evenodd" d="M357.595 50.8453C359.701 48.7386 363.126 48.748 365.245 50.8667C367.363 52.9851 367.373 56.4104 365.266 58.5171C363.16 60.6239 359.734 60.6141 357.616 58.4957C355.497 56.3773 355.488 52.9521 357.595 50.8453Z" fill="#F7991D"/>
<path fill-rule="evenodd" clip-rule="evenodd" d="M365.622 54.6963C365.633 57.4393 363.576 59.7494 360.85 60.0557C361.048 60.0785 361.247 60.0901 361.446 60.091C362.878 60.0964 364.254 59.5299 365.267 58.5172C366.279 57.5041 366.846 56.1289 366.84 54.6963C366.838 53.1499 366.177 51.6775 365.023 50.6483C363.868 49.6195 362.329 49.1312 360.793 49.3065C363.536 49.6199 365.611 51.9355 365.622 54.6963Z" fill="#E37626"/>
<path fill-rule="evenodd" clip-rule="evenodd" d="M361.418 53.3264C360.917 53.3193 360.516 52.9101 360.517 52.4093C360.52 51.9086 360.924 51.5026 361.425 51.4995H361.429C361.671 51.4995 361.903 51.5961 362.073 51.7673C362.244 51.939 362.338 52.171 362.337 52.413C362.334 52.9186 361.923 53.3268 361.418 53.3264ZM363.698 55.5909C363.195 55.5909 362.786 55.1832 362.785 54.6793C362.784 54.1754 363.191 53.7659 363.694 53.7641C364.198 53.7619 364.609 54.1679 364.612 54.6717V54.6833C364.612 54.9252 364.515 55.1568 364.344 55.3271C364.172 55.4975 363.94 55.5923 363.698 55.5909ZM359.162 55.5945C358.677 55.5923 358.277 55.2123 358.251 54.7271C358.249 54.7097 358.249 54.6919 358.249 54.6743C358.249 54.17 358.658 53.761 359.162 53.761C359.666 53.761 360.074 54.1679 360.076 54.6708V54.686C360.076 54.9279 359.979 55.1595 359.808 55.3303C359.637 55.5006 359.404 55.5958 359.162 55.5945ZM361.428 57.8631L361.427 56.9497V57.8631C360.922 57.8631 360.513 57.4541 360.513 56.9497C360.513 56.4449 360.922 56.0363 361.427 56.0363H361.448C361.949 56.0434 362.35 56.4521 362.348 56.9529C362.346 57.4536 361.942 57.8595 361.441 57.8631H361.435H361.428Z" fill="white"/>
<mask id="mask0_0_4268" style="mask-type:luminance" maskUnits="userSpaceOnUse" x="322" y="46" width="22" height="20">
<path fill-rule="evenodd" clip-rule="evenodd" d="M322.287 46.5332H343.433V65.9338H322.287V46.5332Z" fill="white"/>
</mask>
<g mask="url(#mask0_0_4268)">
<path fill-rule="evenodd" clip-rule="evenodd" d="M325.731 65.8555C324.401 65.8537 323.325 64.7745 323.327 63.4452L323.37 62.9976C323.491 62.9503 323.619 62.9256 323.75 62.9256C323.78 62.9256 323.81 62.9279 323.842 62.9301C324.312 62.9744 324.696 63.3245 324.783 63.7885C324.854 64.1605 325.179 64.4297 325.558 64.4297H331.652C332.067 64.4297 332.404 64.7663 332.404 65.1817C332.404 65.3829 332.324 65.5757 332.18 65.7174C332.037 65.8586 331.843 65.9364 331.641 65.9338C330.039 65.9097 326.51 65.8555 327.012 65.8555H325.731ZM325.954 61.0957C324.671 61.0957 323.631 60.0163 323.631 58.6853L323.671 58.2378C323.788 58.1904 323.913 58.1658 324.039 58.1658C324.069 58.1658 324.097 58.1681 324.128 58.1702C324.589 58.2208 324.961 58.5713 325.038 59.0287C325.1 59.3954 325.415 59.665 325.787 59.6699H331.677C332.085 59.6766 332.411 60.0132 332.404 60.4219C332.408 60.6195 332.332 60.8109 332.193 60.9523C332.054 61.0935 331.865 61.1735 331.667 61.1735C330.118 61.1498 326.707 61.0957 327.192 61.0957H325.954ZM325.954 56.2254C324.671 56.2254 323.631 55.1462 323.631 53.8151L323.671 53.3676C323.788 53.3198 323.913 53.2956 324.039 53.2951C324.069 53.2951 324.097 53.2978 324.128 53.3001C324.589 53.3505 324.961 53.7011 325.038 54.1585C325.1 54.5247 325.415 54.7947 325.787 54.7991H331.677C332.085 54.8063 332.411 55.143 332.404 55.5512C332.408 55.7492 332.332 55.9402 332.193 56.0818C332.054 56.2232 331.865 56.3028 331.667 56.3032C330.118 56.2791 326.707 56.2254 327.192 56.2254H325.954ZM324.966 51.3551C323.486 51.3551 322.287 50.2759 322.287 48.9444L322.334 48.4968C322.47 48.449 322.613 48.4248 322.758 48.4248C322.792 48.4248 322.825 48.427 322.861 48.4293C323.38 48.4704 323.813 48.8232 323.91 49.2877C324.012 49.6771 324.371 49.9436 324.773 49.9289H331.566C332.029 49.9289 332.404 50.2656 332.404 50.6809C332.404 51.1008 332.022 51.4392 331.554 51.433C329.768 51.4088 325.835 51.3551 326.394 51.3551H324.966ZM338.899 46.5332C339.621 46.5327 340.333 46.6892 340.988 46.9918L343.274 50.2906C343.453 50.5428 343.483 50.8718 343.353 51.1521C343.222 51.4325 342.95 51.6203 342.641 51.6444C342.333 51.6686 342.036 51.5246 341.862 51.268L338.581 46.5332H338.899Z" fill="#FDC475"/>
</g>
<path d="M130.44 33.68H136.04C136.653 33.68 137.227 33.78 137.76 33.98C138.293 34.1667 138.753 34.4333 139.14 34.78C139.54 35.1133 139.853 35.5067 140.08 35.96C140.307 36.4133 140.42 36.9 140.42 37.42C140.42 38.18 140.233 38.82 139.86 39.34C139.5 39.8467 139.047 40.2333 138.5 40.5V40.66C139.233 40.9267 139.82 41.3467 140.26 41.92C140.713 42.48 140.94 43.18 140.94 44.02C140.94 44.6333 140.813 45.1867 140.56 45.68C140.32 46.16 139.987 46.5733 139.56 46.92C139.133 47.2667 138.633 47.5333 138.06 47.72C137.5 47.9067 136.893 48 136.24 48H130.44V33.68ZM135.84 39.52C136.467 39.52 136.947 39.3533 137.28 39.02C137.627 38.6733 137.8 38.2667 137.8 37.8C137.8 37.3333 137.633 36.9333 137.3 36.6C136.967 36.2667 136.507 36.1 135.92 36.1H133.14V39.52H135.84ZM136.14 45.52C136.82 45.52 137.34 45.3533 137.7 45.02C138.06 44.6733 138.24 44.2333 138.24 43.7C138.24 43.1667 138.053 42.7267 137.68 42.38C137.32 42.02 136.78 41.84 136.06 41.84H133.14V45.52H136.14ZM149.7 46.72H149.54C149.234 47.2133 148.82 47.6067 148.3 47.9C147.78 48.18 147.187 48.32 146.52 48.32C145.28 48.32 144.354 47.94 143.74 47.18C143.14 46.42 142.84 45.4067 142.84 44.14V38.2H145.46V43.82C145.46 44.5267 145.614 45.0533 145.92 45.4C146.24 45.7333 146.7 45.9 147.3 45.9C147.66 45.9 147.974 45.8267 148.24 45.68C148.52 45.52 148.754 45.3133 148.94 45.06C149.14 44.7933 149.287 44.4867 149.38 44.14C149.487 43.78 149.54 43.4 149.54 43V38.2H152.16V48H149.7V46.72ZM157.707 47.52L153.587 38.2H156.567L159.047 44.14H159.187L161.567 38.2H164.487L158.347 52.32H155.527L157.707 47.52ZM177.25 40.14H184.27C184.31 40.3 184.343 40.4933 184.37 40.72C184.397 40.9467 184.41 41.1733 184.41 41.4C184.41 42.32 184.27 43.1867 183.99 44C183.71 44.8133 183.27 45.54 182.67 46.18C182.03 46.86 181.263 47.3867 180.37 47.76C179.477 48.1333 178.457 48.32 177.31 48.32C176.27 48.32 175.29 48.1333 174.37 47.76C173.45 47.3867 172.65 46.8667 171.97 46.2C171.29 45.5333 170.75 44.7467 170.35 43.84C169.95 42.92 169.75 41.92 169.75 40.84C169.75 39.76 169.95 38.7667 170.35 37.86C170.75 36.94 171.29 36.1467 171.97 35.48C172.65 34.8133 173.45 34.2933 174.37 33.92C175.29 33.5467 176.27 33.36 177.31 33.36C178.47 33.36 179.503 33.56 180.41 33.96C181.33 34.36 182.117 34.9133 182.77 35.62L180.91 37.44C180.443 36.9467 179.923 36.5733 179.35 36.32C178.777 36.0533 178.09 35.92 177.29 35.92C176.637 35.92 176.017 36.04 175.43 36.28C174.843 36.5067 174.33 36.8333 173.89 37.26C173.45 37.6867 173.097 38.2067 172.83 38.82C172.577 39.42 172.45 40.0933 172.45 40.84C172.45 41.5867 172.577 42.2667 172.83 42.88C173.097 43.48 173.45 43.9933 173.89 44.42C174.343 44.8467 174.863 45.18 175.45 45.42C176.037 45.6467 176.663 45.76 177.33 45.76C178.09 45.76 178.73 45.6533 179.25 45.44C179.783 45.2133 180.237 44.9267 180.61 44.58C180.877 44.34 181.103 44.04 181.29 43.68C181.49 43.3067 181.643 42.8933 181.75 42.44H177.25V40.14ZM188.004 36.78C187.777 36.78 187.557 36.74 187.344 36.66C187.144 36.5667 186.964 36.4467 186.804 36.3C186.657 36.14 186.537 35.96 186.444 35.76C186.364 35.56 186.324 35.34 186.324 35.1C186.324 34.86 186.364 34.64 186.444 34.44C186.537 34.24 186.657 34.0667 186.804 33.92C186.964 33.76 187.144 33.64 187.344 33.56C187.557 33.4667 187.777 33.42 188.004 33.42C188.47 33.42 188.87 33.5867 189.204 33.92C189.537 34.24 189.704 34.6333 189.704 35.1C189.704 35.5667 189.537 35.9667 189.204 36.3C188.87 36.62 188.47 36.78 188.004 36.78ZM186.704 48V38.2H189.324V48H186.704ZM199.382 40.44H195.682V48H193.062V40.44H191.302V38.2H193.062V37.24C193.062 36.64 193.148 36.1133 193.322 35.66C193.508 35.1933 193.768 34.8067 194.102 34.5C194.435 34.18 194.828 33.94 195.282 33.78C195.735 33.6067 196.235 33.52 196.782 33.52C197.048 33.52 197.262 33.5333 197.422 33.56C197.582 33.5867 197.735 33.6267 197.882 33.68L197.722 36.14C197.628 36.1 197.522 36.0667 197.402 36.04C197.282 36.0133 197.128 36 196.942 36C196.555 36 196.248 36.1267 196.022 36.38C195.795 36.6333 195.682 36.98 195.682 37.42V38.2H199.382V35.2H202.002V38.2H204.402V40.44H202.002V44.24C202.002 44.4667 202.022 44.68 202.062 44.88C202.115 45.0667 202.208 45.2267 202.342 45.36C202.528 45.5733 202.795 45.68 203.142 45.68C203.368 45.68 203.548 45.66 203.682 45.62C203.815 45.5667 203.942 45.5 204.062 45.42L204.802 47.72C204.495 47.8667 204.162 47.9733 203.802 48.04C203.455 48.12 203.068 48.16 202.642 48.16C202.148 48.16 201.702 48.0867 201.302 47.94C200.915 47.78 200.588 47.5667 200.322 47.3C199.695 46.7 199.382 45.8467 199.382 44.74V40.44ZM223.605 45.7C222.898 46.5533 222.065 47.2067 221.105 47.66C220.145 48.1 219.072 48.32 217.885 48.32C216.818 48.32 215.825 48.1267 214.905 47.74C213.998 47.3533 213.212 46.8267 212.545 46.16C211.878 45.4933 211.352 44.7067 210.965 43.8C210.578 42.88 210.385 41.8933 210.385 40.84C210.385 39.7867 210.578 38.8067 210.965 37.9C211.352 36.98 211.878 36.1867 212.545 35.52C213.212 34.8533 213.998 34.3267 214.905 33.94C215.825 33.5533 216.818 33.36 217.885 33.36C219.032 33.36 220.038 33.56 220.905 33.96C221.785 34.36 222.565 34.94 223.245 35.7L221.345 37.54C220.918 37.0467 220.425 36.6533 219.865 36.36C219.318 36.0667 218.665 35.92 217.905 35.92C217.238 35.92 216.612 36.04 216.025 36.28C215.438 36.5067 214.925 36.8333 214.485 37.26C214.058 37.6867 213.718 38.2067 213.465 38.82C213.212 39.42 213.085 40.0933 213.085 40.84C213.085 41.5867 213.212 42.2667 213.465 42.88C213.718 43.48 214.058 43.9933 214.485 44.42C214.925 44.8467 215.438 45.18 216.025 45.42C216.612 45.6467 217.238 45.76 217.905 45.76C218.705 45.76 219.412 45.6 220.025 45.28C220.652 44.9467 221.205 44.48 221.685 43.88L223.605 45.7ZM231.324 46.96H231.164C230.857 47.3333 230.484 47.6533 230.044 47.92C229.617 48.1867 229.064 48.32 228.384 48.32C227.877 48.32 227.397 48.2333 226.944 48.06C226.504 47.9 226.117 47.6733 225.784 47.38C225.451 47.0867 225.191 46.7333 225.004 46.32C224.817 45.9067 224.724 45.4533 224.724 44.96C224.724 44.4533 224.824 44 225.024 43.6C225.224 43.1867 225.504 42.8333 225.864 42.54C226.224 42.2467 226.644 42.0267 227.124 41.88C227.617 41.72 228.151 41.64 228.724 41.64C229.364 41.64 229.891 41.6933 230.304 41.8C230.717 41.8933 231.057 41.9933 231.324 42.1V41.8C231.324 41.28 231.117 40.8533 230.704 40.52C230.291 40.1733 229.777 40 229.164 40C228.257 40 227.491 40.38 226.864 41.14L224.964 39.84C226.004 38.5333 227.424 37.88 229.224 37.88C230.744 37.88 231.904 38.24 232.704 38.96C233.504 39.6667 233.904 40.72 233.904 42.12V48H231.324V46.96ZM231.324 44.02C231.017 43.8733 230.697 43.76 230.364 43.68C230.044 43.5867 229.691 43.54 229.304 43.54C228.677 43.54 228.191 43.68 227.844 43.96C227.511 44.2267 227.344 44.56 227.344 44.96C227.344 45.36 227.504 45.68 227.824 45.92C228.157 46.16 228.537 46.28 228.964 46.28C229.311 46.28 229.631 46.22 229.924 46.1C230.217 45.9667 230.464 45.8 230.664 45.6C230.877 45.3867 231.037 45.1467 231.144 44.88C231.264 44.6 231.324 44.3133 231.324 44.02ZM236.209 38.2H238.669V39.56H238.829C238.949 39.32 239.109 39.1 239.309 38.9C239.509 38.7 239.729 38.5267 239.969 38.38C240.223 38.2333 240.489 38.12 240.769 38.04C241.063 37.96 241.349 37.92 241.629 37.92C241.976 37.92 242.269 37.9533 242.509 38.02C242.763 38.0867 242.976 38.1733 243.149 38.28L242.449 40.66C242.289 40.58 242.109 40.52 241.909 40.48C241.723 40.4267 241.489 40.4 241.209 40.4C240.849 40.4 240.523 40.4733 240.229 40.62C239.936 40.7533 239.683 40.9467 239.469 41.2C239.269 41.4533 239.109 41.7533 238.989 42.1C238.883 42.4333 238.829 42.8 238.829 43.2V48H236.209V38.2ZM251.271 46.82H251.111C250.871 47.2333 250.497 47.5867 249.991 47.88C249.484 48.1733 248.857 48.32 248.111 48.32C247.484 48.32 246.884 48.1933 246.311 47.94C245.751 47.6733 245.251 47.3133 244.811 46.86C244.384 46.3933 244.044 45.84 243.791 45.2C243.537 44.56 243.411 43.86 243.411 43.1C243.411 42.34 243.537 41.64 243.791 41C244.044 40.36 244.384 39.8133 244.811 39.36C245.251 38.8933 245.751 38.5333 246.311 38.28C246.884 38.0133 247.484 37.88 248.111 37.88C248.857 37.88 249.484 38.0267 249.991 38.32C250.497 38.6133 250.871 38.9667 251.111 39.38H251.271L251.111 37.98V33.68H253.731V48H251.271V46.82ZM248.651 45.9C248.997 45.9 249.324 45.84 249.631 45.72C249.951 45.5867 250.231 45.4 250.471 45.16C250.711 44.92 250.904 44.6267 251.051 44.28C251.197 43.9333 251.271 43.54 251.271 43.1C251.271 42.66 251.197 42.2667 251.051 41.92C250.904 41.5733 250.711 41.28 250.471 41.04C250.231 40.8 249.951 40.62 249.631 40.5C249.324 40.3667 248.997 40.3 248.651 40.3C248.304 40.3 247.971 40.3667 247.651 40.5C247.344 40.6333 247.071 40.82 246.831 41.06C246.591 41.3 246.397 41.5933 246.251 41.94C246.104 42.2867 246.031 42.6733 246.031 43.1C246.031 43.5267 246.104 43.9133 246.251 44.26C246.397 44.6067 246.591 44.9 246.831 45.14C247.071 45.38 247.344 45.5667 247.651 45.7C247.971 45.8333 248.304 45.9 248.651 45.9Z" fill="black"/>
<path fill-rule="evenodd" clip-rule="evenodd" d="M40.1723 42.2334H83.6206C85.3419 42.2334 86.724 43.5679 86.724 45.2231V76.4851C86.724 78.1403 85.3419 79.4748 83.6206 79.4748H40.1723C38.4509 79.4748 37.0688 78.1403 37.0688 76.4851V45.2231C37.0688 43.5679 38.4509 42.2334 40.1723 42.2334Z" fill="#FD0437"/>
<mask id="mask1_0_4268" style="mask-type:luminance" maskUnits="userSpaceOnUse" x="38" y="42" width="49" height="38">
<path fill-rule="evenodd" clip-rule="evenodd" d="M38.854 42.2339H86.7237V79.4746H38.854V42.2339Z" fill="white"/>
</mask>
<g mask="url(#mask1_0_4268)">
<path fill-rule="evenodd" clip-rule="evenodd" d="M38.854 79.1835C39.2595 79.3615 39.6961 79.4753 40.1719 79.4753H41.2064C40.414 79.467 39.6216 79.3698 38.854 79.1835ZM82.5857 42.2339V69.1304C82.5857 74.8594 77.9719 79.4753 72.2409 79.4753H83.6202C85.3416 79.4753 86.7237 78.1408 86.7237 76.4918V45.2215C86.7237 43.5684 85.3416 42.2339 83.6202 42.2339H82.5857Z" fill="#D60724"/>
</g>
<path fill-rule="evenodd" clip-rule="evenodd" d="M83.6529 61.2583L82.1984 60.3542L80.7356 61.2583L81.1556 59.5928L79.8377 58.4942L81.5508 58.3721L82.1901 56.7811L82.8356 58.3721L84.5508 58.4859L83.2329 59.5928L83.6529 61.2583ZM83.6529 52.2956L82.1984 51.3831L80.7356 52.2956L81.1556 50.63L79.8377 49.5231L81.5508 49.4031L82.1901 47.81L82.8356 49.4031L84.5508 49.5231L83.2329 50.6218L83.6529 52.2956ZM77.7377 64.6038L76.7591 63.9976L75.797 64.6121L76.0722 63.4969L75.1908 62.7624L76.3391 62.6797L76.7591 61.6224L77.1956 62.6797L78.3356 62.7624L77.4543 63.4969L77.7377 64.6038ZM77.7377 73.2024L76.7591 72.59L75.797 73.2024L76.0722 72.0873L75.1908 71.3528L76.3391 71.2721L76.7591 70.2128L77.1956 71.2721L78.3356 71.3528L77.4543 72.0873L77.7377 73.2024ZM71.6839 78.4245L70.2294 77.5183L68.775 78.4328L69.1867 76.759L67.877 75.6604L69.5901 75.5383L70.2294 73.9473L70.875 75.5383L72.5881 75.6604L71.2722 76.759L71.6839 78.4245ZM71.6839 69.4618L70.2294 68.5555L68.775 69.4618L69.1867 67.7962L67.877 66.6976L69.5901 66.5756L70.2294 64.9845L70.875 66.5756L72.5881 66.6893L71.2722 67.7962L71.6839 69.4618ZM71.6839 61.2418L70.2294 60.3376L68.775 61.2418L69.1867 59.5783L67.877 58.4776L69.5901 58.3576L70.2294 56.7645L70.875 58.3576L72.5881 58.4776L71.2722 59.5783L71.6839 61.2418ZM71.6839 52.279L70.2294 51.3666L68.775 52.279L69.1867 50.6135L67.877 49.5149L69.5901 49.3949L70.2294 47.8018L70.875 49.3949L72.5881 49.5066L71.2722 50.6135L71.6839 52.279ZM77.7377 56.0135L76.7591 55.4073L75.797 56.0135L76.0722 54.9066L75.1908 54.17L76.3391 54.0893L76.7591 53.03L77.1956 54.0893L78.3356 54.17L77.4543 54.9066L77.7377 56.0135ZM64.2894 64.6038L63.3108 63.9976L62.3405 64.6121L62.6239 63.4969L61.7446 62.7624L62.8825 62.6797L63.3108 61.6224L63.7391 62.6797L64.8874 62.7624L64.006 63.4969L64.2894 64.6038ZM64.2894 73.2024L63.3108 72.59L62.3405 73.2024L62.6239 72.0873L61.7446 71.3528L62.8825 71.2721L63.3108 70.2128L63.7391 71.2721L64.8874 71.3528L64.006 72.0873L64.2894 73.2024ZM56.7501 78.4245L55.2874 77.5183L53.8308 78.4328L54.2529 76.759L52.9329 75.6604L54.646 75.5383L55.2874 73.9473L55.9225 75.5383L57.6439 75.6604L56.3281 76.759L56.7501 78.4245ZM56.7501 69.4618L55.2874 68.5555L53.8308 69.4618L54.2529 67.7962L52.9329 66.6976L54.646 66.5756L55.2874 64.9845L55.9225 66.5756L57.6439 66.6893L56.3281 67.7962L56.7501 69.4618ZM56.7501 61.2418L55.2874 60.3376L53.8308 61.2418L54.2529 59.5783L52.9329 58.4776L54.646 58.3576L55.2874 56.7645L55.9225 58.3576L57.6439 58.4776L56.3281 59.5783L56.7501 61.2418ZM56.7501 52.279L55.2874 51.3666L53.8308 52.279L54.2529 50.6135L52.9329 49.5149L54.646 49.3949L55.2874 47.8018L55.9225 49.3949L57.6439 49.5066L56.3281 50.6135L56.7501 52.279ZM64.2894 56.0135L63.3108 55.4073L62.3405 56.0135L62.6239 54.9066L61.7446 54.17L62.8825 54.0893L63.3108 53.03L63.7391 54.0893L64.8874 54.17L64.006 54.9066L64.2894 56.0135ZM50.8391 64.6038L49.8708 63.9976L48.8922 64.6121L49.1756 63.4969L48.2963 62.7624L49.4405 62.6797L49.8625 61.6224L50.2991 62.6797L51.437 62.7624L50.5577 63.4969L50.8391 64.6038ZM50.8391 73.2024L49.8708 72.59L48.8922 73.2024L49.1756 72.0873L48.2963 71.3528L49.4405 71.2721L49.8625 70.2128L50.2991 71.2721L51.437 71.3528L50.5577 72.0873L50.8391 73.2024ZM44.7853 78.4245L43.3308 77.5183L41.8763 78.4328L42.2881 76.759L40.9805 75.6604L42.6956 75.5383L43.3308 73.9473L43.9784 75.5383L45.6915 75.6604L44.3736 76.759L44.7853 78.4245ZM44.7853 69.4618L43.3308 68.5555L41.8763 69.4618L42.2881 67.7962L40.9805 66.6976L42.6956 66.5756L43.3308 64.9845L43.9784 66.5756L45.6915 66.6893L44.3736 67.7962L44.7853 69.4618ZM44.7853 61.2418L43.3308 60.3376L41.8763 61.2418L42.2881 59.5783L40.9805 58.4776L42.6956 58.3576L43.3308 56.7645L43.9784 58.3576L45.6915 58.4776L44.3736 59.5783L44.7853 61.2418ZM44.7853 52.279L43.3308 51.3666L41.8763 52.279L42.2881 50.6135L40.9805 49.5149L42.6956 49.3949L43.3308 47.8018L43.9784 49.3949L45.6915 49.5066L44.3736 50.6135L44.7853 52.279ZM50.8391 56.0135L49.8708 55.4073L48.8922 56.0135L49.1756 54.9066L48.2963 54.17L49.4405 54.0893L49.8625 53.03L50.2991 54.0893L51.437 54.17L50.5577 54.9066L50.8391 56.0135Z" fill="#FDA816"/>
<path fill-rule="evenodd" clip-rule="evenodd" d="M82.5861 74.9486V76.4921C82.5861 76.8955 82.5054 77.2762 82.3523 77.6238L83.6454 78.4245L83.2254 76.7672L84.5413 75.6603L82.8199 75.5383L82.5861 74.9486ZM82.5861 65.9859V68.7976L83.6454 69.4617L83.2254 67.7962L84.5413 66.6893L82.8199 66.5755L82.5861 65.9859ZM82.5861 57.7659V60.5797L83.6454 61.2417L83.2254 59.5762L84.5413 58.4776L82.8199 58.3555L82.5861 57.7659ZM82.5861 48.8052V51.6169L83.6454 52.279L83.2254 50.6135L84.5413 49.5066L82.8199 49.3928L82.5861 48.8052Z" fill="#FF8901"/>
<path fill-rule="evenodd" clip-rule="evenodd" d="M83.6531 69.4772L82.1986 68.5648L80.7358 69.4772L81.1558 67.8117L79.8379 66.7048L81.551 66.591L82.1903 65L82.8358 66.591L84.551 66.7048L83.2331 67.8117L83.6531 69.4772Z" fill="#FDA816"/>
<path fill-rule="evenodd" clip-rule="evenodd" d="M83.6531 78.4401L82.1986 77.5277L80.7358 78.4484L81.1558 76.7746L79.8379 75.676L81.551 75.5539L82.1903 73.9629L82.8358 75.5539L84.551 75.6677L83.2331 76.7746L83.6531 78.4401Z" fill="#FF8901"/>
<path fill-rule="evenodd" clip-rule="evenodd" d="M37.069 33.9575H86.7241C87.8724 33.9575 88.7931 34.8782 88.7931 36.0265V44.3023C88.7931 45.4506 87.8724 46.3713 86.7241 46.3713H37.069C35.9207 46.3713 35 45.4506 35 44.3023V36.0265C35 34.8782 35.9207 33.9575 37.069 33.9575Z" fill="#D60724"/>
<path fill-rule="evenodd" clip-rule="evenodd" d="M82.5862 33.9575C83.7345 33.9575 84.6551 34.8782 84.6551 36.0265V44.3023C84.6551 45.4506 83.7345 46.3713 82.5862 46.3713H86.7241C87.8724 46.3713 88.7931 45.4506 88.7931 44.3023V36.0265C88.7931 34.8782 87.8724 33.9575 86.7241 33.9575H82.5862Z" fill="#C2001A"/>
<path fill-rule="evenodd" clip-rule="evenodd" d="M35 37.6749V38.668L35.3 38.8542L35 37.6666V37.6749ZM35 37.0356V37.0852L36.1959 36.0818L35.0083 36.0094L35 37.0356ZM81.8828 44.9473L82.8531 44.3349L83.8234 44.9473L83.5483 43.8321L84.4297 43.0976L83.2814 43.0252L82.8531 41.9576L82.4248 43.0252L81.2848 43.0976L82.1662 43.8321L81.8828 44.9473ZM77.2834 38.1114L78.2538 37.5052L79.2241 38.1114L78.949 36.9963L79.8303 36.2597L78.6821 36.1873L78.2538 35.1197L77.8255 36.1873L76.6855 36.2597L77.5586 36.9963L77.2834 38.1114ZM75.9428 44.9473L74.4883 44.0349L73.0255 44.9473L73.4455 43.2838L72.1276 42.177L73.8407 42.0549L74.48 40.4638L75.1276 42.0549L76.8407 42.177L75.5228 43.2756L75.9428 44.9473ZM63.7234 44.9473L64.6938 44.3349L65.6621 44.9473L65.389 43.8321L66.26 43.0976L65.1221 43.0252L64.6938 41.9576L64.2655 43.0252L63.1255 43.0976L63.9986 43.8321L63.7234 44.9473ZM69.9614 38.8542L68.5069 37.9418L67.0524 38.8542L67.4641 37.1887L66.1483 36.0901L67.8614 35.9701L68.5069 34.377L69.1462 35.9701L70.8676 36.0818L69.5414 37.1887L69.9614 38.8542ZM59.1241 38.1114L60.0945 37.5052L61.0648 38.1114L60.7897 36.9963L61.671 36.2597L60.5228 36.1873L60.0945 35.1197L59.6662 36.1873L58.5262 36.2597L59.4076 36.9963L59.1241 38.1114ZM57.7834 44.9473L56.3207 44.0349L54.8662 44.9473L55.2862 43.2838L53.9683 42.177L55.6814 42.0549L56.3207 40.4638L56.9662 42.0549L58.6793 42.177L57.3634 43.2756L57.7834 44.9473ZM46.0234 44.9473L46.9938 44.3349L47.9641 44.9473L47.689 43.8321L48.5621 43.0976L47.4221 43.0252L46.9938 41.9576L46.5655 43.0252L45.4172 43.0976L46.2986 43.8321L46.0234 44.9473ZM52.2634 38.8542L50.809 37.9418L49.3545 38.8542L49.7662 37.1887L48.4483 36.0901L50.1614 35.9701L50.8007 34.377L51.4462 35.9701L53.1593 36.0818L51.8434 37.1887L52.2634 38.8542ZM41.4241 38.1114L42.3945 37.5052L43.3648 38.1114L43.0897 36.9963L43.9628 36.2597L42.8228 36.1873L42.3945 35.1197L41.9662 36.1873L40.8262 36.2597L41.6993 36.9963L41.4241 38.1114ZM40.0752 44.9411L38.6207 44.0349L37.1662 44.9473L37.5779 43.2838L36.26 42.177L37.9814 42.0549L38.6207 40.4638L39.26 42.0549L40.9814 42.177L39.6634 43.2756L40.0752 44.9411Z" fill="#FF9A00"/>
<mask id="mask2_0_4268" style="mask-type:luminance" maskUnits="userSpaceOnUse" x="35" y="20" width="54" height="60">
<path fill-rule="evenodd" clip-rule="evenodd" d="M35 79.4745H88.7931V20H35V79.4745Z" fill="white"/>
</mask>
<g mask="url(#mask2_0_4268)">
<path fill-rule="evenodd" clip-rule="evenodd" d="M59.8276 79.4747H63.9656V33.9243H59.8276V79.4747Z" fill="#0088FE"/>
<path fill-rule="evenodd" clip-rule="evenodd" d="M63.4079 29.8193C69.47 29.8193 74.4231 34.7745 74.4231 40.8345L72.1451 38.7655L70.2851 40.8345C70.2934 39.0076 69.5734 37.2552 68.2803 35.9621C66.9872 34.669 65.2348 33.949 63.4079 33.9573V29.8193ZM60.3789 29.8193C54.3231 29.8193 49.3596 34.7745 49.3596 40.8345L51.8444 38.5566L53.4976 40.8345C53.4934 39.0076 54.2113 37.2552 55.5044 35.9621C56.7976 34.669 58.55 33.949 60.3789 33.9573V29.8193Z" fill="#0088FE"/>
<path fill-rule="evenodd" clip-rule="evenodd" d="M63.408 29.8193V33.9573C65.3549 33.9573 67.0928 34.7497 68.3383 36.0262H73.2997C71.5059 32.3642 67.7487 29.8193 63.408 29.8193ZM60.379 29.8193C56.0445 29.8193 52.2873 32.3642 50.4832 36.0262H55.4569C56.7501 34.7 58.519 33.949 60.379 33.9573V29.8193Z" fill="#006EF4"/>
<path fill-rule="evenodd" clip-rule="evenodd" d="M88.1223 38.8552L86.6678 37.9428L85.2133 38.8552L85.6251 37.1897L84.3071 36.091L86.0202 35.971L86.6678 34.3779L87.3051 35.971L88.7844 36.0683L88.7926 36.2772L87.7106 37.1897L88.1223 38.8552Z" fill="#FF8901"/>
<path fill-rule="evenodd" clip-rule="evenodd" d="M53.6208 24.1379H54.2435C56.4325 24.1379 57.047 24.7441 57.8394 26.1572C58.309 26.9745 58.6649 28.5097 59.0435 29.8193H53.6208C51.8104 29.8193 50.5173 28.5262 50.5173 26.9745C50.5173 25.431 51.8104 24.1379 53.6208 24.1379ZM53.6208 20C49.7001 20 46.3794 23.0869 46.3794 26.9745C46.3794 30.8703 49.7001 33.9572 53.6208 33.9572H61.8966C62.5422 33.9572 63.1566 33.651 63.5456 33.1338C63.9408 32.6166 64.0628 31.9524 63.8932 31.3234C63.2228 28.9628 62.7284 26.3931 61.4435 24.1131C60.1587 21.8434 57.6449 20 54.2435 20H53.6208Z" fill="#0088FE"/>
<path fill-rule="evenodd" clip-rule="evenodd" d="M69.55 24.1379H70.1728C71.9831 24.1379 73.2763 25.431 73.2763 26.9745C73.2763 28.5262 71.9831 29.8193 70.1728 29.8193H64.75C65.1287 28.5097 65.4845 26.9745 65.9542 26.1572C66.7466 24.7524 67.359 24.1379 69.55 24.1379ZM69.55 20C66.1466 20 63.6349 21.8434 62.35 24.1131C61.0652 26.3848 60.5707 28.9545 59.9004 31.3234C59.7307 31.9524 59.8528 32.6166 60.248 33.1338C60.6369 33.651 61.2514 33.9572 61.8969 33.9572H70.1728C74.0914 33.9572 77.4142 30.8703 77.4142 26.9745C77.4142 23.0869 74.0914 20 70.1728 20H69.55Z" fill="#0088FE"/>
</g>
<path fill-rule="evenodd" clip-rule="evenodd" d="M72.2903 56H105.652C106.917 56 107.942 57.0253 107.942 58.2903V77.4522C107.942 78.7172 106.917 79.7425 105.652 79.7425H72.2903C71.0253 79.7425 70 78.7172 70 77.4522V58.2903C70 57.0253 71.0253 56 72.2903 56Z" fill="#FDDD5A"/>
<path fill-rule="evenodd" clip-rule="evenodd" d="M105.652 56H102.217C103.482 56 104.507 57.0253 104.507 58.2903V77.4522C104.507 78.7172 103.482 79.7425 102.217 79.7425H105.652C106.917 79.7425 107.942 78.7172 107.942 77.4522V58.2903C107.942 57.0253 106.917 56 105.652 56Z" fill="#FED030"/>
<mask id="mask3_0_4268" style="mask-type:luminance" maskUnits="userSpaceOnUse" x="70" y="56" width="38" height="24">
<path fill-rule="evenodd" clip-rule="evenodd" d="M70 79.7425H107.942V56H70V79.7425Z" fill="white"/>
</mask>
<g mask="url(#mask3_0_4268)">
<path fill-rule="evenodd" clip-rule="evenodd" d="M70 65.8102H107.942V64.665H70V65.8102Z" fill="#E4222E"/>
<path fill-rule="evenodd" clip-rule="evenodd" d="M82.8265 56.0382V79.7425H81.6814V56.0382C81.6814 56.0253 81.682 56.0125 81.6835 56H82.8241C82.8256 56.0125 82.8265 56.0253 82.8265 56.0382Z" fill="#E4222E"/>
<path fill-rule="evenodd" clip-rule="evenodd" d="M77.5561 62.904L81.2974 64.8196C81.884 65.1199 82.2529 65.7235 82.2529 66.3826C82.2529 67.0416 81.884 67.6452 81.2974 67.9455L77.5561 69.8612C77.0118 70.1401 76.3617 70.1153 75.8398 69.7962C75.318 69.4774 74.9998 68.9099 74.9998 68.2983V64.4668C74.9998 63.8553 75.318 63.2877 75.8398 62.9689C76.3617 62.6498 77.0118 62.6251 77.5561 62.904Z" fill="#FED030"/>
<path fill-rule="evenodd" clip-rule="evenodd" d="M86.9497 62.904L83.2084 64.8196C82.6218 65.1199 82.2529 65.7235 82.2529 66.3826C82.2529 67.0416 82.6218 67.6452 83.2084 67.9455L86.9497 69.8612C87.494 70.1401 88.1441 70.1153 88.666 69.7962C89.1879 69.4774 89.5061 68.9099 89.5061 68.2983V64.4668C89.5061 63.8553 89.1879 63.2877 88.666 62.9689C88.1441 62.6498 87.494 62.6251 86.9497 62.904Z" fill="#FED030"/>
<path fill-rule="evenodd" clip-rule="evenodd" d="M77.5561 61.7589L81.2974 63.6746C81.884 63.9749 82.2529 64.5785 82.2529 65.2376C82.2529 65.8966 81.884 66.5002 81.2974 66.8005L77.5561 68.7162C77.0118 68.995 76.3617 68.9702 75.8398 68.6512C75.318 68.3324 74.9998 67.7649 74.9998 67.1533V63.3218C74.9998 62.7102 75.318 62.1427 75.8398 61.8239C76.3617 61.5048 77.0118 61.4801 77.5561 61.7589Z" fill="#EB304A"/>
<path fill-rule="evenodd" clip-rule="evenodd" d="M86.9497 61.7589L83.2084 63.6746C82.6218 63.9749 82.2529 64.5785 82.2529 65.2376C82.2529 65.8966 82.6218 66.5002 83.2084 66.8005L86.9497 68.7162C87.494 68.995 88.1441 68.9702 88.666 68.6512C89.1879 68.3324 89.5061 67.7649 89.5061 67.1533V63.3218C89.5061 62.7102 89.1879 62.1427 88.666 61.8239C88.1441 61.5048 87.494 61.4801 86.9497 61.7589Z" fill="#EB304A"/>
<path fill-rule="evenodd" clip-rule="evenodd" d="M86.9498 61.7588L86.4873 61.9956C87.0855 62.2902 87.4636 62.9001 87.4613 63.5671V67.3986C87.464 67.8891 87.2587 68.3579 86.8964 68.6889L86.9498 68.716C87.494 68.9946 88.1442 68.9701 88.666 68.6511C89.1879 68.3323 89.5058 67.7647 89.5061 67.1532V63.3217C89.5058 62.7101 89.1879 62.1426 88.666 61.8238C88.1442 61.5047 87.494 61.4802 86.9498 61.7588Z" fill="#E4222E"/>
<path fill-rule="evenodd" clip-rule="evenodd" d="M84.5814 65.0467C84.5814 66.3326 83.5389 67.3751 82.253 67.3751C80.9671 67.3751 79.9246 66.3326 79.9246 65.0467C79.9246 63.7608 80.9671 62.7183 82.253 62.7183C83.5389 62.7183 84.5814 63.7608 84.5814 65.0467Z" fill="white"/>
<path fill-rule="evenodd" clip-rule="evenodd" d="M82.2529 62.7183C81.952 62.718 81.654 62.7764 81.3752 62.8897C82.2526 63.2467 82.8264 64.0996 82.8264 65.0467C82.8264 65.9938 82.2526 66.8467 81.3752 67.2037C82.246 67.5577 83.2441 67.3537 83.9061 66.6863C84.5679 66.0188 84.7635 65.019 84.4021 64.1512C84.0407 63.2837 83.1928 62.7183 82.2529 62.7183Z" fill="#E1E1E3"/>
<path fill-rule="evenodd" clip-rule="evenodd" d="M98.7811 74.704H93.0555C92.7393 74.704 92.4829 74.4475 92.4829 74.1314C92.4829 73.8153 92.7393 73.5588 93.0555 73.5588H98.7811C99.0973 73.5588 99.3537 73.8153 99.3537 74.1314C99.3537 74.4475 99.0973 74.704 98.7811 74.704ZM103.362 72.4137H93.0555C92.7393 72.4137 92.4829 72.1573 92.4829 71.8411C92.4829 71.525 92.7393 71.2686 93.0555 71.2686H103.362C103.678 71.2686 103.934 71.525 103.934 71.8411C103.934 72.1573 103.678 72.4137 103.362 72.4137Z" fill="white"/>
</g>
</g>
<defs>
<clipPath id="clip0_0_4268">
<rect width="376" height="80" fill="white"/>
</clipPath>
</defs>
</svg>
