<svg width="29" height="28" viewBox="0 0 29 28" fill="none" xmlns="http://www.w3.org/2000/svg">
<path fill-rule="evenodd" clip-rule="evenodd" d="M6.20534 16.9206L5.23075 20.5593L1.66841 20.6345C0.603914 18.66 0 16.4007 0 14C0 11.6786 0.564594 9.48916 1.56543 7.56165H1.56609L4.73752 8.14286L6.12691 11.2953C5.8362 12.1432 5.67766 13.053 5.67766 14C5.67766 15.0277 5.86398 16.0123 6.20534 16.9206Z" fill="#FBBB00"/>
<path fill-rule="evenodd" clip-rule="evenodd" d="M27.7554 11.3846C27.9162 12.2314 28 13.1062 28 14C28 15.0023 27.8947 15.9801 27.6939 16.923C27.0124 20.1323 25.2317 22.9346 22.7647 24.9177L22.7639 24.917L18.7694 24.7132L18.2039 21.1839C19.8409 20.2239 21.1201 18.7215 21.794 16.923H14.3079V11.3846H27.7554Z" fill="#518EF8"/>
<path fill-rule="evenodd" clip-rule="evenodd" d="M22.7639 24.917L22.7646 24.9176C20.3654 26.8462 17.3176 28 14.0001 28C8.66846 28 4.03304 25.0199 1.66846 20.6347L6.20539 16.9208C7.38778 20.076 10.4315 22.3223 14.0001 22.3223C15.5339 22.3223 16.9709 21.9077 18.2039 21.1839L22.7639 24.917Z" fill="#28B446"/>
<path fill-rule="evenodd" clip-rule="evenodd" d="M22.936 3.22317L18.4008 6.93612C17.1246 6.13845 15.616 5.67766 14 5.67766C10.3507 5.67766 7.24987 8.02687 6.12691 11.2953L1.56609 7.56164H1.56543C3.89539 3.06912 8.58916 0 14 0C17.3968 0 20.5114 1.20996 22.936 3.22317Z" fill="#F14336"/>
</svg>
