<svg width="207" height="113" viewBox="0 0 207 113" fill="none" xmlns="http://www.w3.org/2000/svg">
<path d="M26.44 13.68H29.56V25.04H35.56V28H26.44V13.68ZM44.2444 28.32C43.1644 28.32 42.1644 28.1267 41.2444 27.74C40.3244 27.3533 39.5244 26.8267 38.8444 26.16C38.1777 25.48 37.6511 24.6867 37.2644 23.78C36.8911 22.8733 36.7044 21.8933 36.7044 20.84C36.7044 19.7867 36.8911 18.8067 37.2644 17.9C37.6511 16.9933 38.1777 16.2067 38.8444 15.54C39.5244 14.86 40.3244 14.3267 41.2444 13.94C42.1644 13.5533 43.1644 13.36 44.2444 13.36C45.3244 13.36 46.3244 13.5533 47.2444 13.94C48.1644 14.3267 48.9577 14.86 49.6244 15.54C50.3044 16.2067 50.8311 16.9933 51.2044 17.9C51.5911 18.8067 51.7844 19.7867 51.7844 20.84C51.7844 21.8933 51.5911 22.8733 51.2044 23.78C50.8311 24.6867 50.3044 25.48 49.6244 26.16C48.9577 26.8267 48.1644 27.3533 47.2444 27.74C46.3244 28.1267 45.3244 28.32 44.2444 28.32ZM44.2444 25.36C44.8577 25.36 45.4311 25.2533 45.9644 25.04C46.5111 24.8267 46.9844 24.52 47.3844 24.12C47.7844 23.72 48.0977 23.2467 48.3244 22.7C48.5511 22.14 48.6644 21.52 48.6644 20.84C48.6644 20.16 48.5511 19.5467 48.3244 19C48.0977 18.44 47.7844 17.96 47.3844 17.56C46.9844 17.16 46.5111 16.8533 45.9644 16.64C45.4311 16.4267 44.8577 16.32 44.2444 16.32C43.6177 16.32 43.0377 16.4267 42.5044 16.64C41.9711 16.8533 41.5044 17.16 41.1044 17.56C40.7044 17.96 40.3911 18.44 40.1644 19C39.9377 19.5467 39.8244 20.16 39.8244 20.84C39.8244 21.52 39.9377 22.14 40.1644 22.7C40.3911 23.2467 40.7044 23.72 41.1044 24.12C41.5044 24.52 41.9711 24.8267 42.5044 25.04C43.0377 25.2533 43.6177 25.36 44.2444 25.36ZM60.8338 28.32C59.7538 28.32 58.7538 28.1267 57.8338 27.74C56.9138 27.3533 56.1138 26.8267 55.4338 26.16C54.7672 25.48 54.2405 24.6867 53.8538 23.78C53.4805 22.8733 53.2938 21.8933 53.2938 20.84C53.2938 19.7867 53.4805 18.8067 53.8538 17.9C54.2405 16.9933 54.7672 16.2067 55.4338 15.54C56.1138 14.86 56.9138 14.3267 57.8338 13.94C58.7538 13.5533 59.7538 13.36 60.8338 13.36C61.9138 13.36 62.9138 13.5533 63.8338 13.94C64.7538 14.3267 65.5472 14.86 66.2138 15.54C66.8938 16.2067 67.4205 16.9933 67.7938 17.9C68.1805 18.8067 68.3738 19.7867 68.3738 20.84C68.3738 21.8933 68.1805 22.8733 67.7938 23.78C67.4205 24.6867 66.8938 25.48 66.2138 26.16C65.5472 26.8267 64.7538 27.3533 63.8338 27.74C62.9138 28.1267 61.9138 28.32 60.8338 28.32ZM60.8338 25.36C61.4472 25.36 62.0205 25.2533 62.5538 25.04C63.1005 24.8267 63.5738 24.52 63.9738 24.12C64.3738 23.72 64.6872 23.2467 64.9138 22.7C65.1405 22.14 65.2538 21.52 65.2538 20.84C65.2538 20.16 65.1405 19.5467 64.9138 19C64.6872 18.44 64.3738 17.96 63.9738 17.56C63.5738 17.16 63.1005 16.8533 62.5538 16.64C62.0205 16.4267 61.4472 16.32 60.8338 16.32C60.2072 16.32 59.6272 16.4267 59.0938 16.64C58.5605 16.8533 58.0938 17.16 57.6938 17.56C57.2938 17.96 56.9805 18.44 56.7538 19C56.5272 19.5467 56.4138 20.16 56.4138 20.84C56.4138 21.52 56.5272 22.14 56.7538 22.7C56.9805 23.2467 57.2938 23.72 57.6938 24.12C58.0938 24.52 58.5605 24.8267 59.0938 25.04C59.6272 25.2533 60.2072 25.36 60.8338 25.36ZM70.7785 13.68H73.8985V19.2H74.0985L78.8185 13.68H82.5185V13.88L77.4185 19.7L83.1385 27.8V28H79.3385L75.2585 22.18L73.8985 23.76V28H70.7785V13.68ZM84.8484 13.68H87.9684V28H84.8484V13.68ZM91.0667 13.68H94.6667L99.8267 22.52H100.027L99.8267 19.76V13.68H102.907V28H99.6267L94.1467 18.64H93.9467L94.1467 21.4V28H91.0667V13.68ZM112.66 20.04H119.72C119.76 20.2 119.794 20.4067 119.82 20.66C119.86 20.9133 119.88 21.1533 119.88 21.38C119.88 22.3933 119.734 23.2933 119.44 24.08C119.147 24.8667 118.72 25.56 118.16 26.16C117.52 26.84 116.747 27.3733 115.84 27.76C114.934 28.1333 113.9 28.32 112.74 28.32C111.7 28.32 110.714 28.1333 109.78 27.76C108.86 27.3867 108.054 26.8733 107.36 26.22C106.667 25.5533 106.12 24.7667 105.72 23.86C105.32 22.94 105.12 21.9333 105.12 20.84C105.12 19.7467 105.32 18.7467 105.72 17.84C106.12 16.92 106.667 16.1333 107.36 15.48C108.054 14.8133 108.86 14.2933 109.78 13.92C110.714 13.5467 111.7 13.36 112.74 13.36C113.954 13.36 115.007 13.5667 115.9 13.98C116.807 14.3933 117.6 14.96 118.28 15.68L116.16 17.76C115.694 17.2933 115.194 16.94 114.66 16.7C114.14 16.4467 113.487 16.32 112.7 16.32C112.087 16.32 111.507 16.4333 110.96 16.66C110.427 16.8733 109.954 17.18 109.54 17.58C109.14 17.9667 108.82 18.44 108.58 19C108.354 19.5467 108.24 20.16 108.24 20.84C108.24 21.52 108.354 22.14 108.58 22.7C108.82 23.2467 109.147 23.72 109.56 24.12C109.974 24.5067 110.454 24.8133 111 25.04C111.547 25.2533 112.134 25.36 112.76 25.36C113.987 25.36 114.967 25.0333 115.7 24.38C115.927 24.18 116.134 23.9333 116.32 23.64C116.52 23.3333 116.68 23 116.8 22.64H112.66V20.04ZM126.968 13.68H136.408V16.64H130.088V19.52H135.768V22.48H130.088V28H126.968V13.68ZM145.358 28.32C144.278 28.32 143.278 28.1267 142.358 27.74C141.438 27.3533 140.638 26.8267 139.958 26.16C139.291 25.48 138.765 24.6867 138.378 23.78C138.005 22.8733 137.818 21.8933 137.818 20.84C137.818 19.7867 138.005 18.8067 138.378 17.9C138.765 16.9933 139.291 16.2067 139.958 15.54C140.638 14.86 141.438 14.3267 142.358 13.94C143.278 13.5533 144.278 13.36 145.358 13.36C146.438 13.36 147.438 13.5533 148.358 13.94C149.278 14.3267 150.071 14.86 150.738 15.54C151.418 16.2067 151.945 16.9933 152.318 17.9C152.705 18.8067 152.898 19.7867 152.898 20.84C152.898 21.8933 152.705 22.8733 152.318 23.78C151.945 24.6867 151.418 25.48 150.738 26.16C150.071 26.8267 149.278 27.3533 148.358 27.74C147.438 28.1267 146.438 28.32 145.358 28.32ZM145.358 25.36C145.971 25.36 146.545 25.2533 147.078 25.04C147.625 24.8267 148.098 24.52 148.498 24.12C148.898 23.72 149.211 23.2467 149.438 22.7C149.665 22.14 149.778 21.52 149.778 20.84C149.778 20.16 149.665 19.5467 149.438 19C149.211 18.44 148.898 17.96 148.498 17.56C148.098 17.16 147.625 16.8533 147.078 16.64C146.545 16.4267 145.971 16.32 145.358 16.32C144.731 16.32 144.151 16.4267 143.618 16.64C143.085 16.8533 142.618 17.16 142.218 17.56C141.818 17.96 141.505 18.44 141.278 19C141.051 19.5467 140.938 20.16 140.938 20.84C140.938 21.52 141.051 22.14 141.278 22.7C141.505 23.2467 141.818 23.72 142.218 24.12C142.618 24.52 143.085 24.8267 143.618 25.04C144.151 25.2533 144.731 25.36 145.358 25.36ZM155.303 13.68H160.703C161.476 13.68 162.17 13.8 162.783 14.04C163.396 14.2667 163.91 14.5867 164.323 15C164.75 15.4133 165.07 15.9067 165.283 16.48C165.51 17.04 165.623 17.6533 165.623 18.32C165.623 18.7867 165.543 19.22 165.383 19.62C165.236 20.02 165.03 20.3933 164.763 20.74C164.51 21.0733 164.21 21.3733 163.863 21.64C163.516 21.8933 163.143 22.1067 162.743 22.28V22.46L166.483 27.8V28H162.923L159.303 22.84H158.423V28H155.303V13.68ZM160.703 19.96C161.263 19.96 161.703 19.8 162.023 19.48C162.343 19.1467 162.503 18.74 162.503 18.26C162.503 17.78 162.35 17.38 162.043 17.06C161.75 16.7267 161.303 16.56 160.703 16.56H158.423V19.96H160.703Z" fill="#472D2D"/>
<path d="M41.537 37.704L40.203 44.282H35.718L37.052 37.658C33.487 37.681 30.152 38.072 28.197 39.958C26.794 41.246 26.127 43.27 26.518 46.444L29.623 45.018C28.726 43.431 28.588 41.568 29.393 40.901C30.428 40.027 31.946 39.797 33.556 39.636L30.382 55H33.579L35.327 46.283H39.789L37.995 55H41.146L44.665 37.704H41.537ZM52.9597 51.044C51.8787 52.838 50.0157 54.218 48.2447 53.39C47.2557 52.907 46.8417 51.619 46.8187 50.515C48.7967 50.584 50.7287 49.871 51.7637 47.962C52.4537 46.605 52.4307 44.857 51.2577 43.914C49.9467 42.81 46.9567 43.385 45.2087 46.099C43.0697 49.503 43.1387 55 47.4857 55.138C50.1077 55.207 51.9937 54.356 53.7877 51.044H52.9597ZM46.9107 49.181C47.1637 47.893 47.5777 46.858 48.0607 46.122C48.8887 44.811 49.9007 44.374 50.3607 44.719C50.9357 45.179 50.5217 49.549 46.8877 49.434C46.8877 49.365 46.9107 49.273 46.9107 49.181ZM66.6543 51.067C65.8953 53.229 62.5373 55.207 63.0433 52.585C63.5723 49.94 64.0553 47.893 64.7683 44.374L64.9523 43.5H59.1333C55.0163 43.638 53.1993 47.341 52.8773 51.044C52.4633 55.805 57.7073 56.472 60.1453 52.838C60.4443 56.794 65.9643 55.299 67.5513 51.067H66.6543ZM60.2143 51.32C57.0403 55.598 55.5223 53.436 56.3963 49.273C57.2013 45.547 59.9153 43.063 61.3183 45.616L60.2143 51.32ZM72.2601 51.136C71.5471 53.275 68.3501 55.23 68.8561 52.608C69.3851 49.963 70.8801 42.81 71.6621 38.9H68.5571L66.1421 50.975C64.9231 57.116 71.4091 55.851 73.1341 51.136H72.2601ZM78.3557 50.975C77.5737 53.229 74.3077 55.23 74.8367 52.539L76.3777 44.903H77.8267L78.4937 43.5H76.6307L77.3437 39.866L74.0777 40.51L73.4567 43.5H72.3527L71.7777 44.903H73.1577L71.9387 50.883C70.6507 57.208 77.4357 55.897 79.2757 50.975H78.3557ZM90.2375 51.021C89.5015 53.229 86.2815 55.276 86.7645 52.516C87.0635 50.975 87.3625 49.25 87.6385 47.64C88.5815 42.626 84.7405 42.442 82.2795 45.018L83.4985 38.9H80.4395L77.1735 54.977H80.3245L81.9345 46.904C82.9695 44.972 85.2695 43.523 84.7865 46.007C84.4875 47.824 84.1195 49.733 83.7285 51.918C82.9465 56.265 89.2485 56.288 91.1345 51.021H90.2375ZM95.5971 51.136C94.8841 53.275 91.6871 55.23 92.1931 52.608C92.7221 49.963 94.2171 42.81 94.9991 38.9H91.8941L89.4791 50.975C88.2601 57.116 94.7461 55.851 96.4711 51.136H95.5971ZM103.05 43.5L101.417 51.596C100.313 53.528 97.6216 55 98.1046 52.493C98.6106 49.963 99.2086 47.042 99.9216 43.5H96.6556L95.2066 50.791C94.1486 55.92 98.4496 56.15 101.026 53.482L100.037 58.312C99.7836 59.577 97.8976 58.565 97.3226 58.082L95.1376 60.29C102.015 62.222 103.556 57.461 104.568 52.033L106.293 43.5H103.05ZM127.53 43.937C127.323 37.198 119.25 36.255 114.696 39.636C112.649 41.154 111.315 43.5 111.775 46.674L114.972 45.202C114.098 43.845 114.351 41.959 115.57 40.832C118.261 38.463 124.241 37.842 124.402 42.948C124.425 44.213 124.31 45.409 124.057 46.674C123.827 47.87 123.482 48.997 123.022 49.963C120.584 55.575 117.456 53.505 118.353 48.123C118.698 45.869 119.779 43.431 121.872 40.395L118.238 40.809C116.651 43.293 115.478 45.685 115.087 48.721C114.995 49.48 114.972 50.147 114.995 50.791C114.995 51.619 115.11 52.309 115.317 52.907C115.524 53.482 115.823 53.942 116.191 54.287C116.582 54.678 117.065 54.954 117.571 55.092C118.1 55.276 118.675 55.345 119.342 55.345C120.285 55.345 121.228 55.184 122.033 54.816C122.815 54.448 123.528 53.988 124.149 53.39C124.747 52.792 125.253 52.079 125.713 51.297C126.127 50.515 126.495 49.687 126.748 48.859C127.047 47.985 127.231 47.18 127.346 46.329C127.507 45.432 127.53 44.65 127.53 43.937ZM132.761 44.19L132.899 43.5H129.656L126.229 60.75H129.472L130.76 54.126C131.266 54.678 132.669 55.138 133.612 55.138C134.509 55.138 135.314 54.839 135.935 54.333C136.533 53.919 136.97 53.367 137.315 52.7C138.028 51.435 138.373 49.894 138.396 48.422C138.419 45.248 136.349 41.775 132.761 44.19ZM135.084 49.848C134.877 50.952 134.486 51.964 134.026 52.608C133.267 53.666 132.048 54.172 131.036 52.815L132.554 45.317C135.636 43.247 135.498 47.64 135.084 49.848ZM145.851 50.975C145.069 53.229 141.803 55.23 142.332 52.539L143.873 44.903H145.322L145.989 43.5H144.126L144.839 39.866L141.573 40.51L140.952 43.5H139.848L139.273 44.903H140.653L139.434 50.883C138.146 57.208 144.931 55.897 146.771 50.975H145.851ZM152.413 50.929C151.631 53.183 148.204 55.23 148.733 52.47C149.262 49.756 149.791 47.387 150.527 43.5H147.353L145.835 50.791C144.547 57.231 151.493 55.897 153.31 50.929H152.413ZM149.377 42.212C149.883 42.212 150.32 42.051 150.688 41.706C151.056 41.361 151.263 40.947 151.263 40.418C151.263 39.912 151.079 39.498 150.711 39.13C150.366 38.785 149.975 38.601 149.446 38.601C148.917 38.601 148.503 38.785 148.135 39.13C147.79 39.498 147.629 39.912 147.606 40.418C147.606 40.947 147.767 41.361 148.089 41.706C148.434 42.051 148.871 42.212 149.377 42.212ZM164.567 45.984C163.831 46.49 162.934 46.927 162.014 47.157C162.014 46.536 161.899 45.984 161.715 45.547C160.611 42.879 157.414 42.994 155.275 44.236C153.136 45.455 151.802 47.778 151.549 50.009C151.319 52.125 152.101 54.103 154.24 54.885C156.954 55.92 161.232 53.896 161.899 48.652C162.796 48.238 163.716 47.594 164.636 46.766L164.567 45.984ZM159.139 49.181C158.541 52.976 156.954 54.103 155.85 53.459C153.803 52.309 154.838 47.272 155.988 45.616C157.299 43.799 158.748 45.317 159.116 47.019C158.771 46.881 158.426 46.674 158.127 46.398L156.931 48.031C157.713 48.629 158.403 48.951 159.139 49.089C159.139 49.112 159.139 49.158 159.139 49.181ZM176.241 50.975C175.505 53.206 172.239 55.345 172.745 52.516C173.251 49.71 173.113 50.538 173.665 47.686C174.631 42.511 170.261 42.419 167.777 45.225L168.122 43.5H164.971L162.648 55H165.914L167.363 47.364C168.214 45.248 171.319 43.362 170.813 46.007C170.514 47.617 170.215 49.227 169.893 50.837C168.881 56.84 175.114 56.265 177.138 50.975H176.241ZM185.578 47.387C185.762 46.674 185.762 45.938 185.532 45.386C184.98 44.19 183.669 43.523 181.944 43.431C180.748 43.316 179.552 43.454 178.471 43.937C176.47 44.742 176.102 46.444 177.068 47.755C177.39 48.307 178.08 48.928 178.678 49.273C179.253 49.71 179.713 49.894 180.518 50.354C181.162 50.837 181.99 51.504 181.645 52.286C181.346 52.976 180.748 53.436 180.012 53.758C178.724 54.241 177.183 54.011 176.884 53.252C176.585 52.631 177.229 51.872 178.655 51.435L176.953 49.986C175.573 50.584 174.883 51.849 175.067 52.953C175.757 56.702 185.946 55.529 184.75 50.745C184.543 50.17 184.175 49.733 183.669 49.319C183.094 48.928 182.404 48.514 181.806 48.215C181.116 47.847 180.541 47.456 180.15 47.111C179.851 46.789 179.782 46.72 179.713 46.214C179.621 45.754 180.012 45.087 180.725 44.788C181.139 44.466 181.829 44.305 182.335 44.397C183.715 44.512 183.324 45.777 182.979 46.467L185.578 47.387ZM188.621 49.756H190.415C191.059 47.87 191.91 47.249 193.98 45.179C195.314 43.914 195.981 42.005 195.038 40.303C194.486 39.452 193.313 38.624 191.473 38.601C187.977 38.532 186.137 41.591 186.62 44.788C187.724 44.029 188 43.891 189.219 43.155C188.506 41.752 189.656 40.119 191.105 40.119C191.68 40.119 192.094 40.303 192.37 40.625C193.888 42.074 192.301 43.684 191.358 44.857C190.392 46.053 189.012 47.525 188.621 49.756ZM190.99 53.114C190.99 52.608 190.806 52.148 190.438 51.803C190.093 51.481 189.656 51.274 189.127 51.274C188.621 51.274 188.161 51.481 187.793 51.803C187.425 52.148 187.264 52.608 187.264 53.114C187.264 53.666 187.425 54.057 187.793 54.425C188.161 54.816 188.621 55 189.127 55C189.656 55 190.093 54.816 190.438 54.425C190.806 54.057 190.99 53.666 190.99 53.114Z" fill="#F16522"/>
<path d="M25 57.3H194.877V58.45H25V57.3Z" fill="#F16522"/>
<path d="M25.517 76.9812V75.5455H33.0604V76.9812H30.1381V85H28.4393V76.9812H25.517ZM35.5163 85.1431C35.067 85.1431 34.6623 85.0631 34.3022 84.9031C33.9452 84.7399 33.6621 84.4999 33.4528 84.1829C33.2466 83.8659 33.1435 83.475 33.1435 83.0103C33.1435 82.6102 33.2173 82.2794 33.3651 82.0178C33.5128 81.7562 33.7144 81.5469 33.9698 81.3899C34.2253 81.233 34.513 81.1145 34.8331 81.0344C35.1563 80.9513 35.4902 80.8913 35.8349 80.8544C36.2504 80.8113 36.5874 80.7728 36.8459 80.739C37.1044 80.7021 37.2921 80.6467 37.4091 80.5728C37.5291 80.4959 37.5891 80.3774 37.5891 80.2173V80.1896C37.5891 79.8419 37.486 79.5726 37.2798 79.3817C37.0736 79.1909 36.7766 79.0955 36.3888 79.0955C35.9795 79.0955 35.6548 79.1848 35.4148 79.3633C35.1778 79.5418 35.0178 79.7526 34.9347 79.9957L33.3743 79.7741C33.4974 79.3433 33.7005 78.9832 33.9837 78.6939C34.2668 78.4015 34.613 78.183 35.0224 78.0384C35.4317 77.8906 35.8841 77.8168 36.3796 77.8168C36.7212 77.8168 37.0613 77.8568 37.3999 77.9368C37.7384 78.0168 38.0477 78.1491 38.3278 78.3338C38.6078 78.5154 38.8325 78.7631 39.0018 79.0771C39.1741 79.391 39.2603 79.7834 39.2603 80.2543V85H37.6538V84.0259H37.5984C37.4968 84.2229 37.3537 84.4076 37.169 84.5799C36.9875 84.7492 36.7582 84.8861 36.4812 84.9908C36.2073 85.0923 35.8857 85.1431 35.5163 85.1431ZM35.9503 83.9151C36.2857 83.9151 36.5766 83.849 36.8228 83.7166C37.069 83.5812 37.2583 83.4027 37.3906 83.1811C37.526 82.9595 37.5938 82.7179 37.5938 82.4563V81.6207C37.5414 81.6638 37.4522 81.7038 37.326 81.7408C37.2029 81.7777 37.0644 81.81 36.9105 81.8377C36.7566 81.8654 36.6043 81.89 36.4535 81.9116C36.3027 81.9331 36.1719 81.9516 36.0611 81.967C35.8118 82.0008 35.5887 82.0562 35.3917 82.1332C35.1947 82.2101 35.0393 82.3178 34.9254 82.4563C34.8116 82.5917 34.7546 82.7672 34.7546 82.9826C34.7546 83.2904 34.867 83.5227 35.0916 83.6797C35.3163 83.8366 35.6025 83.9151 35.9503 83.9151ZM42.4641 82.7749L42.4595 80.7575H42.7273L45.2756 77.9091H47.2283L44.0938 81.3991H43.7475L42.4641 82.7749ZM40.9407 85V75.5455H42.6119V85H40.9407ZM45.391 85L43.0827 81.7731L44.2092 80.5959L47.3899 85H45.391ZM51.1893 85.1385C50.4783 85.1385 49.8643 84.9908 49.3473 84.6953C48.8333 84.3968 48.4379 83.9751 48.1609 83.4304C47.8839 82.8826 47.7454 82.2378 47.7454 81.4961C47.7454 80.7667 47.8839 80.1265 48.1609 79.5756C48.4409 79.0217 48.8318 78.5908 49.3335 78.283C49.8351 77.9722 50.4245 77.8168 51.1016 77.8168C51.5386 77.8168 51.951 77.8875 52.3388 78.0291C52.7296 78.1676 53.0743 78.383 53.3729 78.6754C53.6745 78.9678 53.9115 79.3402 54.0838 79.7926C54.2562 80.242 54.3423 80.7775 54.3423 81.3991V81.9116H48.5302V80.7852H52.7404C52.7373 80.4651 52.6681 80.1804 52.5327 79.9311C52.3973 79.6787 52.208 79.4802 51.9648 79.3356C51.7248 79.1909 51.4447 79.1186 51.1246 79.1186C50.783 79.1186 50.483 79.2017 50.2244 79.3679C49.9659 79.531 49.7643 79.7464 49.6197 80.0142C49.4781 80.2789 49.4058 80.5697 49.4027 80.8867V81.87C49.4027 82.2824 49.4781 82.6364 49.6289 82.9318C49.7797 83.2242 49.9905 83.4489 50.2614 83.6058C50.5322 83.7597 50.8492 83.8366 51.2124 83.8366C51.4555 83.8366 51.6755 83.8028 51.8725 83.7351C52.0695 83.6643 52.2403 83.5612 52.3849 83.4258C52.5296 83.2904 52.6388 83.1226 52.7127 82.9226L54.2731 83.098C54.1746 83.5104 53.9869 83.8705 53.7099 84.1783C53.436 84.483 53.0851 84.7199 52.6573 84.8892C52.2295 85.0554 51.7402 85.1385 51.1893 85.1385ZM59.0546 85V75.5455H62.6739C63.3572 75.5455 63.925 75.6532 64.3774 75.8686C64.8329 76.081 65.173 76.3718 65.3976 76.7411C65.6254 77.1104 65.7393 77.529 65.7393 77.9968C65.7393 78.3815 65.6654 78.7108 65.5177 78.9847C65.3699 79.2556 65.1714 79.4756 64.9221 79.6449C64.6729 79.8142 64.3943 79.9357 64.0866 80.0096V80.1019C64.422 80.1204 64.7436 80.2235 65.0514 80.4112C65.3622 80.5959 65.6162 80.8575 65.8131 81.196C66.0101 81.5346 66.1086 81.9439 66.1086 82.424C66.1086 82.9134 65.9901 83.3535 65.7531 83.7443C65.5161 84.1321 65.1591 84.4383 64.6821 84.663C64.205 84.8877 63.6049 85 62.8817 85H59.0546ZM60.7673 83.5689H62.6093C63.231 83.5689 63.6788 83.4504 63.9527 83.2134C64.2297 82.9734 64.3682 82.6656 64.3682 82.2901C64.3682 82.0101 64.2989 81.7577 64.1604 81.533C64.0219 81.3053 63.825 81.1268 63.5695 80.9975C63.3141 80.8652 63.0094 80.799 62.6555 80.799H60.7673V83.5689ZM60.7673 79.5664H62.4616C62.757 79.5664 63.0232 79.5125 63.2602 79.4048C63.4972 79.294 63.6834 79.1386 63.8188 78.9386C63.9573 78.7354 64.0265 78.4954 64.0265 78.2184C64.0265 77.8522 63.8973 77.5505 63.6388 77.3136C63.3833 77.0766 63.0032 76.9581 62.4985 76.9581H60.7673V79.5664ZM69.5652 85.1431C69.1158 85.1431 68.7111 85.0631 68.351 84.9031C67.994 84.7399 67.7109 84.4999 67.5016 84.1829C67.2954 83.8659 67.1923 83.475 67.1923 83.0103C67.1923 82.6102 67.2662 82.2794 67.4139 82.0178C67.5616 81.7562 67.7632 81.5469 68.0186 81.3899C68.2741 81.233 68.5618 81.1145 68.8819 81.0344C69.2051 80.9513 69.539 80.8913 69.8837 80.8544C70.2992 80.8113 70.6362 80.7728 70.8947 80.739C71.1532 80.7021 71.341 80.6467 71.4579 80.5728C71.5779 80.4959 71.638 80.3774 71.638 80.2173V80.1896C71.638 79.8419 71.5349 79.5726 71.3287 79.3817C71.1225 79.1909 70.8255 79.0955 70.4377 79.0955C70.0283 79.0955 69.7037 79.1848 69.4636 79.3633C69.2266 79.5418 69.0666 79.7526 68.9835 79.9957L67.4231 79.7741C67.5462 79.3433 67.7493 78.9832 68.0325 78.6939C68.3156 78.4015 68.6619 78.183 69.0712 78.0384C69.4805 77.8906 69.9329 77.8168 70.4284 77.8168C70.7701 77.8168 71.1101 77.8568 71.4487 77.9368C71.7872 78.0168 72.0965 78.1491 72.3766 78.3338C72.6567 78.5154 72.8813 78.7631 73.0506 79.0771C73.223 79.391 73.3091 79.7834 73.3091 80.2543V85H71.7026V84.0259H71.6472C71.5456 84.2229 71.4025 84.4076 71.2179 84.5799C71.0363 84.7492 70.807 84.8861 70.53 84.9908C70.2561 85.0923 69.9345 85.1431 69.5652 85.1431ZM69.9991 83.9151C70.3346 83.9151 70.6254 83.849 70.8716 83.7166C71.1178 83.5812 71.3071 83.4027 71.4395 83.1811C71.5749 82.9595 71.6426 82.7179 71.6426 82.4563V81.6207C71.5903 81.6638 71.501 81.7038 71.3748 81.7408C71.2517 81.7777 71.1132 81.81 70.9593 81.8377C70.8055 81.8654 70.6531 81.89 70.5023 81.9116C70.3515 81.9331 70.2207 81.9516 70.1099 81.967C69.8606 82.0008 69.6375 82.0562 69.4405 82.1332C69.2435 82.2101 69.0881 82.3178 68.9743 82.4563C68.8604 82.5917 68.8034 82.7672 68.8034 82.9826C68.8034 83.2904 68.9158 83.5227 69.1404 83.6797C69.3651 83.8366 69.6513 83.9151 69.9991 83.9151ZM75.0634 85V75.5455H76.7346V79.0817H76.8038C76.89 78.9093 77.0115 78.7262 77.1685 78.5323C77.3255 78.3353 77.5378 78.1676 77.8056 78.0291C78.0733 77.8875 78.415 77.8168 78.8304 77.8168C79.3783 77.8168 79.8722 77.9568 80.3123 78.2369C80.7555 78.5138 81.1064 78.9247 81.3649 79.4695C81.6265 80.0111 81.7573 80.6759 81.7573 81.4638C81.7573 82.2424 81.6296 82.9041 81.3741 83.4489C81.1187 83.9936 80.7709 84.4091 80.3308 84.6953C79.8907 84.9815 79.3921 85.1246 78.835 85.1246C78.4288 85.1246 78.0918 85.0569 77.824 84.9215C77.5563 84.7861 77.3408 84.623 77.1777 84.4322C77.0177 84.2383 76.8931 84.0552 76.8038 83.8828H76.7069V85H75.0634ZM76.7022 81.4545C76.7022 81.9131 76.7669 82.3147 76.8961 82.6594C77.0285 83.0041 77.2177 83.2734 77.464 83.4673C77.7132 83.6581 78.0149 83.7536 78.3688 83.7536C78.7381 83.7536 79.0474 83.6551 79.2967 83.4581C79.546 83.258 79.7337 82.9857 79.8599 82.641C79.9892 82.2932 80.0538 81.8977 80.0538 81.4545C80.0538 81.0144 79.9907 80.6236 79.8645 80.282C79.7383 79.9403 79.5506 79.6726 79.3013 79.4787C79.052 79.2848 78.7412 79.1879 78.3688 79.1879C78.0118 79.1879 77.7086 79.2817 77.4593 79.4695C77.21 79.6572 77.0208 79.9203 76.8915 80.2589C76.7653 80.5974 76.7022 80.996 76.7022 81.4545ZM83.9755 87.6591C83.7478 87.6591 83.5369 87.6406 83.343 87.6037C83.1522 87.5698 82.9999 87.5298 82.886 87.4837L83.2738 86.1818C83.5169 86.2526 83.7339 86.2865 83.9247 86.2834C84.1155 86.2803 84.2833 86.2203 84.4279 86.1033C84.5756 85.9895 84.7003 85.7987 84.8018 85.5309L84.945 85.1477L82.3736 77.9091H84.1463L85.7805 83.2642H85.8544L87.4933 77.9091H89.2706L86.4315 85.8587C86.2991 86.2341 86.1237 86.5558 85.9052 86.8235C85.6867 87.0943 85.4189 87.3005 85.1019 87.4421C84.788 87.5868 84.4125 87.6591 83.9755 87.6591ZM99.256 79.7834L97.7326 79.9496C97.6895 79.7957 97.6141 79.651 97.5064 79.5156C97.4018 79.3802 97.2602 79.271 97.0817 79.1879C96.9032 79.1048 96.6847 79.0632 96.4261 79.0632C96.0784 79.0632 95.786 79.1386 95.549 79.2894C95.3151 79.4402 95.1997 79.6357 95.2028 79.8757C95.1997 80.0819 95.2751 80.2496 95.429 80.3789C95.5859 80.5082 95.8445 80.6143 96.2045 80.6974L97.4141 80.956C98.085 81.1006 98.5836 81.3299 98.9098 81.6438C99.2391 81.9577 99.4053 82.3686 99.4084 82.8764C99.4053 83.3227 99.2745 83.7166 99.016 84.0582C98.7605 84.3968 98.4051 84.6615 97.9496 84.8523C97.4941 85.0431 96.9709 85.1385 96.38 85.1385C95.5121 85.1385 94.8134 84.9569 94.2841 84.5938C93.7547 84.2275 93.4393 83.7182 93.3377 83.0657L94.9673 82.9087C95.0412 83.2288 95.1982 83.4704 95.4382 83.6335C95.6783 83.7966 95.9906 83.8782 96.3754 83.8782C96.7724 83.8782 97.0909 83.7966 97.331 83.6335C97.5741 83.4704 97.6957 83.2688 97.6957 83.0288C97.6957 82.8256 97.6172 82.6579 97.4602 82.5256C97.3063 82.3932 97.0663 82.2917 96.7401 82.2209L95.5305 81.967C94.8504 81.8254 94.3472 81.5869 94.021 81.2514C93.6947 80.9129 93.5331 80.4851 93.5362 79.968C93.5331 79.531 93.6516 79.1525 93.8917 78.8324C94.1348 78.5092 94.4718 78.2599 94.9027 78.0845C95.3366 77.906 95.8368 77.8168 96.4031 77.8168C97.234 77.8168 97.888 77.9937 98.3651 78.3477C98.8452 78.7016 99.1422 79.1802 99.256 79.7834ZM104.327 77.9091V79.2017H100.251V77.9091H104.327ZM101.257 76.2102H102.928V82.8672C102.928 83.0919 102.962 83.2642 103.03 83.3842C103.101 83.5012 103.193 83.5812 103.307 83.6243C103.421 83.6674 103.547 83.6889 103.686 83.6889C103.79 83.6889 103.886 83.6812 103.972 83.6658C104.061 83.6504 104.129 83.6366 104.175 83.6243L104.456 84.9308C104.367 84.9615 104.24 84.9954 104.073 85.0323C103.91 85.0692 103.71 85.0908 103.473 85.0969C103.055 85.1093 102.678 85.0462 102.342 84.9077C102.007 84.7661 101.74 84.5476 101.544 84.2521C101.35 83.9567 101.254 83.5874 101.257 83.1442V76.2102ZM108.788 85.1385C108.077 85.1385 107.463 84.9908 106.946 84.6953C106.432 84.3968 106.036 83.9751 105.759 83.4304C105.483 82.8826 105.344 82.2378 105.344 81.4961C105.344 80.7667 105.483 80.1265 105.759 79.5756C106.04 79.0217 106.43 78.5908 106.932 78.283C107.434 77.9722 108.023 77.8168 108.7 77.8168C109.137 77.8168 109.55 77.8875 109.937 78.0291C110.328 78.1676 110.673 78.383 110.972 78.6754C111.273 78.9678 111.51 79.3402 111.682 79.7926C111.855 80.242 111.941 80.7775 111.941 81.3991V81.9116H106.129V80.7852H110.339C110.336 80.4651 110.267 80.1804 110.131 79.9311C109.996 79.6787 109.807 79.4802 109.563 79.3356C109.323 79.1909 109.043 79.1186 108.723 79.1186C108.382 79.1186 108.082 79.2017 107.823 79.3679C107.565 79.531 107.363 79.7464 107.218 80.0142C107.077 80.2789 107.004 80.5697 107.001 80.8867V81.87C107.001 82.2824 107.077 82.6364 107.228 82.9318C107.378 83.2242 107.589 83.4489 107.86 83.6058C108.131 83.7597 108.448 83.8366 108.811 83.8366C109.054 83.8366 109.274 83.8028 109.471 83.7351C109.668 83.6643 109.839 83.5612 109.984 83.4258C110.128 83.2904 110.237 83.1226 110.311 82.9226L111.872 83.098C111.773 83.5104 111.585 83.8705 111.309 84.1783C111.035 84.483 110.684 84.7199 110.256 84.8892C109.828 85.0554 109.339 85.1385 108.788 85.1385ZM113.355 87.6591V77.9091H114.998V79.0817H115.095C115.181 78.9093 115.303 78.7262 115.46 78.5323C115.617 78.3353 115.829 78.1676 116.097 78.0291C116.365 77.8875 116.706 77.8168 117.122 77.8168C117.67 77.8168 118.164 77.9568 118.604 78.2369C119.047 78.5138 119.398 78.9247 119.656 79.4695C119.918 80.0111 120.049 80.6759 120.049 81.4638C120.049 82.2424 119.921 82.9041 119.665 83.4489C119.41 83.9936 119.062 84.4091 118.622 84.6953C118.182 84.9815 117.683 85.1246 117.126 85.1246C116.72 85.1246 116.383 85.0569 116.115 84.9215C115.848 84.7861 115.632 84.623 115.469 84.4322C115.309 84.2383 115.184 84.0552 115.095 83.8828H115.026V87.6591H113.355ZM114.994 81.4545C114.994 81.9131 115.058 82.3147 115.188 82.6594C115.32 83.0041 115.509 83.2734 115.755 83.4673C116.005 83.6581 116.306 83.7536 116.66 83.7536C117.029 83.7536 117.339 83.6551 117.588 83.4581C117.837 83.258 118.025 82.9857 118.151 82.641C118.281 82.2932 118.345 81.8977 118.345 81.4545C118.345 81.0144 118.282 80.6236 118.156 80.282C118.03 79.9403 117.842 79.6726 117.593 79.4787C117.343 79.2848 117.033 79.1879 116.66 79.1879C116.303 79.1879 116 79.2817 115.751 79.4695C115.501 79.6572 115.312 79.9203 115.183 80.2589C115.057 80.5974 114.994 80.996 114.994 81.4545ZM127.084 79.7834L125.561 79.9496C125.518 79.7957 125.442 79.651 125.335 79.5156C125.23 79.3802 125.088 79.271 124.91 79.1879C124.731 79.1048 124.513 79.0632 124.254 79.0632C123.906 79.0632 123.614 79.1386 123.377 79.2894C123.143 79.4402 123.028 79.6357 123.031 79.8757C123.028 80.0819 123.103 80.2496 123.257 80.3789C123.414 80.5082 123.673 80.6143 124.033 80.6974L125.242 80.956C125.913 81.1006 126.412 81.3299 126.738 81.6438C127.067 81.9577 127.233 82.3686 127.237 82.8764C127.233 83.3227 127.103 83.7166 126.844 84.0582C126.589 84.3968 126.233 84.6615 125.778 84.8523C125.322 85.0431 124.799 85.1385 124.208 85.1385C123.34 85.1385 122.642 84.9569 122.112 84.5938C121.583 84.2275 121.267 83.7182 121.166 83.0657L122.795 82.9087C122.869 83.2288 123.026 83.4704 123.266 83.6335C123.506 83.7966 123.819 83.8782 124.203 83.8782C124.6 83.8782 124.919 83.7966 125.159 83.6335C125.402 83.4704 125.524 83.2688 125.524 83.0288C125.524 82.8256 125.445 82.6579 125.288 82.5256C125.134 82.3932 124.894 82.2917 124.568 82.2209L123.359 81.967C122.679 81.8254 122.175 81.5869 121.849 81.2514C121.523 80.9129 121.361 80.4851 121.364 79.968C121.361 79.531 121.48 79.1525 121.72 78.8324C121.963 78.5092 122.3 78.2599 122.731 78.0845C123.165 77.906 123.665 77.8168 124.231 77.8168C125.062 77.8168 125.716 77.9937 126.193 78.3477C126.673 78.7016 126.97 79.1802 127.084 79.7834ZM135.38 77.9091V79.2017H131.304V77.9091H135.38ZM132.31 76.2102H133.981V82.8672C133.981 83.0919 134.015 83.2642 134.083 83.3842C134.154 83.5012 134.246 83.5812 134.36 83.6243C134.474 83.6674 134.6 83.6889 134.738 83.6889C134.843 83.6889 134.938 83.6812 135.025 83.6658C135.114 83.6504 135.181 83.6366 135.228 83.6243L135.509 84.9308C135.42 84.9615 135.292 84.9954 135.126 85.0323C134.963 85.0692 134.763 85.0908 134.526 85.0969C134.107 85.1093 133.73 85.0462 133.395 84.9077C133.059 84.7661 132.793 84.5476 132.596 84.2521C132.402 83.9567 132.307 83.5874 132.31 83.1442V76.2102ZM139.794 85.1385C139.102 85.1385 138.502 84.9862 137.994 84.6815C137.486 84.3768 137.092 83.9505 136.812 83.4027C136.535 82.8549 136.397 82.2147 136.397 81.4822C136.397 80.7498 136.535 80.1081 136.812 79.5572C137.092 79.0063 137.486 78.5785 137.994 78.2738C138.502 77.9691 139.102 77.8168 139.794 77.8168C140.487 77.8168 141.087 77.9691 141.595 78.2738C142.103 78.5785 142.495 79.0063 142.772 79.5572C143.052 80.1081 143.192 80.7498 143.192 81.4822C143.192 82.2147 143.052 82.8549 142.772 83.4027C142.495 83.9505 142.103 84.3768 141.595 84.6815C141.087 84.9862 140.487 85.1385 139.794 85.1385ZM139.804 83.7997C140.179 83.7997 140.493 83.6966 140.745 83.4904C140.998 83.2811 141.186 83.0011 141.309 82.6502C141.435 82.2994 141.498 81.9085 141.498 81.4776C141.498 81.0437 141.435 80.6513 141.309 80.3004C141.186 79.9465 140.998 79.6649 140.745 79.4556C140.493 79.2463 140.179 79.1417 139.804 79.1417C139.419 79.1417 139.099 79.2463 138.843 79.4556C138.591 79.6649 138.402 79.9465 138.276 80.3004C138.153 80.6513 138.091 81.0437 138.091 81.4776C138.091 81.9085 138.153 82.2994 138.276 82.6502C138.402 83.0011 138.591 83.2811 138.843 83.4904C139.099 83.6966 139.419 83.7997 139.804 83.7997ZM153.44 79.7834L151.916 79.9496C151.873 79.7957 151.798 79.651 151.69 79.5156C151.585 79.3802 151.444 79.271 151.265 79.1879C151.087 79.1048 150.868 79.0632 150.61 79.0632C150.262 79.0632 149.97 79.1386 149.733 79.2894C149.499 79.4402 149.383 79.6357 149.386 79.8757C149.383 80.0819 149.459 80.2496 149.613 80.3789C149.77 80.5082 150.028 80.6143 150.388 80.6974L151.598 80.956C152.269 81.1006 152.767 81.3299 153.093 81.6438C153.423 81.9577 153.589 82.3686 153.592 82.8764C153.589 83.3227 153.458 83.7166 153.2 84.0582C152.944 84.3968 152.589 84.6615 152.133 84.8523C151.678 85.0431 151.154 85.1385 150.564 85.1385C149.696 85.1385 148.997 84.9569 148.468 84.5938C147.938 84.2275 147.623 83.7182 147.521 83.0657L149.151 82.9087C149.225 83.2288 149.382 83.4704 149.622 83.6335C149.862 83.7966 150.174 83.8782 150.559 83.8782C150.956 83.8782 151.275 83.7966 151.515 83.6335C151.758 83.4704 151.879 83.2688 151.879 83.0288C151.879 82.8256 151.801 82.6579 151.644 82.5256C151.49 82.3932 151.25 82.2917 150.924 82.2209L149.714 81.967C149.034 81.8254 148.531 81.5869 148.205 81.2514C147.878 80.9129 147.717 80.4851 147.72 79.968C147.717 79.531 147.835 79.1525 148.075 78.8324C148.318 78.5092 148.655 78.2599 149.086 78.0845C149.52 77.906 150.02 77.8168 150.587 77.8168C151.418 77.8168 152.072 77.9937 152.549 78.3477C153.029 78.7016 153.326 79.1802 153.44 79.7834ZM158.511 77.9091V79.2017H154.434V77.9091H158.511ZM155.441 76.2102H157.112V82.8672C157.112 83.0919 157.146 83.2642 157.214 83.3842C157.284 83.5012 157.377 83.5812 157.491 83.6243C157.604 83.6674 157.731 83.6889 157.869 83.6889C157.974 83.6889 158.069 83.6812 158.155 83.6658C158.245 83.6504 158.312 83.6366 158.358 83.6243L158.64 84.9308C158.551 84.9615 158.423 84.9954 158.257 85.0323C158.094 85.0692 157.894 85.0908 157.657 85.0969C157.238 85.1093 156.861 85.0462 156.526 84.9077C156.19 84.7661 155.924 84.5476 155.727 84.2521C155.533 83.9567 155.438 83.5874 155.441 83.1442V76.2102ZM161.949 85.1431C161.5 85.1431 161.095 85.0631 160.735 84.9031C160.378 84.7399 160.095 84.4999 159.885 84.1829C159.679 83.8659 159.576 83.475 159.576 83.0103C159.576 82.6102 159.65 82.2794 159.798 82.0178C159.945 81.7562 160.147 81.5469 160.402 81.3899C160.658 81.233 160.946 81.1145 161.266 81.0344C161.589 80.9513 161.923 80.8913 162.267 80.8544C162.683 80.8113 163.02 80.7728 163.278 80.739C163.537 80.7021 163.725 80.6467 163.842 80.5728C163.962 80.4959 164.022 80.3774 164.022 80.2173V80.1896C164.022 79.8419 163.919 79.5726 163.712 79.3817C163.506 79.1909 163.209 79.0955 162.821 79.0955C162.412 79.0955 162.087 79.1848 161.847 79.3633C161.61 79.5418 161.45 79.7526 161.367 79.9957L159.807 79.7741C159.93 79.3433 160.133 78.9832 160.416 78.6939C160.699 78.4015 161.046 78.183 161.455 78.0384C161.864 77.8906 162.317 77.8168 162.812 77.8168C163.154 77.8168 163.494 77.8568 163.832 77.9368C164.171 78.0168 164.48 78.1491 164.76 78.3338C165.04 78.5154 165.265 78.7631 165.434 79.0771C165.607 79.391 165.693 79.7834 165.693 80.2543V85H164.086V84.0259H164.031C163.929 84.2229 163.786 84.4076 163.602 84.5799C163.42 84.7492 163.191 84.8861 162.914 84.9908C162.64 85.0923 162.318 85.1431 161.949 85.1431ZM162.383 83.9151C162.718 83.9151 163.009 83.849 163.255 83.7166C163.502 83.5812 163.691 83.4027 163.823 83.1811C163.959 82.9595 164.026 82.7179 164.026 82.4563V81.6207C163.974 81.6638 163.885 81.7038 163.759 81.7408C163.636 81.7777 163.497 81.81 163.343 81.8377C163.189 81.8654 163.037 81.89 162.886 81.9116C162.735 81.9331 162.604 81.9516 162.494 81.967C162.244 82.0008 162.021 82.0562 161.824 82.1332C161.627 82.2101 161.472 82.3178 161.358 82.4563C161.244 82.5917 161.187 82.7672 161.187 82.9826C161.187 83.2904 161.3 83.5227 161.524 83.6797C161.749 83.8366 162.035 83.9151 162.383 83.9151ZM167.373 85V77.9091H168.994V79.0909H169.068C169.197 78.6816 169.418 78.3661 169.732 78.1445C170.049 77.9199 170.411 77.8075 170.817 77.8075C170.91 77.8075 171.013 77.8121 171.127 77.8214C171.243 77.8275 171.34 77.8383 171.417 77.8537V79.391C171.347 79.3664 171.234 79.3448 171.08 79.3263C170.93 79.3048 170.783 79.294 170.642 79.294C170.337 79.294 170.063 79.3602 169.82 79.4925C169.58 79.6218 169.391 79.8018 169.252 80.0327C169.114 80.2635 169.044 80.5297 169.044 80.8313V85H167.373ZM176.449 77.9091V79.2017H172.373V77.9091H176.449ZM173.379 76.2102H175.051V82.8672C175.051 83.0919 175.084 83.2642 175.152 83.3842C175.223 83.5012 175.315 83.5812 175.429 83.6243C175.543 83.6674 175.669 83.6889 175.808 83.6889C175.912 83.6889 176.008 83.6812 176.094 83.6658C176.183 83.6504 176.251 83.6366 176.297 83.6243L176.579 84.9308C176.489 84.9615 176.362 84.9954 176.195 85.0323C176.032 85.0692 175.832 85.0908 175.595 85.0969C175.177 85.1093 174.8 85.0462 174.464 84.9077C174.129 84.7661 173.863 84.5476 173.666 84.2521C173.472 83.9567 173.376 83.5874 173.379 83.1442V76.2102ZM25.9325 101V91.5455H32.0817V92.9812H27.6452V95.5479H31.7631V96.9837H27.6452V99.5643H32.1186V101H25.9325ZM35.7956 101.143C35.3463 101.143 34.9416 101.063 34.5815 100.903C34.2245 100.74 33.9413 100.5 33.7321 100.183C33.5259 99.8659 33.4228 99.475 33.4228 99.0103C33.4228 98.6102 33.4966 98.2794 33.6444 98.0178C33.7921 97.7562 33.9937 97.5469 34.2491 97.3899C34.5046 97.233 34.7923 97.1145 35.1124 97.0344C35.4355 96.9513 35.7695 96.8913 36.1142 96.8544C36.5297 96.8113 36.8667 96.7728 37.1252 96.739C37.3837 96.7021 37.5714 96.6467 37.6884 96.5728C37.8084 96.4959 37.8684 96.3774 37.8684 96.2173V96.1896C37.8684 95.8419 37.7653 95.5726 37.5591 95.3817C37.3529 95.1909 37.0559 95.0955 36.6681 95.0955C36.2588 95.0955 35.9341 95.1848 35.6941 95.3633C35.4571 95.5418 35.2971 95.7526 35.214 95.9957L33.6536 95.7741C33.7767 95.3433 33.9798 94.9832 34.263 94.6939C34.5461 94.4015 34.8923 94.183 35.3017 94.0384C35.711 93.8906 36.1634 93.8168 36.6589 93.8168C37.0005 93.8168 37.3406 93.8568 37.6792 93.9368C38.0177 94.0168 38.327 94.1491 38.6071 94.3338C38.8871 94.5154 39.1118 94.7631 39.2811 95.0771C39.4534 95.391 39.5396 95.7834 39.5396 96.2543V101H37.9331V100.026H37.8777C37.7761 100.223 37.633 100.408 37.4483 100.58C37.2667 100.749 37.0375 100.886 36.7605 100.991C36.4866 101.092 36.165 101.143 35.7956 101.143ZM36.2296 99.9151C36.565 99.9151 36.8559 99.849 37.1021 99.7166C37.3483 99.5812 37.5376 99.4027 37.6699 99.1811C37.8053 98.9595 37.873 98.7179 37.873 98.4563V97.6207C37.8207 97.6638 37.7315 97.7038 37.6053 97.7408C37.4822 97.7777 37.3437 97.81 37.1898 97.8377C37.0359 97.8654 36.8836 97.89 36.7328 97.9116C36.582 97.9331 36.4512 97.9516 36.3404 97.967C36.0911 98.0008 35.868 98.0562 35.671 98.1332C35.474 98.2101 35.3186 98.3178 35.2047 98.4563C35.0909 98.5917 35.0339 98.7672 35.0339 98.9826C35.0339 99.2904 35.1462 99.5227 35.3709 99.6797C35.5956 99.8366 35.8818 99.9151 36.2296 99.9151ZM44.7608 93.9091V95.2017H40.6845V93.9091H44.7608ZM41.6909 92.2102H43.362V98.8672C43.362 99.0919 43.3959 99.2642 43.4636 99.3842C43.5344 99.5012 43.6267 99.5812 43.7406 99.6243C43.8545 99.6674 43.9806 99.6889 44.1191 99.6889C44.2238 99.6889 44.3192 99.6812 44.4054 99.6658C44.4946 99.6504 44.5623 99.6366 44.6085 99.6243L44.8901 100.931C44.8008 100.962 44.6731 100.995 44.5069 101.032C44.3438 101.069 44.1438 101.091 43.9068 101.097C43.4882 101.109 43.1112 101.046 42.7757 100.908C42.4403 100.766 42.1741 100.548 41.9771 100.252C41.7832 99.9567 41.6878 99.5874 41.6909 99.1442V92.2102ZM46.1585 101V93.9091H47.8296V101H46.1585ZM46.9987 92.9027C46.734 92.9027 46.5062 92.815 46.3154 92.6396C46.1246 92.4611 46.0292 92.2472 46.0292 91.9979C46.0292 91.7455 46.1246 91.5316 46.3154 91.3562C46.5062 91.1777 46.734 91.0884 46.9987 91.0884C47.2664 91.0884 47.4942 91.1777 47.6819 91.3562C47.8727 91.5316 47.9681 91.7455 47.9681 91.9979C47.9681 92.2472 47.8727 92.4611 47.6819 92.6396C47.4942 92.815 47.2664 92.9027 46.9987 92.9027ZM51.2193 96.8452V101H49.5481V93.9091H51.1454V95.114H51.2285C51.3916 94.717 51.6517 94.4015 52.0087 94.1676C52.3688 93.9337 52.8135 93.8168 53.3429 93.8168C53.8322 93.8168 54.2585 93.9214 54.6216 94.1307C54.9879 94.34 55.271 94.6431 55.4711 95.0401C55.6742 95.4371 55.7742 95.9188 55.7711 96.4851V101H54.1V96.7436C54.1 96.2696 53.9769 95.8988 53.7306 95.631C53.4875 95.3633 53.1505 95.2294 52.7196 95.2294C52.4273 95.2294 52.1672 95.294 51.9395 95.4233C51.7148 95.5495 51.5378 95.7326 51.4086 95.9727C51.2824 96.2127 51.2193 96.5036 51.2193 96.8452ZM60.5538 103.807C59.9537 103.807 59.4382 103.725 59.0073 103.562C58.5764 103.402 58.2302 103.187 57.9686 102.916C57.707 102.645 57.5254 102.345 57.4238 102.016L58.9288 101.651C58.9965 101.789 59.095 101.926 59.2243 102.062C59.3535 102.2 59.5274 102.314 59.7459 102.403C59.9675 102.496 60.246 102.542 60.5815 102.542C61.0555 102.542 61.4479 102.426 61.7587 102.196C62.0695 101.968 62.225 101.592 62.225 101.069V99.7259H62.1419C62.0557 99.8982 61.9295 100.075 61.7633 100.257C61.6002 100.438 61.3832 100.591 61.1124 100.714C60.8446 100.837 60.5076 100.898 60.1014 100.898C59.5566 100.898 59.0627 100.771 58.6195 100.515C58.1794 100.257 57.8285 99.872 57.5669 99.3612C57.3084 98.8472 57.1792 98.204 57.1792 97.4315C57.1792 96.6528 57.3084 95.9957 57.5669 95.4602C57.8285 94.9216 58.1809 94.5138 58.6241 94.2369C59.0673 93.9568 59.5613 93.8168 60.106 93.8168C60.5215 93.8168 60.8631 93.8875 61.1309 94.0291C61.4017 94.1676 61.6171 94.3353 61.7772 94.5323C61.9372 94.7262 62.0588 94.9093 62.1419 95.0817H62.2342V93.9091H63.8823V101.115C63.8823 101.722 63.7376 102.223 63.4483 102.62C63.159 103.017 62.7636 103.314 62.2619 103.511C61.7602 103.708 61.1909 103.807 60.5538 103.807ZM60.5676 99.5874C60.9216 99.5874 61.2232 99.5012 61.4725 99.3288C61.7218 99.1565 61.911 98.9087 62.0403 98.5856C62.1696 98.2624 62.2342 97.8746 62.2342 97.4222C62.2342 96.976 62.1696 96.5851 62.0403 96.2496C61.9141 95.9142 61.7264 95.6541 61.4771 95.4695C61.2309 95.2817 60.9277 95.1879 60.5676 95.1879C60.1953 95.1879 59.8844 95.2848 59.6351 95.4787C59.3858 95.6726 59.1981 95.9388 59.0719 96.2773C58.9457 96.6128 58.8826 96.9944 58.8826 97.4222C58.8826 97.8562 58.9457 98.2363 59.0719 98.5625C59.2012 98.8857 59.3904 99.138 59.6397 99.3196C59.8921 99.4981 60.2014 99.5874 60.5676 99.5874ZM68.8935 101V91.5455H72.5128C73.196 91.5455 73.7638 91.6532 74.2163 91.8686C74.6718 92.081 75.0118 92.3718 75.2365 92.7411C75.4643 93.1104 75.5781 93.529 75.5781 93.9968C75.5781 94.3815 75.5043 94.7108 75.3565 94.9847C75.2088 95.2556 75.0103 95.4756 74.761 95.6449C74.5117 95.8142 74.2332 95.9357 73.9254 96.0096V96.1019C74.2609 96.1204 74.5825 96.2235 74.8903 96.4112C75.2011 96.5959 75.455 96.8575 75.652 97.196C75.849 97.5346 75.9474 97.9439 75.9474 98.424C75.9474 98.9134 75.829 99.3535 75.592 99.7443C75.355 100.132 74.998 100.438 74.521 100.663C74.0439 100.888 73.4438 101 72.7205 101H68.8935ZM70.6062 99.5689H72.4482C73.0698 99.5689 73.5176 99.4504 73.7915 99.2134C74.0685 98.9734 74.207 98.6656 74.207 98.2901C74.207 98.0101 74.1378 97.7577 73.9993 97.533C73.8608 97.3053 73.6638 97.1268 73.4084 96.9975C73.1529 96.8652 72.8482 96.799 72.4943 96.799H70.6062V99.5689ZM70.6062 95.5664H72.3004C72.5959 95.5664 72.8621 95.5125 73.0991 95.4048C73.3361 95.294 73.5223 95.1386 73.6577 94.9386C73.7962 94.7354 73.8654 94.4954 73.8654 94.2184C73.8654 93.8522 73.7362 93.5505 73.4776 93.3136C73.2222 93.0766 72.8421 92.9581 72.3374 92.9581H70.6062V95.5664ZM80.5028 101.138C79.7918 101.138 79.1778 100.991 78.6608 100.695C78.1468 100.397 77.7513 99.9751 77.4743 99.4304C77.1974 98.8826 77.0589 98.2378 77.0589 97.4961C77.0589 96.7667 77.1974 96.1265 77.4743 95.5756C77.7544 95.0217 78.1453 94.5908 78.6469 94.283C79.1486 93.9722 79.738 93.8168 80.415 93.8168C80.8521 93.8168 81.2645 93.8875 81.6523 94.0291C82.0431 94.1676 82.3878 94.383 82.6863 94.6754C82.988 94.9678 83.2249 95.3402 83.3973 95.7926C83.5696 96.242 83.6558 96.7775 83.6558 97.3991V97.9116H77.8437V96.7852H82.0539C82.0508 96.4651 81.9816 96.1804 81.8461 95.9311C81.7107 95.6787 81.5215 95.4802 81.2783 95.3356C81.0383 95.1909 80.7582 95.1186 80.4381 95.1186C80.0965 95.1186 79.7964 95.2017 79.5379 95.3679C79.2794 95.531 79.0778 95.7464 78.9331 96.0142C78.7916 96.2789 78.7193 96.5697 78.7162 96.8867V97.87C78.7162 98.2824 78.7916 98.6364 78.9424 98.9318C79.0932 99.2242 79.304 99.4489 79.5748 99.6058C79.8457 99.7597 80.1627 99.8366 80.5258 99.8366C80.769 99.8366 80.989 99.8028 81.186 99.7351C81.383 99.6643 81.5538 99.5612 81.6984 99.4258C81.8431 99.2904 81.9523 99.1226 82.0262 98.9226L83.5866 99.098C83.4881 99.5104 83.3003 99.8705 83.0233 100.178C82.7494 100.483 82.3986 100.72 81.9708 100.889C81.543 101.055 81.0537 101.138 80.5028 101.138ZM88.6104 93.9091V95.2017H84.5341V93.9091H88.6104ZM85.5405 92.2102H87.2116V98.8672C87.2116 99.0919 87.2455 99.2642 87.3132 99.3842C87.384 99.5012 87.4763 99.5812 87.5902 99.6243C87.7041 99.6674 87.8303 99.6889 87.9688 99.6889C88.0734 99.6889 88.1688 99.6812 88.255 99.6658C88.3442 99.6504 88.4119 99.6366 88.4581 99.6243L88.7397 100.931C88.6504 100.962 88.5227 100.995 88.3565 101.032C88.1934 101.069 87.9934 101.091 87.7564 101.097C87.3378 101.109 86.9608 101.046 86.6254 100.908C86.2899 100.766 86.0237 100.548 85.8267 100.252C85.6328 99.9567 85.5374 99.5874 85.5405 99.1442V92.2102ZM93.5489 93.9091V95.2017H89.4726V93.9091H93.5489ZM90.479 92.2102H92.1501V98.8672C92.1501 99.0919 92.184 99.2642 92.2517 99.3842C92.3225 99.5012 92.4148 99.5812 92.5287 99.6243C92.6425 99.6674 92.7687 99.6889 92.9072 99.6889C93.0119 99.6889 93.1073 99.6812 93.1934 99.6658C93.2827 99.6504 93.3504 99.6366 93.3966 99.6243L93.6782 100.931C93.5889 100.962 93.4612 100.995 93.295 101.032C93.1319 101.069 92.9318 101.091 92.6949 101.097C92.2763 101.109 91.8993 101.046 91.5638 100.908C91.2284 100.766 90.9622 100.548 90.7652 100.252C90.5713 99.9567 90.4759 99.5874 90.479 99.1442V92.2102ZM98.0096 101.138C97.2987 101.138 96.6847 100.991 96.1676 100.695C95.6536 100.397 95.2582 99.9751 94.9812 99.4304C94.7042 98.8826 94.5657 98.2378 94.5657 97.4961C94.5657 96.7667 94.7042 96.1265 94.9812 95.5756C95.2612 95.0217 95.6521 94.5908 96.1538 94.283C96.6554 93.9722 97.2448 93.8168 97.9219 93.8168C98.3589 93.8168 98.7713 93.8875 99.1591 94.0291C99.55 94.1676 99.8946 94.383 100.193 94.6754C100.495 94.9678 100.732 95.3402 100.904 95.7926C101.076 96.242 101.163 96.7775 101.163 97.3991V97.9116H95.3505V96.7852H99.5607C99.5576 96.4651 99.4884 96.1804 99.353 95.9311C99.2176 95.6787 99.0283 95.4802 98.7852 95.3356C98.5451 95.1909 98.265 95.1186 97.945 95.1186C97.6033 95.1186 97.3033 95.2017 97.0447 95.3679C96.7862 95.531 96.5846 95.7464 96.44 96.0142C96.2984 96.2789 96.2261 96.5697 96.223 96.8867V97.87C96.223 98.2824 96.2984 98.6364 96.4492 98.9318C96.6 99.2242 96.8108 99.4489 97.0817 99.6058C97.3525 99.7597 97.6695 99.8366 98.0327 99.8366C98.2758 99.8366 98.4959 99.8028 98.6928 99.7351C98.8898 99.6643 99.0606 99.5612 99.2053 99.4258C99.3499 99.2904 99.4592 99.1226 99.533 98.9226L101.093 99.098C100.995 99.5104 100.807 99.8705 100.53 100.178C100.256 100.483 99.9054 100.72 99.4776 100.889C99.0498 101.055 98.5605 101.138 98.0096 101.138ZM102.576 101V93.9091H104.197V95.0909H104.271C104.4 94.6816 104.622 94.3661 104.935 94.1445C105.252 93.9199 105.614 93.8075 106.02 93.8075C106.113 93.8075 106.216 93.8121 106.33 93.8214C106.447 93.8275 106.544 93.8383 106.62 93.8537V95.391C106.55 95.3664 106.437 95.3448 106.283 95.3263C106.133 95.3048 105.986 95.294 105.845 95.294C105.54 95.294 105.266 95.3602 105.023 95.4925C104.783 95.6218 104.594 95.8018 104.455 96.0327C104.317 96.2635 104.248 96.5297 104.248 96.8313V101H102.576ZM107.948 101.102C107.668 101.102 107.428 101.003 107.228 100.806C107.027 100.609 106.929 100.369 106.932 100.086C106.929 99.8089 107.027 99.572 107.228 99.375C107.428 99.178 107.668 99.0795 107.948 99.0795C108.219 99.0795 108.454 99.178 108.654 99.375C108.857 99.572 108.96 99.8089 108.963 100.086C108.96 100.274 108.911 100.444 108.816 100.598C108.723 100.752 108.6 100.875 108.446 100.968C108.295 101.057 108.129 101.102 107.948 101.102ZM112.62 91.5455L112.467 98.2209H110.981L110.833 91.5455H112.62ZM111.724 101.102C111.444 101.102 111.204 101.003 111.004 100.806C110.807 100.609 110.708 100.369 110.708 100.086C110.708 99.8089 110.807 99.572 111.004 99.375C111.204 99.178 111.444 99.0795 111.724 99.0795C111.998 99.0795 112.235 99.178 112.435 99.375C112.638 99.572 112.74 99.8089 112.74 100.086C112.74 100.274 112.692 100.444 112.597 100.598C112.504 100.752 112.381 100.875 112.227 100.968C112.076 101.057 111.909 101.102 111.724 101.102Z" fill="#483838"/>
</svg>
