<svg width="27" height="25" viewBox="0 0 27 25" fill="none" xmlns="http://www.w3.org/2000/svg">
<path fill-rule="evenodd" clip-rule="evenodd" d="M13.3929 23.2143C12.4062 23.2143 11.6071 22.4152 11.6071 21.4286C11.6071 20.442 12.4062 19.6429 13.3929 19.6429C14.3795 19.6429 15.1786 20.442 15.1786 21.4286C15.1786 22.4152 14.3795 23.2143 13.3929 23.2143ZM25.8929 20.5357H16.8384C16.4375 18.9589 15.0179 17.8571 13.3929 17.8571C11.7679 17.8571 10.3482 18.9589 9.94732 20.5357H0.892857C0.400893 20.5357 0 20.9366 0 21.4286C0 21.9205 0.400893 22.3214 0.892857 22.3214H9.94732C10.3482 23.8982 11.7679 25 13.3929 25C15.0179 25 16.4375 23.8982 16.8384 22.3214H25.8929C26.3848 22.3214 26.7857 21.9205 26.7857 21.4286C26.7857 20.9366 26.3848 20.5357 25.8929 20.5357ZM22.3214 14.2857C21.3348 14.2857 20.5357 13.4866 20.5357 12.5C20.5357 11.5134 21.3348 10.7143 22.3214 10.7143C23.308 10.7143 24.1071 11.5134 24.1071 12.5C24.1071 13.4866 23.308 14.2857 22.3214 14.2857ZM25.8929 11.6071H25.767C25.3661 10.0304 23.9464 8.92857 22.3214 8.92857C20.6964 8.92857 19.2768 10.0304 18.8759 11.6071H0.892857C0.400893 11.6071 0 12.008 0 12.5C0 12.992 0.400893 13.3929 0.892857 13.3929H18.8759C19.2768 14.9696 20.6964 16.0714 22.3214 16.0714C23.9464 16.0714 25.3661 14.9696 25.767 13.3929H25.8929C26.3848 13.3929 26.7857 12.992 26.7857 12.5C26.7857 12.008 26.3848 11.6071 25.8929 11.6071ZM4.46429 1.78571C5.45089 1.78571 6.25 2.58482 6.25 3.57143C6.25 4.55804 5.45089 5.35714 4.46429 5.35714C3.47768 5.35714 2.67857 4.55804 2.67857 3.57143C2.67857 2.58482 3.47768 1.78571 4.46429 1.78571ZM0.892857 4.46429H1.01875C1.41964 6.04107 2.83929 7.14286 4.46429 7.14286C6.08929 7.14286 7.50893 6.04107 7.90982 4.46429H25.8929C26.3848 4.46429 26.7857 4.06339 26.7857 3.57143C26.7857 3.07946 26.3848 2.67857 25.8929 2.67857H7.90982C7.50893 1.10179 6.08929 0 4.46429 0C2.83929 0 1.41964 1.10179 1.01875 2.67857H0.892857C0.400893 2.67857 0 3.07946 0 3.57143C0 4.06339 0.400893 4.46429 0.892857 4.46429Z" fill="#483838"/>
</svg>
