<svg width="23" height="24" viewBox="0 0 23 24" fill="none" xmlns="http://www.w3.org/2000/svg">
<path fill-rule="evenodd" clip-rule="evenodd" d="M9.43095 21.9262H4.66905C3.125 21.9214 1.87381 20.675 1.86429 19.131V9.65834C1.86429 9.14168 2.09762 8.65358 2.49286 8.32382L3.33452 7.70001C3.64167 7.37501 3.66905 6.87739 3.40833 6.5143C3.14405 6.15239 2.65952 6.03096 2.25595 6.22144L1.4 6.86311C0.529762 7.53334 0.0190476 8.56072 0 9.65834V19.1405C0.0047619 21.7167 2.09286 23.8048 4.66905 23.8095H9.43095C9.94643 23.8095 10.3607 23.3905 10.3607 22.8798C10.3607 22.3631 9.94643 21.9452 9.43095 21.9452V21.9262Z" fill="#2B0752"/>
<path fill-rule="evenodd" clip-rule="evenodd" d="M22.3726 9.63597C22.3583 8.55144 21.8607 7.52406 21.0142 6.84073L13.863 1.13954C12.2904 -0.125939 10.0488 -0.125939 8.47733 1.13954L6.21305 2.78597C5.78447 3.09192 5.68686 3.68358 5.994 4.11097C6.30114 4.53358 6.89162 4.6312 7.319 4.32525L9.61662 2.60858C10.519 1.86454 11.8214 1.86454 12.7238 2.60858L19.875 8.30978C20.2892 8.64073 20.5309 9.13358 20.5404 9.65858V19.1407C20.5404 20.6848 19.2845 21.936 17.7452 21.936H15.6202C15.4023 21.936 15.2297 21.7586 15.2297 21.5407V17.2669C15.2297 15.9038 14.1273 14.7967 12.7654 14.7931H9.65828C9.00233 14.7931 8.37495 15.0526 7.91066 15.5181C7.44519 15.9836 7.18447 16.611 7.18447 17.2669V18.9038C7.18447 19.4145 7.60352 19.8336 8.11424 19.8336C8.6309 19.8336 9.04995 19.4145 9.04995 18.9038V17.2669C9.04519 17.1038 9.10471 16.9503 9.22138 16.8336C9.33328 16.7229 9.48686 16.6574 9.64876 16.6574H12.7559C13.0857 16.6574 13.3559 16.9276 13.3559 17.2574V21.5407C13.3607 22.7907 14.3738 23.8003 15.6202 23.8003H17.6892C20.2702 23.8003 22.3583 21.7074 22.3583 19.1312L22.3726 9.63597Z" fill="#2B0752"/>
</svg>
