<svg width="90" height="90" viewBox="0 0 90 90" fill="none" xmlns="http://www.w3.org/2000/svg">
<circle cx="45" cy="45" r="44" stroke="#45BC1B" stroke-width="2"/>
<circle cx="45" cy="45" r="35" fill="#45BC1B"/>
<path fill-rule="evenodd" clip-rule="evenodd" d="M52.1532 52.1545C52.5586 52.1545 52.97 52.5095 52.9624 52.9164V54.8684H54.8671C55.2664 54.8684 55.629 55.2249 55.629 55.6303C55.629 56.028 55.2664 56.3922 54.8671 56.3922H52.9624V58.2969C52.9502 58.7068 52.6119 59.0451 52.2005 59.0588C51.7845 59.0451 51.4462 58.7068 51.4386 58.2969V56.3922H49.4866C49.0873 56.4089 48.7429 56.028 48.7247 55.6303C48.7186 55.2249 49.034 54.8851 49.4393 54.8684H51.4386V52.9164C51.4325 52.5156 51.754 52.1545 52.1532 52.1545ZM52.1532 50.2969C49.2656 50.2969 46.9631 52.6345 46.9631 55.5343C46.9631 58.4341 49.2656 60.7731 52.1532 60.7731C55.0104 60.7259 57.3022 58.3914 57.3022 55.5343C57.3022 52.6771 55.0104 50.3442 52.1532 50.2969ZM44.0587 36.2017C43.0408 36.1834 41.9635 36.6482 41.2488 37.3918C41.2351 37.3918 41.2549 37.439 41.2488 37.439C39.5864 39.0162 40.0328 42.1598 41.9635 43.3438C43.9079 44.6832 47.0652 43.5404 47.725 41.2973C47.725 41.279 47.7189 41.2607 47.725 41.2486C48.5586 38.975 46.4694 36.0935 44.0587 36.2017ZM44.0115 34.7251C47.5696 34.588 50.3612 38.3746 49.1528 41.7255C48.1654 45.0047 44.0115 46.5819 41.1544 44.6299C38.3627 42.8912 37.7319 38.6718 40.1532 36.3449C41.165 35.3026 42.5593 34.7129 44.0115 34.7251ZM43.1536 29.0108C42.3079 29.0825 41.4759 29.2546 40.6774 29.535C36.7734 30.8257 33.5947 34.4219 33.1056 38.5346C32.6043 41.9876 33.9163 45.6828 36.4382 48.1057L36.4869 48.1545C38.9494 50.9461 41.4104 53.7377 43.8683 56.5354L44.6774 55.6303V55.5343C44.6835 51.5708 47.7723 48.3023 51.725 48.0585L52.3909 47.2966C52.5037 47.1594 52.6119 46.9994 52.7247 46.8684C55.0576 43.9396 55.7784 39.7842 54.4389 36.2962H54.3917C52.909 32.0051 48.589 28.9697 44.0587 29.0108H44.0115C43.725 29.0108 43.434 28.9865 43.1536 29.0108Z" fill="white"/>
</svg>
