<svg width="130" height="130" viewBox="0 0 130 130" fill="none" xmlns="http://www.w3.org/2000/svg">
<path fill-rule="evenodd" clip-rule="evenodd" d="M130 65C130 100.907 100.907 130 65 130C29.0929 130 0 100.907 0 65C0 29.0929 29.0929 0 65 0C100.907 0 130 29.0929 130 65Z" fill="#50B748"/>
<path fill-rule="evenodd" clip-rule="evenodd" d="M78.6685 128.476C79.9143 128.221 81.1656 127.945 82.3897 127.631C84.486 127.057 86.5389 126.358 88.5485 125.578C90.5797 124.793 92.5514 123.904 94.4743 122.935C96.4189 121.938 98.3039 120.86 100.124 119.696C101.944 118.531 103.699 117.264 105.411 115.909C107.106 114.577 108.736 113.136 110.28 111.614C111.846 110.108 113.324 108.521 114.722 106.874C116.119 105.222 117.43 103.489 118.638 101.691C119.862 99.914 121.005 98.0723 122.045 96.1657C123.08 94.2644 124.033 92.3144 124.878 90.3265C125.728 88.3169 126.465 86.2857 127.099 84.2111C127.651 82.3911 128.117 80.5711 128.518 78.7077L89.881 40.0923C83.2997 33.4732 74.3514 29.7682 65.0185 29.7682C55.6639 29.7465 46.6993 33.4732 40.091 40.0923C33.4989 46.6952 29.7722 55.6436 29.7722 64.9982C29.7722 74.3311 33.4989 83.3011 40.091 89.904L78.6685 128.454V128.476Z" fill="#10A711"/>
<path fill-rule="evenodd" clip-rule="evenodd" d="M81.0383 54.1667C80.5291 54.21 80.0416 54.3996 79.6191 54.7192L59.8374 69.5717L50.6724 60.385C48.6845 58.3375 44.7737 62.2267 46.8429 64.2146L57.6762 75.0479C58.6295 75.9796 60.1137 76.0879 61.2133 75.3025L82.8799 59.0525C84.6999 57.7417 83.5787 54.21 81.3145 54.1667H81.0383ZM64.9995 29.77C74.0129 29.77 83.0045 33.2204 89.9054 40.0942C96.5029 46.6971 100.23 55.6454 100.23 65C100.23 74.3546 96.5029 83.3029 89.9054 89.9059C83.3024 96.5034 74.3541 100.23 64.9995 100.23C55.6449 100.23 46.6966 96.5034 40.0937 89.9059C33.4962 83.3029 29.7695 74.3546 29.7695 65C29.7695 55.6454 33.4962 46.6971 40.0937 40.0942C46.6966 33.475 55.6666 29.77 64.9995 29.77Z" fill="white"/>
</svg>
