<svg width="22" height="21" viewBox="0 0 22 21" fill="none" xmlns="http://www.w3.org/2000/svg">
<path fill-rule="evenodd" clip-rule="evenodd" d="M10.5101 21.0001C7.70514 21.0001 5.06914 19.9061 3.08414 17.9261C-0.153859 14.7031 -0.927859 9.7541 1.17014 5.6951C1.62714 4.8051 2.96314 5.4921 2.50614 6.3831C0.705141 9.8591 1.37314 14.1021 4.14714 16.8631C5.83014 18.5591 8.12314 19.5081 10.5101 19.5001C12.9121 19.5001 15.1741 18.5621 16.8731 16.8631C18.5721 15.1641 19.5101 12.9021 19.5101 10.5001C19.5101 8.0941 18.5721 5.8361 16.8731 4.1371C15.1741 2.4381 12.9161 1.5001 10.5101 1.5001C8.12314 1.4921 5.83014 2.4411 4.14714 4.1371C3.44014 4.8441 2.38114 3.7851 3.08814 3.0781C5.05314 1.1021 7.72514 -0.00789602 10.5101 0.000103981C13.3151 0.000103981 15.9511 1.0941 17.9361 3.0741C19.9121 5.0391 21.0181 7.7151 21.0101 10.5001C21.0101 13.3051 19.9161 15.9411 17.9361 17.9261C15.9711 19.9021 13.2951 21.0081 10.5101 21.0001Z" fill="#45BC1B"/>
<path fill-rule="evenodd" clip-rule="evenodd" d="M6.26815 15.4922C5.76415 15.4922 5.40515 15.0042 5.54915 14.5232L7.54115 8.03119C7.61515 7.79319 7.79915 7.60919 8.03715 7.53519L14.5301 5.54319C15.1041 5.36719 15.6431 5.90619 15.4671 6.48019L13.4751 12.9722C13.4011 13.2112 13.2171 13.3942 12.9791 13.4692L6.48715 15.4612C6.41615 15.4842 6.34215 15.4962 6.26415 15.4962L6.26815 15.4922ZM8.86215 8.85219L7.40115 13.6132L12.1631 12.1522L13.6231 7.39119L8.86215 8.85219Z" fill="#45BC1B"/>
</svg>
