<svg width="18" height="18" viewBox="0 0 18 18" fill="none" xmlns="http://www.w3.org/2000/svg">
<path fill-rule="evenodd" clip-rule="evenodd" d="M17.8985 8.60179C17.8005 8.49979 17.8005 8.39779 17.6995 8.30079L14.6995 5.30079C14.3005 4.89779 13.6995 4.89779 13.3005 5.30079C12.8985 5.69879 12.8985 6.30079 13.3005 6.69879L14.6015 7.99979H10.0005C9.39849 7.99979 9.00049 8.39778 9.00049 8.99978C9.00049 9.60178 9.39849 9.99978 10.0005 9.99978H14.6015L13.3005 11.3008C12.8985 11.6988 12.8985 12.3008 13.3005 12.6988C13.5005 12.8978 13.8005 12.9998 14.0005 12.9998C14.1995 12.9998 14.5005 12.8978 14.6995 12.6988L17.6995 9.69879C17.8005 9.60179 17.8985 9.49979 17.8985 9.39779C18.0005 9.10179 18.0005 8.89779 17.8985 8.60179Z" fill="black"/>
<path fill-rule="evenodd" clip-rule="evenodd" d="M12.5 15.1015C11.398 15.6995 10.199 15.9995 9 15.9995C5.102 15.9995 2 12.8985 2 8.99951C2 5.10151 5.102 1.99951 9 1.99951C10.199 1.99951 11.398 2.30151 12.5 2.89751C13 3.19851 13.602 2.99951 13.898 2.49951C14.199 1.99951 14 1.39751 13.5 1.10151C12.102 0.397512 10.602 -0.000488281 9 -0.000488281C4 -0.000488281 0 3.99951 0 8.99951C0 13.9995 4 17.9995 9 17.9995C10.602 17.9995 12.102 17.6015 13.5 16.8005C14 16.4995 14.102 15.8985 13.898 15.3985C13.602 14.9995 13 14.8005 12.5 15.1015Z" fill="black"/>
</svg>
