<svg width="18" height="21" viewBox="0 0 18 21" fill="none" xmlns="http://www.w3.org/2000/svg">
<path fill-rule="evenodd" clip-rule="evenodd" d="M5.04756 1.61468C7.93242 0.56468 11.9079 1.4206 13.4627 4.55486L14.0824 6.25759C14.4304 6.82478 14.9294 7.29231 15.5172 7.6062C15.5531 7.62609 15.5872 7.64667 15.6165 7.67434C16.2086 8.11117 16.6703 8.6955 16.9528 9.36951L16.9904 9.55165C17.3616 10.4807 17.3848 11.5152 17.0471 12.4617C16.5847 13.5655 15.7273 14.4639 14.6421 14.9791C11.9804 16.2885 9.18292 17.3066 6.30608 18.0132C5.15586 18.3031 3.94032 18.1591 2.89349 17.6133C2.02301 17.1192 1.36688 16.3193 1.04784 15.3755L1.00509 15.2581C0.796497 14.5359 0.782772 13.7672 0.972137 13.0332L1.00807 12.9243C1.25523 12.3023 1.33491 11.6294 1.24031 10.969L0.620569 9.26625L0.628909 9.15467C0.68444 8.8599 0.905393 8.62198 1.20166 8.54713C1.5345 8.4675 1.88397 8.61485 2.04963 8.91212L2.66972 10.6158L2.70289 10.7069C2.83841 11.626 2.73052 12.5634 2.38741 13.4247C2.29305 13.8613 2.31514 14.3109 2.44752 14.7331L2.51421 14.9163C2.70875 15.5064 3.11156 16.0078 3.65143 16.3275C4.36279 16.6709 5.1753 16.7455 5.94066 16.5414C8.72635 15.8563 11.4327 14.8713 14.0089 13.6048C14.7475 13.2572 15.3328 12.6579 15.6507 11.9143C15.8451 11.3402 15.8275 10.7188 15.6069 10.1595L15.5374 9.96874C15.3661 9.55648 15.0991 9.19713 14.7473 8.91761C13.9106 8.48999 13.199 7.8508 12.6957 7.06135C12.6813 7.03359 12.6693 7.0007 12.6625 6.9702L12.0397 5.25902C10.8888 2.85144 7.81526 2.21636 5.63047 3.01156C4.70206 3.34947 3.87324 3.91718 3.23021 4.66203L3.14942 4.74997C2.97398 4.90534 2.73734 4.97444 2.50281 4.9353C2.23 4.88454 2.00302 4.69366 1.91683 4.43345C1.82867 4.17076 1.89069 3.88214 2.0791 3.68054C2.87492 2.75025 3.89729 2.04186 5.04756 1.61468ZM12.6318 17.5519C12.8066 17.2222 13.2017 17.0624 13.565 17.192C13.9601 17.3302 14.1687 17.7661 14.0245 18.1591C13.6957 19.1972 12.9053 20.0255 11.8804 20.4113L11.6719 20.4787C10.6994 20.7539 9.65302 20.6069 8.7979 20.0615L8.70416 19.9998C8.4166 19.7682 8.3319 19.3542 8.52822 19.0252C8.74034 18.6607 9.21216 18.539 9.57575 18.7514C9.74033 18.8586 9.91841 18.9385 10.1088 18.9937C10.6124 19.1435 11.1568 19.0869 11.6188 18.8357C12.0845 18.5832 12.4292 18.1619 12.5799 17.658L12.5865 17.6556L12.6318 17.5519Z" fill="black"/>
<path d="M13.4627 4.55486L13.6976 4.46936L13.6928 4.45626L13.6866 4.44377L13.4627 4.55486ZM14.0824 6.25759L13.8475 6.34309L13.8561 6.36681L13.8693 6.38832L14.0824 6.25759ZM15.5172 7.6062L15.6382 7.3874L15.6349 7.38567L15.5172 7.6062ZM15.6165 7.67434L15.4446 7.85588L15.4557 7.86642L15.4681 7.87552L15.6165 7.67434ZM16.9528 9.36951L17.1977 9.31901L17.1928 9.29524L17.1834 9.27285L16.9528 9.36951ZM16.9904 9.55165L16.7456 9.60214L16.75 9.62383L16.7582 9.64439L16.9904 9.55165ZM17.0471 12.4617L17.2781 12.5585L17.2826 12.5457L17.0471 12.4617ZM14.6421 14.9791L14.5349 14.7533L14.5317 14.7548L14.6421 14.9791ZM6.30608 18.0132L6.24645 17.7704L6.24498 17.7708L6.30608 18.0132ZM2.89349 17.6133L2.77 17.8308L2.77789 17.8349L2.89349 17.6133ZM1.04784 15.3755L1.28474 15.2955L1.28276 15.29L1.04784 15.3755ZM1.00509 15.2581L0.764905 15.3275L0.767261 15.3356L0.770165 15.3436L1.00509 15.2581ZM0.972137 13.0332L0.734739 12.9548L0.732137 12.9627L0.730063 12.9707L0.972137 13.0332ZM1.00807 12.9243L0.77574 12.832L0.773001 12.8389L0.770675 12.846L1.00807 12.9243ZM1.24031 10.969L1.48778 10.9335L1.48411 10.9078L1.47523 10.8835L1.24031 10.969ZM0.620569 9.26625L0.371264 9.24761L0.367257 9.30123L0.385646 9.35175L0.620569 9.26625ZM0.628909 9.15467L0.38323 9.10838L0.380645 9.12211L0.379604 9.13603L0.628909 9.15467ZM1.20166 8.54713L1.14348 8.30398L1.14043 8.30475L1.20166 8.54713ZM2.04963 8.91212L2.28456 8.82662L2.27773 8.80786L2.26801 8.79042L2.04963 8.91212ZM2.66972 10.6158L2.43479 10.7013L2.66972 10.6158ZM2.70289 10.7069L2.95022 10.6705L2.94651 10.6453L2.93782 10.6214L2.70289 10.7069ZM2.38741 13.4247L2.15516 13.3322L2.14745 13.3516L2.14305 13.3719L2.38741 13.4247ZM2.44752 14.7331L2.20872 14.808L2.21259 14.8186L2.44752 14.7331ZM2.51421 14.9163L2.75175 14.838L2.74913 14.8308L2.51421 14.9163ZM3.65143 16.3275L3.52407 16.5426L3.5332 16.548L3.54275 16.5526L3.65143 16.3275ZM5.94066 16.5414L5.88095 16.2986L5.87625 16.2999L5.94066 16.5414ZM14.0089 13.6048L13.9024 13.3786L13.8986 13.3805L14.0089 13.6048ZM15.6507 11.9143L15.8806 12.0126L15.8844 12.0037L15.8875 11.9945L15.6507 11.9143ZM15.6069 10.1595L15.3719 10.245L15.3743 10.2512L15.6069 10.1595ZM15.5374 9.96874L15.7726 9.88315L15.7683 9.8728L15.5374 9.96874ZM14.7473 8.91761L14.9028 8.72187L14.8833 8.70635L14.861 8.69499L14.7473 8.91761ZM12.6957 7.06135L12.4736 7.17622L12.4788 7.18624L12.4849 7.19576L12.6957 7.06135ZM12.6625 6.9702L12.9064 6.91546L12.9029 6.89979L12.8974 6.88469L12.6625 6.9702ZM12.0397 5.25902L12.2746 5.17351L12.2705 5.16213L12.2652 5.1512L12.0397 5.25902ZM3.23021 4.66203L3.4144 4.83125L3.41945 4.8254L3.23021 4.66203ZM3.14942 4.74997L3.31517 4.93712L3.3248 4.92859L3.33351 4.91911L3.14942 4.74997ZM2.50281 4.9353L2.45708 5.18112L2.46165 5.18188L2.50281 4.9353ZM1.91683 4.43345L2.15415 4.35483L2.15384 4.3539L1.91683 4.43345ZM2.0791 3.68054L2.26193 3.85141L2.26908 3.84305L2.0791 3.68054ZM12.6318 17.5519L12.4109 17.4347L12.4064 17.4432L12.4026 17.4519L12.6318 17.5519ZM13.565 17.192L13.481 17.4274L13.4824 17.428L13.565 17.192ZM14.0245 18.1591L13.7895 18.0729L13.7861 18.0837L14.0245 18.1591ZM11.8804 20.4113L11.9574 20.6494L11.9685 20.6452L11.8804 20.4113ZM11.6719 20.4787L11.74 20.7194L11.7488 20.7165L11.6719 20.4787ZM8.7979 20.0615L8.66051 20.2704L8.66346 20.2722L8.7979 20.0615ZM8.70416 19.9998L8.54734 20.1945L8.55672 20.2021L8.56678 20.2087L8.70416 19.9998ZM8.52822 19.0252L8.74291 19.1533L8.7443 19.1509L8.52822 19.0252ZM9.57575 18.7514L9.71233 18.5417L9.70188 18.5356L9.57575 18.7514ZM10.1088 18.9937L10.18 18.7541L10.1784 18.7536L10.1088 18.9937ZM11.6188 18.8357L11.4996 18.616L11.4994 18.6161L11.6188 18.8357ZM12.5799 17.658L12.4944 17.4231L12.3764 17.466L12.3404 17.5863L12.5799 17.658ZM12.5865 17.6556L12.672 17.8905L12.7728 17.8538L12.8157 17.7555L12.5865 17.6556ZM5.13306 1.84961C7.93489 0.829823 11.7563 1.67754 13.2387 4.66596L13.6866 4.44377C12.0595 1.16366 7.92994 0.299538 4.96205 1.37976L5.13306 1.84961ZM13.2277 4.64037L13.8475 6.34309L14.3173 6.17208L13.6976 4.46936L13.2277 4.64037ZM13.8693 6.38832C14.2408 6.99381 14.7729 7.49214 15.3994 7.82672L15.6349 7.38567C15.0859 7.09247 14.62 6.65575 14.2955 6.12685L13.8693 6.38832ZM15.3962 7.82497C15.4291 7.84319 15.4397 7.85122 15.4446 7.85588L15.7884 7.49281C15.7348 7.44212 15.6772 7.40899 15.6382 7.38743L15.3962 7.82497ZM15.4681 7.87552C16.0244 8.28593 16.4574 8.83435 16.7223 9.46617L17.1834 9.27285C16.8832 8.55666 16.3928 7.93641 15.7649 7.47317L15.4681 7.87552ZM16.708 9.42L16.7456 9.60214L17.2353 9.50115L17.1977 9.31901L16.708 9.42ZM16.7582 9.64439C17.107 10.5174 17.1286 11.4891 16.8117 12.3778L17.2826 12.5457C17.6409 11.5413 17.6161 10.444 17.2226 9.4589L16.7582 9.64439ZM16.8166 12.3651C16.378 13.4119 15.5646 14.2644 14.5349 14.7533L14.7493 15.205C15.8901 14.6634 16.7915 13.719 17.2777 12.5583L16.8166 12.3651ZM14.5317 14.7548C11.8862 16.0562 9.10575 17.0682 6.24645 17.7704L6.36571 18.256C9.2601 17.5451 12.0746 16.5207 14.7524 15.2035L14.5317 14.7548ZM6.24498 17.7708C5.15424 18.0457 4.00158 17.9091 3.00908 17.3916L2.77789 17.8349C3.87906 18.4091 5.15747 18.5605 6.36717 18.2556L6.24498 17.7708ZM3.01689 17.3958C2.2002 16.9323 1.5842 16.1816 1.28467 15.2955L0.811006 15.4556C1.14956 16.4571 1.84581 17.3061 2.77008 17.8307L3.01689 17.3958ZM1.28276 15.29L1.24001 15.1726L0.770165 15.3436L0.812917 15.4611L1.28276 15.29ZM1.24527 15.1887C1.04897 14.5091 1.03613 13.7859 1.21421 13.0956L0.730063 12.9707C0.529415 13.7485 0.54402 14.5627 0.764905 15.3275L1.24527 15.1887ZM1.20954 13.1116L1.24547 13.0027L0.770675 12.846L0.734739 12.9548L1.20954 13.1116ZM1.24041 13.0166C1.50364 12.3541 1.58858 11.6372 1.48778 10.9335L0.992835 11.0044C1.08124 11.6217 1.00681 12.2504 0.77574 12.832L1.24041 13.0166ZM1.47523 10.8835L0.855492 9.18074L0.385646 9.35175L1.00539 11.0545L1.47523 10.8835ZM0.869874 9.28488L0.878213 9.1733L0.379604 9.13603L0.371264 9.24761L0.869874 9.28488ZM0.874587 9.20095C0.912156 9.00153 1.06142 8.84042 1.26289 8.78952L1.14043 8.30475C0.749367 8.40354 0.456725 8.71826 0.38323 9.10838L0.874587 9.20095ZM1.25984 8.79027C1.48756 8.73578 1.72206 8.83788 1.83126 9.03382L2.26801 8.79042C2.04589 8.39183 1.58143 8.19921 1.14349 8.304L1.25984 8.79027ZM1.81471 8.99763L2.43479 10.7013L2.90464 10.5303L2.28456 8.82662L1.81471 8.99763ZM2.43479 10.7013L2.46797 10.7924L2.93782 10.6214L2.90464 10.5303L2.43479 10.7013ZM2.45557 10.7434C2.58471 11.6193 2.48184 12.5122 2.15516 13.3322L2.61966 13.5173C2.97921 12.6147 3.09211 11.6328 2.95022 10.6705L2.45557 10.7434ZM2.14305 13.3719C2.03945 13.8513 2.06376 14.3448 2.20897 14.8079L2.68606 14.6583C2.56651 14.277 2.54664 13.8714 2.63177 13.4776L2.14305 13.3719ZM2.21259 14.8186L2.27929 15.0018L2.74913 14.8308L2.68244 14.6476L2.21259 14.8186ZM2.27678 14.9946C2.49031 15.6423 2.93233 16.1923 3.52407 16.5426L3.7788 16.1123C3.29079 15.8234 2.92719 15.3705 2.75164 14.838L2.27678 14.9946ZM3.54275 16.5526C4.30856 16.9223 5.18254 17.0023 6.00507 16.783L5.87625 16.2999C5.16807 16.4887 4.41701 16.4195 3.76012 16.1023L3.54275 16.5526ZM6.00037 16.7842C8.80354 16.0948 11.5268 15.1036 14.1192 13.8292L13.8986 13.3805C11.3385 14.639 8.64916 15.6179 5.88096 16.2986L6.00037 16.7842ZM14.1153 13.831C14.9081 13.458 15.5381 12.8138 15.8806 12.0126L15.4208 11.8161C15.1276 12.502 14.587 13.0565 13.9024 13.3786L14.1153 13.831ZM15.8875 11.9945C16.101 11.364 16.0815 10.6816 15.8394 10.0678L15.3743 10.2512C15.5734 10.7559 15.5892 11.3165 15.4139 11.8342L15.8875 11.9945ZM15.8418 10.074L15.7724 9.88324L15.3025 10.0542L15.3719 10.245L15.8418 10.074ZM15.7683 9.8728C15.5812 9.42254 15.2887 9.02848 14.9028 8.72187L14.5918 9.11335C14.9095 9.36579 15.151 9.69043 15.3066 10.0647L15.7683 9.8728ZM14.861 8.69499C14.0629 8.2871 13.3853 7.67793 12.9065 6.92694L12.4849 7.19576C13.0128 8.02367 13.7582 8.69288 14.6335 9.14022L14.861 8.69499ZM12.9177 6.94648C12.9132 6.93774 12.9086 6.92506 12.9064 6.91546L12.4186 7.02494C12.4301 7.07633 12.4494 7.12943 12.4736 7.17622L12.9177 6.94648ZM12.8974 6.88469L12.2746 5.17351L11.8047 5.34452L12.4276 7.0557L12.8974 6.88469ZM12.2652 5.1512C11.0418 2.59178 7.80949 1.95241 5.54497 2.77663L5.71598 3.24648C7.82103 2.4803 10.7359 3.11109 11.8141 5.36684L12.2652 5.1512ZM5.54497 2.77663C4.57706 3.12892 3.71234 3.72099 3.04098 4.49866L3.41945 4.8254C4.03414 4.11337 4.82705 3.57002 5.71598 3.24648L5.54497 2.77663ZM3.04612 4.49288L2.96532 4.58082L3.33351 4.91911L3.41431 4.83117L3.04612 4.49288ZM2.98367 4.56281C2.86449 4.66836 2.70382 4.71539 2.54397 4.68871L2.46165 5.18188C2.77086 5.23349 3.08347 5.14232 3.31517 4.93712L2.98367 4.56281ZM2.54853 4.68951C2.36077 4.65458 2.21029 4.52432 2.15415 4.35484L1.67951 4.51206C1.79576 4.863 2.09922 5.1145 2.45708 5.18108L2.54853 4.68951ZM2.15384 4.3539C2.09468 4.17763 2.13652 3.98524 2.26175 3.85124L1.89646 3.50984C1.64486 3.77904 1.56266 4.16389 1.67982 4.51299L2.15384 4.3539ZM2.26908 3.84305C3.03683 2.94557 4.02358 2.26164 5.13459 1.84904L4.96052 1.38032C3.77101 1.82207 2.71301 2.55493 1.88913 3.51803L2.26908 3.84305ZM12.8527 17.669C12.9698 17.448 13.2357 17.34 13.481 17.4274L13.649 16.9565C13.1678 16.7848 12.6433 16.9964 12.4109 17.4347L12.8527 17.669ZM13.4824 17.428C13.7472 17.5206 13.8854 17.8124 13.7898 18.073L14.2592 18.2453C14.452 17.7198 14.1729 17.1398 13.6475 16.956L13.4824 17.428ZM13.7861 18.0837C13.4808 19.0478 12.7463 19.8182 11.7924 20.1773L11.9685 20.6452C13.0643 20.2328 13.9106 19.3466 14.2628 18.2346L13.7861 18.0837ZM11.8036 20.1734L11.595 20.2408L11.7488 20.7165L11.9573 20.6492L11.8036 20.1734ZM11.6038 20.2381C10.6989 20.4942 9.72636 20.3571 8.93234 19.8507L8.66346 20.2722C9.57969 20.8566 10.6999 21.0136 11.74 20.7192L11.6038 20.2381ZM8.93529 19.8526L8.84154 19.7909L8.56678 20.2087L8.66052 20.2703L8.93529 19.8526ZM8.86098 19.8051C8.66762 19.6494 8.61227 19.3722 8.7429 19.1533L8.31354 18.8971C8.05153 19.3362 8.16558 19.887 8.54734 20.1945L8.86098 19.8051ZM8.7443 19.1509C8.88621 18.9071 9.20424 18.8239 9.44962 18.9673L9.70188 18.5356C9.22008 18.254 8.59446 18.4143 8.31214 18.8995L8.7443 19.1509ZM9.43933 18.9609C9.62574 19.0823 9.82653 19.1722 10.0391 19.2338L10.1784 18.7536C10.0103 18.7049 9.85493 18.6349 9.71217 18.5419L9.43933 18.9609ZM10.0375 19.2334C10.6047 19.4021 11.2178 19.3383 11.7382 19.0554L11.4994 18.6161C11.0959 18.8355 10.6201 18.885 10.18 18.7541L10.0375 19.2334ZM11.738 19.0555C12.261 18.7719 12.6495 18.2978 12.8195 17.7296L12.3404 17.5863C12.2089 18.0261 11.908 18.3945 11.4996 18.616L11.738 19.0555ZM12.6655 17.8929L12.672 17.8905L12.501 17.4207L12.4944 17.4231L12.6655 17.8929ZM12.8157 17.7555L12.8609 17.6518L12.4026 17.4519L12.3574 17.5556L12.8157 17.7555Z" fill="black"/>
</svg>
