<svg width="428" height="260" viewBox="0 0 428 260" fill="none" xmlns="http://www.w3.org/2000/svg">
<g filter="url(#filter0_d_0_4723)">
<rect x="24" y="26" width="380" height="200" rx="20" fill="#F5F9FF"/>
</g>
<rect x="51" y="56" width="120" height="140" rx="20" fill="#D8D8D8"/>
<circle cx="364" cy="66" r="20" fill="#D8D8D8"/>
<path d="M184 58H182.814L183.014 59.1688L205.805 192.22L205.947 193.051H206.791H308.209H309.053L309.195 192.22L331.986 59.1688L332.186 58H331H184Z" fill="#F5F9FF" stroke="#E8F1FF" stroke-width="2"/>
<g clip-path="url(#clip0_0_4723)">
<path d="M219.296 85.124H220.99L223.949 93H222.31L221.661 91.119H218.625L217.976 93H216.337L219.296 85.124ZM221.177 89.755L220.473 87.786L220.187 86.829H220.099L219.813 87.786L219.109 89.755H221.177ZM225.311 85.124H227.038L230.206 90.404H230.294L230.206 88.886V85.124H231.68V93H230.118L226.774 87.423H226.686L226.774 88.941V93H225.311V85.124ZM236.109 93.176C235.771 93.176 235.449 93.1283 235.141 93.033C234.833 92.9377 234.55 92.7947 234.294 92.604C234.037 92.4133 233.813 92.1823 233.623 91.911C233.432 91.6323 233.282 91.3097 233.172 90.943L234.569 90.393C234.671 90.789 234.851 91.119 235.108 91.383C235.364 91.6397 235.702 91.768 236.12 91.768C236.274 91.768 236.42 91.7497 236.56 91.713C236.706 91.669 236.835 91.6103 236.945 91.537C237.062 91.4563 237.154 91.3573 237.22 91.24C237.286 91.1227 237.319 90.987 237.319 90.833C237.319 90.6863 237.293 90.5543 237.242 90.437C237.19 90.3197 237.102 90.2097 236.978 90.107C236.86 90.0043 236.703 89.9053 236.505 89.81C236.314 89.7147 236.076 89.6157 235.79 89.513L235.306 89.337C235.093 89.2637 234.877 89.1647 234.657 89.04C234.444 88.9153 234.25 88.765 234.074 88.589C233.898 88.413 233.751 88.2077 233.634 87.973C233.524 87.731 233.469 87.4597 233.469 87.159C233.469 86.851 233.527 86.565 233.645 86.301C233.769 86.0297 233.942 85.795 234.162 85.597C234.389 85.3917 234.657 85.234 234.965 85.124C235.28 85.0067 235.628 84.948 236.01 84.948C236.406 84.948 236.747 85.003 237.033 85.113C237.326 85.2157 237.572 85.3513 237.77 85.52C237.975 85.6813 238.14 85.861 238.265 86.059C238.389 86.257 238.481 86.444 238.54 86.62L237.231 87.17C237.157 86.95 237.022 86.752 236.824 86.576C236.633 86.4 236.369 86.312 236.032 86.312C235.709 86.312 235.441 86.389 235.229 86.543C235.016 86.6897 234.91 86.884 234.91 87.126C234.91 87.3607 235.012 87.5623 235.218 87.731C235.423 87.8923 235.749 88.05 236.197 88.204L236.692 88.369C237.007 88.479 237.293 88.6073 237.55 88.754C237.814 88.8933 238.037 89.062 238.221 89.26C238.411 89.458 238.554 89.6853 238.65 89.942C238.752 90.1913 238.804 90.481 238.804 90.811C238.804 91.2217 238.719 91.5773 238.551 91.878C238.389 92.1713 238.18 92.4133 237.924 92.604C237.667 92.7947 237.377 92.9377 237.055 93.033C236.732 93.1283 236.417 93.176 236.109 93.176ZM239.743 85.124H241.316L242.537 89.722L242.713 90.569H242.801L243.032 89.722L244.165 86.18H245.551L246.695 89.722L246.915 90.558H247.003L247.168 89.722L248.312 85.124H249.885L247.795 93H246.365L245.133 89.205L244.902 88.336H244.814L244.583 89.205L243.351 93H241.921L239.743 85.124ZM252.78 86.532V88.358H255.937V89.766H252.78V91.592H256.289V93H251.295V85.124H256.289V86.532H252.78ZM258.094 85.124H260.965C261.361 85.124 261.72 85.1863 262.043 85.311C262.366 85.4357 262.641 85.608 262.868 85.828C263.103 86.048 263.282 86.312 263.407 86.62C263.532 86.9207 263.594 87.2507 263.594 87.61C263.594 87.874 263.55 88.1233 263.462 88.358C263.374 88.5853 263.253 88.7943 263.099 88.985C262.945 89.1683 262.765 89.3333 262.56 89.48C262.355 89.6193 262.138 89.7293 261.911 89.81L261.9 89.887L264.012 92.912V93H262.307L260.272 90.041H259.579V93H258.094V85.124ZM260.954 88.677C261.291 88.677 261.566 88.5743 261.779 88.369C261.999 88.1637 262.109 87.9033 262.109 87.588C262.109 87.4487 262.083 87.313 262.032 87.181C261.988 87.049 261.918 86.9317 261.823 86.829C261.728 86.7263 261.607 86.6457 261.46 86.587C261.321 86.521 261.159 86.488 260.976 86.488H259.579V88.677H260.954ZM273.415 91.383L274.24 92.373L273.195 93.176L272.623 92.483C272.103 92.945 271.476 93.176 270.742 93.176C270.332 93.176 269.947 93.11 269.587 92.978C269.235 92.8387 268.927 92.648 268.663 92.406C268.399 92.1567 268.19 91.8633 268.036 91.526C267.89 91.1887 267.816 90.8183 267.816 90.415C267.816 89.975 267.923 89.557 268.135 89.161C268.355 88.765 268.66 88.4277 269.048 88.149C268.909 87.9583 268.795 87.7603 268.707 87.555C268.619 87.3497 268.575 87.1333 268.575 86.906C268.575 86.6347 268.623 86.3817 268.718 86.147C268.821 85.905 268.964 85.696 269.147 85.52C269.331 85.344 269.547 85.2047 269.796 85.102C270.046 84.9993 270.321 84.948 270.621 84.948C271.149 84.948 271.571 85.0727 271.886 85.322C272.209 85.564 272.44 85.872 272.579 86.246L271.413 86.862C271.355 86.686 271.263 86.5357 271.138 86.411C271.014 86.279 270.849 86.213 270.643 86.213C270.431 86.213 270.262 86.2753 270.137 86.4C270.013 86.5247 269.95 86.6823 269.95 86.873C269.95 86.9903 269.976 87.1003 270.027 87.203C270.079 87.2983 270.148 87.401 270.236 87.511L272.601 90.393L273.25 89.337L274.295 89.997L273.415 91.383ZM270.808 91.878C271.219 91.878 271.556 91.757 271.82 91.515L269.829 89.106C269.624 89.26 269.466 89.4507 269.356 89.678C269.246 89.898 269.191 90.1253 269.191 90.36C269.191 90.5947 269.235 90.8073 269.323 90.998C269.411 91.1813 269.529 91.339 269.675 91.471C269.829 91.603 270.002 91.7057 270.192 91.779C270.39 91.845 270.596 91.878 270.808 91.878ZM277.575 85.124H279.148L280.369 89.722L280.545 90.569H280.633L280.864 89.722L281.997 86.18H283.383L284.527 89.722L284.747 90.558H284.835L285 89.722L286.144 85.124H287.717L285.627 93H284.197L282.965 89.205L282.734 88.336H282.646L282.415 89.205L281.183 93H279.753L277.575 85.124ZM289.126 85.124H290.611V93H289.126V85.124ZM292.638 85.124H294.365L297.533 90.404H297.621L297.533 88.886V85.124H299.007V93H297.445L294.101 87.423H294.013L294.101 88.941V93H292.638V85.124Z" fill="black"/>
<path d="M209.249 106.26H211.604L215.924 113.46H216.044L215.924 111.39V106.26H217.934V117H215.804L211.244 109.395H211.124L211.244 111.465V117H209.249V106.26ZM221.131 108.585C220.961 108.585 220.796 108.555 220.636 108.495C220.486 108.425 220.351 108.335 220.231 108.225C220.121 108.105 220.031 107.97 219.961 107.82C219.901 107.67 219.871 107.505 219.871 107.325C219.871 107.145 219.901 106.98 219.961 106.83C220.031 106.68 220.121 106.55 220.231 106.44C220.351 106.32 220.486 106.23 220.636 106.17C220.796 106.1 220.961 106.065 221.131 106.065C221.481 106.065 221.781 106.19 222.031 106.44C222.281 106.68 222.406 106.975 222.406 107.325C222.406 107.675 222.281 107.975 222.031 108.225C221.781 108.465 221.481 108.585 221.131 108.585ZM220.156 117V109.65H222.121V117H220.156ZM223.326 109.65H225.561L227.391 114.33H227.496L229.341 109.65H231.561L228.396 117H226.461L223.326 109.65ZM239.383 115.23C239.043 115.83 238.583 116.315 238.003 116.685C237.433 117.055 236.733 117.24 235.903 117.24C235.343 117.24 234.823 117.145 234.343 116.955C233.873 116.755 233.463 116.48 233.113 116.13C232.763 115.78 232.488 115.37 232.288 114.9C232.098 114.42 232.003 113.895 232.003 113.325C232.003 112.795 232.098 112.295 232.288 111.825C232.478 111.345 232.743 110.93 233.083 110.58C233.423 110.22 233.823 109.935 234.283 109.725C234.753 109.515 235.268 109.41 235.828 109.41C236.418 109.41 236.943 109.51 237.403 109.71C237.863 109.9 238.248 110.17 238.558 110.52C238.868 110.86 239.103 111.265 239.263 111.735C239.423 112.205 239.503 112.715 239.503 113.265C239.503 113.335 239.503 113.395 239.503 113.445C239.493 113.505 239.488 113.56 239.488 113.61C239.478 113.66 239.473 113.715 239.473 113.775H233.938C233.978 114.075 234.058 114.335 234.178 114.555C234.308 114.765 234.463 114.945 234.643 115.095C234.833 115.235 235.038 115.34 235.258 115.41C235.478 115.47 235.703 115.5 235.933 115.5C236.383 115.5 236.753 115.4 237.043 115.2C237.343 114.99 237.578 114.73 237.748 114.42L239.383 115.23ZM237.598 112.38C237.588 112.25 237.543 112.105 237.463 111.945C237.393 111.785 237.283 111.635 237.133 111.495C236.993 111.355 236.813 111.24 236.593 111.15C236.383 111.06 236.128 111.015 235.828 111.015C235.408 111.015 235.038 111.135 234.718 111.375C234.398 111.615 234.173 111.95 234.043 112.38H237.598ZM245.549 116.22H245.429C245.199 116.5 244.919 116.74 244.589 116.94C244.269 117.14 243.854 117.24 243.344 117.24C242.964 117.24 242.604 117.175 242.264 117.045C241.934 116.925 241.644 116.755 241.394 116.535C241.144 116.315 240.949 116.05 240.809 115.74C240.669 115.43 240.599 115.09 240.599 114.72C240.599 114.34 240.674 114 240.824 113.7C240.974 113.39 241.184 113.125 241.454 112.905C241.724 112.685 242.039 112.52 242.399 112.41C242.769 112.29 243.169 112.23 243.599 112.23C244.079 112.23 244.474 112.27 244.784 112.35C245.094 112.42 245.349 112.495 245.549 112.575V112.35C245.549 111.96 245.394 111.64 245.084 111.39C244.774 111.13 244.389 111 243.929 111C243.249 111 242.674 111.285 242.204 111.855L240.779 110.88C241.559 109.9 242.624 109.41 243.974 109.41C245.114 109.41 245.984 109.68 246.584 110.22C247.184 110.75 247.484 111.54 247.484 112.59V117H245.549V116.22ZM245.549 114.015C245.319 113.905 245.079 113.82 244.829 113.76C244.589 113.69 244.324 113.655 244.034 113.655C243.564 113.655 243.199 113.76 242.939 113.97C242.689 114.17 242.564 114.42 242.564 114.72C242.564 115.02 242.684 115.26 242.924 115.44C243.174 115.62 243.459 115.71 243.779 115.71C244.039 115.71 244.279 115.665 244.499 115.575C244.719 115.475 244.904 115.35 245.054 115.2C245.214 115.04 245.334 114.86 245.414 114.66C245.504 114.45 245.549 114.235 245.549 114.015ZM252.957 117V106.26H256.737C257.247 106.26 257.722 106.345 258.162 106.515C258.612 106.675 259.002 106.905 259.332 107.205C259.662 107.505 259.922 107.865 260.112 108.285C260.302 108.695 260.397 109.15 260.397 109.65C260.397 110.16 260.302 110.625 260.112 111.045C259.922 111.455 259.662 111.81 259.332 112.11C259.002 112.41 258.612 112.645 258.162 112.815C257.722 112.975 257.247 113.055 256.737 113.055H254.982V117H252.957ZM256.767 111.135C257.297 111.135 257.697 110.985 257.967 110.685C258.237 110.385 258.372 110.04 258.372 109.65C258.372 109.46 258.337 109.275 258.267 109.095C258.207 108.915 258.107 108.76 257.967 108.63C257.837 108.49 257.672 108.38 257.472 108.3C257.272 108.22 257.037 108.18 256.767 108.18H254.982V111.135H256.767ZM261.781 109.65H263.626V110.67H263.746C263.836 110.49 263.956 110.325 264.106 110.175C264.256 110.025 264.421 109.895 264.601 109.785C264.791 109.675 264.991 109.59 265.201 109.53C265.421 109.47 265.636 109.44 265.846 109.44C266.106 109.44 266.326 109.465 266.506 109.515C266.696 109.565 266.856 109.63 266.986 109.71L266.461 111.495C266.341 111.435 266.206 111.39 266.056 111.36C265.916 111.32 265.741 111.3 265.531 111.3C265.261 111.3 265.016 111.355 264.796 111.465C264.576 111.565 264.386 111.71 264.226 111.9C264.076 112.09 263.956 112.315 263.866 112.575C263.786 112.825 263.746 113.1 263.746 113.4V117H261.781V109.65ZM271.103 109.41C271.673 109.41 272.193 109.51 272.663 109.71C273.143 109.9 273.553 110.17 273.893 110.52C274.243 110.86 274.513 111.27 274.703 111.75C274.903 112.23 275.003 112.755 275.003 113.325C275.003 113.895 274.903 114.42 274.703 114.9C274.513 115.38 274.243 115.795 273.893 116.145C273.553 116.485 273.143 116.755 272.663 116.955C272.193 117.145 271.673 117.24 271.103 117.24C270.533 117.24 270.008 117.145 269.528 116.955C269.058 116.755 268.648 116.485 268.298 116.145C267.958 115.795 267.688 115.38 267.488 114.9C267.298 114.42 267.203 113.895 267.203 113.325C267.203 112.755 267.298 112.23 267.488 111.75C267.688 111.27 267.958 110.86 268.298 110.52C268.648 110.17 269.058 109.9 269.528 109.71C270.008 109.51 270.533 109.41 271.103 109.41ZM271.103 115.425C271.353 115.425 271.593 115.38 271.823 115.29C272.063 115.19 272.273 115.05 272.453 114.87C272.633 114.69 272.773 114.47 272.873 114.21C272.983 113.95 273.038 113.655 273.038 113.325C273.038 112.995 272.983 112.7 272.873 112.44C272.773 112.18 272.633 111.96 272.453 111.78C272.273 111.6 272.063 111.465 271.823 111.375C271.593 111.275 271.353 111.225 271.103 111.225C270.843 111.225 270.598 111.275 270.368 111.375C270.138 111.465 269.933 111.6 269.753 111.78C269.573 111.96 269.428 112.18 269.318 112.44C269.218 112.7 269.168 112.995 269.168 113.325C269.168 113.655 269.218 113.95 269.318 114.21C269.428 114.47 269.573 114.69 269.753 114.87C269.933 115.05 270.138 115.19 270.368 115.29C270.598 115.38 270.843 115.425 271.103 115.425ZM281.928 116.115H281.808C281.628 116.425 281.348 116.69 280.968 116.91C280.588 117.13 280.118 117.24 279.558 117.24C279.088 117.24 278.638 117.145 278.208 116.955C277.788 116.755 277.413 116.485 277.083 116.145C276.763 115.795 276.508 115.38 276.318 114.9C276.128 114.42 276.033 113.895 276.033 113.325C276.033 112.755 276.128 112.23 276.318 111.75C276.508 111.27 276.763 110.86 277.083 110.52C277.413 110.17 277.788 109.9 278.208 109.71C278.638 109.51 279.088 109.41 279.558 109.41C280.118 109.41 280.588 109.52 280.968 109.74C281.348 109.96 281.628 110.225 281.808 110.535H281.928L281.808 109.485V106.26H283.773V117H281.928V116.115ZM279.963 115.425C280.223 115.425 280.468 115.38 280.698 115.29C280.938 115.19 281.148 115.05 281.328 114.87C281.508 114.69 281.653 114.47 281.763 114.21C281.873 113.95 281.928 113.655 281.928 113.325C281.928 112.995 281.873 112.7 281.763 112.44C281.653 112.18 281.508 111.96 281.328 111.78C281.148 111.6 280.938 111.465 280.698 111.375C280.468 111.275 280.223 111.225 279.963 111.225C279.703 111.225 279.453 111.275 279.213 111.375C278.983 111.475 278.778 111.615 278.598 111.795C278.418 111.975 278.273 112.195 278.163 112.455C278.053 112.715 277.998 113.005 277.998 113.325C277.998 113.645 278.053 113.935 278.163 114.195C278.273 114.455 278.418 114.675 278.598 114.855C278.778 115.035 278.983 115.175 279.213 115.275C279.453 115.375 279.703 115.425 279.963 115.425ZM290.72 116.04H290.6C290.37 116.41 290.06 116.705 289.67 116.925C289.28 117.135 288.835 117.24 288.335 117.24C287.405 117.24 286.71 116.955 286.25 116.385C285.8 115.815 285.575 115.055 285.575 114.105V109.65H287.54V113.865C287.54 114.395 287.655 114.79 287.885 115.05C288.125 115.3 288.47 115.425 288.92 115.425C289.19 115.425 289.425 115.37 289.625 115.26C289.835 115.14 290.01 114.985 290.15 114.795C290.3 114.595 290.41 114.365 290.48 114.105C290.56 113.835 290.6 113.55 290.6 113.25V109.65H292.565V117H290.72V116.04ZM301.337 115.125C301.017 115.745 300.567 116.255 299.987 116.655C299.417 117.045 298.702 117.24 297.842 117.24C297.272 117.24 296.747 117.145 296.267 116.955C295.797 116.755 295.387 116.48 295.037 116.13C294.697 115.78 294.427 115.37 294.227 114.9C294.037 114.42 293.942 113.895 293.942 113.325C293.942 112.755 294.037 112.23 294.227 111.75C294.427 111.27 294.697 110.86 295.037 110.52C295.387 110.17 295.797 109.9 296.267 109.71C296.747 109.51 297.272 109.41 297.842 109.41C298.692 109.41 299.407 109.605 299.987 109.995C300.567 110.385 300.992 110.89 301.262 111.51L299.462 112.26C299.292 111.92 299.072 111.665 298.802 111.495C298.542 111.315 298.212 111.225 297.812 111.225C297.552 111.225 297.307 111.275 297.077 111.375C296.847 111.475 296.642 111.615 296.462 111.795C296.292 111.975 296.157 112.195 296.057 112.455C295.957 112.715 295.907 113.005 295.907 113.325C295.907 113.645 295.957 113.935 296.057 114.195C296.157 114.455 296.292 114.675 296.462 114.855C296.642 115.035 296.847 115.175 297.077 115.275C297.307 115.375 297.552 115.425 297.812 115.425C298.222 115.425 298.567 115.335 298.847 115.155C299.137 114.965 299.367 114.695 299.537 114.345L301.337 115.125ZM303.461 111.33H302.171V109.65H303.461V107.4H305.426V109.65H307.226V111.33H305.426V114.18C305.426 114.35 305.441 114.51 305.471 114.66C305.511 114.8 305.581 114.92 305.681 115.02C305.821 115.18 306.021 115.26 306.281 115.26C306.451 115.26 306.586 115.245 306.686 115.215C306.786 115.175 306.881 115.125 306.971 115.065L307.526 116.79C307.296 116.9 307.046 116.98 306.776 117.03C306.516 117.09 306.226 117.12 305.906 117.12C305.536 117.12 305.201 117.065 304.901 116.955C304.611 116.835 304.366 116.675 304.166 116.475C303.696 116.025 303.461 115.385 303.461 114.555V111.33Z" fill="black"/>
<path d="M219.243 128.828H226.961V131.004H221.538V133.962H226.417V136.138H221.538V141H219.243V128.828ZM228.817 128.828H233.254C233.866 128.828 234.422 128.924 234.92 129.117C235.419 129.31 235.844 129.576 236.195 129.916C236.558 130.256 236.836 130.664 237.028 131.14C237.221 131.605 237.317 132.115 237.317 132.67C237.317 133.078 237.249 133.463 237.113 133.826C236.977 134.177 236.79 134.5 236.552 134.795C236.314 135.078 236.037 135.333 235.719 135.56C235.402 135.775 235.068 135.945 234.716 136.07L234.699 136.189L237.963 140.864V141H235.328L232.183 136.427H231.112V141H228.817V128.828ZM233.237 134.319C233.759 134.319 234.184 134.16 234.512 133.843C234.852 133.526 235.022 133.123 235.022 132.636C235.022 132.421 234.983 132.211 234.903 132.007C234.835 131.803 234.728 131.622 234.58 131.463C234.433 131.304 234.246 131.18 234.019 131.089C233.804 130.987 233.555 130.936 233.271 130.936H231.112V134.319H233.237ZM241.749 131.004V133.826H246.628V136.002H241.749V138.824H247.172V141H239.454V128.828H247.172V131.004H241.749ZM251.671 131.004V133.826H256.55V136.002H251.671V138.824H257.094V141H249.376V128.828H257.094V131.004H251.671Z" fill="black"/>
<path d="M264.442 132.408H266.158L267.49 137.424L267.682 138.348H267.778L268.03 137.424L269.266 133.56H270.778L272.026 137.424L272.266 138.336H272.362L272.542 137.424L273.79 132.408H275.506L273.226 141H271.666L270.322 136.86L270.07 135.912H269.974L269.722 136.86L268.378 141H266.818L264.442 132.408ZM278.565 134.928C279.021 134.928 279.437 135.008 279.813 135.168C280.197 135.32 280.525 135.536 280.797 135.816C281.077 136.088 281.293 136.416 281.445 136.8C281.605 137.184 281.685 137.604 281.685 138.06C281.685 138.516 281.605 138.936 281.445 139.32C281.293 139.704 281.077 140.036 280.797 140.316C280.525 140.588 280.197 140.804 279.813 140.964C279.437 141.116 279.021 141.192 278.565 141.192C278.109 141.192 277.689 141.116 277.305 140.964C276.929 140.804 276.601 140.588 276.321 140.316C276.049 140.036 275.833 139.704 275.673 139.32C275.521 138.936 275.445 138.516 275.445 138.06C275.445 137.604 275.521 137.184 275.673 136.8C275.833 136.416 276.049 136.088 276.321 135.816C276.601 135.536 276.929 135.32 277.305 135.168C277.689 135.008 278.109 134.928 278.565 134.928ZM278.565 139.74C278.765 139.74 278.957 139.704 279.141 139.632C279.333 139.552 279.501 139.44 279.645 139.296C279.789 139.152 279.901 138.976 279.981 138.768C280.069 138.56 280.113 138.324 280.113 138.06C280.113 137.796 280.069 137.56 279.981 137.352C279.901 137.144 279.789 136.968 279.645 136.824C279.501 136.68 279.333 136.572 279.141 136.5C278.957 136.42 278.765 136.38 278.565 136.38C278.357 136.38 278.161 136.42 277.977 136.5C277.793 136.572 277.629 136.68 277.485 136.824C277.341 136.968 277.225 137.144 277.137 137.352C277.057 137.56 277.017 137.796 277.017 138.06C277.017 138.324 277.057 138.56 277.137 138.768C277.225 138.976 277.341 139.152 277.485 139.296C277.629 139.44 277.793 139.552 277.977 139.632C278.161 139.704 278.357 139.74 278.565 139.74ZM284.121 135.936H284.217C284.377 135.64 284.609 135.404 284.913 135.228C285.225 135.044 285.569 134.952 285.945 134.952C286.081 134.952 286.189 134.956 286.269 134.964C286.349 134.972 286.425 134.988 286.497 135.012V136.572C286.409 136.532 286.309 136.5 286.197 136.476C286.093 136.452 285.965 136.44 285.813 136.44C285.317 136.44 284.925 136.592 284.637 136.896C284.357 137.192 284.217 137.6 284.217 138.12V141H282.645V135.12H284.121V135.936ZM288.237 136.464H287.205V135.12H288.237V133.32H289.809V135.12H291.249V136.464H289.809V138.744C289.809 138.88 289.821 139.008 289.845 139.128C289.877 139.24 289.933 139.336 290.013 139.416C290.125 139.544 290.285 139.608 290.493 139.608C290.629 139.608 290.737 139.596 290.817 139.572C290.897 139.54 290.973 139.5 291.045 139.452L291.489 140.832C291.305 140.92 291.105 140.984 290.889 141.024C290.681 141.072 290.449 141.096 290.193 141.096C289.897 141.096 289.629 141.052 289.389 140.964C289.157 140.868 288.961 140.74 288.801 140.58C288.425 140.22 288.237 139.708 288.237 139.044V136.464ZM292.532 132.408H294.104V134.82L294.008 135.888H294.104C294.272 135.608 294.512 135.38 294.824 135.204C295.144 135.02 295.5 134.928 295.892 134.928C296.652 134.928 297.212 135.152 297.572 135.6C297.94 136.048 298.124 136.66 298.124 137.436V141H296.552V137.628C296.552 137.22 296.456 136.912 296.264 136.704C296.072 136.488 295.804 136.38 295.46 136.38C295.244 136.38 295.052 136.428 294.884 136.524C294.716 136.612 294.572 136.736 294.452 136.896C294.34 137.056 294.252 137.244 294.188 137.46C294.132 137.668 294.104 137.892 294.104 138.132V141H292.532V132.408Z" fill="black"/>
<path fill-rule="evenodd" clip-rule="evenodd" d="M246.043 153.13V152H237V153.13H240.109C241.401 153.133 242.484 154.108 242.623 155.391H237V156.522H242.623C242.481 157.805 241.398 158.78 240.109 158.783H237V160.107L242.434 165L243.191 164.161L238.472 159.913H240.109C242.025 159.91 243.621 158.432 243.768 156.522H246.043V155.391H243.768C243.703 154.543 243.344 153.742 242.752 153.13H246.043Z" fill="black"/>
<path d="M253.691 165.288C253.187 165.288 252.701 165.222 252.233 165.09C251.777 164.958 251.357 164.76 250.973 164.496C250.589 164.22 250.247 163.878 249.947 163.47C249.659 163.062 249.437 162.588 249.281 162.048L251.495 161.166C251.651 161.766 251.915 162.222 252.287 162.534C252.659 162.834 253.127 162.984 253.691 162.984C253.943 162.984 254.183 162.948 254.411 162.876C254.639 162.792 254.837 162.678 255.005 162.534C255.173 162.39 255.305 162.222 255.401 162.03C255.509 161.826 255.563 161.598 255.563 161.346C255.563 160.818 255.365 160.404 254.969 160.104C254.585 159.804 254.051 159.654 253.367 159.654H252.305V157.512H253.277C253.517 157.512 253.751 157.482 253.979 157.422C254.207 157.362 254.405 157.272 254.573 157.152C254.753 157.02 254.891 156.858 254.987 156.666C255.095 156.462 255.149 156.228 255.149 155.964C255.149 155.556 255.005 155.226 254.717 154.974C254.429 154.71 254.039 154.578 253.547 154.578C253.019 154.578 252.611 154.722 252.323 155.01C252.047 155.286 251.855 155.598 251.747 155.946L249.587 155.064C249.695 154.764 249.857 154.458 250.073 154.146C250.289 153.822 250.559 153.534 250.883 153.282C251.219 153.018 251.609 152.808 252.053 152.652C252.497 152.484 253.007 152.4 253.583 152.4C254.171 152.4 254.705 152.484 255.185 152.652C255.677 152.82 256.097 153.054 256.445 153.354C256.793 153.642 257.063 153.99 257.255 154.398C257.447 154.794 257.543 155.226 257.543 155.694C257.543 156.054 257.495 156.378 257.399 156.666C257.315 156.954 257.201 157.212 257.057 157.44C256.913 157.668 256.745 157.866 256.553 158.034C256.373 158.19 256.187 158.316 255.995 158.412V158.556C256.571 158.784 257.045 159.15 257.417 159.654C257.801 160.158 257.993 160.794 257.993 161.562C257.993 162.102 257.891 162.6 257.687 163.056C257.483 163.5 257.189 163.89 256.805 164.226C256.433 164.562 255.983 164.82 255.455 165C254.927 165.192 254.339 165.288 253.691 165.288ZM263.234 160.59C262.766 160.59 262.31 160.494 261.866 160.302C261.422 160.11 261.026 159.84 260.678 159.492C260.33 159.132 260.048 158.712 259.832 158.232C259.628 157.74 259.526 157.2 259.526 156.612C259.526 156 259.646 155.436 259.886 154.92C260.126 154.392 260.444 153.942 260.84 153.57C261.248 153.198 261.71 152.91 262.226 152.706C262.754 152.49 263.306 152.382 263.882 152.382C264.542 152.382 265.142 152.502 265.682 152.742C266.234 152.97 266.702 153.282 267.086 153.678C267.482 154.062 267.782 154.518 267.986 155.046C268.202 155.562 268.31 156.108 268.31 156.684C268.31 157.512 268.142 158.274 267.806 158.97C267.482 159.654 267.068 160.356 266.564 161.076L263.576 165.342L261.758 164.1L264.278 160.518L264.188 160.41C263.912 160.53 263.594 160.59 263.234 160.59ZM263.918 154.56C263.642 154.56 263.378 154.608 263.126 154.704C262.886 154.8 262.67 154.938 262.478 155.118C262.286 155.298 262.13 155.514 262.01 155.766C261.902 156.006 261.848 156.276 261.848 156.576C261.848 156.888 261.902 157.17 262.01 157.422C262.13 157.662 262.286 157.872 262.478 158.052C262.67 158.232 262.886 158.37 263.126 158.466C263.378 158.562 263.642 158.61 263.918 158.61C264.182 158.61 264.44 158.562 264.692 158.466C264.944 158.37 265.166 158.232 265.358 158.052C265.562 157.872 265.718 157.662 265.826 157.422C265.946 157.17 266.006 156.888 266.006 156.576C266.006 156.276 265.946 156.006 265.826 155.766C265.718 155.514 265.562 155.298 265.358 155.118C265.166 154.938 264.944 154.8 264.692 154.704C264.44 154.608 264.182 154.56 263.918 154.56ZM273.564 160.59C273.096 160.59 272.64 160.494 272.196 160.302C271.752 160.11 271.356 159.84 271.008 159.492C270.66 159.132 270.378 158.712 270.162 158.232C269.958 157.74 269.856 157.2 269.856 156.612C269.856 156 269.976 155.436 270.216 154.92C270.456 154.392 270.774 153.942 271.17 153.57C271.578 153.198 272.04 152.91 272.556 152.706C273.084 152.49 273.636 152.382 274.212 152.382C274.872 152.382 275.472 152.502 276.012 152.742C276.564 152.97 277.032 153.282 277.416 153.678C277.812 154.062 278.112 154.518 278.316 155.046C278.532 155.562 278.64 156.108 278.64 156.684C278.64 157.512 278.472 158.274 278.136 158.97C277.812 159.654 277.398 160.356 276.894 161.076L273.906 165.342L272.088 164.1L274.608 160.518L274.518 160.41C274.242 160.53 273.924 160.59 273.564 160.59ZM274.248 154.56C273.972 154.56 273.708 154.608 273.456 154.704C273.216 154.8 273 154.938 272.808 155.118C272.616 155.298 272.46 155.514 272.34 155.766C272.232 156.006 272.178 156.276 272.178 156.576C272.178 156.888 272.232 157.17 272.34 157.422C272.46 157.662 272.616 157.872 272.808 158.052C273 158.232 273.216 158.37 273.456 158.466C273.708 158.562 273.972 158.61 274.248 158.61C274.512 158.61 274.77 158.562 275.022 158.466C275.274 158.37 275.496 158.232 275.688 158.052C275.892 157.872 276.048 157.662 276.156 157.422C276.276 157.17 276.336 156.888 276.336 156.576C276.336 156.276 276.276 156.006 276.156 155.766C276.048 155.514 275.892 155.298 275.688 155.118C275.496 154.938 275.274 154.8 275.022 154.704C274.77 154.608 274.512 154.56 274.248 154.56Z" fill="black"/>
</g>
<defs>
<filter id="filter0_d_0_4723" x="-6" y="0" width="440" height="260" filterUnits="userSpaceOnUse" color-interpolation-filters="sRGB">
<feFlood flood-opacity="0" result="BackgroundImageFix"/>
<feColorMatrix in="SourceAlpha" type="matrix" values="0 0 0 0 0 0 0 0 0 0 0 0 0 0 0 0 0 0 127 0" result="hardAlpha"/>
<feOffset dy="4"/>
<feGaussianBlur stdDeviation="15"/>
<feColorMatrix type="matrix" values="0 0 0 0 0.251275 0 0 0 0 0.25294 0 0 0 0 0.890257 0 0 0 0.162964 0"/>
<feBlend mode="normal" in2="BackgroundImageFix" result="effect1_dropShadow_0_4723"/>
<feBlend mode="normal" in="SourceGraphic" in2="effect1_dropShadow_0_4723" result="shape"/>
</filter>
<clipPath id="clip0_0_4723">
<rect width="100" height="90" fill="white" transform="translate(208 79)"/>
</clipPath>
</defs>
</svg>
