<svg width="380" height="200" viewBox="0 0 380 200" fill="none" xmlns="http://www.w3.org/2000/svg">
<g clip-path="url(#clip0_0_4740)">
<g filter="url(#filter0_d_0_4740)">
<rect width="380" height="200" rx="20" fill="#FF9C07"/>
</g>
<path fill-rule="evenodd" clip-rule="evenodd" d="M243 0H360C371.046 0 380 8.95431 380 20V180C380 191.046 371.046 200 360 200H193L243 0Z" fill="#E98C01"/>
<rect x="24" y="23" width="120" height="150" rx="20" fill="#D8D8D8"/>
<path d="M160 32H158.799L159.017 33.1811L183.513 166.232L183.663 167.051H184.496H293.504H294.337L294.487 166.232L318.983 33.1811L319.201 32H318H160Z" fill="#F5F9FF" stroke="#E8F1FF" stroke-width="2"/>
<path d="M218.939 70.7178C218.953 71.0042 218.967 71.2871 218.982 71.5664C219.039 72.6908 219.139 73.8115 219.283 74.9287C219.404 75.8239 219.58 76.7048 219.809 77.5713C219.974 78.1943 220.188 78.7386 220.453 79.2041C220.726 79.6768 220.965 79.9131 221.173 79.9131C221.495 79.9131 221.825 79.752 222.161 79.4297C222.498 79.1074 222.82 78.6992 223.128 78.2051C223.443 77.7038 223.733 77.181 223.998 76.6367C224.263 76.0924 224.489 75.5911 224.675 75.1328C224.868 74.6673 225.008 74.3057 225.094 74.0479C225.381 73.2171 225.628 72.3757 225.835 71.5234C225.857 71.4303 225.903 71.3623 225.975 71.3193C226.032 71.2835 226.09 71.2656 226.147 71.2656C226.175 71.2656 226.204 71.2692 226.233 71.2764C226.319 71.2979 226.387 71.348 226.437 71.4268C226.465 71.4769 226.48 71.5306 226.48 71.5879C226.48 71.6165 226.476 71.6452 226.469 71.6738C226.261 72.5475 226.011 73.4105 225.717 74.2627C225.524 74.8428 225.255 75.5303 224.911 76.3252C224.575 77.1201 224.181 77.8936 223.73 78.6455C223.279 79.3903 222.799 79.9775 222.29 80.4072C221.997 80.6364 221.689 80.8154 221.367 80.9443C221.051 81.0804 220.718 81.1484 220.368 81.1484C220.188 81.1484 220.009 81.1234 219.83 81.0732C219.343 80.9014 218.946 80.597 218.638 80.1602C218.337 79.7233 218.104 79.2721 217.94 78.8066C217.51 77.5892 217.22 76.3359 217.07 75.0469C216.941 74.0944 216.848 73.1348 216.79 72.168C215.695 72.6979 214.545 73.0667 213.342 73.2744C213.371 73.6826 213.396 74.0908 213.417 74.499L213.611 78.5166C213.625 78.8031 213.639 79.0931 213.654 79.3867C213.654 79.5228 213.611 79.6338 213.525 79.7197C213.439 79.8128 213.331 79.8594 213.202 79.8594C212.816 79.8594 212.433 79.7985 212.053 79.6768C211.895 79.6195 211.752 79.5371 211.623 79.4297C211.494 79.3294 211.423 79.1898 211.409 79.0107L211.387 78.624C211.323 77.2705 211.255 75.9134 211.183 74.5527C211.169 74.209 211.151 73.8652 211.129 73.5215C210.771 73.5358 210.413 73.543 210.055 73.543C209.933 73.543 209.826 73.5 209.733 73.4141C209.647 73.321 209.604 73.2135 209.604 73.0918C209.604 72.9629 209.647 72.8555 209.733 72.7695C209.826 72.6836 209.933 72.6406 210.055 72.6406C210.399 72.6406 210.739 72.6299 211.076 72.6084C211.018 71.5915 210.954 70.5745 210.882 69.5576C210.839 68.863 210.785 68.1719 210.721 67.4844C210.671 66.9544 210.61 66.4281 210.538 65.9053C210.388 64.7952 210.152 63.6995 209.829 62.6182C209.658 62.0381 209.421 61.4831 209.12 60.9531C209.006 60.7454 208.841 60.5592 208.626 60.3945C208.411 60.2227 208.186 60.1367 207.95 60.1367C207.828 60.1367 207.717 60.1689 207.617 60.2334C207.523 60.2907 207.441 60.3659 207.369 60.459C206.976 60.9818 206.707 61.6191 206.564 62.3711C206.421 63.123 206.349 63.807 206.349 64.4229C206.349 65.1748 206.464 65.9268 206.693 66.6787C206.865 67.2588 207.158 67.7637 207.574 68.1934C207.667 68.2793 207.717 68.3831 207.724 68.5049V68.5371C207.724 68.6445 207.685 68.7412 207.606 68.8271C207.52 68.9202 207.416 68.9704 207.294 68.9775H207.262C207.155 68.9775 207.058 68.9382 206.972 68.8594C206.6 68.5156 206.299 68.0931 206.07 67.5918C205.848 67.0833 205.687 66.5498 205.586 65.9912C205.486 65.4326 205.436 64.9098 205.436 64.4229C205.436 63.8428 205.493 63.2054 205.608 62.5107C205.722 61.8161 205.926 61.168 206.22 60.5664C206.521 59.9648 206.943 59.4993 207.488 59.1699C207.903 58.9336 208.347 58.8154 208.82 58.8154C209.378 58.8154 209.862 58.9873 210.27 59.3311C210.685 59.6748 211.036 60.1224 211.323 60.6738C211.609 61.2181 211.845 61.8053 212.032 62.4355C212.225 63.0586 212.379 63.6637 212.493 64.251C212.608 64.8382 212.694 65.3467 212.751 65.7764C212.83 66.3135 212.891 66.8542 212.934 67.3984C213.006 68.0931 213.063 68.7913 213.106 69.4932C213.177 70.4456 213.242 71.4017 213.299 72.3613C214.509 72.1465 215.655 71.7526 216.737 71.1797C216.708 70.5495 216.694 69.9229 216.694 69.2998C216.694 68.1611 216.733 67.0225 216.812 65.8838C216.891 64.8669 217.03 63.8571 217.231 62.8545C217.31 62.4391 217.431 61.9772 217.596 61.4688C217.768 60.9603 217.997 60.502 218.284 60.0938C218.57 59.6784 218.939 59.3991 219.39 59.2559C219.533 59.2201 219.676 59.2021 219.82 59.2021C220.085 59.2021 220.314 59.2845 220.507 59.4492C220.708 59.6139 220.876 59.8109 221.012 60.04C221.155 60.2692 221.27 60.4948 221.356 60.7168C221.549 61.2109 221.685 61.7301 221.764 62.2744C221.85 62.8187 221.893 63.3522 221.893 63.875C221.893 65.0566 221.685 66.1989 221.27 67.3018C220.854 68.4046 220.235 69.3893 219.411 70.2559C219.261 70.4134 219.104 70.5674 218.939 70.7178ZM218.917 69.4502C219.605 68.6768 220.12 67.8102 220.464 66.8506C220.808 65.891 220.98 64.8991 220.98 63.875C220.98 63.0801 220.872 62.278 220.658 61.4688C220.622 61.3255 220.572 61.2074 220.507 61.1143C220.443 61.014 220.371 60.9639 220.292 60.9639C220.178 60.9639 220.049 61.1322 219.906 61.4688C219.762 61.8053 219.648 62.1527 219.562 62.5107C219.383 63.2484 219.25 63.9967 219.164 64.7559C219 66.2669 218.917 67.8317 218.917 69.4502ZM231.882 73.5752C231.796 73.9118 231.675 74.277 231.517 74.6709C231.359 75.0576 231.148 75.4336 230.883 75.7988C230.625 76.1569 230.289 76.4541 229.873 76.6904C229.465 76.9196 228.957 77.0342 228.348 77.0342C227.99 77.0342 227.661 76.9518 227.36 76.7871C227.059 76.6224 226.801 76.3932 226.586 76.0996C226.314 75.7201 226.124 75.319 226.017 74.8965C225.917 74.474 225.867 74.0299 225.867 73.5645C225.867 73.099 225.953 72.6084 226.124 72.0928C226.303 71.57 226.543 71.1188 226.844 70.7393C227.245 70.2451 227.718 69.8763 228.262 69.6328C228.806 69.3893 229.394 69.2676 230.024 69.2676C230.432 69.2676 230.783 69.307 231.077 69.3857C231.435 69.5003 231.811 69.6364 232.205 69.7939C232.384 69.7438 232.559 69.7188 232.731 69.7188C232.939 69.7188 233.146 69.7546 233.354 69.8262C233.49 69.8763 233.612 69.9587 233.719 70.0732C233.827 70.1807 233.88 70.3096 233.88 70.46C233.866 70.7894 233.859 71.126 233.859 71.4697V71.8027C233.859 72.3255 233.88 72.8483 233.923 73.3711C233.973 73.9225 234.067 74.4668 234.203 75.0039C234.267 75.2832 234.382 75.541 234.546 75.7773C234.589 75.8418 234.647 75.9027 234.718 75.96C234.79 76.0101 234.869 76.0352 234.955 76.0352C235.091 76.0352 235.223 75.9779 235.352 75.8633C235.488 75.7415 235.599 75.627 235.685 75.5195C236.122 74.9609 236.555 74.3057 236.985 73.5537C237.422 72.8018 237.787 72.1071 238.081 71.4697C238.116 71.3838 238.177 71.3265 238.263 71.2979C238.299 71.2835 238.335 71.2764 238.371 71.2764C238.414 71.2764 238.46 71.2871 238.51 71.3086C238.596 71.3516 238.653 71.4124 238.682 71.4912C238.704 71.5342 238.714 71.5771 238.714 71.6201C238.714 71.6631 238.704 71.7061 238.682 71.749L238.424 72.3076C238.138 72.9593 237.837 73.5895 237.522 74.1982C237.207 74.807 236.809 75.4157 236.33 76.0244C236.158 76.2464 235.957 76.4684 235.728 76.6904C235.506 76.9124 235.259 77.1022 234.987 77.2598C234.722 77.4102 234.442 77.4854 234.149 77.4854C233.734 77.4854 233.39 77.3493 233.118 77.0771C232.853 76.805 232.638 76.4827 232.473 76.1104C232.316 75.738 232.197 75.3763 232.119 75.0254C232.011 74.5456 231.932 74.0622 231.882 73.5752ZM231.646 72.0928C231.739 71.749 231.793 71.2262 231.807 70.5244C231.37 70.3024 230.994 70.1914 230.679 70.1914C230.271 70.1914 229.877 70.3167 229.497 70.5674C229.125 70.8109 228.821 71.1009 228.584 71.4375C228.391 71.724 228.234 72.0677 228.112 72.4688C227.99 72.8626 227.929 73.2279 227.929 73.5645C227.929 73.8867 227.958 74.1911 228.015 74.4775C228.072 74.764 228.173 75.0505 228.316 75.3369C228.481 75.7021 228.742 75.8883 229.1 75.8955C229.558 75.874 229.952 75.6413 230.282 75.1973C230.618 74.7533 230.898 74.2376 231.12 73.6504C231.342 73.0632 231.517 72.5439 231.646 72.0928ZM241.13 75.6592C241.775 75.2581 242.298 74.7318 242.699 74.0801C242.835 73.8509 242.949 73.6038 243.043 73.3389C243.136 73.0667 243.182 72.7982 243.182 72.5332C243.182 72.4043 243.157 72.279 243.107 72.1572C243.064 72.0785 243.003 72.0391 242.924 72.0391C242.846 72.0391 242.767 72.0641 242.688 72.1143C242.251 72.4723 241.907 72.9844 241.657 73.6504C241.413 74.3092 241.238 74.9788 241.13 75.6592ZM250.68 77.5713C251.325 77.1702 251.848 76.6439 252.249 75.9922C252.385 75.763 252.499 75.516 252.592 75.251C252.685 74.9788 252.732 74.7103 252.732 74.4453C252.732 74.3164 252.707 74.1911 252.657 74.0693C252.614 73.9906 252.553 73.9512 252.474 73.9512C252.395 73.9512 252.317 73.9762 252.238 74.0264C251.801 74.3844 251.457 74.8965 251.207 75.5625C250.963 76.2214 250.788 76.891 250.68 77.5713ZM247.651 72.9414C247.314 73.4355 246.956 73.8545 246.577 74.1982C246.118 74.5993 245.495 74.9717 244.708 75.3154C244.35 75.473 243.988 75.6126 243.623 75.7344C243.458 75.8776 243.279 75.9958 243.086 76.0889C242.57 76.3109 242.029 76.4219 241.463 76.4219H241.356C241.227 76.4219 241.12 76.3717 241.034 76.2715C241.005 76.4648 240.98 76.6439 240.959 76.8086C240.822 78.112 240.744 79.4154 240.722 80.7188V81.0088C240.715 81.3525 240.704 81.6963 240.69 82.04V82.083C240.683 82.1833 240.672 82.2871 240.658 82.3945C240.643 82.5306 240.6 82.6523 240.529 82.7598C240.457 82.8672 240.343 82.9209 240.185 82.9209H240.088C239.766 82.8851 239.505 82.7275 239.304 82.4482C239.104 82.1761 238.946 81.8646 238.832 81.5137C238.724 81.1628 238.649 80.8512 238.606 80.5791C238.47 79.8844 238.37 79.1826 238.305 78.4736C238.234 77.6787 238.183 76.8838 238.155 76.0889C238.112 74.8285 238.09 73.568 238.09 72.3076C238.09 71.8135 238.094 71.3229 238.101 70.8359V70.6641L238.112 70.2666L238.101 69.8799C238.101 69.7653 238.141 69.665 238.219 69.5791C238.305 69.5003 238.405 69.4609 238.52 69.4609C238.735 69.4609 238.95 69.486 239.165 69.5361C239.365 69.5719 239.562 69.64 239.755 69.7402C239.949 69.8405 240.081 69.9945 240.153 70.2021C240.167 70.2523 240.174 70.2988 240.174 70.3418C240.174 70.3776 240.171 70.4098 240.164 70.4385C240.006 71.9854 239.92 73.5358 239.906 75.0898C239.899 75.4909 239.895 75.8955 239.895 76.3037C239.895 77.2132 239.917 78.1227 239.96 79.0322C239.988 78.2588 240.049 77.4854 240.142 76.7119C240.185 76.3037 240.253 75.849 240.346 75.3477C240.439 74.8392 240.565 74.3307 240.722 73.8223C240.887 73.3066 241.098 72.834 241.356 72.4043C241.621 71.9674 241.943 71.6165 242.323 71.3516C242.71 71.0866 243.168 70.9541 243.698 70.9541C244.163 70.9541 244.536 71.1045 244.815 71.4053C245.101 71.6989 245.245 72.0749 245.245 72.5332C245.245 72.8626 245.195 73.1885 245.094 73.5107C244.994 73.8258 244.862 74.1266 244.697 74.4131C245.169 74.1839 245.628 73.901 246.072 73.5645C246.523 73.2279 246.899 72.8411 247.2 72.4043C247.379 72.1536 247.533 71.8779 247.662 71.5771C247.705 71.4912 247.766 71.4339 247.844 71.4053C247.887 71.3838 247.93 71.373 247.973 71.373H248.07C248.285 71.373 248.5 71.3981 248.714 71.4482C248.915 71.484 249.112 71.5521 249.305 71.6523C249.499 71.7526 249.631 71.9066 249.703 72.1143C249.717 72.1644 249.724 72.2109 249.724 72.2539C249.724 72.2897 249.721 72.3219 249.713 72.3506C249.556 73.8975 249.47 75.4479 249.456 77.002C249.448 77.403 249.445 77.8076 249.445 78.2158C249.445 79.1253 249.466 80.0348 249.509 80.9443C249.538 80.1709 249.599 79.3975 249.692 78.624C249.735 78.2158 249.803 77.7611 249.896 77.2598C249.989 76.7513 250.114 76.2428 250.272 75.7344C250.437 75.2188 250.648 74.7461 250.906 74.3164C251.171 73.8796 251.493 73.5286 251.873 73.2637C252.259 72.9987 252.718 72.8662 253.248 72.8662C253.713 72.8662 254.086 73.0166 254.365 73.3174C254.651 73.611 254.794 73.987 254.794 74.4453C254.794 74.7747 254.744 75.1006 254.644 75.4229C254.544 75.738 254.411 76.0387 254.247 76.3252C254.719 76.096 255.178 75.8132 255.622 75.4766C256.073 75.14 256.449 74.7533 256.75 74.3164C256.929 74.0658 257.083 73.79 257.211 73.4893C257.254 73.4033 257.315 73.346 257.394 73.3174C257.437 73.2959 257.48 73.2852 257.523 73.2852C257.566 73.2852 257.609 73.2959 257.652 73.3174C257.731 73.3604 257.788 73.4248 257.824 73.5107C257.838 73.5465 257.845 73.5824 257.845 73.6182C257.845 73.6611 257.835 73.7077 257.813 73.7578C257.684 74.0514 257.537 74.3271 257.373 74.585C256.993 75.2008 256.574 75.7093 256.116 76.1104C255.665 76.5114 255.045 76.8838 254.257 77.2275C253.899 77.3851 253.538 77.5247 253.172 77.6465C253.008 77.7897 252.829 77.9079 252.635 78.001C252.12 78.223 251.579 78.334 251.013 78.334H250.906C250.777 78.334 250.669 78.2839 250.584 78.1836C250.555 78.377 250.53 78.556 250.508 78.7207C250.372 80.0241 250.294 81.3275 250.272 82.6309V82.9209C250.265 83.2646 250.254 83.6084 250.24 83.9521V83.9951C250.233 84.0954 250.222 84.1992 250.208 84.3066C250.193 84.4427 250.15 84.5645 250.079 84.6719C250.007 84.7793 249.892 84.833 249.735 84.833H249.638C249.316 84.7972 249.055 84.6396 248.854 84.3604C248.654 84.0882 248.496 83.7767 248.381 83.4258C248.274 83.0749 248.199 82.7633 248.156 82.4912C248.02 81.7965 247.919 81.0947 247.855 80.3857C247.783 79.5908 247.733 78.7959 247.705 78.001C247.662 76.7406 247.64 75.4801 247.64 74.2197C247.64 73.79 247.644 73.3639 247.651 72.9414ZM263.806 72.1895C263.742 72.3613 263.674 72.5332 263.602 72.7051C263.43 73.1419 263.208 73.5931 262.936 74.0586C262.671 74.5241 262.36 74.9574 262.002 75.3584C261.651 75.7594 261.253 76.0889 260.809 76.3467C260.372 76.5973 259.893 76.7227 259.37 76.7227C259.091 76.7227 258.826 76.6582 258.575 76.5293C258.002 76.1712 257.626 75.5661 257.447 74.7139C257.304 74.0407 257.232 73.346 257.232 72.6299C257.232 72.4365 257.236 72.2396 257.243 72.0391C257.293 71.1081 257.375 70.3454 257.49 69.751C257.511 69.6507 257.558 69.5719 257.63 69.5146C257.708 69.4502 257.798 69.418 257.898 69.418C258.07 69.418 258.249 69.4287 258.435 69.4502C258.621 69.4645 258.797 69.5039 258.962 69.5684C259.083 69.6113 259.194 69.6722 259.295 69.751C259.424 69.8656 259.488 70.0052 259.488 70.1699V70.2236C259.381 70.9111 259.316 71.6022 259.295 72.2969V72.5762C259.295 72.9629 259.316 73.3783 259.359 73.8223C259.424 74.388 259.552 74.875 259.746 75.2832C259.832 75.4837 259.975 75.584 260.175 75.584C260.319 75.584 260.458 75.5482 260.594 75.4766C260.738 75.4049 260.863 75.3226 260.97 75.2295C261.386 74.8643 261.751 74.4274 262.066 73.9189C262.381 73.4105 262.639 72.902 262.84 72.3936C263.062 71.8564 263.241 71.305 263.377 70.7393V70.6963C263.377 70.6175 263.395 70.5459 263.43 70.4814C263.488 70.374 263.577 70.306 263.699 70.2773C263.835 70.2487 263.975 70.2344 264.118 70.2344C264.168 70.2344 264.222 70.238 264.279 70.2451C264.494 70.2594 264.709 70.2917 264.924 70.3418C265.038 70.3704 265.146 70.4098 265.246 70.46C265.353 70.5101 265.432 70.5924 265.482 70.707C265.754 71.5163 265.951 72.3434 266.073 73.1885C266.145 73.654 266.202 74.123 266.245 74.5957C267.634 73.4785 269.07 72.4258 270.552 71.4375C270.617 71.4017 270.681 71.3838 270.746 71.3838H270.799C270.885 71.4053 270.953 71.4518 271.004 71.5234C271.039 71.5879 271.057 71.6523 271.057 71.7168V71.7705C271.036 71.8564 270.989 71.9281 270.918 71.9854C269.493 72.9736 268.16 74.012 266.922 75.1006C266.721 75.2653 266.517 75.4372 266.309 75.6162C266.316 75.917 266.32 76.2178 266.32 76.5186C266.32 77.3779 266.241 78.2301 266.084 79.0752C265.783 80.8226 265.167 82.4482 264.236 83.9521C263.856 84.5537 263.384 85.098 262.818 85.585C262.259 86.0719 261.619 86.3763 260.895 86.498C260.738 86.5267 260.584 86.541 260.433 86.541C259.903 86.541 259.416 86.3512 258.972 85.9717C258.715 85.7425 258.525 85.4704 258.403 85.1553C258.288 84.8473 258.231 84.5251 258.231 84.1885C258.231 83.7803 258.331 83.3506 258.532 82.8994C258.74 82.4554 258.983 82.0293 259.262 81.6211C259.549 81.2129 259.821 80.8512 260.079 80.5361C260.673 79.82 261.3 79.1325 261.959 78.4736C262.668 77.7575 263.398 77.0628 264.15 76.3896C264.186 76.3538 264.222 76.3216 264.257 76.293C264.257 76.0638 264.254 75.8382 264.247 75.6162C264.211 74.8213 264.132 74.0335 264.01 73.2529C263.953 72.8949 263.885 72.5404 263.806 72.1895ZM264.225 77.4316C263.652 77.9544 263.09 78.4951 262.539 79.0537C261.901 79.6911 261.296 80.3571 260.723 81.0518C260.516 81.3096 260.283 81.6175 260.025 81.9756C259.767 82.3408 259.542 82.7168 259.348 83.1035C259.155 83.4974 259.058 83.859 259.058 84.1885C259.058 84.4749 259.123 84.7542 259.252 85.0264C259.323 85.141 259.413 85.2197 259.52 85.2627C259.628 85.3128 259.746 85.3379 259.875 85.3379C260.147 85.3379 260.408 85.2484 260.659 85.0693C261.568 84.346 262.292 83.4616 262.829 82.416C263.645 80.8548 264.111 79.1934 264.225 77.4316Z" fill="black"/>
<path d="M197.163 90.52H201.843V98.8H210.063V90.52H214.743V112H210.063V103.24H201.843V112H197.163V90.52ZM226.383 96.82C227.523 96.82 228.573 97.02 229.533 97.42C230.513 97.8 231.353 98.34 232.053 99.04C232.773 99.72 233.323 100.54 233.703 101.5C234.103 102.46 234.303 103.51 234.303 104.65C234.303 105.79 234.103 106.84 233.703 107.8C233.323 108.76 232.773 109.59 232.053 110.29C231.353 110.97 230.513 111.51 229.533 111.91C228.573 112.29 227.523 112.48 226.383 112.48C225.243 112.48 224.183 112.29 223.203 111.91C222.243 111.51 221.403 110.97 220.683 110.29C219.983 109.59 219.433 108.76 219.033 107.8C218.653 106.84 218.463 105.79 218.463 104.65C218.463 103.51 218.653 102.46 219.033 101.5C219.433 100.54 219.983 99.72 220.683 99.04C221.403 98.34 222.243 97.8 223.203 97.42C224.183 97.02 225.243 96.82 226.383 96.82ZM226.383 108.28C226.843 108.28 227.273 108.2 227.673 108.04C228.093 107.86 228.463 107.62 228.783 107.32C229.103 107 229.353 106.62 229.533 106.18C229.713 105.72 229.803 105.21 229.803 104.65C229.803 104.09 229.713 103.59 229.533 103.15C229.353 102.71 229.103 102.33 228.783 102.01C228.463 101.69 228.093 101.45 227.673 101.29C227.273 101.11 226.843 101.02 226.383 101.02C225.923 101.02 225.483 101.11 225.063 101.29C224.663 101.45 224.303 101.69 223.983 102.01C223.663 102.33 223.413 102.71 223.233 103.15C223.053 103.59 222.963 104.09 222.963 104.65C222.963 105.21 223.053 105.72 223.233 106.18C223.413 106.62 223.663 107 223.983 107.32C224.303 107.62 224.663 107.86 225.063 108.04C225.483 108.2 225.923 108.28 226.383 108.28ZM247.522 110.14H247.222C246.222 111.7 244.722 112.48 242.722 112.48C240.882 112.48 239.512 111.89 238.612 110.71C237.712 109.53 237.262 107.98 237.262 106.06V97.3H241.762V105.55C241.762 106.35 241.952 107.01 242.332 107.53C242.712 108.03 243.302 108.28 244.102 108.28C245.122 108.28 245.892 107.89 246.412 107.11C246.952 106.33 247.222 105.31 247.222 104.05V97.3H251.722V112H247.522V110.14ZM255.783 97.3H259.983V99.16H260.283C260.683 98.52 261.253 97.98 261.993 97.54C262.733 97.1 263.553 96.88 264.453 96.88C264.993 96.88 265.463 96.95 265.863 97.09C266.263 97.21 266.593 97.35 266.853 97.51L265.683 101.47C265.423 101.33 265.143 101.22 264.843 101.14C264.563 101.06 264.193 101.02 263.733 101.02C262.613 101.02 261.753 101.41 261.153 102.19C260.573 102.97 260.283 103.99 260.283 105.25V112H255.783V97.3ZM274.825 112.48C273.805 112.48 272.905 112.36 272.125 112.12C271.345 111.88 270.665 111.57 270.085 111.19C269.525 110.79 269.055 110.34 268.675 109.84C268.295 109.32 268.005 108.8 267.805 108.28L271.855 106.57C272.135 107.25 272.525 107.75 273.025 108.07C273.525 108.37 274.125 108.52 274.825 108.52C275.425 108.52 275.885 108.43 276.205 108.25C276.545 108.05 276.715 107.8 276.715 107.5C276.715 107.16 276.555 106.9 276.235 106.72C275.915 106.52 275.405 106.34 274.705 106.18L272.695 105.76C272.215 105.66 271.725 105.5 271.225 105.28C270.725 105.06 270.265 104.77 269.845 104.41C269.425 104.05 269.085 103.63 268.825 103.15C268.565 102.65 268.435 102.08 268.435 101.44C268.435 100.74 268.585 100.11 268.885 99.55C269.205 98.97 269.635 98.48 270.175 98.08C270.715 97.68 271.355 97.37 272.095 97.15C272.835 96.93 273.645 96.82 274.525 96.82C276.045 96.82 277.355 97.09 278.455 97.63C279.555 98.15 280.385 99.03 280.945 100.27L277.075 101.86C276.815 101.34 276.445 100.96 275.965 100.72C275.505 100.48 275.035 100.36 274.555 100.36C274.035 100.36 273.615 100.45 273.295 100.63C272.975 100.81 272.815 101.03 272.815 101.29C272.815 101.57 272.975 101.8 273.295 101.98C273.635 102.14 274.045 102.28 274.525 102.4L276.805 102.94C278.305 103.3 279.425 103.88 280.165 104.68C280.905 105.48 281.275 106.42 281.275 107.5C281.275 108.16 281.115 108.79 280.795 109.39C280.495 109.99 280.055 110.52 279.475 110.98C278.915 111.44 278.235 111.8 277.435 112.06C276.655 112.34 275.785 112.48 274.825 112.48Z" fill="#F44831"/>
<path d="M200.871 134.256C200.253 134.256 199.687 134.171 199.175 134C198.674 133.829 198.242 133.595 197.879 133.296C197.527 132.997 197.255 132.651 197.063 132.256C196.871 131.851 196.775 131.413 196.775 130.944C196.775 130.624 196.818 130.331 196.903 130.064C196.999 129.787 197.122 129.536 197.271 129.312C197.431 129.088 197.607 128.896 197.799 128.736C197.991 128.565 198.189 128.421 198.391 128.304V128.144C198.061 127.909 197.767 127.605 197.511 127.232C197.266 126.859 197.143 126.405 197.143 125.872C197.143 125.435 197.234 125.029 197.415 124.656C197.607 124.272 197.869 123.947 198.199 123.68C198.541 123.403 198.935 123.189 199.383 123.04C199.842 122.88 200.338 122.8 200.871 122.8C201.405 122.8 201.895 122.88 202.343 123.04C202.802 123.189 203.197 123.403 203.527 123.68C203.869 123.947 204.13 124.272 204.311 124.656C204.503 125.029 204.599 125.435 204.599 125.872C204.599 126.405 204.471 126.859 204.215 127.232C203.97 127.605 203.682 127.909 203.351 128.144V128.304C203.554 128.421 203.751 128.565 203.943 128.736C204.135 128.896 204.306 129.088 204.455 129.312C204.615 129.536 204.738 129.787 204.823 130.064C204.919 130.331 204.967 130.624 204.967 130.944C204.967 131.413 204.871 131.851 204.679 132.256C204.487 132.651 204.21 132.997 203.847 133.296C203.495 133.595 203.063 133.829 202.551 134C202.05 134.171 201.49 134.256 200.871 134.256ZM200.871 127.264C201.277 127.264 201.618 127.157 201.895 126.944C202.173 126.72 202.311 126.432 202.311 126.08C202.311 125.717 202.173 125.435 201.895 125.232C201.618 125.019 201.277 124.912 200.871 124.912C200.466 124.912 200.125 125.019 199.847 125.232C199.57 125.435 199.431 125.717 199.431 126.08C199.431 126.432 199.57 126.72 199.847 126.944C200.125 127.157 200.466 127.264 200.871 127.264ZM200.871 132.048C201.383 132.048 201.794 131.925 202.103 131.68C202.413 131.424 202.567 131.093 202.567 130.688C202.567 130.293 202.407 129.973 202.087 129.728C201.778 129.472 201.373 129.344 200.871 129.344C200.37 129.344 199.959 129.472 199.639 129.728C199.33 129.973 199.175 130.293 199.175 130.688C199.175 131.093 199.33 131.424 199.639 131.68C199.949 131.925 200.359 132.048 200.871 132.048ZM210.461 122.544H213.341L217.629 134H214.877L213.997 131.44H209.805L208.925 134H206.173L210.461 122.544ZM213.197 129.168L212.365 126.768L211.981 125.36H211.821L211.437 126.768L210.605 129.168H213.197ZM219.353 122.544H221.817L225.081 128.144H225.241L228.505 122.544H230.969V134H228.505V128.928L228.665 127.008H228.505L225.897 131.568H224.425L221.817 127.008H221.657L221.817 128.928V134H219.353V122.544ZM233.395 127.952H238.963V130.128H233.395V127.952ZM243.111 134V125.84L241.271 126.608L240.391 124.56L243.607 123.056H245.511V134H243.111ZM250.597 134V125.84L248.757 126.608L247.877 124.56L251.093 123.056H252.997V134H250.597ZM259.202 122.544H262.082L266.37 134H263.618L262.738 131.44H258.546L257.666 134H254.914L259.202 122.544ZM261.938 129.168L261.106 126.768L260.722 125.36H260.562L260.178 126.768L259.346 129.168H261.938ZM268.095 122.544H270.559L273.823 128.144H273.983L277.247 122.544H279.711V134H277.247V128.928L277.407 127.008H277.247L274.639 131.568H273.167L270.559 127.008H270.399L270.559 128.928V134H268.095V122.544Z" fill="black"/>
</g>
<defs>
<filter id="filter0_d_0_4740" x="-30" y="-26" width="440" height="260" filterUnits="userSpaceOnUse" color-interpolation-filters="sRGB">
<feFlood flood-opacity="0" result="BackgroundImageFix"/>
<feColorMatrix in="SourceAlpha" type="matrix" values="0 0 0 0 0 0 0 0 0 0 0 0 0 0 0 0 0 0 127 0" result="hardAlpha"/>
<feOffset dy="4"/>
<feGaussianBlur stdDeviation="15"/>
<feColorMatrix type="matrix" values="0 0 0 0 0.251275 0 0 0 0 0.25294 0 0 0 0 0.890257 0 0 0 0.162964 0"/>
<feBlend mode="normal" in2="BackgroundImageFix" result="effect1_dropShadow_0_4740"/>
<feBlend mode="normal" in="SourceGraphic" in2="effect1_dropShadow_0_4740" result="shape"/>
</filter>
<clipPath id="clip0_0_4740">
<rect width="380" height="200" fill="white"/>
</clipPath>
</defs>
</svg>
