<svg width="380" height="200" viewBox="0 0 380 200" fill="none" xmlns="http://www.w3.org/2000/svg">
<g clip-path="url(#clip0_157_708)">
<g filter="url(#filter0_d_157_708)">
<rect width="380" height="200" rx="20" fill="#8CC63F"/>
</g>
<rect x="24" y="23" width="120" height="150" rx="20" fill="#D8D8D8"/>
<path fill-rule="evenodd" clip-rule="evenodd" d="M155 36.6363C162 29.5982 191 23 252 23C313 23 325 32.2375 335 43.6743C345 55.1112 355 129.891 335 139.128C315 148.366 202 168.16 190 148.805C178 129.451 161 81.5039 161 81.5039L135.5 88.9819L155 63.029C155 63.029 148 43.6743 155 36.6363Z" fill="#E8F1FF"/>
<path d="M217.757 50.9062V50.4844C217.765 50.3516 217.815 50.2383 217.909 50.1445C218.003 50.043 218.12 49.9922 218.261 49.9922C218.487 49.9922 218.722 50.0117 218.964 50.0508C219.214 50.0898 219.444 50.1641 219.655 50.2734C219.772 50.3281 219.878 50.4023 219.972 50.4961C220.073 50.5898 220.143 50.6992 220.182 50.8242C220.792 50.8008 221.534 50.7266 222.409 50.6016C223.284 50.4766 224.108 50.2695 224.882 49.9805C225.655 49.6836 226.194 49.2656 226.499 48.7266C226.6 48.5 226.651 48.2617 226.651 48.0117C226.651 47.8711 226.698 47.7539 226.792 47.6602C226.893 47.5664 227.015 47.5195 227.155 47.5195C227.327 47.5195 227.507 47.5273 227.694 47.543C227.89 47.5586 228.073 47.5938 228.245 47.6484C228.307 47.6641 228.37 47.6875 228.432 47.7188C228.675 47.8438 228.796 48.043 228.796 48.3164V48.3398C228.757 48.6445 228.671 48.9336 228.538 49.207C228.241 49.7539 227.819 50.1836 227.272 50.4961C226.725 50.8086 226.163 51.043 225.585 51.1992C224.132 51.582 222.655 51.7969 221.155 51.8438C220.835 51.8594 220.515 51.8711 220.194 51.8789V52.2539C220.186 52.9961 220.182 53.7383 220.182 54.4805C220.182 56.2148 220.229 57.9492 220.323 59.6836C220.378 60.6758 220.46 61.6641 220.569 62.6484C220.663 63.5312 220.804 64.4102 220.991 65.2852C221.1 65.8086 221.249 66.3242 221.436 66.832C221.53 67.1055 221.651 67.3711 221.8 67.6289C221.901 67.8008 222.054 67.8867 222.257 67.8867C222.397 67.8867 222.538 67.8516 222.679 67.7812C222.827 67.7109 222.956 67.6289 223.065 67.5352C224.011 66.7227 224.847 65.8281 225.573 64.8516C226.3 63.8672 226.987 62.8359 227.636 61.7578C227.753 61.5625 227.866 61.3711 227.975 61.1836C228.03 61.0977 228.104 61.043 228.198 61.0195C228.229 61.0117 228.261 61.0078 228.292 61.0078C228.354 61.0078 228.417 61.0234 228.479 61.0547C228.565 61.1094 228.62 61.1836 228.643 61.2773L228.655 61.3477C228.655 61.418 228.636 61.4844 228.597 61.5469L228.245 62.1328C228.214 62.1797 228.186 62.2266 228.163 62.2734C227.577 63.2578 226.886 64.332 226.089 65.4961C225.292 66.6602 224.483 67.6016 223.663 68.3203C223.304 68.625 222.925 68.875 222.526 69.0703C222.128 69.2734 221.718 69.375 221.296 69.375C221.155 69.375 221.018 69.3594 220.886 69.3281C220.44 69.1953 220.069 68.9297 219.772 68.5312C219.483 68.125 219.249 67.6719 219.069 67.1719C218.897 66.6719 218.765 66.2188 218.671 65.8125C218.452 64.8438 218.284 63.8633 218.167 62.8711C218.042 61.7695 217.948 60.668 217.886 59.5664C217.792 57.7305 217.745 55.8906 217.745 54.0469V52.0664C217.745 52.0117 217.749 51.957 217.757 51.9023L216.421 51.8789C215.483 51.8633 214.542 51.8555 213.597 51.8555C213.432 51.8555 213.272 51.8789 213.116 51.9258C212.968 51.9648 212.831 52.0391 212.706 52.1484C212.44 52.3984 212.265 52.7383 212.179 53.168C212.093 53.5977 212.05 53.9805 212.05 54.3164C212.05 55.0977 212.151 55.875 212.354 56.6484C212.518 57.3594 212.718 58.0586 212.952 58.7461C213.366 59.9492 213.862 61.1172 214.44 62.25C214.667 62.6953 214.913 63.1289 215.179 63.5508C215.35 63.8398 215.546 64.1055 215.765 64.3477C215.858 64.4414 215.905 64.5508 215.905 64.6758V64.6992C215.905 64.832 215.854 64.9492 215.753 65.0508C215.659 65.1367 215.554 65.1797 215.436 65.1797H215.401C215.268 65.1797 215.155 65.1328 215.061 65.0391C214.788 64.7422 214.55 64.4258 214.347 64.0898C214.057 63.6367 213.796 63.1719 213.561 62.6953C212.96 61.5234 212.448 60.3125 212.026 59.0625C211.768 58.3359 211.554 57.5938 211.382 56.8359C211.171 56 211.065 55.1602 211.065 54.3164C211.065 53.8086 211.132 53.2852 211.265 52.7461C211.397 52.207 211.667 51.7539 212.073 51.3867C212.284 51.207 212.518 51.0781 212.776 51C213.042 50.9141 213.315 50.8711 213.597 50.8711C214.214 50.8711 214.835 50.8789 215.46 50.8945C215.968 50.9023 216.479 50.9062 216.995 50.9062H217.757ZM234.994 57.9844L235.041 57.6094C235.057 57.4922 235.107 57.3984 235.193 57.3281C235.279 57.2578 235.377 57.2227 235.486 57.2227C235.83 57.2227 236.178 57.2578 236.529 57.3281C236.654 57.3594 236.775 57.3984 236.892 57.4453C237.002 57.4922 237.092 57.5625 237.162 57.6562C237.217 57.7344 237.244 57.8242 237.244 57.9258V57.9961C237.119 58.9492 237.053 59.9102 237.045 60.8789C237.045 61.1211 237.057 61.3633 237.08 61.6055C237.103 61.9648 237.142 62.3242 237.197 62.6836C237.213 62.8242 237.252 63.0312 237.314 63.3047C237.377 63.5703 237.467 63.8203 237.584 64.0547C237.701 64.2891 237.85 64.4062 238.029 64.4062C238.279 64.4062 238.592 64.25 238.967 63.9375C239.342 63.6172 239.721 63.2461 240.103 62.8242C240.494 62.3945 240.834 61.9922 241.123 61.6172C241.42 61.2422 241.619 60.9844 241.721 60.8438C241.783 60.7578 241.861 60.707 241.955 60.6914H242.014C242.084 60.6914 242.154 60.7109 242.225 60.75C242.31 60.8125 242.361 60.8906 242.377 60.9844V61.043C242.377 61.1133 242.357 61.1836 242.318 61.2539C242.045 61.6445 241.721 62.0859 241.346 62.5781C240.978 63.0625 240.572 63.5352 240.127 63.9961C239.682 64.4492 239.213 64.8281 238.721 65.1328C238.228 65.4297 237.732 65.5781 237.232 65.5781C237.006 65.5781 236.787 65.543 236.576 65.4727C235.959 65.207 235.525 64.7344 235.275 64.0547C235.025 63.3672 234.881 62.6797 234.842 61.9922C234.662 62.4844 234.443 62.9922 234.185 63.5156C233.928 64.0391 233.623 64.5273 233.271 64.9805C232.92 65.4336 232.517 65.8047 232.064 66.0938C231.619 66.3828 231.115 66.5273 230.553 66.5273C230.209 66.5273 229.889 66.4414 229.592 66.2695C229.162 66.0039 228.842 65.6211 228.631 65.1211C228.42 64.6133 228.283 64.0703 228.221 63.4922C228.158 62.9141 228.127 62.4023 228.127 61.957V61.6406C228.15 60.8359 228.228 60.0352 228.361 59.2383C228.408 58.9492 228.463 58.6641 228.525 58.3828C228.588 58.0859 228.674 57.793 228.783 57.5039C228.877 57.3164 229.017 57.2227 229.205 57.2227C229.541 57.2227 229.877 57.2695 230.213 57.3633C230.346 57.3945 230.475 57.4453 230.6 57.5156C230.787 57.6328 230.881 57.793 230.881 57.9961C230.881 58.043 230.877 58.0898 230.869 58.1367C230.728 58.6445 230.623 59.1562 230.553 59.6719C230.451 60.3359 230.392 61 230.377 61.6641C230.377 61.9219 230.385 62.1797 230.4 62.4375C230.416 62.7969 230.447 63.1562 230.494 63.5156C230.51 63.6797 230.549 63.9062 230.611 64.1953C230.682 64.4844 230.779 64.7539 230.904 65.0039C231.029 65.2461 231.193 65.3672 231.396 65.3672C231.607 65.3672 231.818 65.2617 232.029 65.0508C232.248 64.832 232.447 64.5938 232.627 64.3359C232.807 64.0781 232.943 63.8672 233.037 63.7031C233.248 63.3359 233.443 62.9609 233.623 62.5781C233.756 62.3047 233.877 62.0234 233.986 61.7344C234.252 60.9922 234.478 60.2383 234.666 59.4727C234.791 58.9805 234.9 58.4844 234.994 57.9844ZM244.145 63.3164C244.239 64.0898 244.411 64.8398 244.661 65.5664C244.739 65.8086 244.833 66.043 244.942 66.2695C245.005 66.3945 245.083 66.5117 245.177 66.6211C245.278 66.7227 245.403 66.7734 245.552 66.7734C245.7 66.7734 245.841 66.7305 245.974 66.6445C246.114 66.5586 246.239 66.4609 246.349 66.3516C247.083 65.625 247.79 64.7852 248.47 63.832C249.149 62.8711 249.782 61.9375 250.368 61.0312C250.423 60.9531 250.474 60.8711 250.52 60.7852C250.583 60.707 250.661 60.6562 250.755 60.6328L250.825 60.6211C250.895 60.6211 250.962 60.6406 251.024 60.6797C251.11 60.7422 251.161 60.8203 251.177 60.9141C251.185 60.9453 251.188 60.9727 251.188 60.9961C251.188 61.0586 251.169 61.1211 251.13 61.1836C250.825 61.6523 250.524 62.125 250.227 62.6016C249.751 63.3906 249.251 64.1602 248.727 64.9102C248.204 65.6602 247.622 66.3516 246.981 66.9844C246.669 67.3047 246.306 67.6016 245.892 67.875C245.485 68.1406 245.056 68.2734 244.602 68.2734C244.267 68.2734 243.97 68.1758 243.712 67.9805C243.454 67.7852 243.231 67.5508 243.044 67.2773C242.864 66.9961 242.716 66.7148 242.599 66.4336C242.114 65.2773 241.829 64.0664 241.743 62.8008C241.727 62.6133 241.716 62.4219 241.708 62.2266C241.7 62.1016 241.696 61.9727 241.696 61.8398C241.696 61.3945 241.727 60.9102 241.79 60.3867C241.86 59.7148 242.024 59.082 242.282 58.4883C242.54 57.8945 242.931 57.4453 243.454 57.1406C243.774 56.9766 244.114 56.8945 244.474 56.8945C244.958 56.8945 245.399 57.0391 245.798 57.3281C246.22 57.6797 246.505 58.1328 246.653 58.6875C246.81 59.2344 246.888 59.7656 246.888 60.2812C246.888 60.7578 246.817 61.2422 246.677 61.7344C246.544 62.2188 246.27 62.6133 245.856 62.918C245.411 63.1914 244.931 63.3281 244.415 63.3281C244.329 63.3281 244.239 63.3242 244.145 63.3164ZM244.063 62.4141C244.157 62.4219 244.251 62.4258 244.345 62.4258C244.47 62.4258 244.599 62.418 244.731 62.4023C244.958 62.3711 245.161 62.2969 245.341 62.1797C245.614 61.9688 245.79 61.6797 245.868 61.3125C245.946 60.9375 245.985 60.5938 245.985 60.2812C245.985 59.9766 245.954 59.6562 245.892 59.3203C245.837 58.9844 245.727 58.6797 245.563 58.4062C245.524 58.3359 245.47 58.2773 245.399 58.2305C245.337 58.1758 245.263 58.1484 245.177 58.1484C245.106 58.1484 245.04 58.1719 244.977 58.2188C244.923 58.2578 244.876 58.3086 244.837 58.3711C244.61 58.6836 244.446 59.0273 244.345 59.4023C244.142 60.1523 244.04 60.9141 244.04 61.6875C244.04 61.8516 244.044 62.0195 244.052 62.1914C244.052 62.2617 244.056 62.3359 244.063 62.4141ZM253.133 66.832C253 66.6602 252.867 66.4922 252.734 66.3281C252.5 66.0391 252.27 65.7422 252.043 65.4375C251.777 65.0859 251.527 64.7188 251.293 64.3359C251.059 63.9453 250.867 63.5391 250.719 63.1172C250.578 62.6875 250.508 62.2461 250.508 61.793C250.508 61.293 250.609 60.8047 250.812 60.3281C251.016 59.8516 251.312 59.4609 251.703 59.1562C252.094 58.8438 252.566 58.6875 253.121 58.6875C253.645 58.6875 254.121 58.8633 254.551 59.2148C254.949 59.6133 255.148 60.0703 255.148 60.5859C255.148 60.7422 255.129 60.9062 255.09 61.0781C255.066 61.1953 255.004 61.2891 254.902 61.3594C254.824 61.4062 254.734 61.4297 254.633 61.4297H254.562C254.438 61.3984 254.344 61.332 254.281 61.2305C254.227 61.1602 254.199 61.082 254.199 60.9961C254.199 60.9648 254.203 60.9336 254.211 60.9023C254.234 60.8086 254.246 60.7148 254.246 60.6211C254.246 60.4023 254.184 60.1992 254.059 60.0117C253.98 59.918 253.887 59.8711 253.777 59.8711C253.652 59.8711 253.539 59.918 253.438 60.0117C253.211 60.2383 253.039 60.5156 252.922 60.8438C252.812 61.1641 252.758 61.4805 252.758 61.793C252.758 62.082 252.801 62.3672 252.887 62.6484C253.059 63.1328 253.301 63.5781 253.613 63.9844C253.918 64.375 254.234 64.7539 254.562 65.1211C254.578 65.1367 254.59 65.1523 254.598 65.168C255.598 64.1602 256.652 63.1914 257.762 62.2617C257.879 62.168 257.992 62.0703 258.102 61.9688C258.469 61.6484 258.844 61.3359 259.227 61.0312C259.242 61.0234 259.258 61.0117 259.273 60.9961C259.484 60.8242 259.703 60.668 259.93 60.5273C259.984 60.4961 260.043 60.4805 260.105 60.4805C260.137 60.4805 260.168 60.4844 260.199 60.4922C260.293 60.5156 260.367 60.5703 260.422 60.6562C260.453 60.7188 260.469 60.7812 260.469 60.8438C260.469 60.8672 260.465 60.8945 260.457 60.9258C260.434 61.0195 260.375 61.0938 260.281 61.1484C260.102 61.2656 259.922 61.3984 259.742 61.5469C259.719 61.5625 259.695 61.582 259.672 61.6055C259.297 61.9023 258.93 62.207 258.57 62.5195C257.453 63.5039 256.387 64.5508 255.371 65.6602C255.309 65.7227 255.25 65.7852 255.195 65.8477C255.539 66.2539 255.836 66.6875 256.086 67.1484C256.336 67.6094 256.461 68.1133 256.461 68.6602C256.461 69.6211 256.152 70.3672 255.535 70.8984C254.926 71.4375 254.156 71.707 253.227 71.707C252.852 71.707 252.508 71.5938 252.195 71.3672C251.969 71.1953 251.797 70.9844 251.68 70.7344C251.57 70.4922 251.516 70.2305 251.516 69.9492C251.516 69.6133 251.605 69.2539 251.785 68.8711C251.973 68.4883 252.188 68.1211 252.43 67.7695C252.68 67.4102 252.914 67.0977 253.133 66.832ZM253.684 67.582C253.582 67.707 253.484 67.8359 253.391 67.9688C253.203 68.2188 252.992 68.5391 252.758 68.9297C252.531 69.3203 252.418 69.6602 252.418 69.9492C252.418 70.0664 252.438 70.1719 252.477 70.2656C252.523 70.3594 252.602 70.4375 252.711 70.5C252.883 70.5703 253.055 70.6055 253.227 70.6055C253.516 70.6055 253.738 70.5273 253.895 70.3711C254.059 70.2227 254.172 70.0273 254.234 69.7852C254.297 69.5508 254.328 69.3125 254.328 69.0703C254.328 68.8203 254.258 68.5625 254.117 68.2969C253.984 68.0312 253.84 67.793 253.684 67.582ZM264.405 59.9648C264.21 58.7852 264.062 57.6016 263.96 56.4141C263.921 55.9219 263.901 55.4258 263.901 54.9258C263.901 54.4258 263.944 53.8398 264.03 53.168C264.124 52.4883 264.308 51.8633 264.581 51.293C264.855 50.7227 265.261 50.3203 265.8 50.0859C266.019 49.9922 266.245 49.9453 266.48 49.9453C266.706 49.9453 266.929 49.9922 267.147 50.0859C267.64 50.3125 268.007 50.7031 268.249 51.2578C268.491 51.8047 268.647 52.4023 268.718 53.0508C268.788 53.6992 268.823 54.2539 268.823 54.7148C268.823 55.7227 268.749 56.7305 268.601 57.7383C268.437 59.0898 268.19 60.4258 267.862 61.7461C267.761 62.1602 267.647 62.5664 267.522 62.9648C267.812 63.7383 268.23 64.4297 268.776 65.0391C268.878 65.1484 268.991 65.2383 269.116 65.3086C269.249 65.3789 269.39 65.4141 269.538 65.4141C269.858 65.4141 270.187 65.2539 270.522 64.9336C270.866 64.6133 271.194 64.2148 271.507 63.7383C271.827 63.2617 272.116 62.7852 272.374 62.3086C272.632 61.832 272.847 61.4258 273.019 61.0898L273.147 60.832C273.194 60.7461 273.265 60.6875 273.358 60.6562C273.397 60.6406 273.433 60.6328 273.464 60.6328C273.519 60.6328 273.573 60.6484 273.628 60.6797C273.722 60.7266 273.784 60.7969 273.815 60.8906C273.823 60.9219 273.827 60.957 273.827 60.9961C273.827 61.0508 273.815 61.1055 273.792 61.1602L273.534 61.6758C273.3 62.1445 273.026 62.6641 272.714 63.2344C272.409 63.7969 272.062 64.3398 271.671 64.8633C271.288 65.3867 270.87 65.8203 270.417 66.1641C269.972 66.5078 269.495 66.6797 268.987 66.6797C268.487 66.6797 268.038 66.5703 267.64 66.3516C267.241 66.125 266.886 65.8242 266.573 65.4492C266.308 65.9961 265.987 66.5234 265.612 67.0312C265.237 67.5312 264.796 67.9492 264.288 68.2852C263.78 68.6133 263.198 68.7773 262.542 68.7773C261.448 68.7773 260.605 68.4336 260.011 67.7461C259.417 67.0586 259.12 66.0195 259.12 64.6289C259.12 63.1836 259.464 62.0234 260.151 61.1484C260.839 60.2656 261.851 59.8242 263.187 59.8242C263.601 59.8242 264.007 59.8711 264.405 59.9648ZM265.976 64.6055C265.64 64.0195 265.362 63.4062 265.144 62.7656C264.94 62.1875 264.769 61.5977 264.628 60.9961C264.222 60.8477 263.843 60.7734 263.491 60.7734C262.921 60.7734 262.425 61.1094 262.003 61.7812C261.581 62.4453 261.37 63.4727 261.37 64.8633C261.37 65.832 261.534 66.5391 261.862 66.9844C262.198 67.4297 262.597 67.6523 263.058 67.6523C263.44 67.6523 263.784 67.5391 264.089 67.3125C264.511 66.9766 264.878 66.5664 265.19 66.082C265.503 65.5898 265.765 65.0977 265.976 64.6055ZM267.019 61.4297C267.026 61.3828 267.038 61.3359 267.054 61.2891C267.343 60.0625 267.562 58.8281 267.71 57.5859C267.78 57.0547 267.835 56.5195 267.874 55.9805C267.905 55.5586 267.921 55.1367 267.921 54.7148C267.921 54.2852 267.897 53.8438 267.851 53.3906C267.812 52.9375 267.73 52.5039 267.605 52.0898C267.581 52.0273 267.55 51.9492 267.511 51.8555C267.472 51.7539 267.421 51.668 267.358 51.5977C267.304 51.5195 267.237 51.4805 267.159 51.4805C267.089 51.4805 267.019 51.5078 266.948 51.5625C266.886 51.6094 266.835 51.6641 266.796 51.7266C266.647 51.9219 266.542 52.1328 266.48 52.3594C266.355 52.7734 266.269 53.1992 266.222 53.6367C266.175 54.0742 266.151 54.5039 266.151 54.9258C266.151 55.7305 266.194 56.5312 266.28 57.3281C266.382 58.3516 266.542 59.3672 266.761 60.375C266.839 60.7266 266.925 61.0781 267.019 61.4297ZM279.709 63.082C279.615 63.4492 279.482 63.8477 279.311 64.2773C279.139 64.6992 278.908 65.1094 278.619 65.5078C278.338 65.8984 277.971 66.2227 277.518 66.4805C277.072 66.7305 276.518 66.8555 275.854 66.8555C275.463 66.8555 275.104 66.7656 274.775 66.5859C274.447 66.4062 274.166 66.1562 273.932 65.8359C273.635 65.4219 273.428 64.9844 273.311 64.5234C273.201 64.0625 273.147 63.5781 273.147 63.0703C273.147 62.5625 273.24 62.0273 273.428 61.4648C273.623 60.8945 273.885 60.4023 274.213 59.9883C274.65 59.4492 275.166 59.0469 275.76 58.7812C276.354 58.5156 276.994 58.3828 277.682 58.3828C278.127 58.3828 278.51 58.4258 278.83 58.5117C279.221 58.6367 279.631 58.7852 280.061 58.957C280.256 58.9023 280.447 58.875 280.635 58.875C280.861 58.875 281.088 58.9141 281.315 58.9922C281.463 59.0469 281.596 59.1367 281.713 59.2617C281.83 59.3789 281.889 59.5195 281.889 59.6836C281.873 60.043 281.865 60.4102 281.865 60.7852V61.1484C281.865 61.7188 281.889 62.2891 281.936 62.8594C281.99 63.4609 282.092 64.0547 282.24 64.6406C282.311 64.9453 282.436 65.2266 282.615 65.4844C282.662 65.5547 282.725 65.6211 282.803 65.6836C282.881 65.7383 282.967 65.7656 283.061 65.7656C283.209 65.7656 283.354 65.7031 283.494 65.5781C283.643 65.4453 283.764 65.3203 283.857 65.2031C284.334 64.5938 284.807 63.8789 285.275 63.0586C285.752 62.2383 286.15 61.4805 286.471 60.7852C286.51 60.6914 286.576 60.6289 286.67 60.5977C286.709 60.582 286.748 60.5742 286.787 60.5742C286.834 60.5742 286.885 60.5859 286.94 60.6094C287.033 60.6562 287.096 60.7227 287.127 60.8086C287.15 60.8555 287.162 60.9023 287.162 60.9492C287.162 60.9961 287.15 61.043 287.127 61.0898L286.846 61.6992C286.533 62.4102 286.205 63.0977 285.861 63.7617C285.518 64.4258 285.084 65.0898 284.561 65.7539C284.373 65.9961 284.154 66.2383 283.904 66.4805C283.662 66.7227 283.393 66.9297 283.096 67.1016C282.807 67.2656 282.502 67.3477 282.182 67.3477C281.729 67.3477 281.354 67.1992 281.057 66.9023C280.768 66.6055 280.533 66.2539 280.354 65.8477C280.182 65.4414 280.053 65.0469 279.967 64.6641C279.85 64.1406 279.764 63.6133 279.709 63.082ZM279.451 61.4648C279.553 61.0898 279.611 60.5195 279.627 59.7539C279.15 59.5117 278.74 59.3906 278.397 59.3906C277.951 59.3906 277.522 59.5273 277.107 59.8008C276.701 60.0664 276.369 60.3828 276.111 60.75C275.9 61.0625 275.729 61.4375 275.596 61.875C275.463 62.3047 275.397 62.7031 275.397 63.0703C275.397 63.4219 275.428 63.7539 275.49 64.0664C275.553 64.3789 275.662 64.6914 275.818 65.0039C275.998 65.4023 276.283 65.6055 276.674 65.6133C277.174 65.5898 277.604 65.3359 277.963 64.8516C278.33 64.3672 278.635 63.8047 278.877 63.1641C279.119 62.5234 279.311 61.957 279.451 61.4648ZM293.653 61.5703C293.583 61.7578 293.509 61.9453 293.431 62.1328C293.243 62.6094 293.001 63.1016 292.704 63.6094C292.415 64.1172 292.075 64.5898 291.685 65.0273C291.302 65.4648 290.868 65.8242 290.384 66.1055C289.907 66.3789 289.384 66.5156 288.814 66.5156C288.509 66.5156 288.22 66.4453 287.946 66.3047C287.321 65.9141 286.911 65.2539 286.716 64.3242C286.56 63.5898 286.482 62.832 286.482 62.0508C286.482 61.8398 286.485 61.625 286.493 61.4062C286.548 60.3906 286.638 59.5586 286.763 58.9102C286.786 58.8008 286.837 58.7148 286.915 58.6523C287.001 58.582 287.099 58.5469 287.208 58.5469C287.396 58.5469 287.591 58.5586 287.794 58.582C287.997 58.5977 288.189 58.6406 288.368 58.7109C288.501 58.7578 288.622 58.8242 288.732 58.9102C288.872 59.0352 288.943 59.1875 288.943 59.3672V59.4258C288.825 60.1758 288.755 60.9297 288.732 61.6875V61.9922C288.732 62.4141 288.755 62.8672 288.802 63.3516C288.872 63.9688 289.013 64.5 289.224 64.9453C289.318 65.1641 289.474 65.2734 289.693 65.2734C289.849 65.2734 290.001 65.2344 290.15 65.1562C290.306 65.0781 290.443 64.9883 290.56 64.8867C291.013 64.4883 291.411 64.0117 291.755 63.457C292.099 62.9023 292.38 62.3477 292.599 61.793C292.841 61.207 293.036 60.6055 293.185 59.9883V59.9414C293.185 59.8555 293.204 59.7773 293.243 59.707C293.306 59.5898 293.403 59.5156 293.536 59.4844C293.685 59.4531 293.837 59.4375 293.993 59.4375C294.048 59.4375 294.107 59.4414 294.169 59.4492C294.403 59.4648 294.638 59.5 294.872 59.5547C294.997 59.5859 295.114 59.6289 295.224 59.6836C295.341 59.7383 295.427 59.8281 295.482 59.9531C295.778 60.8359 295.993 61.7383 296.126 62.6602C296.204 63.168 296.267 63.6797 296.314 64.1953C297.829 62.9766 299.396 61.8281 301.013 60.75C301.083 60.7109 301.153 60.6914 301.224 60.6914H301.282C301.376 60.7148 301.45 60.7656 301.505 60.8438C301.544 60.9141 301.564 60.9844 301.564 61.0547V61.1133C301.54 61.207 301.489 61.2852 301.411 61.3477C299.857 62.4258 298.403 63.5586 297.052 64.7461C296.833 64.9258 296.61 65.1133 296.384 65.3086C296.392 65.6367 296.396 65.9648 296.396 66.293C296.396 67.2305 296.31 68.1602 296.138 69.082C295.81 70.9883 295.138 72.7617 294.122 74.4023C293.708 75.0586 293.193 75.6523 292.575 76.1836C291.966 76.7148 291.267 77.0469 290.478 77.1797C290.306 77.2109 290.138 77.2266 289.974 77.2266C289.396 77.2266 288.864 77.0195 288.38 76.6055C288.099 76.3555 287.892 76.0586 287.759 75.7148C287.634 75.3789 287.571 75.0273 287.571 74.6602C287.571 74.2148 287.681 73.7461 287.9 73.2539C288.126 72.7695 288.392 72.3047 288.696 71.8594C289.009 71.4141 289.306 71.0195 289.587 70.6758C290.235 69.8945 290.919 69.1445 291.638 68.4258C292.411 67.6445 293.208 66.8867 294.028 66.1523C294.068 66.1133 294.107 66.0781 294.146 66.0469C294.146 65.7969 294.142 65.5508 294.134 65.3086C294.095 64.4414 294.009 63.582 293.876 62.7305C293.814 62.3398 293.739 61.9531 293.653 61.5703ZM294.11 67.2891C293.485 67.8594 292.872 68.4492 292.271 69.0586C291.575 69.7539 290.915 70.4805 290.29 71.2383C290.064 71.5195 289.81 71.8555 289.528 72.2461C289.247 72.6445 289.001 73.0547 288.79 73.4766C288.579 73.9062 288.474 74.3008 288.474 74.6602C288.474 74.9727 288.544 75.2773 288.685 75.5742C288.763 75.6992 288.86 75.7852 288.978 75.832C289.095 75.8867 289.224 75.9141 289.364 75.9141C289.661 75.9141 289.946 75.8164 290.22 75.6211C291.212 74.832 292.001 73.8672 292.587 72.7266C293.478 71.0234 293.985 69.2109 294.11 67.2891Z" fill="black"/>
<path d="M221.612 111.56C219.279 111.56 217.26 110.942 215.557 109.705C213.877 108.445 212.687 106.648 211.987 104.315L217.132 102.285C217.435 103.475 217.937 104.455 218.637 105.225C219.337 105.995 220.329 106.38 221.612 106.38C222.032 106.38 222.429 106.333 222.802 106.24C223.199 106.147 223.537 106.007 223.817 105.82C224.12 105.61 224.365 105.353 224.552 105.05C224.739 104.747 224.832 104.397 224.832 104C224.832 103.603 224.75 103.242 224.587 102.915C224.447 102.565 224.202 102.25 223.852 101.97C223.502 101.667 223.035 101.375 222.452 101.095C221.869 100.792 221.134 100.477 220.247 100.15L218.707 99.59C218.054 99.3567 217.377 99.0417 216.677 98.645C216 98.225 215.382 97.7233 214.822 97.14C214.262 96.5567 213.807 95.8917 213.457 95.145C213.107 94.375 212.932 93.5233 212.932 92.59C212.932 91.5867 213.13 90.6417 213.527 89.755C213.924 88.8683 214.484 88.11 215.207 87.48C215.93 86.8267 216.805 86.3133 217.832 85.94C218.859 85.5667 219.99 85.38 221.227 85.38C222.534 85.38 223.654 85.555 224.587 85.905C225.52 86.2317 226.314 86.6633 226.967 87.2C227.62 87.7133 228.134 88.2967 228.507 88.95C228.904 89.6033 229.207 90.2333 229.417 90.84L224.692 92.835C224.435 92.0883 224.027 91.4933 223.467 91.05C222.907 90.5833 222.184 90.35 221.297 90.35C220.364 90.35 219.617 90.5483 219.057 90.945C218.52 91.3183 218.252 91.8083 218.252 92.415C218.252 93.045 218.532 93.605 219.092 94.095C219.652 94.585 220.644 95.075 222.067 95.565L223.607 96.09C225.73 96.8133 227.375 97.7817 228.542 98.995C229.709 100.208 230.292 101.842 230.292 103.895C230.292 105.202 230.024 106.333 229.487 107.29C228.974 108.247 228.297 109.04 227.457 109.67C226.64 110.3 225.707 110.767 224.657 111.07C223.63 111.397 222.615 111.56 221.612 111.56ZM241.937 85.94H248.237L257.617 111H251.597L249.672 105.4H240.502L238.577 111H232.557L241.937 85.94ZM247.922 100.43L246.102 95.18L245.262 92.1H244.912L244.072 95.18L242.252 100.43H247.922ZM261.388 85.94H266.848V105.82H277.348V111H261.388V85.94ZM286.983 91.12V95.88H296.923V101.06H286.983V105.82H298.043V111H281.523V85.94H298.043V91.12H286.983Z" fill="#F44831"/>
<path d="M219.903 122.296H215.119L215.151 120.056H222.751V122.392L217.663 131.256L215.679 130.136L219.983 122.456L219.903 122.296ZM227.445 119.544H230.325L234.613 131H231.861L230.981 128.44H226.789L225.909 131H223.157L227.445 119.544ZM230.181 126.168L229.349 123.768L228.965 122.36H228.805L228.421 123.768L227.589 126.168H230.181ZM236.337 119.544H238.801L242.065 125.144H242.225L245.489 119.544H247.953V131H245.489V125.928L245.649 124.008H245.489L242.881 128.568H241.409L238.801 124.008H238.641L238.801 125.928V131H236.337V119.544ZM250.38 124.952H255.948V127.128H250.38V124.952ZM260.095 131V122.84L258.255 123.608L257.375 121.56L260.591 120.056H262.495V131H260.095ZM269.613 131.256C268.888 131.256 268.237 131.112 267.661 130.824C267.085 130.536 266.594 130.136 266.189 129.624C265.784 129.112 265.469 128.509 265.245 127.816C265.032 127.112 264.925 126.349 264.925 125.528C264.925 124.707 265.032 123.949 265.245 123.256C265.469 122.552 265.784 121.944 266.189 121.432C266.594 120.92 267.085 120.52 267.661 120.232C268.237 119.944 268.888 119.8 269.613 119.8C270.328 119.8 270.973 119.944 271.549 120.232C272.136 120.52 272.632 120.92 273.037 121.432C273.442 121.944 273.752 122.552 273.965 123.256C274.189 123.949 274.301 124.707 274.301 125.528C274.301 126.349 274.189 127.112 273.965 127.816C273.752 128.509 273.442 129.112 273.037 129.624C272.632 130.136 272.136 130.536 271.549 130.824C270.973 131.112 270.328 131.256 269.613 131.256ZM269.613 129.016C269.976 129.016 270.296 128.931 270.573 128.76C270.861 128.579 271.101 128.333 271.293 128.024C271.496 127.715 271.645 127.347 271.741 126.92C271.848 126.493 271.901 126.029 271.901 125.528C271.901 125.027 271.848 124.563 271.741 124.136C271.645 123.709 271.496 123.341 271.293 123.032C271.101 122.723 270.861 122.483 270.573 122.312C270.296 122.131 269.976 122.04 269.613 122.04C269.25 122.04 268.925 122.131 268.637 122.312C268.36 122.483 268.12 122.723 267.917 123.032C267.725 123.341 267.576 123.709 267.469 124.136C267.373 124.563 267.325 125.027 267.325 125.528C267.325 126.029 267.373 126.493 267.469 126.92C267.576 127.347 267.725 127.715 267.917 128.024C268.12 128.333 268.36 128.579 268.637 128.76C268.925 128.931 269.25 129.016 269.613 129.016ZM279.859 119.544H282.739L287.027 131H284.275L283.395 128.44H279.203L278.323 131H275.571L279.859 119.544ZM282.595 126.168L281.763 123.768L281.379 122.36H281.219L280.835 123.768L280.003 126.168H282.595ZM288.751 119.544H291.215L294.479 125.144H294.639L297.903 119.544H300.367V131H297.903V125.928L298.063 124.008H297.903L295.295 128.568H293.823L291.215 124.008H291.055L291.215 125.928V131H288.751V119.544Z" fill="black"/>
</g>
<defs>
<filter id="filter0_d_157_708" x="-30" y="-26" width="440" height="260" filterUnits="userSpaceOnUse" color-interpolation-filters="sRGB">
<feFlood flood-opacity="0" result="BackgroundImageFix"/>
<feColorMatrix in="SourceAlpha" type="matrix" values="0 0 0 0 0 0 0 0 0 0 0 0 0 0 0 0 0 0 127 0" result="hardAlpha"/>
<feOffset dy="4"/>
<feGaussianBlur stdDeviation="15"/>
<feColorMatrix type="matrix" values="0 0 0 0 0.251275 0 0 0 0 0.25294 0 0 0 0 0.890257 0 0 0 0.162964 0"/>
<feBlend mode="normal" in2="BackgroundImageFix" result="effect1_dropShadow_157_708"/>
<feBlend mode="normal" in="SourceGraphic" in2="effect1_dropShadow_157_708" result="shape"/>
</filter>
<clipPath id="clip0_157_708">
<rect width="380" height="200" fill="white"/>
</clipPath>
</defs>
</svg>
