<svg width="75" height="75" viewBox="0 0 75 75" fill="none" xmlns="http://www.w3.org/2000/svg">
<path d="M73 42C73 19.9086 55.0914 2 33 2" stroke="#0096FF" stroke-width="3"/>
<circle cx="33" cy="42" r="33" fill="#0096FF"/>
<path d="M36.5607 33.9393C35.9749 33.3536 35.0251 33.3536 34.4393 33.9393C33.8536 34.5251 33.8536 35.4749 34.4393 36.0607L36.5607 33.9393ZM43 42.5L44.0607 43.5607C44.6464 42.9749 44.6464 42.0251 44.0607 41.4393L43 42.5ZM34.4393 48.9393C33.8536 49.5251 33.8536 50.4749 34.4393 51.0607C35.0251 51.6464 35.9749 51.6464 36.5607 51.0607L34.4393 48.9393ZM23 41C22.1716 41 21.5 41.6716 21.5 42.5C21.5 43.3284 22.1716 44 23 44V41ZM43 44C43.8284 44 44.5 43.3284 44.5 42.5C44.5 41.6716 43.8284 41 43 41V44ZM34.4393 36.0607L41.9393 43.5607L44.0607 41.4393L36.5607 33.9393L34.4393 36.0607ZM41.9393 41.4393L34.4393 48.9393L36.5607 51.0607L44.0607 43.5607L41.9393 41.4393ZM23 44H43V41H23V44Z" fill="white"/>
</svg>
