<svg width="80" height="84" viewBox="0 0 80 84" fill="none" xmlns="http://www.w3.org/2000/svg">
<path d="M38.2182 2C60.3096 2 78.2182 19.9086 78.2182 42C78.2182 64.0914 60.3096 82 38.2182 82C22.2055 82 8.39037 72.591 2 59" stroke="#0096FF" stroke-width="3" stroke-linecap="round" stroke-linejoin="round"/>
<circle cx="38.2182" cy="42" r="33" fill="#0096FF"/>
<path d="M41.7789 33.9393C41.1931 33.3536 40.2433 33.3536 39.6575 33.9393C39.0717 34.5251 39.0717 35.4749 39.6575 36.0607L41.7789 33.9393ZM48.2182 42.5L49.2789 43.5607C49.8646 42.9749 49.8646 42.0251 49.2789 41.4393L48.2182 42.5ZM39.6575 48.9393C39.0717 49.5251 39.0717 50.4749 39.6575 51.0607C40.2433 51.6464 41.1931 51.6464 41.7789 51.0607L39.6575 48.9393ZM28.2182 41C27.3898 41 26.7182 41.6716 26.7182 42.5C26.7182 43.3284 27.3898 44 28.2182 44V41ZM48.2182 44C49.0466 44 49.7182 43.3284 49.7182 42.5C49.7182 41.6716 49.0466 41 48.2182 41V44ZM39.6575 36.0607L47.1575 43.5607L49.2789 41.4393L41.7789 33.9393L39.6575 36.0607ZM47.1575 41.4393L39.6575 48.9393L41.7789 51.0607L49.2789 43.5607L47.1575 41.4393ZM28.2182 44H48.2182V41H28.2182V44Z" fill="white"/>
</svg>
