<svg width="86" height="86" viewBox="0 0 86 86" fill="none" xmlns="http://www.w3.org/2000/svg">
<circle cx="43" cy="43" r="41.5" stroke="#0096FF" stroke-width="3" stroke-linejoin="round"/>
<circle cx="43" cy="43" r="33" fill="#0096FF"/>
<path d="M46.5607 34.9393C45.9749 34.3536 45.0251 34.3536 44.4393 34.9393C43.8536 35.5251 43.8536 36.4749 44.4393 37.0607L46.5607 34.9393ZM53 43.5L54.0607 44.5607C54.6464 43.9749 54.6464 43.0251 54.0607 42.4393L53 43.5ZM44.4393 49.9393C43.8536 50.5251 43.8536 51.4749 44.4393 52.0607C45.0251 52.6464 45.9749 52.6464 46.5607 52.0607L44.4393 49.9393ZM33 42C32.1716 42 31.5 42.6716 31.5 43.5C31.5 44.3284 32.1716 45 33 45V42ZM53 45C53.8284 45 54.5 44.3284 54.5 43.5C54.5 42.6716 53.8284 42 53 42V45ZM44.4393 37.0607L51.9393 44.5607L54.0607 42.4393L46.5607 34.9393L44.4393 37.0607ZM51.9393 42.4393L44.4393 49.9393L46.5607 52.0607L54.0607 44.5607L51.9393 42.4393ZM33 45H53V42H33V45Z" fill="white"/>
</svg>
