<svg width="26" height="23" viewBox="0 0 26 23" fill="none" xmlns="http://www.w3.org/2000/svg">
<path fill-rule="evenodd" clip-rule="evenodd" d="M22.5283 9.5703C21.5625 4.40769 17.0236 0.510885 11.5856 0.529362L11.2951 0.534087C5.31079 0.708448 0.519527 5.62045 0.529557 11.6426C0.539779 17.7616 5.50447 22.7177 11.6237 22.7177C12.0655 22.7177 12.4237 22.3595 12.4237 21.9177V21.0941L12.4175 20.9938C12.3681 20.5993 12.0315 20.2941 11.6237 20.2941C6.8422 20.2941 2.9629 16.4226 2.9531 11.6412C2.94443 6.85933 6.80735 2.97217 11.5878 2.95294L11.8477 2.95572L12.1175 2.96672C15.9686 3.18324 19.1535 5.91507 20.0453 9.55189L20.074 9.67497L19.8108 9.45631L19.7226 9.39246C19.3886 9.18334 18.943 9.24815 18.6839 9.55959L18.1565 10.1937L18.0927 10.2818C17.8838 10.6156 17.9484 11.0608 18.2594 11.3199L20.73 13.3787L20.8372 13.4583C21.2792 13.7502 21.8661 13.7238 22.2806 13.3797L24.7523 11.3199L24.831 11.2448C25.0969 10.9543 25.114 10.5049 24.8552 10.1937L24.3277 9.55959L24.2526 9.4807L24.1608 9.40823C23.873 9.21346 23.48 9.22318 23.1998 9.4572L22.593 9.96297L22.5774 9.85314L22.5283 9.5703ZM12.8292 4.93495C12.7799 4.54049 12.4433 4.2353 12.0355 4.2353H11.2119L11.1116 4.24153C10.7171 4.2909 10.4119 4.62746 10.4119 5.0353V11.6235L10.4194 11.7591C10.4493 12.0278 10.5677 12.2803 10.7593 12.476L15.2946 17.0114L15.3844 17.0889C15.6976 17.3212 16.142 17.2954 16.426 17.0114L17.0116 16.4259L17.089 16.3361L17.151 16.2385C17.3137 15.9355 17.2671 15.5498 17.0112 15.2942L12.835 11.123L12.8355 5.0353L12.8292 4.93495Z" fill="#1D1D1B"/>
</svg>
