<svg width="18" height="18" viewBox="0 0 18 18" fill="none" xmlns="http://www.w3.org/2000/svg">
<path fill-rule="evenodd" clip-rule="evenodd" d="M16.5151 9.64038L15.0391 8.47206C14.7852 8.26692 14.7264 7.90542 14.9078 7.63148L15.9485 6.0729C16.0698 5.88277 16.0849 5.6426 15.9823 5.44246C15.8797 5.23732 15.6796 5.11098 15.4482 5.10097L13.5719 5.02217C13.2504 5.00841 12.9877 4.74948 12.9777 4.42175L12.8989 2.54545C12.8889 2.32029 12.7575 2.12015 12.5574 2.01758C12.3573 1.91501 12.1108 1.93002 11.927 2.05136L10.3684 3.09208C10.0944 3.27346 9.72794 3.21466 9.5278 2.96074L8.35949 1.48471C8.22314 1.30959 7.99799 1.22078 7.77408 1.25956C7.55393 1.29458 7.36254 1.44594 7.28499 1.65608L6.62954 3.4148C6.51821 3.72252 6.19048 3.88888 5.87776 3.80132L4.07026 3.29722C3.85011 3.23468 3.61494 3.29722 3.45358 3.45358C3.29722 3.61494 3.23468 3.85011 3.29722 4.06526L3.80132 5.87776C3.88888 6.19048 3.72252 6.51821 3.4148 6.62954L1.65608 7.28499C1.44594 7.36254 1.29458 7.55393 1.25956 7.77408C1.22078 7.99799 1.30959 8.22314 1.48471 8.35949L2.96074 9.5278C3.21466 9.73294 3.27346 10.0944 3.09208 10.3684L2.05136 11.927C1.93002 12.1171 1.91501 12.3573 2.01758 12.5574C2.12015 12.7575 2.32029 12.8889 2.55045 12.8989L4.42676 12.9777C4.74948 12.9915 5.00841 13.2504 5.02217 13.5731L5.10097 15.4494C5.11098 15.6796 5.24232 15.8797 5.44246 15.9823C5.6426 16.0849 5.88277 16.0698 6.0729 15.9485L7.63148 14.9078C7.90542 14.7264 8.27193 14.7852 8.47206 15.0391L9.64038 16.5151C9.77672 16.6903 10.0019 16.7791 10.2258 16.7403C10.4447 16.7053 10.6373 16.5539 10.7149 16.3438L11.3703 14.5851C11.4817 14.2773 11.8094 14.111 12.1221 14.1985L13.9296 14.7026C14.1498 14.7652 14.3849 14.7026 14.5463 14.5413C14.7064 14.3849 14.7652 14.1498 14.7026 13.9296L14.1973 12.1221C14.111 11.8094 14.2773 11.4817 14.5851 11.3703L16.3438 10.7149C16.5539 10.6373 16.7053 10.4459 16.7403 10.2258C16.7791 10.0019 16.6903 9.77672 16.5151 9.64038ZM17.9762 10.4222C17.8786 11.0914 17.4183 11.653 16.7791 11.8882L15.557 12.3423L15.9085 13.5981C16.0899 14.2473 15.9047 14.9466 15.4256 15.4256C14.9466 15.9047 14.2473 16.0899 13.5981 15.9085L12.3423 15.557L11.8882 16.7791C11.653 17.4145 11.0914 17.8786 10.4222 17.9762C10.3246 17.9949 10.222 17.9999 10.1195 17.9999C9.54781 18.0049 9.00994 17.741 8.65844 17.2919L7.84663 16.2662L6.76713 16.9892C6.20049 17.3657 5.47749 17.4045 4.87081 17.0968C4.2704 16.7891 3.87888 16.1824 3.85011 15.5032L3.79632 14.2035L2.49667 14.1498C1.81744 14.121 1.21077 13.7295 0.90306 13.129C0.595346 12.5224 0.634123 11.7994 1.01063 11.2327L1.73364 10.1532L0.707924 9.34142C0.180058 8.92238 -0.0838753 8.24691 0.0236994 7.57769C0.126271 6.90848 0.585339 6.34684 1.22078 6.11168L2.44288 5.65761L2.09138 4.40174C1.91001 3.75254 2.09514 3.0533 2.57422 2.57422C3.0533 2.09514 3.75254 1.91001 4.40174 2.09138L5.65761 2.44288L6.11168 1.22078C6.34684 0.585339 6.90848 0.126271 7.57769 0.0236994C8.24691 -0.0838753 8.92238 0.180058 9.34142 0.707924L10.1532 1.73364L11.2327 1.01063C11.7981 0.634123 12.5224 0.595346 13.129 0.90306C13.7282 1.21077 14.121 1.81744 14.1498 2.49667L14.2035 3.79632L15.5019 3.85011C16.1824 3.87888 16.7891 4.2704 17.0968 4.87081C17.4045 5.47749 17.3657 6.20049 16.9892 6.76713L16.2662 7.84663L17.2919 8.65844C17.8248 9.07373 18.0887 9.75295 17.9762 10.4222ZM10.7199 10.7199C10.3384 11.1014 10.3384 11.7168 10.7199 12.0983C11.1014 12.4786 11.7168 12.4786 12.0983 12.0983C12.4773 11.7168 12.4773 11.1014 12.0983 10.7199C11.7168 10.3384 11.1014 10.3384 10.7199 10.7199ZM7.27999 7.27999C7.6615 6.89847 7.6615 6.28304 7.27999 5.90153C6.89847 5.52127 6.28304 5.52127 5.90153 5.90153C5.52127 6.28304 5.52127 6.89847 5.90153 7.27999C6.28304 7.6615 6.89847 7.6615 7.27999 7.27999ZM11.912 6.97227L6.97227 11.912C6.72835 12.1471 6.33683 12.1471 6.09792 11.9019C5.85275 11.663 5.85275 11.2715 6.08791 11.0276L11.0276 6.08791C11.2715 5.85275 11.663 5.85275 11.9019 6.09792C12.1471 6.33683 12.1471 6.72835 11.912 6.97227Z" fill="#2B0752"/>
</svg>
