<svg width="90" height="105" viewBox="0 0 90 105" fill="none" xmlns="http://www.w3.org/2000/svg">
<path fill-rule="evenodd" clip-rule="evenodd" d="M4.32721 9.67554H31.7224C33.384 9.67554 34.7312 11.0227 34.7319 12.6844V30.9389C34.7319 32.6006 33.3847 33.9478 31.7224 33.9478H23.725C23.2587 33.9478 22.8117 34.1332 22.4821 34.4628L18.9603 37.9839C18.617 38.3272 18.0608 38.3272 17.7175 37.9839L14.1957 34.4628C13.8662 34.1332 13.4191 33.9478 12.953 33.9478H4.32721C2.66555 33.9478 1.31836 32.6006 1.31836 30.9389V12.6844C1.31836 11.0227 2.66555 9.67554 4.32721 9.67554ZM85.6728 9.67554H58.2776C56.616 9.67554 55.2688 11.0227 55.2681 12.6844V30.9389C55.2681 32.6006 56.6153 33.9478 58.2776 33.9478H66.275C66.7411 33.9478 67.1882 34.1332 67.5178 34.4628L71.0397 37.9839C71.383 38.3272 71.9392 38.3272 72.2825 37.9839L75.8043 34.4628C76.1339 34.1332 76.5809 33.9478 77.047 33.9478H85.6728C87.3344 33.9478 88.6816 32.6006 88.6816 30.9389V12.6844C88.6816 11.0227 87.3344 9.67554 85.6728 9.67554Z" fill="#F5F5F5"/>
<path fill-rule="evenodd" clip-rule="evenodd" d="M55.6714 80.1699C55.6714 78.1354 57.0358 76.3542 59.0002 75.8233L66.4963 73.7999C67.7152 73.471 68.5611 72.3661 68.5611 71.1049V69.4246H75.7922V71.1049C75.7922 72.3661 76.638 73.471 77.8562 73.7999L85.3529 75.8233C87.3175 76.3542 88.6819 78.1354 88.6819 80.1699V90.1757H55.6714V80.1699Z" fill="#66C1FF"/>
<path fill-rule="evenodd" clip-rule="evenodd" d="M79.6971 60.2401L64.6567 60.2944V53.5406C64.6567 51.0542 66.6721 49.0388 69.1585 49.0388H78.994C79.3819 49.0388 79.6971 49.3533 79.6971 49.7419V60.2401Z" fill="#676E87"/>
<path fill-rule="evenodd" clip-rule="evenodd" d="M75.7917 71.1049V69.4246H68.5606V71.1049C68.5606 72.3663 67.7147 73.471 66.4966 73.7999L66.6827 73.9441C69.9881 76.4964 74.6168 76.4374 77.8557 73.7999C76.6376 73.471 75.7917 72.3663 75.7917 71.1049Z" fill="#FFCD85"/>
<path fill-rule="evenodd" clip-rule="evenodd" d="M75.7918 71.1049V69.4246H68.5607V71.1049C68.56 71.2827 68.543 71.4599 68.5078 71.635C70.7875 72.9094 73.565 72.9094 75.8447 71.635C75.8098 71.4599 75.7925 71.2827 75.7918 71.1049Z" fill="#FFC166"/>
<path fill-rule="evenodd" clip-rule="evenodd" d="M79.6971 58.0435V63.3129C79.6971 67.4657 76.3298 70.8329 72.177 70.8329C68.0235 70.8329 64.6567 67.4657 64.6567 63.3129V58.0435C67.1864 56.7958 69.0246 56.8253 70.2084 57.0587C72.0232 57.4166 72.707 58.3326 74.5891 58.7102C76.667 59.127 78.5196 58.5495 79.6971 58.0435Z" fill="#FFCD85"/>
<path fill-rule="evenodd" clip-rule="evenodd" d="M1.1792 80.1699C1.1792 78.1354 2.54361 76.3542 4.50814 75.8233L12.0042 73.7999C13.223 73.471 14.0689 72.3661 14.0689 71.1049V69.4246H21.3V71.1049C21.3 72.3661 22.1459 73.471 23.364 73.7999L30.8607 75.8233C32.8253 76.3542 34.1897 78.1354 34.1897 80.1699V90.1757H1.1792V80.1699Z" fill="#66C1FF"/>
<path fill-rule="evenodd" clip-rule="evenodd" d="M25.2049 60.2401L10.1646 60.2944V53.5406C10.1646 51.0542 12.1799 49.0388 14.6663 49.0388H24.5018C24.8897 49.0388 25.2049 49.3533 25.2049 49.7419V60.2401Z" fill="#676E87"/>
<path fill-rule="evenodd" clip-rule="evenodd" d="M21.2997 71.1049V69.4246H14.0686V71.1049C14.0686 72.3663 13.2228 73.471 12.0039 73.7999L12.1908 73.9441C15.4962 76.4964 20.1248 76.4374 23.3638 73.7999C22.1456 73.471 21.2997 72.3663 21.2997 71.1049Z" fill="#FFCD85"/>
<path fill-rule="evenodd" clip-rule="evenodd" d="M21.2996 71.1049V69.4246H14.0685V71.1049C14.0678 71.2827 14.0508 71.4599 14.0156 71.635C16.2953 72.9094 19.0729 72.9094 21.3526 71.635C21.3174 71.4599 21.3004 71.2827 21.2996 71.1049Z" fill="#FFC166"/>
<path fill-rule="evenodd" clip-rule="evenodd" d="M25.2049 58.0435V63.3129C25.2049 67.4657 21.8375 70.8329 17.6846 70.8329C13.5313 70.8329 10.1646 67.4657 10.1646 63.3129V58.0435C12.6942 56.7958 14.5324 56.8253 15.7161 57.0587C17.5308 57.4166 18.2148 58.3326 20.0969 58.7102C22.1746 59.127 24.0274 58.5495 25.2049 58.0435Z" fill="#FFCD85"/>
<path fill-rule="evenodd" clip-rule="evenodd" d="M23.0293 78.6813V90.1759H34.1893V80.17C34.1893 78.1355 32.8249 76.3544 30.8604 75.8235L24.4925 74.1049C23.5415 75.441 23.03 77.041 23.0293 78.6813ZM66.9704 78.6813C66.9697 77.0279 66.4499 75.4157 65.4838 74.0732L58.9998 75.8235C57.0354 76.3544 55.671 78.1355 55.671 80.17V90.1759H66.9704V78.6813Z" fill="#4EB7FF"/>
<path fill-rule="evenodd" clip-rule="evenodd" d="M64.3337 90.1758V78.6813C64.3337 76.2981 62.7351 74.2114 60.4341 73.59L51.6533 71.2196C50.2258 70.8344 49.2349 69.54 49.2349 68.0624V66.0945H40.7646V68.0624C40.7646 69.54 39.7739 70.8344 38.3462 71.2196L29.5654 73.59C27.2644 74.2114 25.666 76.2981 25.666 78.6813V90.1758H64.3337Z" fill="#FF6666"/>
<path fill-rule="evenodd" clip-rule="evenodd" d="M53.8088 55.336L36.1909 55.3991V47.4883C36.1909 44.5756 38.5522 42.2148 41.4644 42.2148H52.7541C53.3363 42.2148 53.8088 42.6866 53.8088 43.2695V55.336Z" fill="#676E87"/>
<path fill-rule="evenodd" clip-rule="evenodd" d="M51.6535 71.2196C50.226 70.8344 49.2351 69.54 49.2351 68.0624V66.0945H40.7648V68.0624C40.7648 69.54 39.7739 70.8344 38.3462 71.2196L38.5649 71.3878C42.4373 74.3789 47.8591 74.3087 51.6535 71.2196Z" fill="#FFCD85"/>
<path fill-rule="evenodd" clip-rule="evenodd" d="M49.235 68.0624V66.0945H40.7645V68.0624C40.7638 68.177 40.7576 68.2917 40.7446 68.4057C43.3929 69.8669 46.6066 69.8669 49.2549 68.4057C49.2419 68.2917 49.2357 68.177 49.235 68.0624Z" fill="#FFC166"/>
<path fill-rule="evenodd" clip-rule="evenodd" d="M53.8088 52.7626V58.9348C53.8088 63.7997 49.8648 67.7439 44.9998 67.7439C40.1349 67.7439 36.1909 63.7997 36.1909 58.9348V52.7626C39.1537 51.3013 41.307 51.3358 42.6948 51.6091C44.82 52.0278 45.6205 53.1011 47.8254 53.5432C50.2596 54.0315 52.4292 53.3551 53.8088 52.7626Z" fill="#FFCD85"/>
<path fill-rule="evenodd" clip-rule="evenodd" d="M31.7221 9.67551H21.7012V22.7575C21.7047 25.8741 24.2308 28.3996 27.3467 28.4031H34.7317V12.6844C34.7317 11.022 33.3845 9.6748 31.7221 9.6748V9.67551ZM62.6528 28.4031C65.7687 28.3996 68.295 25.8741 68.2983 22.7575V9.6748H58.2774C56.615 9.6748 55.2678 11.022 55.2678 12.6837V28.4031H62.6528Z" fill="#E5E5E5"/>
<path fill-rule="evenodd" clip-rule="evenodd" d="M62.6528 1.49414H27.3467C25.6851 1.49414 24.3379 2.84133 24.3379 4.50299V22.7575C24.3379 24.4192 25.6851 25.7664 27.3467 25.7664H37.9815C38.4479 25.7664 38.8949 25.9518 39.2245 26.2814L42.7462 29.8032C43.0895 30.1458 43.6457 30.1458 43.989 29.8032L47.5101 26.2814C47.8404 25.9518 48.2874 25.7664 48.7537 25.7664H62.6528C64.3144 25.7664 65.6616 24.4192 65.6616 22.7575V4.50299C65.6616 2.84133 64.3144 1.49414 62.6528 1.49414Z" fill="#F5F5F5"/>
<mask id="mask0_0_2655" style="mask-type:luminance" maskUnits="userSpaceOnUse" x="0" y="0" width="90" height="91">
<path fill-rule="evenodd" clip-rule="evenodd" d="M0 0.175781H90V90.1757H0V0.175781Z" fill="white"/>
</mask>
<g mask="url(#mask0_0_2655)">
<path fill-rule="evenodd" clip-rule="evenodd" d="M57.7517 16.2671H32.2483C31.5204 16.2671 30.9299 16.8568 30.9299 17.5854C30.9299 18.3134 31.5204 18.9038 32.2483 18.9038H57.7517C58.4796 18.9038 59.0701 18.3134 59.0701 17.5854C59.0701 16.8568 58.4796 16.2671 57.7517 16.2671ZM18.9116 16.5376H9.22852C8.50061 16.5376 7.91016 17.1281 7.91016 17.856C7.91016 18.5846 8.50061 19.1743 9.22852 19.1743H18.9116C19.6395 19.1743 20.23 18.5846 20.23 17.856C20.23 17.1281 19.6395 16.5376 18.9116 16.5376ZM18.9116 24.4478H9.22852C8.50061 24.4478 7.91016 25.0382 7.91016 25.7661C7.91016 26.4947 8.50061 27.0845 9.22852 27.0845H18.9116C19.6395 27.0845 20.23 26.4947 20.23 25.7661C20.23 25.0382 19.6395 24.4478 18.9116 24.4478ZM80.7715 16.5376H71.0884C70.3605 16.5376 69.77 17.1281 69.77 17.856C69.77 18.5846 70.3605 19.1743 71.0884 19.1743H80.7715C81.4994 19.1743 82.0898 18.5846 82.0898 17.856C82.0898 17.1281 81.4994 16.5376 80.7715 16.5376ZM87.3633 30.9387C87.3619 31.8717 86.6058 32.6277 85.6728 32.6292H77.0472C76.2307 32.627 75.448 32.9512 74.8719 33.53L71.6611 36.7409L68.4503 33.53C67.8749 32.9512 67.0915 32.627 66.275 32.6292H58.2776C57.3446 32.6277 56.5879 31.8717 56.5864 30.9387V27.0845H62.653C65.0412 27.0817 66.9774 25.1461 66.9802 22.7573V10.9936H85.6728C86.6058 10.9943 87.3619 11.7511 87.3633 12.6841V30.9387ZM48.7538 24.4478C47.9375 24.4457 47.154 24.7705 46.5785 25.3493L43.3679 28.5602L40.1571 25.3493C39.5817 24.7705 38.7983 24.4457 37.9818 24.4478H27.347C26.4139 24.4471 25.6579 23.6903 25.6565 22.7573V4.50274C25.6579 3.5697 26.4139 2.81366 27.347 2.81226H62.653C63.5861 2.81366 64.3421 3.5697 64.3435 4.50274V22.7573C64.3421 23.6903 63.5861 24.4471 62.653 24.4478H48.7538ZM33.4136 30.9387C33.4121 31.8717 32.6554 32.6277 31.7224 32.6292H23.725C22.9085 32.627 22.1251 32.9512 21.5497 33.53L18.3389 36.7409L15.1276 33.53C14.5521 32.9512 13.7686 32.627 12.953 32.6292H4.32721C3.39416 32.6277 2.63812 31.8717 2.63672 30.9387V12.6841C2.63812 11.7511 3.39416 10.9943 4.32721 10.9936H23.0198V22.7573C23.0226 25.1461 24.9588 27.0817 27.347 27.0845H33.4136V30.9387ZM85.6728 8.35692H66.9802V4.50274C66.9774 2.11388 65.0419 0.17835 62.653 0.175537H27.347C24.9581 0.17835 23.0226 2.11388 23.0198 4.50274V8.35692H4.32721C1.93834 8.35974 0.0028125 10.2953 0 12.6841V30.9387C0.0028125 33.3275 1.93834 35.2631 4.32721 35.2659H12.953C13.0697 35.2659 13.1815 35.3119 13.2632 35.3942L16.785 38.9161C17.644 39.7731 19.0338 39.7731 19.8921 38.9161L23.4139 35.3942C23.4963 35.3126 23.6083 35.2659 23.725 35.2659H31.7224C34.1112 35.2631 36.0475 33.3275 36.0503 30.9387V27.0845H37.9818C38.0985 27.0852 38.2097 27.1312 38.2929 27.2135L41.814 30.7355C42.673 31.5917 44.0627 31.5917 44.9218 30.7355L48.4436 27.2128C48.526 27.1312 48.6371 27.0852 48.7538 27.0845H53.9497V30.9387C53.9525 33.3275 55.8888 35.2631 58.2776 35.2659H66.275C66.3917 35.2659 66.503 35.3126 66.5861 35.3942L70.1079 38.9161C70.9662 39.7731 72.356 39.7731 73.215 38.9161L76.7361 35.3942C76.8185 35.3119 76.9303 35.2652 77.0472 35.2659H85.6728C88.0617 35.2631 89.9972 33.3275 90 30.9387V12.6841C89.9972 10.2953 88.0617 8.35974 85.6728 8.35692ZM72.1768 69.5144C68.7531 69.5103 65.9784 66.7362 65.9749 63.3126V58.8926C67.4225 58.298 68.7579 58.116 69.9534 58.3523C70.5885 58.4924 71.199 58.7258 71.7655 59.0464C72.5681 59.4894 73.4326 59.8114 74.3295 60.0023C75.6717 60.2632 77.0548 60.2207 78.3786 59.8788V63.3126C78.3744 66.7362 75.5996 69.5103 72.1768 69.5144ZM68.8946 73.766C69.367 73.2119 69.6843 72.5431 69.8133 71.8277C71.3596 72.2582 72.9932 72.2582 74.5395 71.8277C74.6692 72.5438 74.9865 73.2126 75.4588 73.7667C73.3825 74.7555 70.971 74.7555 68.8953 73.7655L68.8946 73.766ZM65.9749 53.5403C65.977 51.7832 67.4012 50.359 69.1583 50.357H78.3786V57.1348C76.5974 57.8133 74.6054 57.6513 72.9575 56.6947C72.1768 56.2628 71.3363 55.9497 70.4635 55.7649C69.0492 55.4862 67.5453 55.5981 65.9749 56.0924V53.5403ZM45 66.4252C40.8651 66.4203 37.5142 63.0695 37.5094 58.9345V53.6076C39.3008 52.8475 40.9563 52.6106 42.4403 52.9024C43.3171 53.0753 43.9205 53.3817 44.6203 53.7359C45.5432 54.2455 46.536 54.6162 47.5668 54.8359C49.2022 55.1504 50.8887 55.0769 52.4906 54.6203V58.9345C52.4858 63.0695 49.1349 66.4203 45 66.4252ZM40.7895 71.2474C41.4816 70.5313 41.9217 69.6091 42.0453 68.6211C43.9713 69.2089 46.0287 69.2089 47.9547 68.6211C48.0783 69.6105 48.5197 70.5334 49.2133 71.2509C46.5717 72.6173 43.4303 72.6166 40.7895 71.2474ZM37.5094 47.4874C37.5121 45.3046 39.281 43.5351 41.4645 43.5323H52.4906V51.86C50.9456 52.3949 49.4666 52.5274 48.0851 52.2507C47.1519 52.0641 46.5312 51.7489 45.8123 51.3841C44.9162 50.8884 43.9515 50.5279 42.9497 50.3157C41.2427 49.9793 39.4196 50.1385 37.5094 50.7875V47.4874ZM17.8233 69.5144C14.4004 69.5103 11.6256 66.7362 11.6221 63.3126V58.8926C13.0697 58.298 14.4051 58.116 15.6006 58.3523C16.2357 58.4924 16.8462 58.7258 17.412 59.0464C18.2153 59.4894 19.0798 59.8114 19.9767 60.0023C21.3182 60.2632 22.7018 60.2207 24.0251 59.8788V63.3126C24.0216 66.7362 21.2469 69.5103 17.8233 69.5144ZM14.5419 73.7655C15.0142 73.2119 15.3315 72.5438 15.4612 71.8277C17.0061 72.2582 18.6404 72.2582 20.186 71.8277C20.3157 72.5438 20.633 73.2126 21.1054 73.7667C19.0297 74.7555 16.6175 74.7555 14.5419 73.7655ZM11.6214 53.5403C11.6235 51.7832 13.0477 50.359 14.8055 50.357H24.0251V57.1348C22.8934 57.5358 21.6766 57.6333 20.4957 57.4171C19.8323 57.2714 19.1951 57.0285 18.6047 56.6947C17.8239 56.2628 16.9835 55.9497 16.1107 55.7649C14.6957 55.4869 13.1926 55.5981 11.6214 56.0924V53.5403ZM85.6969 74.5509L78.2 72.5275C77.5573 72.3529 77.111 71.77 77.1103 71.1047V70.6418C79.55 69.0008 81.0139 66.2535 81.0153 63.3126V49.7418C81.0139 48.6259 80.1095 47.7216 78.9938 47.7203H69.1583C65.9454 47.7237 63.3417 50.3275 63.3382 53.5403V63.3126C63.3389 66.2535 64.8028 69.0008 67.2425 70.6418V71.1047C67.2418 71.77 66.7955 72.3529 66.1528 72.5275L62.9798 73.3837C62.3192 72.8934 61.5728 72.5315 60.7785 72.3172L51.997 69.947C51.1455 69.7155 50.5543 68.9438 50.5536 68.0614V67.3975C53.4059 65.527 55.1254 62.3458 55.1273 58.9345V43.2687C55.1259 41.9593 54.0636 40.8977 52.7542 40.8956H41.4645C37.826 40.8998 34.8768 43.8489 34.8727 47.4874V58.9345C34.8746 62.3458 36.5934 65.527 39.4464 67.3975V68.0614C39.4457 68.9438 38.8538 69.7155 38.003 69.947L29.2215 72.3172C28.4279 72.5315 27.6808 72.8927 27.0202 73.383L23.8472 72.5267C23.2045 72.3529 22.7575 71.7707 22.7568 71.1047V70.6425C25.1972 69.0015 26.6611 66.2535 26.6618 63.3126V49.7418C26.6604 48.6259 25.756 47.7216 24.6403 47.7203H14.8055C11.5926 47.7237 8.98893 50.3275 8.98471 53.5403V63.3126C8.98611 66.2535 10.45 69.0007 12.8897 70.6425V71.1054C12.889 71.7707 12.442 72.3529 11.7993 72.5267L4.30383 74.5502C1.76607 75.2389 0.00351562 77.5406 0 80.1697V88.8572C0 89.5851 0.590449 90.1755 1.31836 90.1755C2.04627 90.1755 2.63672 89.5851 2.63672 88.8572V80.1697C2.63883 78.7318 3.60281 77.4725 4.99131 77.0957L11.8659 75.2403C15.4303 77.7851 20.2177 77.7851 23.782 75.2403L25.1154 75.6001C24.6115 76.549 24.3478 77.6065 24.3478 78.681V88.8572C24.3478 89.5851 24.9383 90.1755 25.6662 90.1755C26.3939 90.1755 26.9845 89.5851 26.9845 88.8572V78.681C26.9865 76.8944 28.1848 75.331 29.9088 74.8627L38.0682 72.6605C42.2019 75.6674 47.8021 75.6674 51.9351 72.6612L60.0912 74.8627C61.8152 75.331 63.0128 76.8944 63.0155 78.681V88.8572C63.0155 89.5851 63.6061 90.1755 64.3338 90.1755C65.0617 90.1755 65.6522 89.5851 65.6522 88.8572V78.681C65.6522 77.6072 65.3885 76.549 64.8846 75.6008L66.2194 75.2403C69.7838 77.7844 74.5704 77.7851 78.1348 75.2403L85.0094 77.0964C86.3972 77.4732 87.3612 78.7318 87.3633 80.1697V88.8572C87.3633 89.5851 87.9537 90.1755 88.6816 90.1755C89.4096 90.1755 90 89.5851 90 88.8572V80.1697C89.9965 77.5406 88.2339 75.2389 85.6969 74.5509ZM57.7517 8.35692H32.2483C31.5204 8.35692 30.9299 8.94667 30.9299 9.67528C30.9299 10.4032 31.5204 10.9936 32.2483 10.9936H57.7517C58.4796 10.9936 59.0701 10.4032 59.0701 9.67528C59.0701 8.94667 58.4796 8.35692 57.7517 8.35692ZM80.7715 24.4478H71.0884C70.3605 24.4478 69.77 25.0382 69.77 25.7661C69.77 26.4947 70.3605 27.0845 71.0884 27.0845H80.7715C81.4994 27.0845 82.0898 26.4947 82.0898 25.7661C82.0898 25.0382 81.4994 24.4478 80.7715 24.4478ZM56.4237 80.9312C55.6959 80.9312 55.1053 81.5218 55.1053 82.2496V88.8572C55.1053 89.5851 55.6959 90.1755 56.4237 90.1755C57.1516 90.1755 57.742 89.5851 57.742 88.8572V82.2496C57.742 81.5218 57.1516 80.9312 56.4237 80.9312ZM8.07082 81.898C7.34291 81.898 6.75246 82.4886 6.75246 83.2164V88.8572C6.75246 89.5851 7.34291 90.1755 8.07082 90.1755C8.79943 90.1755 9.38918 89.5851 9.38918 88.8572V83.2164C9.38918 82.4886 8.79943 81.898 8.07082 81.898ZM81.9292 81.898C81.2006 81.898 80.6108 82.4886 80.6108 83.2164V88.8572C80.6108 89.5851 81.2006 90.1755 81.9292 90.1755C82.6571 90.1755 83.2475 89.5851 83.2475 88.8572V83.2164C83.2475 82.4886 82.6571 81.898 81.9292 81.898ZM33.5763 80.9312C32.8484 80.9312 32.258 81.5218 32.258 82.2496V88.8572C32.258 89.5851 32.8484 90.1755 33.5763 90.1755C34.3041 90.1755 34.8947 89.5851 34.8947 88.8572V82.2496C34.8947 81.5218 34.3041 80.9312 33.5763 80.9312Z" fill="#313440"/>
</g>
<mask id="mask1_0_2655" style="mask-type:luminance" maskUnits="userSpaceOnUse" x="4" y="92" width="81" height="13">
<path fill-rule="evenodd" clip-rule="evenodd" d="M4.13086 92.9653H84.9902V104.785H4.13086V92.9653Z" fill="white"/>
</mask>
<g mask="url(#mask1_0_2655)">
<path fill-rule="evenodd" clip-rule="evenodd" d="M78.9537 93.0639L80.8545 96.857L84.9902 97.5427L82.0603 100.473L82.746 104.785L78.9537 102.717L75.1614 104.785L75.847 100.473L72.7411 97.5427L77.053 96.857L78.9537 93.0639ZM61.7062 93.0639L63.6068 96.857L67.9187 97.5427L64.8128 100.473L65.4986 104.785L61.7062 102.717L57.9138 104.785L58.7762 100.473L55.6696 97.5427L59.8055 96.857L61.7062 93.0639ZM27.415 92.9653L29.3157 96.9253L33.6277 97.4441L30.5216 100.551L31.2073 104.687L27.415 102.795L23.6227 104.687L24.3084 100.551L21.2024 97.4441L25.5143 96.9253L27.415 92.9653ZM10.3433 92.9653L12.2353 96.9253L16.38 97.4441L13.2741 100.551L13.9598 104.687L10.3433 102.795L6.54223 104.687L7.23744 100.551L4.13086 97.4441L8.44277 96.9253L10.3433 92.9653ZM44.4865 92.9653L46.3871 96.9253L50.699 97.4441L47.5924 100.551L48.2878 104.687L44.4865 102.795L40.87 104.687L41.5559 100.551L38.4499 97.4441L42.5948 96.9253L44.4865 92.9653Z" fill="#FECB5B"/>
</g>
<path fill-rule="evenodd" clip-rule="evenodd" d="M60.3714 103.496L60.5479 103.144C61.2336 101.771 61.0668 100.213 60.0284 99.1842L59.509 98.6655H59.6856C60.8908 98.4888 61.9291 97.6262 62.4398 96.4211L62.7915 95.3829L61.7532 93.1475L59.8526 96.9405L55.5409 97.6262L58.6466 100.557L57.9607 104.702L60.3714 103.496ZM77.6187 103.496L77.7953 103.144C78.481 101.771 78.3142 100.213 77.2759 99.1842L76.7565 98.6655H76.9331C78.1383 98.4888 79.1764 97.6262 79.6871 96.4211L80.039 95.3829L79.0007 93.1475L77.0999 96.9405L72.7882 97.6262L75.8941 100.557L75.2082 104.702L77.6187 103.496ZM43.1137 103.481L43.2805 103.138C43.9761 101.756 43.8001 100.208 42.7618 99.1691L42.2513 98.6503H42.4181C43.6242 98.4832 44.6625 97.621 45.1819 96.4149L45.5247 95.3768L44.4865 93.1324L42.5948 96.9254L38.2829 97.621L41.3889 100.551L40.6935 104.687L43.1137 103.481ZM8.96221 103.481L9.1292 103.138C9.82459 101.756 9.64811 100.208 8.61855 99.1691L8.09982 98.6503H8.26682C9.48094 98.4832 10.5105 97.621 11.0299 96.4149L11.3727 95.3768L10.3433 92.9656L8.44277 96.9254L4.13086 97.621L7.23744 100.551L6.54205 104.687L8.96221 103.481ZM26.033 103.481L26.2097 103.138C26.8956 101.756 26.7286 100.208 25.6903 99.1691L25.1708 98.6503H25.3473C26.5526 98.4832 27.591 97.621 28.1014 96.4149L28.4532 95.3768L27.415 92.9656L25.5143 96.7586L21.2024 97.4441L24.3084 100.375L23.6225 104.52L26.033 103.481ZM43.1137 103.481L43.2805 103.138C43.9761 101.756 43.8001 100.208 42.7618 99.1691L42.2513 98.6503H42.4181C43.6242 98.4832 44.6625 97.621 45.1819 96.4149L45.5247 95.3768L44.4865 93.1324L42.5948 96.9254L38.2829 97.621L41.3889 100.551L40.6935 104.687L43.1137 103.481Z" fill="#F8B545"/>
</svg>
