<svg width="21" height="24" viewBox="0 0 21 24" fill="none" xmlns="http://www.w3.org/2000/svg">
<path fill-rule="evenodd" clip-rule="evenodd" d="M2.25708 8.86086L8.33301 2.78493V5.718C8.33301 6.03202 8.62162 6.29393 8.96105 6.24181C9.38062 6.16298 10.0087 6.05874 10.638 6.05874C15.4309 6.05874 19.333 9.88176 19.333 14.596C19.333 16.9799 18.3118 19.1794 16.5309 20.7254C16.7928 20.0185 16.9491 19.2582 16.9491 18.4725C16.9491 14.5706 13.7542 11.4278 9.82534 11.4278C9.01448 11.4278 8.33301 11.4278 8.33301 12.0037V14.9368L2.25708 8.86086ZM1.15734 9.227L8.49067 16.5603C8.8301 16.9011 9.38062 16.6659 9.38062 16.1942V12.4754C9.53829 12.4754 9.69439 12.4487 9.82534 12.4487C13.1782 12.4487 15.9015 15.1466 15.9015 18.4471C15.9015 19.8087 15.4309 20.9873 14.4878 22.1138C14.1214 22.532 14.6187 23.1868 15.1158 22.9249C18.4163 21.2492 20.3806 18.1318 20.3806 14.596C20.3806 9.30584 16.0071 5.03653 10.6111 5.03653C10.1931 5.03653 9.74677 5.06324 9.38062 5.11536V1.52753C9.38062 1.05583 8.8301 0.820644 8.49067 1.16138L1.15734 8.49472C0.947554 8.70319 0.947554 9.01853 1.15734 9.227Z" fill="black"/>
<path d="M2.25708 8.86086L1.83281 8.43659L1.40855 8.86086L1.83281 9.28512L2.25708 8.86086ZM8.33301 2.78493H8.93301V1.3364L7.90874 2.36067L8.33301 2.78493ZM8.96105 6.24181L9.05212 6.83486L9.06201 6.83334L9.07185 6.83149L8.96105 6.24181ZM16.5309 20.7254L15.9683 20.5169L16.9242 21.1785L16.5309 20.7254ZM8.33301 14.9368L7.90874 15.3611L8.93301 16.3853V14.9368H8.33301ZM8.49067 16.5603L8.91575 16.1369L8.91494 16.1361L8.49067 16.5603ZM9.38062 12.4754V11.8754H8.78062V12.4754H9.38062ZM14.4878 22.1138L14.9392 22.5092L14.9478 22.4989L14.4878 22.1138ZM15.1158 22.9249L14.8442 22.3898L14.8361 22.3941L15.1158 22.9249ZM9.38062 5.11536H8.78062V5.80681L9.46518 5.70937L9.38062 5.11536ZM8.49067 1.16138L8.91494 1.58565L8.91575 1.58483L8.49067 1.16138ZM1.15734 8.49472L1.58028 8.92031L1.5816 8.91898L1.15734 8.49472ZM2.68134 9.28512L8.75727 3.20919L7.90874 2.36067L1.83281 8.43659L2.68134 9.28512ZM7.73301 2.78493V5.718H8.93301V2.78493H7.73301ZM7.73301 5.718C7.73301 6.40041 8.35 6.94267 9.05212 6.83486L8.86999 5.64876C8.87348 5.64823 8.88101 5.64812 8.88997 5.65077C8.89815 5.65319 8.90491 5.6571 8.91022 5.66166C8.91934 5.66947 8.93301 5.68799 8.93301 5.718H7.73301ZM9.07185 6.83149C9.48359 6.75413 10.0667 6.65874 10.638 6.65874V5.45874C9.95067 5.45874 9.27766 5.57182 8.85026 5.65213L9.07185 6.83149ZM10.638 6.65874C15.1103 6.65874 18.733 10.2238 18.733 14.596H19.933C19.933 9.53971 15.7515 5.45874 10.638 5.45874V6.65874ZM18.733 14.596C18.733 16.804 17.7888 18.8389 16.1376 20.2723L16.9242 21.1785C18.8348 19.5199 19.933 17.1559 19.933 14.596H18.733ZM17.0935 20.9339C17.3769 20.1689 17.5491 19.3381 17.5491 18.4725H16.3491C16.3491 19.1784 16.2087 19.8681 15.9683 20.5169L17.0935 20.9339ZM17.5491 18.4725C17.5491 14.2321 14.0783 10.8278 9.82534 10.8278V12.0278C13.4301 12.0278 16.3491 14.9092 16.3491 18.4725H17.5491ZM9.82534 10.8278C9.45098 10.8278 8.98616 10.8232 8.62144 10.9198C8.42857 10.9709 8.19889 11.0652 8.01613 11.2586C7.81881 11.4673 7.73301 11.7305 7.73301 12.0037H8.93301C8.93301 11.9889 8.93239 12.0362 8.88818 12.0829C8.85853 12.1143 8.84991 12.1007 8.92876 12.0798C9.1075 12.0324 9.38885 12.0278 9.82534 12.0278V10.8278ZM7.73301 12.0037V14.9368H8.93301V12.0037H7.73301ZM8.75727 14.5125L2.68134 8.43659L1.83281 9.28512L7.90874 15.3611L8.75727 14.5125ZM0.733075 9.65127L8.06641 16.9846L8.91494 16.1361L1.5816 8.80274L0.733075 9.65127ZM8.06559 16.9838C8.78817 17.7091 9.98063 17.1932 9.98063 16.1942H8.78062C8.78062 16.1943 8.78068 16.1899 8.78301 16.1823C8.7853 16.1749 8.78906 16.1669 8.79436 16.1591C8.80479 16.1439 8.81824 16.1339 8.83179 16.1282C8.84548 16.1225 8.86315 16.1197 8.88275 16.1233C8.90512 16.1275 8.9164 16.1375 8.91575 16.1369L8.06559 16.9838ZM9.98063 16.1942V12.4754H8.78062V16.1942H9.98063ZM9.38062 13.0754C9.48962 13.0754 9.59295 13.0662 9.66615 13.0597C9.75046 13.0522 9.79234 13.0487 9.82534 13.0487V11.8487C9.72738 11.8487 9.62574 11.8585 9.55985 11.8644C9.48285 11.8713 9.4293 11.8754 9.38062 11.8754V13.0754ZM9.82534 13.0487C12.8536 13.0487 15.3015 15.4846 15.3015 18.4471H16.5015C16.5015 14.8085 13.5029 11.8487 9.82534 11.8487V13.0487ZM15.3015 18.4471C15.3015 19.6494 14.893 20.6951 14.0277 21.7286L14.9478 22.4989C15.9687 21.2796 16.5015 19.968 16.5015 18.4471H15.3015ZM14.0364 21.7184C13.6272 22.1856 13.7243 22.7779 14.0021 23.1398C14.2825 23.5051 14.8366 23.7502 15.3955 23.4557L14.8361 22.3941C14.8389 22.3926 14.8502 22.3876 14.8685 22.3857C14.8864 22.3838 14.9039 22.3857 14.9185 22.3898C14.9325 22.3937 14.9417 22.399 14.9464 22.4023C14.9511 22.4056 14.9531 22.408 14.9539 22.409C14.9547 22.41 14.9559 22.4119 14.9573 22.4156C14.9587 22.4195 14.9609 22.4272 14.9612 22.439C14.9615 22.4512 14.9596 22.466 14.9543 22.4811C14.9487 22.4966 14.9418 22.506 14.9391 22.5091L14.0364 21.7184ZM15.3874 23.4599C18.8786 21.6874 20.9806 18.3696 20.9806 14.596H19.7806C19.7806 17.8939 17.9541 20.811 14.8442 22.3899L15.3874 23.4599ZM20.9806 14.596C20.9806 8.96182 16.3257 4.43653 10.6111 4.43653V5.63653C15.6885 5.63653 19.7806 9.64985 19.7806 14.596H20.9806ZM10.6111 4.43653C10.1714 4.43653 9.6961 4.4644 9.29607 4.52135L9.46518 5.70937C9.79744 5.66207 10.2147 5.63653 10.6111 5.63653V4.43653ZM9.98063 5.11536V1.52753H8.78062V5.11536H9.98063ZM9.98063 1.52753C9.98063 0.528548 8.78817 0.0125703 8.06559 0.737936L8.91575 1.58483C8.9164 1.58418 8.90512 1.59421 8.88275 1.59837C8.86315 1.60202 8.84548 1.5992 8.83179 1.59348C8.81824 1.58783 8.80479 1.57778 8.79436 1.56257C8.78906 1.55484 8.7853 1.5468 8.78301 1.53938C8.78068 1.53184 8.78062 1.52738 8.78062 1.52753H9.98063ZM8.06641 0.737118L0.733075 8.07045L1.5816 8.91898L8.91494 1.58565L8.06641 0.737118ZM0.734406 8.06913C0.288531 8.51222 0.288531 9.2095 0.734406 9.65259L1.58027 8.80141C1.58557 8.80668 1.6 8.82765 1.6 8.86086C1.6 8.89406 1.58557 8.91504 1.58027 8.92031L0.734406 8.06913Z" fill="black"/>
</svg>
