<svg width="30" height="29" viewBox="0 0 30 29" fill="none" xmlns="http://www.w3.org/2000/svg">
<mask id="path-1-outside-1_0_3583" maskUnits="userSpaceOnUse" x="0.000244141" y="-1.00049" width="30" height="30" fill="black">
<rect fill="white" x="0.000244141" y="-1.00049" width="30" height="30"/>
<path fill-rule="evenodd" clip-rule="evenodd" d="M15.0196 25.9685C14.8866 25.9685 14.7616 25.9135 14.6676 25.8215L13.1676 24.3215C13.0746 24.2265 13.0196 24.1015 13.0196 23.9685L13.5196 18.4685C13.5466 18.1925 13.7926 17.9915 14.0706 18.0205C14.3436 18.0465 14.5466 18.2925 14.5196 18.5715L14.0196 23.7785L15.0196 24.7785L16.0196 23.7785L15.5396 18.5205C15.5276 18.3825 15.5746 18.2455 15.6646 18.1455C15.7526 18.0385 15.8816 17.9765 16.0196 17.9685C16.2916 17.9465 16.5396 18.1455 16.5706 18.4175L17.0196 23.9685C17.0356 24.1165 16.9766 24.2655 16.8716 24.3665L15.3716 25.8665C15.2696 25.9485 15.1446 25.9855 15.0196 25.9685ZM15.0196 6.59751C15.1056 6.59751 15.1876 6.62051 15.2566 6.66751L16.8286 7.52851L16.5316 5.65951C16.4986 5.50451 16.5456 5.34051 16.6606 5.23151L18.0196 3.86651L16.2176 3.59751C16.0546 3.57151 15.9146 3.46851 15.8386 3.32151L15.0196 1.64951L14.2386 3.32151C14.1646 3.46851 14.0236 3.57151 13.8596 3.59751L12.0196 3.86651L13.3396 5.23151C13.4536 5.34051 13.4996 5.50451 13.4686 5.65951L13.1676 7.52851L14.7386 6.66751C14.8206 6.61451 14.9216 6.59051 15.0196 6.59751ZM17.4886 8.96851C17.4066 8.96851 17.3246 8.94851 17.2486 8.90951L15.0196 7.66751L12.7896 8.90951C12.6246 9.00851 12.4216 9.00851 12.2576 8.90951C12.1016 8.80151 12.0196 8.61051 12.0506 8.41751L12.4886 5.77051L10.6606 3.86651C10.5316 3.73551 10.4886 3.54251 10.5506 3.36651C10.6056 3.19151 10.7576 3.06251 10.9416 3.02851L13.4416 2.64951L14.5706 0.258512C14.6646 0.0975117 14.8356 -0.000488281 15.0196 -0.000488281C15.2036 -0.000488281 15.3736 0.0975117 15.4676 0.258512L16.5976 2.64951L19.0976 3.02851C19.2816 3.06251 19.4336 3.19151 19.4886 3.36651C19.5496 3.54251 19.5066 3.73551 19.3776 3.86651L17.5496 5.73951L18.0196 8.39051C18.0496 8.57751 17.9676 8.77051 17.8086 8.87951C17.7136 8.94151 17.6016 8.97251 17.4886 8.96851ZM24.5196 10.5975C24.6056 10.5975 24.6876 10.6205 24.7566 10.6675L26.3286 11.5285L26.0196 9.65951C25.9886 9.50451 26.0396 9.34051 26.1486 9.23151L27.4806 7.86651L25.6796 7.59751C25.5156 7.57151 25.3736 7.46851 25.2996 7.32151L24.5196 5.64951L23.7386 7.32151C23.6646 7.46851 23.5236 7.57151 23.3596 7.59751L21.5586 7.86651L22.8776 9.23151C22.9926 9.34051 23.0396 9.50451 23.0066 9.65951L22.7096 11.5285L24.2816 10.6675C24.3516 10.6205 24.4336 10.5975 24.5196 10.5975ZM27.0196 12.9685C26.9376 12.9685 26.8556 12.9485 26.7816 12.9095L24.5196 11.6675L22.2896 12.9095C22.1236 13.0085 21.9216 13.0085 21.7566 12.9095C21.6016 12.8015 21.5196 12.6105 21.5496 12.4175L22.0196 9.73851L20.1606 7.86651C20.0196 7.74151 19.9676 7.54751 20.0196 7.36651C20.0786 7.19151 20.2266 7.06251 20.4106 7.02851L22.9106 6.64951L24.0396 4.25851C24.1316 4.09751 24.3046 3.99951 24.4886 3.99951C24.6746 3.99951 24.8476 4.09751 24.9416 4.25851L26.0706 6.64951L28.5706 7.02851C28.7736 7.03851 28.9536 7.17251 29.0196 7.36651C29.0786 7.54251 29.0396 7.73551 28.9106 7.86651L27.0196 9.73851L27.4596 12.3905C27.4886 12.5775 27.4066 12.7705 27.2486 12.8795C27.1796 12.9265 27.1016 12.9565 27.0196 12.9685ZM5.51956 10.5975C5.60556 10.5975 5.68756 10.6205 5.75756 10.6675L7.32856 11.5285L7.01956 9.65951C6.98856 9.50451 7.03956 9.34051 7.14856 9.23151L8.48056 7.86651L6.67956 7.59751C6.51556 7.57151 6.37456 7.46851 6.30056 7.32151L5.51956 5.64951L4.73856 7.32151C4.66456 7.46851 4.52356 7.57151 4.35956 7.59751L2.55856 7.86651L3.87856 9.23151C3.99256 9.34051 4.03956 9.50451 4.00756 9.65951L3.71056 11.5285L5.28156 10.6675C5.35156 10.6205 5.43356 10.5975 5.51956 10.5975ZM8.01956 12.9685C7.93756 12.9685 7.85556 12.9485 7.78156 12.9095L5.51956 11.6675L3.28956 12.9095C3.12456 13.0085 2.92156 13.0085 2.75756 12.9095C2.60156 12.8015 2.51956 12.6105 2.55056 12.4175L3.01956 9.73851L1.16056 7.86651C1.01956 7.74151 0.968561 7.54751 1.01956 7.36651C1.07856 7.19151 1.22656 7.06251 1.41056 7.02851L3.91056 6.64951L5.07056 4.25851C5.16456 4.09751 5.33556 3.99951 5.51956 3.99951C5.70356 3.99951 5.87456 4.09751 5.96856 4.25851L7.09756 6.64951L9.59756 7.02851C9.79256 7.05151 9.95756 7.18351 10.0196 7.36651C10.0786 7.54251 10.0396 7.73551 9.91056 7.86651L8.01956 9.73851L8.46056 12.3905C8.48856 12.5775 8.40656 12.7705 8.24956 12.8795C8.17956 12.9265 8.10156 12.9565 8.01956 12.9685ZM15.0196 11.7185C14.0546 11.7185 13.2696 12.5045 13.2696 13.4685C13.2696 14.4335 14.0546 15.2185 15.0196 15.2185C15.9846 15.2185 16.7696 14.4335 16.7696 13.4685C16.7656 12.5045 15.9846 11.7225 15.0196 11.7185ZM15.0196 16.2185C13.4996 16.2185 12.2696 14.9895 12.2696 13.4685C12.2696 11.9485 13.4996 10.7185 15.0196 10.7185C16.5396 10.7185 17.7696 11.9485 17.7696 13.4685C17.7696 14.9895 16.5396 16.2185 15.0196 16.2185ZM12.0196 18.9685C10.7616 18.8645 9.65256 19.7845 9.51956 21.0385V26.1795C9.58156 26.6715 10.0276 27.0245 10.5196 26.9685H19.5196C20.0116 27.0245 20.4566 26.6715 20.5196 26.1795V21.0385C20.3866 19.7845 19.2776 18.8645 18.0196 18.9685H12.0196ZM19.5196 27.9685H10.5196C9.47656 28.0205 8.58156 27.2225 8.51956 26.1795V21.0385C8.64856 19.2315 10.2076 17.8605 12.0196 17.9685H18.0196C19.8316 17.8605 21.3906 19.2315 21.5196 21.0385V26.1795C21.4566 27.2225 20.5626 28.0205 19.5196 27.9685Z"/>
</mask>
<path fill-rule="evenodd" clip-rule="evenodd" d="M15.0196 25.9685C14.8866 25.9685 14.7616 25.9135 14.6676 25.8215L13.1676 24.3215C13.0746 24.2265 13.0196 24.1015 13.0196 23.9685L13.5196 18.4685C13.5466 18.1925 13.7926 17.9915 14.0706 18.0205C14.3436 18.0465 14.5466 18.2925 14.5196 18.5715L14.0196 23.7785L15.0196 24.7785L16.0196 23.7785L15.5396 18.5205C15.5276 18.3825 15.5746 18.2455 15.6646 18.1455C15.7526 18.0385 15.8816 17.9765 16.0196 17.9685C16.2916 17.9465 16.5396 18.1455 16.5706 18.4175L17.0196 23.9685C17.0356 24.1165 16.9766 24.2655 16.8716 24.3665L15.3716 25.8665C15.2696 25.9485 15.1446 25.9855 15.0196 25.9685ZM15.0196 6.59751C15.1056 6.59751 15.1876 6.62051 15.2566 6.66751L16.8286 7.52851L16.5316 5.65951C16.4986 5.50451 16.5456 5.34051 16.6606 5.23151L18.0196 3.86651L16.2176 3.59751C16.0546 3.57151 15.9146 3.46851 15.8386 3.32151L15.0196 1.64951L14.2386 3.32151C14.1646 3.46851 14.0236 3.57151 13.8596 3.59751L12.0196 3.86651L13.3396 5.23151C13.4536 5.34051 13.4996 5.50451 13.4686 5.65951L13.1676 7.52851L14.7386 6.66751C14.8206 6.61451 14.9216 6.59051 15.0196 6.59751ZM17.4886 8.96851C17.4066 8.96851 17.3246 8.94851 17.2486 8.90951L15.0196 7.66751L12.7896 8.90951C12.6246 9.00851 12.4216 9.00851 12.2576 8.90951C12.1016 8.80151 12.0196 8.61051 12.0506 8.41751L12.4886 5.77051L10.6606 3.86651C10.5316 3.73551 10.4886 3.54251 10.5506 3.36651C10.6056 3.19151 10.7576 3.06251 10.9416 3.02851L13.4416 2.64951L14.5706 0.258512C14.6646 0.0975117 14.8356 -0.000488281 15.0196 -0.000488281C15.2036 -0.000488281 15.3736 0.0975117 15.4676 0.258512L16.5976 2.64951L19.0976 3.02851C19.2816 3.06251 19.4336 3.19151 19.4886 3.36651C19.5496 3.54251 19.5066 3.73551 19.3776 3.86651L17.5496 5.73951L18.0196 8.39051C18.0496 8.57751 17.9676 8.77051 17.8086 8.87951C17.7136 8.94151 17.6016 8.97251 17.4886 8.96851ZM24.5196 10.5975C24.6056 10.5975 24.6876 10.6205 24.7566 10.6675L26.3286 11.5285L26.0196 9.65951C25.9886 9.50451 26.0396 9.34051 26.1486 9.23151L27.4806 7.86651L25.6796 7.59751C25.5156 7.57151 25.3736 7.46851 25.2996 7.32151L24.5196 5.64951L23.7386 7.32151C23.6646 7.46851 23.5236 7.57151 23.3596 7.59751L21.5586 7.86651L22.8776 9.23151C22.9926 9.34051 23.0396 9.50451 23.0066 9.65951L22.7096 11.5285L24.2816 10.6675C24.3516 10.6205 24.4336 10.5975 24.5196 10.5975ZM27.0196 12.9685C26.9376 12.9685 26.8556 12.9485 26.7816 12.9095L24.5196 11.6675L22.2896 12.9095C22.1236 13.0085 21.9216 13.0085 21.7566 12.9095C21.6016 12.8015 21.5196 12.6105 21.5496 12.4175L22.0196 9.73851L20.1606 7.86651C20.0196 7.74151 19.9676 7.54751 20.0196 7.36651C20.0786 7.19151 20.2266 7.06251 20.4106 7.02851L22.9106 6.64951L24.0396 4.25851C24.1316 4.09751 24.3046 3.99951 24.4886 3.99951C24.6746 3.99951 24.8476 4.09751 24.9416 4.25851L26.0706 6.64951L28.5706 7.02851C28.7736 7.03851 28.9536 7.17251 29.0196 7.36651C29.0786 7.54251 29.0396 7.73551 28.9106 7.86651L27.0196 9.73851L27.4596 12.3905C27.4886 12.5775 27.4066 12.7705 27.2486 12.8795C27.1796 12.9265 27.1016 12.9565 27.0196 12.9685ZM5.51956 10.5975C5.60556 10.5975 5.68756 10.6205 5.75756 10.6675L7.32856 11.5285L7.01956 9.65951C6.98856 9.50451 7.03956 9.34051 7.14856 9.23151L8.48056 7.86651L6.67956 7.59751C6.51556 7.57151 6.37456 7.46851 6.30056 7.32151L5.51956 5.64951L4.73856 7.32151C4.66456 7.46851 4.52356 7.57151 4.35956 7.59751L2.55856 7.86651L3.87856 9.23151C3.99256 9.34051 4.03956 9.50451 4.00756 9.65951L3.71056 11.5285L5.28156 10.6675C5.35156 10.6205 5.43356 10.5975 5.51956 10.5975ZM8.01956 12.9685C7.93756 12.9685 7.85556 12.9485 7.78156 12.9095L5.51956 11.6675L3.28956 12.9095C3.12456 13.0085 2.92156 13.0085 2.75756 12.9095C2.60156 12.8015 2.51956 12.6105 2.55056 12.4175L3.01956 9.73851L1.16056 7.86651C1.01956 7.74151 0.968561 7.54751 1.01956 7.36651C1.07856 7.19151 1.22656 7.06251 1.41056 7.02851L3.91056 6.64951L5.07056 4.25851C5.16456 4.09751 5.33556 3.99951 5.51956 3.99951C5.70356 3.99951 5.87456 4.09751 5.96856 4.25851L7.09756 6.64951L9.59756 7.02851C9.79256 7.05151 9.95756 7.18351 10.0196 7.36651C10.0786 7.54251 10.0396 7.73551 9.91056 7.86651L8.01956 9.73851L8.46056 12.3905C8.48856 12.5775 8.40656 12.7705 8.24956 12.8795C8.17956 12.9265 8.10156 12.9565 8.01956 12.9685ZM15.0196 11.7185C14.0546 11.7185 13.2696 12.5045 13.2696 13.4685C13.2696 14.4335 14.0546 15.2185 15.0196 15.2185C15.9846 15.2185 16.7696 14.4335 16.7696 13.4685C16.7656 12.5045 15.9846 11.7225 15.0196 11.7185ZM15.0196 16.2185C13.4996 16.2185 12.2696 14.9895 12.2696 13.4685C12.2696 11.9485 13.4996 10.7185 15.0196 10.7185C16.5396 10.7185 17.7696 11.9485 17.7696 13.4685C17.7696 14.9895 16.5396 16.2185 15.0196 16.2185ZM12.0196 18.9685C10.7616 18.8645 9.65256 19.7845 9.51956 21.0385V26.1795C9.58156 26.6715 10.0276 27.0245 10.5196 26.9685H19.5196C20.0116 27.0245 20.4566 26.6715 20.5196 26.1795V21.0385C20.3866 19.7845 19.2776 18.8645 18.0196 18.9685H12.0196ZM19.5196 27.9685H10.5196C9.47656 28.0205 8.58156 27.2225 8.51956 26.1795V21.0385C8.64856 19.2315 10.2076 17.8605 12.0196 17.9685H18.0196C19.8316 17.8605 21.3906 19.2315 21.5196 21.0385V26.1795C21.4566 27.2225 20.5626 28.0205 19.5196 27.9685Z" fill="#1D1D1B"/>
<path d="M14.6676 25.8215L14.3847 26.1044L14.3878 26.1074L14.6676 25.8215ZM13.1676 24.3215L12.8817 24.6013L12.8847 24.6044L13.1676 24.3215ZM13.0196 23.9685L12.6212 23.9323L12.6196 23.9504V23.9685H13.0196ZM13.5196 18.4685L13.1215 18.4296L13.1212 18.4323L13.5196 18.4685ZM14.0706 18.0205L14.0291 18.4184L14.0326 18.4187L14.0706 18.0205ZM14.5196 18.5715L14.1214 18.533L14.1214 18.5333L14.5196 18.5715ZM14.0196 23.7785L13.6214 23.7403L13.6034 23.928L13.7367 24.0614L14.0196 23.7785ZM15.0196 24.7785L14.7367 25.0614L15.0196 25.3442L15.3024 25.0614L15.0196 24.7785ZM16.0196 23.7785L16.3024 24.0614L16.4349 23.9288L16.4179 23.7421L16.0196 23.7785ZM15.5396 18.5205L15.1411 18.5552L15.1412 18.5569L15.5396 18.5205ZM15.6646 18.1455L15.9619 18.4131L15.9678 18.4065L15.9735 18.3996L15.6646 18.1455ZM16.0196 17.9685L16.0427 18.3679L16.0518 18.3672L16.0196 17.9685ZM16.5706 18.4175L16.9695 18.3852L16.968 18.3722L16.5706 18.4175ZM17.0196 23.9685L16.6207 24.0008L16.6219 24.0115L17.0196 23.9685ZM16.8716 24.3665L16.5942 24.0782L16.5887 24.0837L16.8716 24.3665ZM15.3716 25.8665L15.6222 26.1783L15.6391 26.1647L15.6544 26.1494L15.3716 25.8665ZM15.2566 6.66751L15.0314 6.9981L15.0474 7.00902L15.0644 7.01834L15.2566 6.66751ZM16.8286 7.52851L16.6364 7.87934L17.3516 8.27104L17.2236 7.46574L16.8286 7.52851ZM16.5316 5.65951L16.9266 5.59674L16.925 5.58643L16.9228 5.57622L16.5316 5.65951ZM16.6606 5.23151L16.9358 5.52195L16.944 5.51373L16.6606 5.23151ZM18.0196 3.86651L18.303 4.14873L18.8615 3.58777L18.0786 3.4709L18.0196 3.86651ZM16.2176 3.59751L16.1546 3.99254L16.1585 3.99313L16.2176 3.59751ZM15.8386 3.32151L15.4793 3.49751L15.4832 3.50522L15.8386 3.32151ZM15.0196 1.64951L15.3788 1.47355L15.011 0.722706L14.6571 1.48023L15.0196 1.64951ZM14.2386 3.32151L14.596 3.50145L14.601 3.4908L14.2386 3.32151ZM13.8596 3.59751L13.9174 3.99333L13.9222 3.99258L13.8596 3.59751ZM12.0196 3.86651L11.9617 3.47072L11.1895 3.5836L11.732 4.14458L12.0196 3.86651ZM13.3396 5.23151L13.052 5.50957L13.0575 5.51521L13.0631 5.52062L13.3396 5.23151ZM13.4686 5.65951L13.0763 5.58107L13.0748 5.58846L13.0736 5.59591L13.4686 5.65951ZM13.1676 7.52851L12.7726 7.46491L12.6426 8.27235L13.3598 7.87929L13.1676 7.52851ZM14.7386 6.66751L14.9308 7.01829L14.9435 7.01132L14.9557 7.00345L14.7386 6.66751ZM17.2486 8.90951L17.0538 9.25914L17.0659 9.26539L17.2486 8.90951ZM15.0196 7.66751L15.2143 7.31809L15.0196 7.20963L14.8249 7.31806L15.0196 7.66751ZM12.7896 8.90951L12.5948 8.55987L12.5838 8.56651L12.7896 8.90951ZM12.2576 8.90951L12.0299 9.23839L12.0401 9.2455L12.0508 9.25196L12.2576 8.90951ZM12.0506 8.41751L11.6559 8.35221L11.6556 8.35408L12.0506 8.41751ZM12.4886 5.77051L12.8832 5.83581L12.9159 5.63807L12.7771 5.49349L12.4886 5.77051ZM10.6606 3.86651L10.9491 3.58946L10.9456 3.58585L10.6606 3.86651ZM10.5506 3.36651L10.9281 3.49949L10.9322 3.48644L10.5506 3.36651ZM10.9416 3.02851L10.8816 2.63282L10.8689 2.63517L10.9416 3.02851ZM13.4416 2.64951L13.5015 3.04499L13.7123 3.01304L13.8033 2.8203L13.4416 2.64951ZM14.5706 0.258512L14.2251 0.0568299L14.2163 0.0719193L14.2089 0.0877195L14.5706 0.258512ZM15.4676 0.258512L15.8292 0.0875958L15.8218 0.0718602L15.813 0.0568299L15.4676 0.258512ZM16.5976 2.64951L16.2359 2.82043L16.327 3.01306L16.5376 3.04499L16.5976 2.64951ZM19.0976 3.02851L19.1703 2.63497L19.1575 2.63303L19.0976 3.02851ZM19.4886 3.36651L19.1068 3.48649L19.1106 3.4975L19.4886 3.36651ZM19.3776 3.86651L19.0925 3.58585L19.0913 3.58713L19.3776 3.86651ZM17.5496 5.73951L17.2633 5.46013L17.1199 5.60711L17.1557 5.80934L17.5496 5.73951ZM18.0196 8.39051L18.4146 8.32714L18.4134 8.32068L18.0196 8.39051ZM17.8086 8.87951L18.0272 9.21457L18.0347 9.20943L17.8086 8.87951ZM24.7566 10.6675L24.5314 10.9981L24.5474 11.009L24.5644 11.0183L24.7566 10.6675ZM26.3286 11.5285L26.1364 11.8793L26.8573 12.2742L26.7232 11.4633L26.3286 11.5285ZM26.0196 9.65951L26.4144 9.59423L26.4118 9.58107L26.0196 9.65951ZM26.1486 9.23151L26.4314 9.51438L26.4348 9.51087L26.1486 9.23151ZM27.4806 7.86651L27.7668 8.14587L28.3128 7.58638L27.5396 7.4709L27.4806 7.86651ZM25.6796 7.59751L25.6169 7.99259L25.6205 7.99312L25.6796 7.59751ZM25.2996 7.32151L24.9369 7.49069L24.9423 7.50137L25.2996 7.32151ZM24.5196 5.64951L24.8821 5.48041L24.5198 4.70386L24.1571 5.48023L24.5196 5.64951ZM23.7386 7.32151L24.096 7.50145L24.101 7.4908L23.7386 7.32151ZM23.3596 7.59751L23.4187 7.99314L23.4222 7.99258L23.3596 7.59751ZM21.5586 7.86651L21.4995 7.4709L20.731 7.58569L21.2709 8.14447L21.5586 7.86651ZM22.8776 9.23151L22.5899 9.50947L22.596 9.51578L22.6024 9.52183L22.8776 9.23151ZM23.0066 9.65951L22.6153 9.57622L22.6132 9.58643L22.6115 9.59674L23.0066 9.65951ZM22.7096 11.5285L22.3145 11.4657L22.1865 12.271L22.9017 11.8793L22.7096 11.5285ZM24.2816 10.6675L24.4737 11.0183L24.4895 11.0097L24.5045 10.9996L24.2816 10.6675ZM26.7816 12.9095L26.589 13.2602L26.5951 13.2634L26.7816 12.9095ZM24.5196 11.6675L24.7121 11.3169L24.5182 11.2104L24.3249 11.3181L24.5196 11.6675ZM22.2896 12.9095L22.0948 12.5599L22.0847 12.566L22.2896 12.9095ZM21.7566 12.9095L21.5279 13.2377L21.5391 13.2455L21.5508 13.2525L21.7566 12.9095ZM21.5496 12.4175L21.1555 12.3484L21.1543 12.3561L21.5496 12.4175ZM22.0196 9.73851L22.4135 9.80763L22.4493 9.60362L22.3034 9.45666L22.0196 9.73851ZM20.1606 7.86651L20.4444 7.58466L20.4354 7.57563L20.4259 7.5672L20.1606 7.86651ZM20.0196 7.36651L19.6405 7.23872L19.6376 7.24733L19.6351 7.25606L20.0196 7.36651ZM20.4106 7.02851L20.3506 6.63282L20.3379 6.63517L20.4106 7.02851ZM22.9106 6.64951L22.9705 7.04499L23.1813 7.01304L23.2723 6.8203L22.9106 6.64951ZM24.0396 4.25851L23.6923 4.06006L23.6845 4.07361L23.6779 4.08772L24.0396 4.25851ZM24.9416 4.25851L25.3033 4.08772L25.2958 4.07192L25.287 4.05683L24.9416 4.25851ZM26.0706 6.64951L25.7089 6.8203L25.7999 7.01304L26.0106 7.04499L26.0706 6.64951ZM28.5706 7.02851L28.5106 7.42399L28.5306 7.42703L28.5509 7.42803L28.5706 7.02851ZM29.0196 7.36651L29.3988 7.23937L29.3982 7.23768L29.0196 7.36651ZM28.9106 7.86651L29.192 8.1508L29.1956 8.14717L28.9106 7.86651ZM27.0196 9.73851L26.7382 9.45424L26.5911 9.59983L26.625 9.80398L27.0196 9.73851ZM27.4596 12.3905L27.8549 12.3292L27.8542 12.325L27.4596 12.3905ZM27.2486 12.8795L27.4738 13.2101L27.4757 13.2088L27.2486 12.8795ZM5.75756 10.6675L5.53459 10.9996L5.54953 11.0096L5.56532 11.0183L5.75756 10.6675ZM7.32856 11.5285L7.13632 11.8793L7.85731 12.2744L7.7232 11.4633L7.32856 11.5285ZM7.01956 9.65951L7.41443 9.59423L7.41179 9.58107L7.01956 9.65951ZM7.14856 9.23151L7.43143 9.51438L7.43484 9.51087L7.14856 9.23151ZM8.48056 7.86651L8.76684 8.14587L9.31281 7.58638L8.53965 7.4709L8.48056 7.86651ZM6.67956 7.59751L6.61693 7.99259L6.62047 7.99312L6.67956 7.59751ZM6.30056 7.32151L5.93799 7.49087L5.94328 7.50137L6.30056 7.32151ZM5.51956 5.64951L5.88197 5.48023L5.51956 4.70436L5.15715 5.48023L5.51956 5.64951ZM4.73856 7.32151L5.096 7.50145L5.10097 7.4908L4.73856 7.32151ZM4.35956 7.59751L4.41865 7.99314L4.42219 7.99258L4.35956 7.59751ZM2.55856 7.86651L2.49947 7.4709L1.73061 7.58574L2.27102 8.14458L2.55856 7.86651ZM3.87856 9.23151L3.59102 9.50957L3.59647 9.51521L3.60213 9.52062L3.87856 9.23151ZM4.00756 9.65951L3.61582 9.57864L3.61396 9.58765L3.61252 9.59674L4.00756 9.65951ZM3.71056 11.5285L3.31552 11.4657L3.1875 12.2713L3.90281 11.8793L3.71056 11.5285ZM5.28156 10.6675L5.47381 11.0183L5.48959 11.0096L5.50453 10.9996L5.28156 10.6675ZM7.78156 12.9095L7.58902 13.2602L7.59507 13.2634L7.78156 12.9095ZM5.51956 11.6675L5.71208 11.3169L5.51818 11.2104L5.32493 11.3181L5.51956 11.6675ZM3.28956 12.9095L3.09483 12.5599L3.08376 12.5665L3.28956 12.9095ZM2.75756 12.9095L2.52988 13.2384L2.54015 13.2455L2.55084 13.252L2.75756 12.9095ZM2.55056 12.4175L2.15651 12.3485L2.15562 12.3541L2.55056 12.4175ZM3.01956 9.73851L3.41357 9.80749L3.44927 9.60356L3.30339 9.45666L3.01956 9.73851ZM1.16056 7.86651L1.44439 7.58466L1.43543 7.57563L1.42591 7.5672L1.16056 7.86651ZM1.01956 7.36651L0.640523 7.23872L0.637294 7.2483L0.634553 7.25803L1.01956 7.36651ZM1.41056 7.02851L1.35057 6.63282L1.33788 6.63517L1.41056 7.02851ZM3.91056 6.64951L3.97052 7.04499L4.17858 7.01345L4.27044 6.82411L3.91056 6.64951ZM5.07056 4.25851L4.72513 4.05683L4.71738 4.07009L4.71068 4.08391L5.07056 4.25851ZM5.96856 4.25851L6.33027 4.08772L6.3228 4.07192L6.31399 4.05683L5.96856 4.25851ZM7.09756 6.64951L6.73586 6.8203L6.82687 7.01304L7.03761 7.04499L7.09756 6.64951ZM9.59756 7.02851L9.53757 7.42421L9.55071 7.42576L9.59756 7.02851ZM10.0196 7.36651L10.3988 7.23937L10.3984 7.23816L10.0196 7.36651ZM9.91056 7.86651L10.192 8.1508L10.1956 8.14717L9.91056 7.86651ZM8.01956 9.73851L7.73815 9.45424L7.59102 9.5999L7.62498 9.80413L8.01956 9.73851ZM8.46056 12.3905L8.8562 12.3313L8.85514 12.3249L8.46056 12.3905ZM8.24956 12.8795L8.47256 13.2116L8.47768 13.2081L8.24956 12.8795ZM16.7696 13.4685H17.1696L17.1696 13.4669L16.7696 13.4685ZM12.0196 18.9685L11.9866 19.3672L12.0031 19.3685H12.0196V18.9685ZM9.51956 21.0385L9.12179 20.9963L9.11956 21.0174V21.0385H9.51956ZM9.51956 26.1795H9.11956V26.2046L9.1227 26.2295L9.51956 26.1795ZM10.5196 26.9685V26.5685H10.4969L10.4743 26.5711L10.5196 26.9685ZM19.5196 26.9685L19.5648 26.5711L19.5423 26.5685H19.5196V26.9685ZM20.5196 26.1795L20.9163 26.2303L20.9196 26.205V26.1795H20.5196ZM20.5196 21.0385H20.9196V21.0174L20.9173 20.9963L20.5196 21.0385ZM18.0196 18.9685V19.3685H18.0361L18.0525 19.3672L18.0196 18.9685ZM10.5196 27.9685V27.5685H10.5096L10.4996 27.569L10.5196 27.9685ZM8.51956 26.1795H8.11956V26.1914L8.12027 26.2032L8.51956 26.1795ZM8.51956 21.0385L8.12058 21.01L8.11956 21.0243V21.0385H8.51956ZM12.0196 17.9685L11.9958 18.3678L12.0077 18.3685H12.0196V17.9685ZM18.0196 17.9685V18.3685H18.0315L18.0434 18.3678L18.0196 17.9685ZM21.5196 21.0385H21.9196V21.0243L21.9185 21.01L21.5196 21.0385ZM21.5196 26.1795L21.9188 26.2036L21.9196 26.1916V26.1795H21.5196ZM15.0196 25.5685C14.9987 25.5685 14.9721 25.5599 14.9473 25.5356L14.3878 26.1074C14.551 26.2671 14.7745 26.3685 15.0196 26.3685V25.5685ZM14.9504 25.5387L13.4504 24.0387L12.8847 24.6044L14.3847 26.1044L14.9504 25.5387ZM13.4534 24.0417C13.4277 24.0155 13.4196 23.9888 13.4196 23.9685H12.6196C12.6196 24.2142 12.7214 24.4375 12.8817 24.6013L13.4534 24.0417ZM13.4179 24.0047L13.9179 18.5047L13.1212 18.4323L12.6212 23.9323L13.4179 24.0047ZM13.9177 18.5075C13.923 18.4533 13.9708 18.4123 14.0291 18.4184L14.1121 17.6227C13.6143 17.5707 13.1702 17.9317 13.1215 18.4296L13.9177 18.5075ZM14.0326 18.4187C14.0825 18.4235 14.1274 18.4711 14.1214 18.533L14.9177 18.61C14.9657 18.1139 14.6047 17.6696 14.1085 17.6223L14.0326 18.4187ZM14.1214 18.5333L13.6214 23.7403L14.4177 23.8167L14.9177 18.6097L14.1214 18.5333ZM13.7367 24.0614L14.7367 25.0614L15.3024 24.4957L14.3024 23.4957L13.7367 24.0614ZM15.3024 25.0614L16.3024 24.0614L15.7367 23.4957L14.7367 24.4957L15.3024 25.0614ZM16.4179 23.7421L15.9379 18.4841L15.1412 18.5569L15.6212 23.8149L16.4179 23.7421ZM15.9381 18.4859C15.9357 18.4589 15.9456 18.4312 15.9619 18.4131L15.3672 17.8779C15.2035 18.0598 15.1194 18.3061 15.1411 18.5552L15.9381 18.4859ZM15.9735 18.3996C15.9864 18.3839 16.0093 18.3698 16.0427 18.3678L15.9964 17.5692C15.7539 17.5832 15.5187 17.6932 15.3556 17.8914L15.9735 18.3996ZM16.0518 18.3672C16.1138 18.3622 16.1671 18.4103 16.1731 18.4628L16.968 18.3722C16.912 17.8807 16.4693 17.5308 15.9873 17.5698L16.0518 18.3672ZM16.1719 18.4498L16.6209 24.0008L17.4183 23.9363L16.9693 18.3853L16.1719 18.4498ZM16.6219 24.0115C16.6237 24.0287 16.6158 24.0576 16.5943 24.0782L17.1489 24.6548C17.3374 24.4735 17.4474 24.2043 17.4172 23.9255L16.6219 24.0115ZM16.5887 24.0837L15.0887 25.5837L15.6544 26.1494L17.1544 24.6494L16.5887 24.0837ZM15.1209 25.5548C15.0988 25.5726 15.0825 25.5734 15.0735 25.5722L14.9657 26.3649C15.2066 26.3976 15.4404 26.3244 15.6222 26.1783L15.1209 25.5548ZM15.0196 6.99751C15.0269 6.99751 15.0311 6.99849 15.0325 6.9989C15.0337 6.99926 15.033 6.9992 15.0314 6.9981L15.4817 6.33692C15.3395 6.24001 15.1771 6.19751 15.0196 6.19751V6.99751ZM15.0644 7.01834L16.6364 7.87934L17.0207 7.17769L15.4487 6.31669L15.0644 7.01834ZM17.2236 7.46574L16.9266 5.59674L16.1365 5.72229L16.4335 7.59129L17.2236 7.46574ZM16.9228 5.57622C16.9172 5.55008 16.9272 5.52991 16.9357 5.52183L16.3854 4.9412C16.1639 5.15111 16.0799 5.45895 16.1403 5.74281L16.9228 5.57622ZM16.944 5.51373L18.303 4.14873L17.7361 3.58429L16.3771 4.94929L16.944 5.51373ZM18.0786 3.4709L16.2766 3.2019L16.1585 3.99313L17.9605 4.26213L18.0786 3.4709ZM16.2806 3.20251C16.2459 3.19697 16.2129 3.17453 16.1939 3.13781L15.4832 3.50522C15.6163 3.7625 15.8632 3.94605 16.1546 3.99252L16.2806 3.20251ZM16.1978 3.14555L15.3788 1.47355L14.6603 1.82547L15.4793 3.49747L16.1978 3.14555ZM14.6571 1.48023L13.8761 3.15223L14.601 3.4908L15.382 1.8188L14.6571 1.48023ZM13.8813 3.14165C13.8654 3.17315 13.8344 3.1965 13.7969 3.20245L13.9222 3.99258C14.2127 3.94652 14.4637 3.76387 14.5958 3.50137L13.8813 3.14165ZM13.8017 3.20172L11.9617 3.47072L12.0774 4.2623L13.9174 3.9933L13.8017 3.20172ZM11.732 4.14458L13.052 5.50957L13.6271 4.95345L12.3071 3.58845L11.732 4.14458ZM13.0631 5.52062C13.0667 5.52406 13.0716 5.53052 13.0748 5.54165C13.0782 5.55313 13.0791 5.56703 13.0763 5.58107L13.8608 5.73796C13.9165 5.45948 13.8367 5.15338 13.616 4.9424L13.0631 5.52062ZM13.0736 5.59591L12.7726 7.46491L13.5625 7.59211L13.8635 5.72311L13.0736 5.59591ZM13.3598 7.87929L14.9308 7.01829L14.5463 6.31674L12.9753 7.17774L13.3598 7.87929ZM14.9557 7.00345C14.9602 7.00055 14.9739 6.99527 14.9911 6.9965L15.0481 6.19853C14.8692 6.18575 14.6809 6.22848 14.5214 6.33157L14.9557 7.00345ZM17.4886 8.56851C17.472 8.56851 17.4524 8.56453 17.4312 8.55363L17.0659 9.26539C17.1967 9.3325 17.3411 9.36851 17.4886 9.36851V8.56851ZM17.4433 8.56009L15.2143 7.31809L14.8249 8.01693L17.0539 9.25893L17.4433 8.56009ZM14.8249 7.31806L12.5949 8.56006L12.9842 9.25897L15.2142 8.01697L14.8249 7.31806ZM12.5838 8.56651C12.545 8.58974 12.5008 8.58909 12.4643 8.56707L12.0508 9.25196C12.3424 9.42793 12.7041 9.42728 12.9954 9.25251L12.5838 8.56651ZM12.4852 8.58064C12.4573 8.56127 12.4387 8.52357 12.4455 8.48095L11.6556 8.35408C11.6005 8.69745 11.7458 9.04175 12.0299 9.23839L12.4852 8.58064ZM12.4452 8.48281L12.8832 5.83581L12.0939 5.70521L11.6559 8.35221L12.4452 8.48281ZM12.7771 5.49349L10.9491 3.58949L10.372 4.14354L12.2 6.04754L12.7771 5.49349ZM10.9456 3.58585C10.9248 3.56475 10.9162 3.53257 10.9278 3.49942L10.1733 3.23361C10.061 3.55245 10.1383 3.90628 10.3756 4.14717L10.9456 3.58585ZM10.9322 3.48644C10.9401 3.46108 10.9671 3.43057 11.0142 3.42185L10.8689 2.63517C10.548 2.69446 10.271 2.92194 10.169 3.24658L10.9322 3.48644ZM11.0015 3.42399L13.5015 3.04499L13.3816 2.25403L10.8816 2.63303L11.0015 3.42399ZM13.8033 2.8203L14.9323 0.429304L14.2089 0.0877195L13.0799 2.47872L13.8033 2.8203ZM14.916 0.460194C14.9387 0.421329 14.9786 0.399512 15.0196 0.399512V-0.400488C14.6926 -0.400488 14.3904 -0.226305 14.2251 0.0568299L14.916 0.460194ZM15.0196 0.399512C15.0597 0.399512 15.099 0.420584 15.1221 0.460194L15.813 0.0568299C15.6481 -0.22556 15.3474 -0.400488 15.0196 -0.400488V0.399512ZM15.1059 0.429428L16.2359 2.82043L16.9592 2.4786L15.8292 0.0875958L15.1059 0.429428ZM16.5376 3.04499L19.0376 3.42399L19.1575 2.63303L16.6575 2.25403L16.5376 3.04499ZM19.0249 3.42185C19.072 3.43057 19.099 3.46108 19.107 3.48644L19.8702 3.24658C19.7681 2.92194 19.4911 2.69446 19.1702 2.63517L19.0249 3.42185ZM19.1106 3.4975C19.1225 3.53178 19.1133 3.56474 19.0926 3.58585L19.6626 4.14717C19.8998 3.90628 19.9766 3.55324 19.8665 3.23552L19.1106 3.4975ZM19.0913 3.58713L17.2633 5.46013L17.8358 6.01889L19.6638 4.1459L19.0913 3.58713ZM17.1557 5.80934L17.6257 8.46034L18.4134 8.32068L17.9434 5.66968L17.1557 5.80934ZM17.6246 8.45387C17.6301 8.48793 17.614 8.5279 17.5824 8.54959L18.0347 9.20943C18.3211 9.01313 18.469 8.66709 18.4145 8.32715L17.6246 8.45387ZM17.5899 8.54454C17.5642 8.56132 17.5336 8.56985 17.5027 8.56876L17.4744 9.36826C17.6696 9.37517 17.8629 9.3217 18.0272 9.21449L17.5899 8.54454ZM24.5196 10.9975C24.5269 10.9975 24.5311 10.9985 24.5325 10.9989C24.5337 10.9993 24.533 10.9992 24.5314 10.9981L24.9817 10.3369C24.8395 10.24 24.6771 10.1975 24.5196 10.1975V10.9975ZM24.5644 11.0183L26.1364 11.8793L26.5207 11.1777L24.9487 10.3167L24.5644 11.0183ZM26.7232 11.4633L26.4142 9.59427L25.6249 9.72476L25.9339 11.5938L26.7232 11.4633ZM26.4118 9.58107C26.4072 9.5579 26.4165 9.52929 26.4314 9.51435L25.8657 8.94867C25.6627 9.15174 25.57 9.45112 25.6273 9.73796L26.4118 9.58107ZM26.4348 9.51087L27.7668 8.14587L27.1943 7.58715L25.8623 8.95215L26.4348 9.51087ZM27.5396 7.4709L25.7386 7.2019L25.6205 7.99312L27.4215 8.26212L27.5396 7.4709ZM25.7422 7.20245C25.7036 7.19633 25.6722 7.17218 25.6568 7.14165L24.9423 7.50137C25.0749 7.76484 25.3275 7.94669 25.6169 7.99258L25.7422 7.20245ZM25.6621 7.15241L24.8821 5.48041L24.1571 5.81862L24.9371 7.49062L25.6621 7.15241ZM24.1571 5.48023L23.3761 7.15223L24.101 7.4908L24.882 5.8188L24.1571 5.48023ZM23.3813 7.14165C23.3654 7.17315 23.3344 7.1965 23.2969 7.20245L23.4222 7.99258C23.7127 7.94652 23.9637 7.76387 24.0958 7.50137L23.3813 7.14165ZM23.3005 7.2019L21.4995 7.4709L21.6177 8.26212L23.4186 7.99312L23.3005 7.2019ZM21.2709 8.14447L22.5899 9.50947L23.1652 8.95356L21.8462 7.58856L21.2709 8.14447ZM22.6024 9.52183C22.6109 9.52991 22.6209 9.55008 22.6153 9.57622L23.3978 9.74281C23.4582 9.45895 23.3742 9.15111 23.1527 8.9412L22.6024 9.52183ZM22.6115 9.59674L22.3145 11.4657L23.1046 11.5913L23.4016 9.72229L22.6115 9.59674ZM22.9017 11.8793L24.4737 11.0183L24.0894 10.3167L22.5174 11.1777L22.9017 11.8793ZM24.5045 10.9996C24.5045 10.9996 24.5045 10.9996 24.5045 10.9996C24.5046 10.9996 24.5046 10.9996 24.5047 10.9995C24.5048 10.9995 24.5053 10.9993 24.5062 10.999C24.508 10.9985 24.5123 10.9975 24.5196 10.9975V10.1975C24.3614 10.1975 24.2003 10.2403 24.0586 10.3354L24.5045 10.9996ZM27.0196 12.5685C27.0023 12.5685 26.9843 12.5642 26.9681 12.5556L26.5951 13.2634C26.7268 13.3328 26.8728 13.3685 27.0196 13.3685V12.5685ZM26.9741 12.5589L24.7121 11.3169L24.327 12.0181L26.589 13.2601L26.9741 12.5589ZM24.3249 11.3181L22.0949 12.5601L22.4842 13.259L24.7142 12.017L24.3249 11.3181ZM22.0847 12.566C22.0445 12.5899 22.0003 12.5893 21.9624 12.5665L21.5508 13.2525C21.8428 13.4277 22.2026 13.4271 22.4944 13.2531L22.0847 12.566ZM21.9852 12.5813C21.9576 12.562 21.9379 12.5232 21.9448 12.479L21.1543 12.3561C21.1012 12.6978 21.2456 13.041 21.5279 13.2377L21.9852 12.5813ZM21.9435 12.4866L22.4135 9.80763L21.6256 9.66939L21.1556 12.3484L21.9435 12.4866ZM22.3034 9.45666L20.4444 7.58466L19.8767 8.14837L21.7357 10.0204L22.3034 9.45666ZM20.4259 7.5672C20.4057 7.54925 20.3925 7.51694 20.404 7.47696L19.6351 7.25606C19.5426 7.57809 19.6335 7.93377 19.8952 8.16583L20.4259 7.5672ZM20.3986 7.4943C20.4112 7.45698 20.4418 7.4295 20.4832 7.42185L20.3379 6.63517C20.0113 6.69552 19.7459 6.92605 19.6405 7.23872L20.3986 7.4943ZM20.4705 7.42399L22.9705 7.04499L22.8506 6.25403L20.3506 6.63303L20.4705 7.42399ZM23.2723 6.8203L24.4013 4.4293L23.6779 4.08772L22.5489 6.47872L23.2723 6.8203ZM24.3869 4.45697C24.4062 4.42314 24.4451 4.39951 24.4886 4.39951V3.59951C24.164 3.59951 23.8569 3.77188 23.6923 4.06006L24.3869 4.45697ZM24.4886 4.39951C24.5341 4.39951 24.5747 4.42353 24.5961 4.46019L25.287 4.05683C25.1204 3.77149 24.815 3.59951 24.4886 3.59951V4.39951ZM24.5799 4.4293L25.7089 6.8203L26.4323 6.47872L25.3033 4.08772L24.5799 4.4293ZM26.0106 7.04499L28.5106 7.42399L28.6305 6.63303L26.1305 6.25403L26.0106 7.04499ZM28.5509 7.42803C28.5915 7.43003 28.6282 7.45805 28.6409 7.49534L29.3982 7.23768C29.2789 6.88697 28.9556 6.647 28.5902 6.629L28.5509 7.42803ZM28.6403 7.49365C28.6548 7.53687 28.6416 7.56955 28.6256 7.58585L29.1956 8.14717C29.4375 7.90148 29.5023 7.54815 29.3988 7.23937L28.6403 7.49365ZM28.6292 7.58224L26.7382 9.45424L27.301 10.0228L29.192 8.15078L28.6292 7.58224ZM26.625 9.80398L27.065 12.456L27.8542 12.325L27.4142 9.67304L26.625 9.80398ZM27.0643 12.4518C27.0698 12.4876 27.0527 12.5287 27.0214 12.5503L27.4757 13.2088C27.7604 13.0123 27.9073 12.6674 27.8548 12.3292L27.0643 12.4518ZM27.0234 12.5489C27.0053 12.5612 26.9847 12.5694 26.9616 12.5727L27.0775 13.3643C27.2185 13.3437 27.3538 13.2918 27.4737 13.2101L27.0234 12.5489ZM5.51956 10.9975C5.52687 10.9975 5.53115 10.9985 5.53293 10.999C5.53385 10.9993 5.53432 10.9995 5.53446 10.9995C5.53454 10.9996 5.53457 10.9996 5.53457 10.9996C5.53458 10.9996 5.53458 10.9996 5.53459 10.9996L5.98053 10.3354C5.83879 10.2403 5.67769 10.1975 5.51956 10.1975V10.9975ZM5.56532 11.0183L7.13632 11.8793L7.52081 11.1777L5.94981 10.3167L5.56532 11.0183ZM7.7232 11.4633L7.4142 9.59427L6.62492 9.72476L6.93392 11.5938L7.7232 11.4633ZM7.41179 9.58107C7.40716 9.5579 7.41647 9.52929 7.4314 9.51435L6.86572 8.94867C6.66265 9.15174 6.56996 9.45112 6.62733 9.73796L7.41179 9.58107ZM7.43484 9.51087L8.76684 8.14587L8.19428 7.58715L6.86228 8.95215L7.43484 9.51087ZM8.53965 7.4709L6.73865 7.2019L6.62047 7.99312L8.42147 8.26212L8.53965 7.4709ZM6.74219 7.20245C6.70472 7.1965 6.6737 7.17315 6.65784 7.14165L5.94328 7.50137C6.07542 7.76387 6.3264 7.94652 6.61693 7.99258L6.74219 7.20245ZM6.66297 7.15223L5.88197 5.48023L5.15715 5.8188L5.93815 7.4908L6.66297 7.15223ZM5.15715 5.48023L4.37615 7.15223L5.10097 7.4908L5.88197 5.8188L5.15715 5.48023ZM4.38128 7.14165C4.36542 7.17315 4.3344 7.1965 4.29693 7.20245L4.42219 7.99258C4.71272 7.94652 4.9637 7.76387 5.09584 7.50137L4.38128 7.14165ZM4.30047 7.2019L2.49947 7.4709L2.61765 8.26212L4.41865 7.99312L4.30047 7.2019ZM2.27102 8.14458L3.59102 9.50957L4.1661 8.95345L2.8461 7.58845L2.27102 8.14458ZM3.60213 9.52062C3.60625 9.52456 3.61117 9.53141 3.6144 9.54225C3.61769 9.55334 3.6184 9.56615 3.61582 9.57864L4.3993 9.74039C4.45752 9.45837 4.37431 9.1521 4.15499 8.9424L3.60213 9.52062ZM3.61252 9.59674L3.31552 11.4657L4.1056 11.5913L4.4026 9.72229L3.61252 9.59674ZM3.90281 11.8793L5.47381 11.0183L5.08932 10.3167L3.51832 11.1777L3.90281 11.8793ZM5.50453 10.9996C5.50454 10.9996 5.50454 10.9996 5.50455 10.9996C5.50455 10.9996 5.50459 10.9996 5.50467 10.9995C5.5048 10.9995 5.50528 10.9993 5.50619 10.999C5.50797 10.9985 5.51225 10.9975 5.51956 10.9975V10.1975C5.36143 10.1975 5.20033 10.2403 5.05859 10.3354L5.50453 10.9996ZM8.01956 12.5685C8.00229 12.5685 7.98433 12.5642 7.96806 12.5556L7.59507 13.2634C7.72679 13.3328 7.87284 13.3685 8.01956 13.3685V12.5685ZM7.97408 12.5589L5.71208 11.3169L5.32704 12.0181L7.58904 13.2601L7.97408 12.5589ZM5.32493 11.3181L3.09493 12.5601L3.48419 13.259L5.71419 12.017L5.32493 11.3181ZM3.08376 12.5665C3.04505 12.5897 3.00077 12.5891 2.96428 12.5671L2.55084 13.252C2.84236 13.4279 3.20407 13.4273 3.49536 13.2525L3.08376 12.5665ZM2.98524 12.5806C2.95727 12.5613 2.93865 12.5236 2.9455 12.4809L2.15562 12.3541C2.10047 12.6975 2.24585 13.0418 2.52988 13.2384L2.98524 12.5806ZM2.94457 12.4865L3.41357 9.80749L2.62555 9.66953L2.15655 12.3485L2.94457 12.4865ZM3.30339 9.45666L1.44439 7.58466L0.876734 8.14837L2.73573 10.0204L3.30339 9.45666ZM1.42591 7.5672C1.4069 7.55034 1.39249 7.51788 1.40457 7.47499L0.634553 7.25803C0.544635 7.57715 0.632224 7.93268 0.895211 8.16583L1.42591 7.5672ZM1.3986 7.4943C1.41118 7.45698 1.44184 7.4295 1.48324 7.42185L1.33788 6.63517C1.01128 6.69552 0.745939 6.92605 0.640523 7.23872L1.3986 7.4943ZM1.47052 7.42399L3.97052 7.04499L3.85061 6.25403L1.35061 6.63303L1.47052 7.42399ZM4.27044 6.82411L5.43044 4.43311L4.71068 4.08391L3.55068 6.47491L4.27044 6.82411ZM5.41599 4.46019C5.43869 4.42133 5.47855 4.39951 5.51956 4.39951V3.59951C5.19257 3.59951 4.89044 3.77369 4.72513 4.05683L5.41599 4.46019ZM5.51956 4.39951C5.56057 4.39951 5.60044 4.42133 5.62313 4.46019L6.31399 4.05683C6.14869 3.77369 5.84655 3.59951 5.51956 3.59951V4.39951ZM5.60686 4.4293L6.73586 6.8203L7.45927 6.47872L6.33027 4.08772L5.60686 4.4293ZM7.03761 7.04499L9.53761 7.42399L9.65752 6.63303L7.15752 6.25403L7.03761 7.04499ZM9.55071 7.42576C9.59597 7.4311 9.62937 7.46138 9.64071 7.49486L10.3984 7.23816C10.2858 6.90565 9.98915 6.67193 9.64442 6.63127L9.55071 7.42576ZM9.6403 7.49365C9.65479 7.53687 9.64161 7.56955 9.62555 7.58585L10.1956 8.14717C10.4375 7.90148 10.5023 7.54815 10.3988 7.23937L9.6403 7.49365ZM9.62915 7.58224L7.73815 9.45424L8.30097 10.0228L10.192 8.15078L9.62915 7.58224ZM7.62498 9.80413L8.06598 12.4561L8.85514 12.3249L8.41414 9.6729L7.62498 9.80413ZM8.06497 12.4497C8.07059 12.4873 8.05238 12.5295 8.02144 12.5509L8.47768 13.2081C8.76074 13.0116 8.90653 12.6677 8.85615 12.3313L8.06497 12.4497ZM8.02659 12.5474C8.00598 12.5613 7.98435 12.5694 7.96164 12.5727L8.07748 13.3643C8.21878 13.3436 8.35314 13.2918 8.47253 13.2116L8.02659 12.5474ZM15.0196 11.3185C13.8335 11.3185 12.8696 12.2837 12.8696 13.4685H13.6696C13.6696 12.7253 14.2756 12.1185 15.0196 12.1185V11.3185ZM12.8696 13.4685C12.8696 14.6544 13.8336 15.6185 15.0196 15.6185V14.8185C14.2755 14.8185 13.6696 14.2126 13.6696 13.4685H12.8696ZM15.0196 15.6185C16.2055 15.6185 17.1696 14.6544 17.1696 13.4685H16.3696C16.3696 14.2126 15.7636 14.8185 15.0196 14.8185V15.6185ZM17.1696 13.4669C17.1646 12.2834 16.206 11.3234 15.0212 11.3185L15.0179 12.1185C15.7631 12.1216 16.3665 12.7256 16.3696 13.4702L17.1696 13.4669ZM15.0196 15.8185C13.7204 15.8185 12.6696 14.7685 12.6696 13.4685H11.8696C11.8696 15.2105 13.2787 16.6185 15.0196 16.6185V15.8185ZM12.6696 13.4685C12.6696 12.1694 13.7205 11.1185 15.0196 11.1185V10.3185C13.2786 10.3185 11.8696 11.7276 11.8696 13.4685H12.6696ZM15.0196 11.1185C16.3186 11.1185 17.3696 12.1694 17.3696 13.4685H18.1696C18.1696 11.7276 16.7605 10.3185 15.0196 10.3185V11.1185ZM17.3696 13.4685C17.3696 14.7685 16.3187 15.8185 15.0196 15.8185V16.6185C16.7604 16.6185 18.1696 15.2105 18.1696 13.4685H17.3696ZM12.0525 18.5699C10.5775 18.4479 9.27767 19.5266 9.12179 20.9963L9.91733 21.0807C10.0275 20.0424 10.9456 19.2811 11.9866 19.3672L12.0525 18.5699ZM9.11956 21.0385V26.1795H9.91956V21.0385H9.11956ZM9.1227 26.2295C9.21186 26.937 9.85337 27.4469 10.5648 27.3659L10.4743 26.5711C10.2018 26.6021 9.95126 26.406 9.91642 26.1295L9.1227 26.2295ZM10.5196 27.3685H19.5196V26.5685H10.5196V27.3685ZM19.4743 27.3659C20.1864 27.447 20.8259 26.9365 20.9163 26.2303L20.1228 26.1287C20.0872 26.4065 19.8367 26.602 19.5648 26.5711L19.4743 27.3659ZM20.9196 26.1795V21.0385H20.1196V26.1795H20.9196ZM20.9173 20.9963C20.7615 19.5266 19.4616 18.4479 17.9866 18.5699L18.0525 19.3672C19.0935 19.2811 20.0117 20.0424 20.1218 21.0807L20.9173 20.9963ZM18.0196 18.5685H12.0196V19.3685H18.0196V18.5685ZM19.5196 27.5685H10.5196V28.3685H19.5196V27.5685ZM10.4996 27.569C9.67464 27.6101 8.96777 26.9786 8.91886 26.1558L8.12027 26.2032C8.19535 27.4664 9.27848 28.4309 10.5395 28.368L10.4996 27.569ZM8.91956 26.1795V21.0385H8.11956V26.1795H8.91956ZM8.91855 21.067C9.03197 19.4782 10.4028 18.2729 11.9958 18.3678L12.0434 17.5692C10.0123 17.4482 8.26515 18.9848 8.12058 21.01L8.91855 21.067ZM12.0196 18.3685H18.0196V17.5685H12.0196V18.3685ZM18.0434 18.3678C19.6363 18.2729 21.0072 19.4782 21.1206 21.067L21.9185 21.01C21.774 18.9848 20.0268 17.4482 17.9958 17.5692L18.0434 18.3678ZM21.1196 21.0385V26.1795H21.9196V21.0385H21.1196ZM21.1203 26.1554C21.0705 26.9789 20.3641 27.6101 19.5395 27.569L19.4996 28.368C20.761 28.4309 21.8426 27.4662 21.9188 26.2036L21.1203 26.1554Z" fill="black" mask="url(#path-1-outside-1_0_3583)"/>
</svg>
