<svg width="17" height="17" viewBox="0 0 17 17" fill="none" xmlns="http://www.w3.org/2000/svg">
<path fill-rule="evenodd" clip-rule="evenodd" d="M17 8.5C17 13.1944 13.1944 17 8.5 17C3.80561 17 0 13.1944 0 8.5C0 3.80561 3.80561 0 8.5 0C13.1944 0 17 3.80561 17 8.5Z" fill="#ECB13A"/>
<path fill-rule="evenodd" clip-rule="evenodd" d="M16.3606 8.10244C16.3606 12.5498 12.7554 16.1551 8.308 16.1551C3.86073 16.1551 0.255371 12.5498 0.255371 8.10244C0.255371 3.65503 3.86073 0.0498047 8.308 0.0498047C12.7554 0.0498047 16.3606 3.65503 16.3606 8.10244Z" fill="#FFDE4F"/>
<path fill-rule="evenodd" clip-rule="evenodd" d="M13.0864 8.1321C13.4974 8.12889 13.8254 8.47684 13.789 8.88769C13.504 12.0061 11.2871 14.4418 8.56972 14.4715C5.8524 14.5014 3.58563 12.1121 3.23447 9.00046C3.18794 8.59283 3.50938 8.2349 3.92036 8.23152L13.0864 8.1321Z" fill="#645033"/>
<path fill-rule="evenodd" clip-rule="evenodd" d="M6.01116 5.44137C6.01116 6.07282 5.49934 6.58465 4.86788 6.58465C4.2366 6.58465 3.72461 6.07282 3.72461 5.44137C3.72461 4.80995 4.2366 4.2981 4.86788 4.2981C5.49934 4.2981 6.01116 4.80995 6.01116 5.44137Z" fill="#645033"/>
<path fill-rule="evenodd" clip-rule="evenodd" d="M13.3779 5.45455C13.3779 6.08584 12.866 6.59783 12.2346 6.59783C11.6031 6.59783 11.0913 6.08584 11.0913 5.45455C11.0913 4.8231 11.6031 4.31128 12.2346 4.31128C12.866 4.31128 13.3779 4.8231 13.3779 5.45455Z" fill="#645033"/>
<path fill-rule="evenodd" clip-rule="evenodd" d="M8.50647 8.91417L3.81738 8.96388C3.87368 9.53061 4.02619 10.0774 4.26475 10.5745L4.31446 10.6771L8.52642 10.6308L12.7382 10.5843L12.7847 10.4817C13.01 9.98119 13.1524 9.42782 13.1956 8.86108L8.50647 8.91417Z" fill="white"/>
<path fill-rule="evenodd" clip-rule="evenodd" d="M10.8098 12.4434C9.40141 11.4857 7.67162 11.5055 6.28318 12.4931L5.92188 12.7516L6.28978 13.0001C7.69816 13.9577 9.42795 13.938 10.8164 12.9504L11.1777 12.6919L10.8098 12.4434Z" fill="#EF4F43"/>
</svg>
