<svg width="15" height="23" viewBox="0 0 15 23" fill="none" xmlns="http://www.w3.org/2000/svg">
<path fill-rule="evenodd" clip-rule="evenodd" d="M7.5 19.5C3.359 19.5 0 16.141 0 12C0 11 1.5 11 1.5 12C1.5 15.312 4.188 18 7.5 18C10.812 18 13.5 15.312 13.5 12C13.5 11 15 11 15 12C15 13.988 14.211 15.898 12.805 17.305C11.398 18.711 9.488 19.5 7.5 19.5Z" fill="black"/>
<path fill-rule="evenodd" clip-rule="evenodd" d="M7.5 22.5C7.086 22.5 6.75 22.164 6.75 21.75V18.75C6.75 17.75 8.25 17.75 8.25 18.75V21.75C8.25 22.164 7.914 22.5 7.5 22.5ZM7.5 16.5C5.016 16.5 3 14.484 3 12V4.5C3 -1.5 12 -1.5 12 4.5V12C12 14.484 9.984 16.5 7.5 16.5ZM7.5 1.5C5.844 1.5 4.5 2.844 4.5 4.5V12C4.5 16 10.5 16 10.5 12V4.5C10.5 2.844 9.156 1.5 7.5 1.5Z" fill="black"/>
</svg>
