<svg width="32" height="24" viewBox="0 0 32 24" fill="none" xmlns="http://www.w3.org/2000/svg">
<mask id="mask0_0_958" style="mask-type:luminance" maskUnits="userSpaceOnUse" x="8" y="0" width="16" height="8">
<path fill-rule="evenodd" clip-rule="evenodd" d="M8.16772 0.727539H23.4658V7.09474H8.16772V0.727539Z" fill="white"/>
</mask>
<g mask="url(#mask0_0_958)">
<path fill-rule="evenodd" clip-rule="evenodd" d="M22.9209 7.08524C22.7194 7.08524 22.5347 6.97469 22.4409 6.79578L21.4104 4.86414C21.1253 4.3296 20.5689 3.99724 19.9638 4.00014H18.0002C17.1427 4.00014 16.3325 3.5936 15.8184 2.90633C15.3042 3.5936 14.4954 4.00014 13.6365 4.00014H11.6736C11.0693 4.00014 10.5144 4.33251 10.23 4.86633L9.19872 6.79869C9.05981 7.06851 8.72454 7.17323 8.45763 7.03142C8.18781 6.88669 8.08817 6.55142 8.23654 6.28451L9.26781 4.35214C9.74199 3.46342 10.6649 2.90924 11.6736 2.90924H13.6365C14.5405 2.90924 15.2729 2.17614 15.2729 1.27287C15.2729 0.545599 16.3638 0.545599 16.3638 1.27287C16.3638 2.17614 17.0969 2.90924 18.0002 2.90924H19.9638C20.9718 2.90924 21.8954 3.46342 22.3696 4.35214L23.4009 6.28451C23.5944 6.64814 23.3325 7.08524 22.9209 7.08524Z" fill="#6D4D42"/>
</g>
<path fill-rule="evenodd" clip-rule="evenodd" d="M7.56826 11.6872C6.45481 9.95191 6.96899 7.63919 8.7159 6.53955C9.83008 8.27555 9.3159 10.5883 7.56826 11.6872Z" fill="#42A047"/>
<path fill-rule="evenodd" clip-rule="evenodd" d="M9.21073 9.36646C9.74237 10.1963 10.5802 10.781 11.5431 10.9912C12.0006 8.98028 10.7307 6.98028 8.71619 6.53955C9.25364 7.3781 9.43255 8.39482 9.21073 9.36646Z" fill="#378E43"/>
<path fill-rule="evenodd" clip-rule="evenodd" d="M11.0658 8.19064C12.0287 8.40373 13.0345 8.22191 13.8636 7.69028C12.7647 5.94628 10.4549 5.42919 8.71594 6.54264C9.68758 6.75573 10.5341 7.34919 11.0658 8.19064Z" fill="#42A047"/>
<path fill-rule="evenodd" clip-rule="evenodd" d="M8.71604 6.53982C6.70513 6.08236 4.70513 7.35218 4.2644 9.36673C5.22513 9.58564 6.23313 9.41182 7.06586 8.88673C7.27895 7.91509 7.8724 7.06855 8.71313 6.53982H8.71604Z" fill="#378E43"/>
<path fill-rule="evenodd" clip-rule="evenodd" d="M8.716 6.53976C7.61709 4.79576 5.30727 4.27867 3.56836 5.39213C4.09418 6.22704 4.92909 6.81831 5.88981 7.03431C6.72763 6.49758 7.74436 6.31867 8.716 6.53976Z" fill="#42A047"/>
<path fill-rule="evenodd" clip-rule="evenodd" d="M14.0032 14.3296C13.617 16.0736 11.5545 17.6081 10.4236 19.1252C8.61413 21.5623 7.32104 23.5172 5.04613 23.0088C2.76467 22.5005 2.42649 20.1819 1.8214 17.2045C1.44613 15.355 0.233038 13.0852 0.622129 11.347C1.24467 8.54846 2.76758 7.07137 4.70213 6.53101C5.06577 6.76737 5.4694 6.93755 5.89267 7.03428C5.05995 7.56519 4.47449 8.40373 4.26722 9.36955C5.22795 9.59137 6.23886 9.41755 7.07158 8.88955C6.85849 9.85246 7.04031 10.8583 7.57413 11.6874C8.40686 11.1652 8.9974 10.3296 9.21631 9.36955C9.74431 10.1986 10.5829 10.7841 11.5458 10.9943C11.6083 10.7216 11.6396 10.443 11.6396 10.1652C11.6396 9.46628 11.4403 8.78119 11.0658 8.19064C11.489 8.28446 11.929 8.29828 12.3581 8.23864C13.8869 9.54846 14.6279 11.5397 14.0061 14.3325L14.0032 14.3296Z" fill="#E53A35"/>
<path fill-rule="evenodd" clip-rule="evenodd" d="M14.0032 14.3296C13.6171 16.0736 11.5545 17.6081 10.4236 19.1252C8.61414 21.5623 7.32105 23.5172 5.04614 23.0088L7.57123 11.6845C8.40396 11.1623 8.99451 10.3267 9.21342 9.36665C9.74214 10.1965 10.58 10.7812 11.5429 10.9914C11.6054 10.7187 11.6367 10.4401 11.6367 10.1623C11.6367 9.46338 11.4381 8.77829 11.0629 8.18774C11.4861 8.28156 11.9261 8.29538 12.3552 8.23574C13.884 9.54556 14.6251 11.5368 14.0032 14.3296Z" fill="#D32E2E"/>
<path fill-rule="evenodd" clip-rule="evenodd" d="M7.17941 15.804C7.17941 16.5087 6.12268 16.5087 6.12268 15.804C6.12268 15.1021 7.17941 15.1021 7.17941 15.804Z" fill="#EDEFF0"/>
<path fill-rule="evenodd" clip-rule="evenodd" d="M6.71886 17.863C6.71886 18.5655 5.66504 18.5655 5.66504 17.863C5.66504 17.159 6.71886 17.159 6.71886 17.863Z" fill="#EDEFF0"/>
<path fill-rule="evenodd" clip-rule="evenodd" d="M6.25865 19.9205C6.25865 20.6253 5.20483 20.6253 5.20483 19.9205C5.20483 19.2187 6.25865 19.2187 6.25865 19.9205Z" fill="#EDEFF0"/>
<path fill-rule="evenodd" clip-rule="evenodd" d="M8.54867 19.3523C8.54867 20.0541 7.49194 20.0541 7.49194 19.3523C7.49194 18.6475 8.54867 18.6475 8.54867 19.3523Z" fill="#EDEFF0"/>
<path fill-rule="evenodd" clip-rule="evenodd" d="M9.00609 17.2927C9.00609 17.9974 7.95227 17.9974 7.95227 17.2927C7.95227 16.5901 9.00609 16.5901 9.00609 17.2927Z" fill="#EDEFF0"/>
<path fill-rule="evenodd" clip-rule="evenodd" d="M9.46665 15.2358C9.46665 15.9376 8.41211 15.9376 8.41211 15.2358C8.41211 14.5311 9.46665 14.5311 9.46665 15.2358Z" fill="#EDEFF0"/>
<path fill-rule="evenodd" clip-rule="evenodd" d="M9.92623 13.1761C9.92623 13.8809 8.86951 13.8809 8.86951 13.1761C8.86951 12.4714 9.92623 12.4714 9.92623 13.1761Z" fill="#EDEFF0"/>
<path fill-rule="evenodd" clip-rule="evenodd" d="M7.63683 13.7472C7.63683 14.449 6.58301 14.449 6.58301 13.7472C6.58301 13.0424 7.63683 13.0424 7.63683 13.7472Z" fill="#EDEFF0"/>
<path fill-rule="evenodd" clip-rule="evenodd" d="M11.7533 14.6648C11.7533 15.3666 10.6995 15.3666 10.6995 14.6648C10.6995 13.96 11.7533 13.96 11.7533 14.6648Z" fill="#EDEFF0"/>
<path fill-rule="evenodd" clip-rule="evenodd" d="M12.2135 12.6052C12.2135 13.3099 11.1597 13.3099 11.1597 12.6052C11.1597 11.9034 12.2135 11.9034 12.2135 12.6052Z" fill="#EDEFF0"/>
<path fill-rule="evenodd" clip-rule="evenodd" d="M4.42943 18.4347C4.42943 19.1358 3.37561 19.1358 3.37561 18.4347C3.37561 17.7299 4.42943 17.7299 4.42943 18.4347Z" fill="#EDEFF0"/>
<path fill-rule="evenodd" clip-rule="evenodd" d="M4.88999 16.3751C4.88999 17.0769 3.83545 17.0769 3.83545 16.3751C3.83545 15.6704 4.88999 15.6704 4.88999 16.3751Z" fill="#EDEFF0"/>
<path fill-rule="evenodd" clip-rule="evenodd" d="M5.34957 14.3153C5.34957 15.02 4.29285 15.02 4.29285 14.3153C4.29285 13.6135 5.34957 13.6135 5.34957 14.3153Z" fill="#EDEFF0"/>
<path fill-rule="evenodd" clip-rule="evenodd" d="M5.80687 12.2582C5.80687 12.96 4.75305 12.96 4.75305 12.2582C4.75305 11.5542 5.80687 11.5542 5.80687 12.2582Z" fill="#EDEFF0"/>
<path fill-rule="evenodd" clip-rule="evenodd" d="M3.52037 12.827C3.52037 13.531 2.46655 13.531 2.46655 12.827C2.46655 12.1252 3.52037 12.1252 3.52037 12.827Z" fill="#EDEFF0"/>
<path fill-rule="evenodd" clip-rule="evenodd" d="M3.97813 10.7702C3.97813 11.4713 2.92432 11.4713 2.92432 10.7702C2.92432 10.0655 3.97813 10.0655 3.97813 10.7702Z" fill="#EDEFF0"/>
<path fill-rule="evenodd" clip-rule="evenodd" d="M24.0687 11.6872C25.1821 9.95191 24.668 7.63919 22.921 6.53955C21.8076 8.27555 22.3218 10.5883 24.0687 11.6872Z" fill="#42A047"/>
<path fill-rule="evenodd" clip-rule="evenodd" d="M22.4266 9.36646C21.8957 10.1963 21.0572 10.781 20.0943 10.9912C19.6368 8.98028 20.9066 6.98028 22.9212 6.53955C22.3837 7.3781 22.2048 8.39482 22.4266 9.36646Z" fill="#378E43"/>
<path fill-rule="evenodd" clip-rule="evenodd" d="M20.5715 8.19064C19.6086 8.40373 18.6028 8.22191 17.7737 7.69028C18.8726 5.94628 21.1824 5.42919 22.9206 6.54264C21.9497 6.75573 21.1024 7.34919 20.5715 8.19064Z" fill="#42A047"/>
<path fill-rule="evenodd" clip-rule="evenodd" d="M22.9209 6.53982C24.9325 6.08236 26.9325 7.35218 27.3725 9.36673C26.4125 9.58564 25.4038 9.41182 24.5718 8.88673C24.3587 7.91509 23.7645 7.06855 22.9238 6.53982H22.9209Z" fill="#378E43"/>
<path fill-rule="evenodd" clip-rule="evenodd" d="M22.9209 6.53976C24.0205 4.79576 26.3296 4.27867 28.0685 5.39213C27.5427 6.22704 26.7078 6.81831 25.7478 7.03431C24.9093 6.49758 23.8925 6.31867 22.9209 6.53976Z" fill="#42A047"/>
<path fill-rule="evenodd" clip-rule="evenodd" d="M17.6339 14.3296C18.0201 16.0736 20.0827 17.6081 21.2136 19.1252C23.023 21.5623 24.3161 23.5172 26.5903 23.0088C28.8725 22.5005 29.2107 20.1819 29.8158 17.2045C30.191 15.355 31.4041 13.0852 31.0143 11.347C30.3925 8.54846 28.8696 7.07137 26.935 6.53101C26.5714 6.76737 26.1678 6.93755 25.7445 7.03428C26.5772 7.56519 27.1627 8.40373 27.3699 9.36955C26.4085 9.59137 25.3983 9.41755 24.5656 8.88955C24.7787 9.85246 24.5969 10.8583 24.063 11.6874C23.2303 11.1652 22.6398 10.3296 22.4209 9.36955C21.8921 10.1986 21.0543 10.7841 20.0914 10.9943C20.0289 10.7216 19.9976 10.443 19.9976 10.1652C19.9976 9.46628 20.1961 8.78119 20.5714 8.19064C20.1481 8.28446 19.7081 8.29828 19.279 8.23864C17.7503 9.54846 17.0092 11.5397 17.631 14.3325L17.6339 14.3296Z" fill="#E53A35"/>
<path fill-rule="evenodd" clip-rule="evenodd" d="M17.634 14.3296C18.0202 16.0736 20.0827 17.6081 21.2136 19.1252C23.0231 21.5623 24.3162 23.5172 26.5903 23.0088L24.066 11.6845C23.2332 11.1623 22.6427 10.3267 22.4238 9.36665C21.8951 10.1965 21.0572 10.7812 20.0943 10.9914C20.0318 10.7187 20.0005 10.4401 20.0005 10.1623C20.0005 9.46338 20.1991 8.77829 20.5743 8.18774C20.1511 8.28156 19.7103 8.29538 19.282 8.23574C17.7532 9.54556 17.0122 11.5368 17.634 14.3296Z" fill="#D32E2E"/>
<path fill-rule="evenodd" clip-rule="evenodd" d="M25.5147 15.804C25.5147 16.5087 24.458 16.5087 24.458 15.804C24.458 15.1021 25.5147 15.1021 25.5147 15.804Z" fill="#EDEFF0"/>
<path fill-rule="evenodd" clip-rule="evenodd" d="M25.972 17.863C25.972 18.5655 24.9182 18.5655 24.9182 17.863C24.9182 17.159 25.972 17.159 25.972 17.863Z" fill="#EDEFF0"/>
<path fill-rule="evenodd" clip-rule="evenodd" d="M26.4322 19.9205C26.4322 20.6253 25.3784 20.6253 25.3784 19.9205C25.3784 19.2187 26.4322 19.2187 26.4322 19.9205Z" fill="#EDEFF0"/>
<path fill-rule="evenodd" clip-rule="evenodd" d="M24.1454 19.3523C24.1454 20.0541 23.0886 20.0541 23.0886 19.3523C23.0886 18.6475 24.1454 18.6475 24.1454 19.3523Z" fill="#EDEFF0"/>
<path fill-rule="evenodd" clip-rule="evenodd" d="M23.685 17.2927C23.685 17.9974 22.6312 17.9974 22.6312 17.2927C22.6312 16.5901 23.685 16.5901 23.685 17.2927Z" fill="#EDEFF0"/>
<path fill-rule="evenodd" clip-rule="evenodd" d="M23.2248 15.2358C23.2248 15.9376 22.171 15.9376 22.171 15.2358C22.171 14.5311 23.2248 14.5311 23.2248 15.2358Z" fill="#EDEFF0"/>
<path fill-rule="evenodd" clip-rule="evenodd" d="M22.7675 13.1761C22.7675 13.8809 21.7108 13.8809 21.7108 13.1761C21.7108 12.4714 22.7675 12.4714 22.7675 13.1761Z" fill="#EDEFF0"/>
<path fill-rule="evenodd" clip-rule="evenodd" d="M25.0544 13.7472C25.0544 14.449 24.0006 14.449 24.0006 13.7472C24.0006 13.0424 25.0544 13.0424 25.0544 13.7472Z" fill="#EDEFF0"/>
<path fill-rule="evenodd" clip-rule="evenodd" d="M20.938 14.6648C20.938 15.3666 19.8842 15.3666 19.8842 14.6648C19.8842 13.96 20.938 13.96 20.938 14.6648Z" fill="#EDEFF0"/>
<path fill-rule="evenodd" clip-rule="evenodd" d="M20.4778 12.6052C20.4778 13.3099 19.424 13.3099 19.424 12.6052C19.424 11.9034 20.4778 11.9034 20.4778 12.6052Z" fill="#EDEFF0"/>
<path fill-rule="evenodd" clip-rule="evenodd" d="M28.2618 18.4347C28.2618 19.1358 27.208 19.1358 27.208 18.4347C27.208 17.7299 28.2618 17.7299 28.2618 18.4347Z" fill="#EDEFF0"/>
<path fill-rule="evenodd" clip-rule="evenodd" d="M27.8016 16.3751C27.8016 17.0769 26.7478 17.0769 26.7478 16.3751C26.7478 15.6704 27.8016 15.6704 27.8016 16.3751Z" fill="#EDEFF0"/>
<path fill-rule="evenodd" clip-rule="evenodd" d="M27.3442 14.3153C27.3442 15.02 26.2875 15.02 26.2875 14.3153C26.2875 13.6135 27.3442 13.6135 27.3442 14.3153Z" fill="#EDEFF0"/>
<path fill-rule="evenodd" clip-rule="evenodd" d="M26.884 12.2582C26.884 12.96 25.8302 12.96 25.8302 12.2582C25.8302 11.5542 26.884 11.5542 26.884 12.2582Z" fill="#EDEFF0"/>
<path fill-rule="evenodd" clip-rule="evenodd" d="M29.1709 12.827C29.1709 13.531 28.1171 13.531 28.1171 12.827C28.1171 12.1252 29.1709 12.1252 29.1709 12.827Z" fill="#EDEFF0"/>
<path fill-rule="evenodd" clip-rule="evenodd" d="M28.7135 10.7702C28.7135 11.4713 27.6597 11.4713 27.6597 10.7702C27.6597 10.0655 28.7135 10.0655 28.7135 10.7702Z" fill="#EDEFF0"/>
</svg>
