<svg width="23" height="23" viewBox="0 0 23 23" fill="none" xmlns="http://www.w3.org/2000/svg">
<path fill-rule="evenodd" clip-rule="evenodd" d="M8.80872 10.6827C8.35447 10.2331 7.62767 10.2331 7.17342 10.6827C6.72377 11.137 6.72377 11.8638 7.17342 12.318L10.6234 15.768C10.8431 15.9831 11.1352 16.1004 11.4411 16.1004C11.7596 16.0912 12.0609 15.9474 12.2679 15.7094L20.3179 6.50935C20.7043 6.02865 20.6457 5.3329 20.1834 4.9235C19.7199 4.51985 19.0196 4.5463 18.5929 4.99135L11.4411 13.2702L8.80872 10.6827Z" fill="#45BC1B"/>
<path fill-rule="evenodd" clip-rule="evenodd" d="M21.791 10.35C21.1574 10.35 20.641 10.8664 20.641 11.5C20.641 16.5807 16.5217 20.7 11.441 20.7C7.72653 20.7 4.37428 18.4633 2.95058 15.0305C1.52228 11.5989 2.29968 7.6498 4.91823 5.01285C6.64323 3.2706 8.99268 2.2908 11.441 2.3C12.1782 2.3046 12.9096 2.3897 13.6237 2.55185C14.0331 2.6772 14.4828 2.5691 14.7829 2.26435C15.0842 1.96305 15.1923 1.5134 15.0612 1.10515C14.9313 0.70035 14.5897 0.3956 14.1677 0.32315C13.2741 0.1127 12.3576 0.0046 11.441 0C6.79618 0.023 2.61823 2.84395 0.85758 7.14265C-0.90307 11.4413 0.0985801 16.3783 3.39103 19.6535C5.52428 21.7913 8.42228 22.9908 11.441 23C17.7925 23 22.941 17.8514 22.941 11.5C22.941 10.8664 22.4247 10.35 21.791 10.35Z" fill="#45BC1B"/>
</svg>
