<svg width="24" height="24" viewBox="0 0 24 24" fill="none" xmlns="http://www.w3.org/2000/svg">
<path d="M8.93197 10.5081H7.93197C7.93197 11.0604 8.37968 11.5081 8.93197 11.5081V10.5081ZM14.8338 10.5081V11.5081C15.3861 11.5081 15.8338 11.0604 15.8338 10.5081H14.8338ZM14.8338 4.83289H15.8338C15.8338 4.2806 15.3861 3.83289 14.8338 3.83289V4.83289ZM8.93197 4.83289V3.83289C8.37968 3.83289 7.93197 4.2806 7.93197 4.83289H8.93197ZM6.70001 4.83289L6.2455 5.72363C6.38656 5.7956 6.54269 5.83305 6.70105 5.83289L6.70001 4.83289ZM6.2217 4.54274L6.80252 3.72868L6.79656 3.72449L6.2217 4.54274ZM5.36834 0.957784L4.5532 0.378521L4.55218 0.37996L5.36834 0.957784ZM9.03352 0.560973L8.45651 1.37771L8.45685 1.37795L9.03352 0.560973ZM11.6154 4.82777L11.6164 5.82777C11.9456 5.82742 12.2536 5.66503 12.4399 5.39355C12.6262 5.12207 12.6669 4.77629 12.5488 4.46896L11.6154 4.82777ZM9.3834 22.3267H8.3834C8.3834 22.879 8.83111 23.3267 9.3834 23.3267V22.3267ZM14.3773 22.3267V23.3267C14.9295 23.3267 15.3773 22.879 15.3773 22.3267H14.3773ZM14.3773 10.5081H15.3773C15.3773 9.95586 14.9295 9.50815 14.3773 9.50815V10.5081ZM9.3834 10.5081V9.50815C8.83111 9.50815 8.3834 9.95586 8.3834 10.5081H9.3834ZM1.93827 10.5081V9.50815C1.38598 9.50815 0.938268 9.95586 0.938268 10.5081H1.93827ZM21.8258 10.5081H22.8258C22.8258 9.95586 22.3781 9.50815 21.8258 9.50815V10.5081ZM17.0606 4.83289L17.0596 5.83289C17.218 5.83305 17.3741 5.79561 17.5151 5.72363L17.0606 4.83289ZM17.5424 4.54274L16.9679 3.72421L16.9659 3.72565L17.5424 4.54274ZM18.3957 0.957784L19.2131 0.381648L19.2125 0.38084L18.3957 0.957784ZM14.7352 0.560973L15.3136 1.37674L15.3138 1.37659L14.7352 0.560973ZM12.1538 4.82777L11.2195 4.47125C11.1023 4.77846 11.1436 5.12366 11.33 5.39456C11.5163 5.66546 11.824 5.82742 12.1528 5.82777L12.1538 4.82777ZM8.93197 11.5081H14.8338V9.50815H8.93197V11.5081ZM15.8338 10.5081V4.83289H13.8338V10.5081H15.8338ZM14.8338 3.83289H8.93197V5.83289H14.8338V3.83289ZM7.93197 4.83289V10.5081H9.93197V4.83289H7.93197ZM2.28004 5.83289H21.4806V3.83289H2.28004V5.83289ZM21.4806 5.83289C21.6349 5.83289 21.7606 5.95863 21.7606 6.11292H23.7606C23.7606 4.85406 22.7395 3.83289 21.4806 3.83289V5.83289ZM21.7606 6.11292V9.22811H23.7606V6.11292H21.7606ZM21.7606 9.22811C21.7606 9.38241 21.6349 9.50815 21.4806 9.50815V11.5081C22.7395 11.5081 23.7606 10.487 23.7606 9.22811H21.7606ZM21.4806 9.50815H2.28004V11.5081H21.4806V9.50815ZM2.28004 9.50815C2.12574 9.50815 2 9.38241 2 9.22811H0C0 10.487 1.02117 11.5081 2.28004 11.5081V9.50815ZM2 9.22811V6.11292H0V9.22811H2ZM2 6.11292C2 5.95863 2.12574 5.83289 2.28004 5.83289V3.83289C1.02117 3.83289 0 4.85406 0 6.11292H2ZM7.15452 3.94214C7.03116 3.8792 6.91345 3.80786 6.80251 3.7287L5.6409 5.35679C5.83375 5.49438 6.03605 5.61676 6.2455 5.72363L7.15452 3.94214ZM6.79656 3.72449C5.90336 3.09699 5.79157 2.09062 6.1845 1.53561L4.55218 0.37996C3.38518 2.02832 4.04994 4.23911 5.64685 5.361L6.79656 3.72449ZM6.18348 1.53705C6.58191 0.97638 7.56071 0.74484 8.45651 1.37771L9.61053 -0.255763C8.00599 -1.38935 5.71813 -1.26077 4.5532 0.378522L6.18348 1.53705ZM8.45685 1.37795C9.41477 2.05411 9.9536 3.29182 10.6819 5.18657L12.5488 4.46896C11.8767 2.72073 11.156 0.835143 9.61019 -0.256003L8.45685 1.37795ZM11.6143 3.82777L6.69897 3.83289L6.70105 5.83289L11.6164 5.82777L11.6143 3.82777ZM9.3834 23.3267H14.3773V21.3267H9.3834V23.3267ZM15.3773 22.3267V10.5081H13.3773V22.3267H15.3773ZM14.3773 9.50815H9.3834V11.5081H14.3773V9.50815ZM8.3834 10.5081V22.3267H10.3834V10.5081H8.3834ZM1.93827 11.5081H21.8258V9.50815H1.93827V11.5081ZM20.8258 10.5081V20.62H22.8258V10.5081H20.8258ZM20.8258 20.62C20.8258 21.0101 20.5095 21.3267 20.1191 21.3267V23.3267C21.6154 23.3267 22.8258 22.1133 22.8258 20.62H20.8258ZM20.1191 21.3267H3.64499V23.3267H20.1191V21.3267ZM3.64499 21.3267C3.25559 21.3267 2.93827 21.0094 2.93827 20.62H0.938268C0.938268 22.114 2.15102 23.3267 3.64499 23.3267V21.3267ZM2.93827 20.62V10.5081H0.938268V20.62H2.93827ZM17.5151 5.72363C17.7219 5.61811 17.9246 5.49688 18.1189 5.35984L16.9659 3.72565C16.8529 3.80536 16.7321 3.87784 16.6061 3.94214L17.5151 5.72363ZM18.1168 5.36128C19.7182 4.23742 20.3729 2.02714 19.2131 0.381648L17.5784 1.53392C17.9716 2.0918 17.8592 3.09869 16.9679 3.72421L18.1168 5.36128ZM19.2125 0.38084C18.0521 -1.26196 15.7561 -1.38931 14.1566 -0.254645L15.3138 1.37659C16.2044 0.7448 17.1854 0.977568 17.5789 1.53473L19.2125 0.38084ZM14.1569 -0.254794C12.6188 0.835698 11.8893 2.71599 11.2195 4.47125L13.0881 5.18428C13.8085 3.29655 14.359 2.05355 15.3136 1.37674L14.1569 -0.254794ZM12.1528 5.82777L17.0596 5.83289L17.0617 3.83289L12.1549 3.82777L12.1528 5.82777Z" fill="#1D1D1B"/>
</svg>
