<svg width="130" height="130" viewBox="0 0 130 130" fill="none" xmlns="http://www.w3.org/2000/svg">
<path fill-rule="evenodd" clip-rule="evenodd" d="M130 65C130 100.907 100.907 130 65 130C29.0929 130 0 100.907 0 65C0 29.0929 29.0929 0 65 0C100.907 0 130 29.0929 130 65" fill="#0096FF"/>
<path fill-rule="evenodd" clip-rule="evenodd" d="M78.6684 128.476C79.9142 128.222 81.1655 127.945 82.3897 127.631C84.4859 127.057 86.5388 126.358 88.5484 125.578C90.5797 124.793 92.5513 123.905 94.4742 122.935C96.4188 121.938 98.3038 120.86 100.124 119.696C101.944 118.531 103.699 117.264 105.41 115.91C107.106 114.577 108.736 113.136 110.28 111.614C111.845 110.108 113.324 108.521 114.722 106.875C116.119 105.223 117.43 103.489 118.638 101.691C119.862 99.9142 121.005 98.0726 122.045 96.1659C123.08 94.2647 124.033 92.3147 124.878 90.3267C125.728 88.3172 126.465 86.2859 127.099 84.2113C127.651 82.3913 128.117 80.5713 128.518 78.708L89.8809 40.0926C83.2997 33.4734 74.3513 29.7684 65.0184 29.7684C55.6638 29.7467 46.6992 33.4734 40.0909 40.0926C33.4988 46.6955 29.7722 55.6438 29.7722 64.9984C29.7722 74.3313 33.4988 83.3013 40.0909 89.9042L78.6684 128.455V128.476Z" fill="black" fill-opacity="0.2"/>
<path fill-rule="evenodd" clip-rule="evenodd" d="M81.0382 54.1667C80.5291 54.21 80.0416 54.3996 79.6191 54.7192L59.8374 69.5717L50.6724 60.385C48.6845 58.3375 44.7736 62.2267 46.8428 64.2146L57.6761 75.0479C58.6295 75.9796 60.1136 76.0879 61.2132 75.3025L82.8799 59.0525C84.6999 57.7417 83.5786 54.21 81.3145 54.1667H81.0382ZM64.9995 29.77C74.0128 29.77 83.0045 33.2204 89.9053 40.0942C96.5028 46.6971 100.229 55.6454 100.229 65C100.229 74.3546 96.5028 83.3029 89.9053 89.9059C83.3024 96.5034 74.3541 100.23 64.9995 100.23C55.6449 100.23 46.6966 96.5034 40.0936 89.9059C33.4961 83.3029 29.7695 74.3546 29.7695 65C29.7695 55.6454 33.4961 46.6971 40.0936 40.0942C46.6966 33.475 55.6666 29.77 64.9995 29.77V29.77Z" fill="white"/>
</svg>
