<svg width="128" height="128" viewBox="0 0 128 128" fill="none" xmlns="http://www.w3.org/2000/svg">
<path fill-rule="evenodd" clip-rule="evenodd" d="M128 64C128 99.344 99.344 128 64 128C28.656 128 0 99.344 0 64C0 28.656 28.656 0 64 0C99.344 0 128 28.656 128 64Z" fill="#04CA83"/>
<path fill-rule="evenodd" clip-rule="evenodd" d="M92 90C92 94.416 88.416 98 84 98H44C39.584 98 36 94.416 36 90V50C36 45.584 39.584 42 44 42H84C88.416 42 92 45.584 92 50V90Z" fill="#231F20" fill-opacity="0.4"/>
<path fill-rule="evenodd" clip-rule="evenodd" d="M44 90C41.792 90 40 88.208 40 86V46C40 43.792 41.792 42 44 42H84C86.208 42 88 43.792 88 46V86C88 88.208 86.208 90 84 90H44Z" fill="white"/>
<path fill-rule="evenodd" clip-rule="evenodd" d="M44 86H84V46H44V86ZM84 38H44C39.584 38 36 41.584 36 46V86C36 90.416 39.584 94 44 94H84C88.416 94 92 90.416 92 86V46C92 41.584 88.416 38 84 38Z" fill="#4F5D73"/>
<path fill-rule="evenodd" clip-rule="evenodd" d="M64.9064 82C63.6557 82 62.4904 81.416 61.7277 80.4267L49.4904 64.4267C46.3944 60.208 52.5837 55.48 55.8424 59.5733L64.2184 70.52C68.845 62.208 78.8744 46.9573 94.8317 36.6453C96.6877 35.4053 99.2077 35.928 100.416 37.8027C101.626 39.6773 101.074 42.176 99.1784 43.3653C78.7597 56.552 68.677 79.376 68.5837 79.5947C67.949 81.0613 66.5037 82 64.9064 82Z" fill="#231F20" fill-opacity="0.4"/>
<path fill-rule="evenodd" clip-rule="evenodd" d="M64.9059 78C63.6552 78 62.4899 77.416 61.7272 76.4267L49.4899 60.4267C46.2499 56.1867 52.6046 51.3333 55.8419 55.5627L64.2179 66.5093C68.8312 58.1973 78.8632 42.9467 94.8312 32.6347C96.6872 31.4373 99.1699 31.968 100.365 33.824C101.562 35.6773 101.031 38.1573 99.1779 39.3547C78.7592 52.5413 68.6766 75.3653 68.5726 75.584C67.9379 77.0533 66.5032 78 64.9059 78Z" fill="#C75C5C"/>
</svg>
